<?xml version="1.0" encoding="UTF-8"?>
<svg width="3840" height="3840" version="1.1" viewBox="0 0 1016 1016" xml:space="preserve" xmlns="http://www.w3.org/2000/svg"><g fill="#55be59" stroke-linecap="round"><g stroke="#d5efd5"><path d="m-304.8 711.2 1016-1016" stroke-dasharray="67.7333, 541.866" stroke-dashoffset="406.4" stroke-width="67.733"/><path d="m-101.6 914.4 1016-1016" stroke-dasharray="67.73332977,541.86663818" stroke-width="67.733"/><path d="m101.6 1117.6 1016-1016" stroke-dasharray="67.7333, 541.867" stroke-width="67.733"/><path d="m304.8 1320.8 1016-1016" stroke-dasharray="67.7333, 541.866" stroke-dashoffset="406.4" stroke-width="67.733"/></g><g stroke="#808080"><path d="m-304.8 711.2 1016-1016" stroke-dasharray="67.7333, 541.866" stroke-dashoffset="203.2" stroke-width="67.733"/><path d="m-101.6 914.4 1016-1016" stroke-dasharray="67.73332977,541.86663818" stroke-dashoffset="203.2" stroke-width="67.733"/><path d="m101.6 1117.6 1016-1016" stroke-dasharray="67.7333, 541.866" stroke-dashoffset="406.4" stroke-width="67.733"/><path d="m304.8 1320.8 1016-1016" stroke-dasharray="67.7333, 541.866" stroke-dashoffset="203.2" stroke-width="67.733"/></g></g><g fill="#55be59" stroke="#fff" stroke-linecap="round"><path d="m-304.8 711.2 1016-1016" stroke-dasharray="67.7333, 541.866" stroke-width="67.733"/><path d="m-101.6 914.4 1016-1016" stroke-dasharray="67.73332977,541.86663818" stroke-dashoffset="406.4" stroke-width="67.733"/><path d="m101.6 1117.6 1016-1016" stroke-dasharray="67.7333, 541.866" stroke-dashoffset="203.2" stroke-width="67.733"/><path d="m304.8 1320.8 1016-1016" stroke-dasharray="67.7333, 541.866" stroke-width="67.733"/></g><g><path d="m381.39 129.12c-35.383-2.5274-61.92 21.483-70.766 51.811l-17.692 65.711h2.5274c262.85 0 475.14 213.56 475.14 475.14v2.5274l65.711-17.692c30.328-8.8458 53.075-36.647 50.547-70.766-18.955-271.69-235.04-487.78-505.47-506.74zm341.19 607.83v-15.164c0-236.31-190.82-427.12-427.12-427.12h-15.164l-150.38 562.34c-2.5274 8.8458 0 17.692 6.3184 24.01 6.3184 5.0547 13.9 7.5821 22.746 5.0547zm-332.35-299.49c26.537 0 48.02 20.219 48.02 46.756 0 25.274-21.483 48.02-48.02 48.02-25.274 0-48.02-22.746-48.02-48.02 0-26.537 22.746-46.756 48.02-46.756zm94.776 189.55c0-26.537 21.483-48.02 48.02-48.02 25.274 0 48.02 21.483 48.02 48.02 0 25.274-22.746 46.756-48.02 46.756-26.537 0-48.02-21.483-48.02-46.756zm-212.3 70.766c0-25.274 20.219-48.02 46.756-48.02 25.274 0 46.756 22.746 46.756 48.02 0 26.537-21.483 48.02-46.756 48.02-26.537 0-46.756-21.483-46.756-48.02z" fill="#55be59" stroke-width="0" aria-label=""/></g></svg>
