<?xml version="1.0" encoding="UTF-8"?>
<svg width="3840" height="3840" version="1.1" viewBox="0 0 1016 1016" xml:space="preserve" xmlns="http://www.w3.org/2000/svg"><g fill="#55be59" stroke-linecap="round"><g stroke="#d5efd5"><path d="m-304.8 711.2 1016-1016" stroke-dasharray="67.7333, 541.866" stroke-dashoffset="406.4" stroke-width="67.733"/><path d="m-101.6 914.4 1016-1016" stroke-dasharray="67.73332977,541.86663818" stroke-width="67.733"/><path d="m101.6 1117.6 1016-1016" stroke-dasharray="67.7333, 541.867" stroke-width="67.733"/><path d="m304.8 1320.8 1016-1016" stroke-dasharray="67.7333, 541.866" stroke-dashoffset="406.4" stroke-width="67.733"/></g><g stroke="#808080"><path d="m-304.8 711.2 1016-1016" stroke-dasharray="67.7333, 541.866" stroke-dashoffset="203.2" stroke-width="67.733"/><path d="m-101.6 914.4 1016-1016" stroke-dasharray="67.73332977,541.86663818" stroke-dashoffset="203.2" stroke-width="67.733"/><path d="m101.6 1117.6 1016-1016" stroke-dasharray="67.7333, 541.866" stroke-dashoffset="406.4" stroke-width="67.733"/><path d="m304.8 1320.8 1016-1016" stroke-dasharray="67.7333, 541.866" stroke-dashoffset="203.2" stroke-width="67.733"/></g></g><g fill="#55be59" stroke="#fff" stroke-linecap="round"><path d="m-304.8 711.2 1016-1016" stroke-dasharray="67.7333, 541.866" stroke-width="67.733"/><path d="m-101.6 914.4 1016-1016" stroke-dasharray="67.73332977,541.86663818" stroke-dashoffset="406.4" stroke-width="67.733"/><path d="m101.6 1117.6 1016-1016" stroke-dasharray="67.7333, 541.866" stroke-dashoffset="203.2" stroke-width="67.733"/><path d="m304.8 1320.8 1016-1016" stroke-dasharray="67.7333, 541.866" stroke-width="67.733"/></g><g><path d="m423.16 254.12c-23.709-1.6935-41.492 14.395-47.419 34.717l-11.855 44.032h1.6935c176.13 0 318.38 143.1 318.38 318.38v1.6935l44.032-11.855c20.322-5.9274 35.564-24.556 33.871-47.419-12.701-182.05-157.5-326.85-338.71-339.55zm228.63 407.29v-10.161c0-158.35-127.86-286.21-286.21-286.21h-10.161l-100.77 376.81c-1.6935 5.9274 0 11.855 4.2338 16.089 4.2338 3.3871 9.3144 5.0806 15.242 3.3871zm-222.7-200.68c17.782 0 32.177 13.548 32.177 31.33 0 16.935-14.395 32.177-32.177 32.177-16.935 0-32.177-15.242-32.177-32.177 0-17.782 15.242-31.33 32.177-31.33zm63.507 127.01c0-17.782 14.395-32.177 32.177-32.177 16.935 0 32.177 14.395 32.177 32.177 0 16.935-15.242 31.33-32.177 31.33-17.782 0-32.177-14.395-32.177-31.33zm-142.26 47.419c0-16.935 13.548-32.177 31.33-32.177 16.935 0 31.33 15.242 31.33 32.177 0 17.782-14.395 32.177-31.33 32.177-17.782 0-31.33-14.395-31.33-32.177z" fill="#55be59" stroke-width="0" aria-label=""/></g></svg>
