<?xml version="1.0" encoding="UTF-8"?>
<svg width="3840" height="3840" version="1.1" viewBox="0 0 1016 1016" xml:space="preserve" xmlns="http://www.w3.org/2000/svg"><g fill="#55be59" stroke-linecap="round"><g stroke="#d5efd5"><path d="m-304.8 711.2 1016-1016" stroke-dasharray="67.7333, 541.866" stroke-dashoffset="406.4" stroke-width="67.733"/><path d="m-101.6 914.4 1016-1016" stroke-dasharray="67.73332977,541.86663818" stroke-width="67.733"/><path d="m101.6 1117.6 1016-1016" stroke-dasharray="67.7333, 541.867" stroke-width="67.733"/><path d="m304.8 1320.8 1016-1016" stroke-dasharray="67.7333, 541.866" stroke-dashoffset="406.4" stroke-width="67.733"/></g><g stroke="#808080"><path d="m-304.8 711.2 1016-1016" stroke-dasharray="67.7333, 541.866" stroke-dashoffset="203.2" stroke-width="67.733"/><path d="m-101.6 914.4 1016-1016" stroke-dasharray="67.73332977,541.86663818" stroke-dashoffset="203.2" stroke-width="67.733"/><path d="m101.6 1117.6 1016-1016" stroke-dasharray="67.7333, 541.866" stroke-dashoffset="406.4" stroke-width="67.733"/><path d="m304.8 1320.8 1016-1016" stroke-dasharray="67.7333, 541.866" stroke-dashoffset="203.2" stroke-width="67.733"/></g></g><g fill="#55be59" stroke="#fff" stroke-linecap="round"><path d="m-304.8 711.2 1016-1016" stroke-dasharray="67.7333, 541.866" stroke-width="67.733"/><path d="m-101.6 914.4 1016-1016" stroke-dasharray="67.73332977,541.86663818" stroke-dashoffset="406.4" stroke-width="67.733"/><path d="m101.6 1117.6 1016-1016" stroke-dasharray="67.7333, 541.866" stroke-dashoffset="203.2" stroke-width="67.733"/><path d="m304.8 1320.8 1016-1016" stroke-dasharray="67.7333, 541.866" stroke-width="67.733"/></g><g><path d="m424.03 256.77c-23.463-1.676-41.061 14.246-46.927 34.357l-11.732 43.575h1.676c174.3 0 315.08 141.62 315.08 315.08v1.676l43.575-11.732c20.112-5.8659 35.195-24.301 33.519-46.927-12.57-180.17-155.86-323.46-335.19-336.03zm226.26 403.07v-10.056c0-156.7-126.54-283.24-283.24-283.24h-10.056l-99.72 372.9c-1.676 5.8659 0 11.732 4.1899 15.922 4.1899 3.3519 9.2178 5.0279 15.084 3.3519zm-220.39-198.6c17.598 0 31.843 13.408 31.843 31.005 0 16.76-14.246 31.843-31.843 31.843-16.76 0-31.843-15.084-31.843-31.843 0-17.598 15.084-31.005 31.843-31.005zm62.849 125.7c0-17.598 14.246-31.843 31.843-31.843 16.76 0 31.843 14.246 31.843 31.843 0 16.76-15.084 31.005-31.843 31.005-17.598 0-31.843-14.246-31.843-31.005zm-140.78 46.927c0-16.76 13.408-31.843 31.005-31.843 16.76 0 31.005 15.084 31.005 31.843 0 17.598-14.246 31.843-31.005 31.843-17.598 0-31.005-14.246-31.005-31.843z" fill="#55be59" stroke="#fff" stroke-dashoffset="1536" stroke-linecap="round" stroke-linejoin="round" stroke-width="5.2917" aria-label=""/></g></svg>
