<?xml version="1.0" encoding="UTF-8"?>
<svg width="3840" height="3840" version="1.1" viewBox="0 0 1016 1016" xml:space="preserve" xmlns="http://www.w3.org/2000/svg"><g fill="#55be59" stroke-linecap="round"><g stroke="#d5efd5"><path d="m-304.8 711.2 1016-1016" stroke-dasharray="67.7333, 541.866" stroke-dashoffset="406.4" stroke-width="67.733"/><path d="m-101.6 914.4 1016-1016" stroke-dasharray="67.73332977,541.86663818" stroke-width="67.733"/><path d="m101.6 1117.6 1016-1016" stroke-dasharray="67.7333, 541.867" stroke-width="67.733"/><path d="m304.8 1320.8 1016-1016" stroke-dasharray="67.7333, 541.866" stroke-dashoffset="406.4" stroke-width="67.733"/></g><g stroke="#808080"><path d="m-304.8 711.2 1016-1016" stroke-dasharray="67.7333, 541.866" stroke-dashoffset="203.2" stroke-width="67.733"/><path d="m-101.6 914.4 1016-1016" stroke-dasharray="67.73332977,541.86663818" stroke-dashoffset="203.2" stroke-width="67.733"/><path d="m101.6 1117.6 1016-1016" stroke-dasharray="67.7333, 541.866" stroke-dashoffset="406.4" stroke-width="67.733"/><path d="m304.8 1320.8 1016-1016" stroke-dasharray="67.7333, 541.866" stroke-dashoffset="203.2" stroke-width="67.733"/></g></g><g fill="#55be59" stroke="#fff" stroke-linecap="round"><path d="m-304.8 711.2 1016-1016" stroke-dasharray="67.7333, 541.866" stroke-width="67.733"/><path d="m-101.6 914.4 1016-1016" stroke-dasharray="67.73332977,541.86663818" stroke-dashoffset="406.4" stroke-width="67.733"/><path d="m101.6 1117.6 1016-1016" stroke-dasharray="67.7333, 541.866" stroke-dashoffset="203.2" stroke-width="67.733"/><path d="m304.8 1320.8 1016-1016" stroke-dasharray="67.7333, 541.866" stroke-width="67.733"/></g><g><path d="m508 762v-168.91h-254v168.91zm381-168.91h-41.91v254h-85.09v-254h-168.91v254h-425.45v-254h-40.64v-85.09l40.64-212.09h679.45l41.91 212.09zm-41.91-424.18v85.09h-679.45v-85.09z" fill="#55be59" stroke-width="0" aria-label="󰓜"/></g></svg>
