<?xml version="1.0" encoding="UTF-8"?>
<svg width="3840" height="3840" version="1.1" viewBox="0 0 1016 1016" xml:space="preserve" xmlns="http://www.w3.org/2000/svg"><g fill="#55be59" stroke-linecap="round"><g stroke="#d5efd5"><path d="m-304.8 711.2 1016-1016" stroke-dasharray="67.7333, 541.866" stroke-dashoffset="406.4" stroke-width="67.733"/><path d="m-101.6 914.4 1016-1016" stroke-dasharray="67.73332977,541.86663818" stroke-width="67.733"/><path d="m101.6 1117.6 1016-1016" stroke-dasharray="67.7333, 541.867" stroke-width="67.733"/><path d="m304.8 1320.8 1016-1016" stroke-dasharray="67.7333, 541.866" stroke-dashoffset="406.4" stroke-width="67.733"/></g><g stroke="#808080"><path d="m-304.8 711.2 1016-1016" stroke-dasharray="67.7333, 541.866" stroke-dashoffset="203.2" stroke-width="67.733"/><path d="m-101.6 914.4 1016-1016" stroke-dasharray="67.73332977,541.86663818" stroke-dashoffset="203.2" stroke-width="67.733"/><path d="m101.6 1117.6 1016-1016" stroke-dasharray="67.7333, 541.866" stroke-dashoffset="406.4" stroke-width="67.733"/><path d="m304.8 1320.8 1016-1016" stroke-dasharray="67.7333, 541.866" stroke-dashoffset="203.2" stroke-width="67.733"/></g></g><g fill="#55be59" stroke="#fff" stroke-linecap="round"><path d="m-304.8 711.2 1016-1016" stroke-dasharray="67.7333, 541.866" stroke-width="67.733"/><path d="m-101.6 914.4 1016-1016" stroke-dasharray="67.73332977,541.86663818" stroke-dashoffset="406.4" stroke-width="67.733"/><path d="m101.6 1117.6 1016-1016" stroke-dasharray="67.7333, 541.866" stroke-dashoffset="203.2" stroke-width="67.733"/><path d="m304.8 1320.8 1016-1016" stroke-dasharray="67.7333, 541.866" stroke-width="67.733"/></g><g><path d="m262.03 646.08-49.625 49.624 50.704 49.624 50.704-49.624c26.97 19.418 57.176 35.6 90.619 46.387 32.364 11.867 66.886 17.26 103.56 17.26 35.6 0 70.122-5.3939 103.56-17.26 32.364-10.788 62.57-26.969 90.619-46.387l49.625 49.624 50.704-49.624-48.546-49.624c23.734-29.127 43.152-61.49 57.176-98.168 12.946-35.6 20.497-73.357 20.497-112.19 0-33.442-8.6304-62.569-24.812-90.617-16.182-26.969-38.837-48.545-65.807-64.726-26.97-15.103-57.176-23.733-90.619-23.733-28.049 0-55.019 6.4726-79.831 19.418-25.891 12.945-46.388 30.206-62.57 51.781-17.261-21.575-37.758-38.836-63.649-51.781-24.812-12.945-51.782-19.418-79.831-19.418-33.443 0-63.649 8.6302-90.619 23.733-26.97 16.182-48.546 37.757-65.807 64.726-16.182 28.048-23.734 57.175-23.734 90.617 0 38.836 6.4728 76.593 19.418 112.19 14.024 36.678 33.443 69.041 58.255 98.168zm387.29-3.2363c-43.152 30.206-89.54 45.308-141.32 45.308-51.782 0-99.25-15.103-142.4-45.308l142.4-141.32zm-176.92-207.12-160.74 160.74c-36.679-47.466-55.019-101.4-55.019-160.74 0-29.127 9.7092-55.017 31.285-76.593 20.497-20.497 45.31-31.284 75.516-31.284s55.019 10.788 76.595 31.284c21.576 21.575 32.364 47.466 32.364 76.593zm230.86 160.74-160.74-160.74c0-29.127 10.788-55.017 32.364-76.593 21.576-20.497 46.388-31.284 76.595-31.284 30.206 0 55.019 10.788 76.595 31.284 20.497 21.575 30.206 47.466 30.206 76.593 0 59.333-18.34 113.27-55.019 160.74z" fill="#55be59" stroke="#fff" stroke-dashoffset="1536" stroke-linecap="round" stroke-linejoin="round" stroke-width="5.2917" aria-label="󱕢"/></g></svg>
