<?xml version="1.0" encoding="UTF-8" standalone="no"?>
<!-- Created with Inkscape (http://www.inkscape.org/) -->

<svg
   width="3840"
   height="3840"
   viewBox="0 0 1016 1016"
   version="1.1"
   id="svg1"
   inkscape:version="1.4.1 (93de688d07, 2025-03-30)"
   sodipodi:docname="featured-autoshop.svg"
   xml:space="preserve"
   xmlns:inkscape="http://www.inkscape.org/namespaces/inkscape"
   xmlns:sodipodi="http://sodipodi.sourceforge.net/DTD/sodipodi-0.dtd"
   xmlns="http://www.w3.org/2000/svg"
   xmlns:svg="http://www.w3.org/2000/svg"><sodipodi:namedview
     id="namedview1"
     pagecolor="#ffffff"
     bordercolor="#000000"
     borderopacity="0.25"
     inkscape:showpageshadow="2"
     inkscape:pageopacity="0.0"
     inkscape:pagecheckerboard="0"
     inkscape:deskcolor="#d1d1d1"
     inkscape:document-units="px"
     inkscape:zoom="0.19380604"
     inkscape:cx="1684.674"
     inkscape:cy="2579.899"
     inkscape:window-width="1918"
     inkscape:window-height="2132"
     inkscape:window-x="0"
     inkscape:window-y="0"
     inkscape:window-maximized="0"
     inkscape:current-layer="layer3"
     showguides="true"><sodipodi:guide
       position="0,508"
       orientation="0,1"
       id="guide1"
       inkscape:locked="false"
       inkscape:label=""
       inkscape:color="rgb(0,134,229)" /><sodipodi:guide
       position="508,1016"
       orientation="-1,0"
       id="guide3"
       inkscape:locked="false"
       inkscape:label=""
       inkscape:color="rgb(0,134,229)" /><sodipodi:guide
       position="203.2,812.8"
       orientation="-0.70710678,0.70710678"
       id="guide2"
       inkscape:locked="false"
       inkscape:label=""
       inkscape:color="rgb(0,134,229)" /><sodipodi:guide
       position="406.4,609.6"
       orientation="-0.70710678,0.70710678"
       id="guide4"
       inkscape:locked="false"
       inkscape:label=""
       inkscape:color="rgb(0,134,229)" /><sodipodi:guide
       position="609.6,406.4"
       orientation="-0.70710678,0.70710678"
       id="guide5"
       inkscape:locked="false"
       inkscape:label=""
       inkscape:color="rgb(0,134,229)" /><sodipodi:guide
       position="812.8,203.2"
       orientation="-0.70710678,0.70710678"
       id="guide6"
       inkscape:locked="false"
       inkscape:label=""
       inkscape:color="rgb(0,134,229)" /></sodipodi:namedview><defs
     id="defs1" /><g
     inkscape:label="Background 1"
     inkscape:groupmode="layer"
     id="layer1"
     inkscape:highlight-color="#55be59"
     style="display:inline"><path
       style="fill:#55be59;fill-opacity:1;stroke:#d5efd5;stroke-width:67.7333;stroke-linecap:round;stroke-dasharray:67.7333, 541.866;stroke-dashoffset:406.4;stroke-opacity:1"
       d="m -304.8,711.2 1016,-1016"
       id="path1"
       inkscape:label="path1" /><path
       style="display:inline;fill:#55be59;fill-opacity:1;stroke:#d5efd5;stroke-width:67.73333333;stroke-linecap:round;stroke-dasharray:67.73332977,541.86663818;stroke-dashoffset:0;stroke-opacity:1"
       d="M -101.6,914.40002 914.4,-101.60002"
       id="path1-0"
       inkscape:label="path2" /><path
       style="display:inline;fill:#55be59;fill-opacity:1;stroke:#d5efd5;stroke-width:67.7333;stroke-linecap:round;stroke-dasharray:67.7333, 541.867;stroke-dashoffset:0;stroke-opacity:1"
       d="M 101.60002,1117.6 1117.6,101.59999"
       id="path1-0-3"
       inkscape:label="path3" /><path
       style="display:inline;fill:#55be59;fill-opacity:1;stroke:#d5efd5;stroke-width:67.7333;stroke-linecap:round;stroke-dasharray:67.7333, 541.866;stroke-dashoffset:406.4;stroke-opacity:1"
       d="M 304.80001,1320.8 1320.8,304.8"
       id="path1-0-3-8"
       inkscape:label="path4" /></g><g
     inkscape:groupmode="layer"
     id="layer5"
     inkscape:label="Background 2"
     inkscape:highlight-color="#808080"
     style="display:inline"><path
       style="display:inline;fill:#55be59;fill-opacity:1;stroke:#808080;stroke-width:67.7333;stroke-linecap:round;stroke-dasharray:67.7333, 541.866;stroke-dashoffset:203.2;stroke-opacity:1"
       d="M -304.8,711.19997 711.2,-304.8"
       id="path1-2"
       inkscape:label="path1" /><path
       style="display:inline;fill:#55be59;fill-opacity:1;stroke:#808080;stroke-width:67.73333333;stroke-opacity:1;stroke-linecap:round;stroke-dasharray:67.73332977,541.86663818;stroke-dashoffset:203.19998932"
       d="M -101.6,914.40003 914.4,-101.60002"
       id="path1-0-4"
       inkscape:label="path2" /><path
       style="display:inline;fill:#55be59;fill-opacity:1;stroke:#808080;stroke-width:67.7333;stroke-linecap:round;stroke-dasharray:67.7333, 541.866;stroke-dashoffset:406.4;stroke-opacity:1"
       d="M 101.60002,1117.6 1117.6,101.59999"
       id="path1-0-3-5"
       inkscape:label="path3" /><path
       style="display:inline;fill:#55be59;fill-opacity:1;stroke:#808080;stroke-width:67.7333;stroke-linecap:round;stroke-dasharray:67.7333, 541.866;stroke-dashoffset:203.2;stroke-opacity:1"
       d="M 304.80001,1320.8 1320.8,304.8"
       id="path1-0-3-8-8"
       inkscape:label="path4" /></g><g
     inkscape:groupmode="layer"
     id="layer6"
     inkscape:label="Background 3"
     inkscape:highlight-color="#ffffff"
     style="stroke-dasharray:1,5;stroke-dashoffset:0"><path
       style="display:inline;fill:#55be59;fill-opacity:1;stroke:#ffffff;stroke-width:67.7333;stroke-linecap:round;stroke-dasharray:67.7333, 541.866;stroke-dashoffset:0"
       d="M -304.8,711.19997 711.2,-304.8"
       id="path1-25"
       inkscape:label="path1" /><path
       style="display:inline;fill:#55be59;fill-opacity:1;stroke:#ffffff;stroke-width:67.73333333;stroke-dasharray:67.73332977,541.86663818;stroke-linecap:round;stroke-dashoffset:406.39997864"
       d="M -101.6,914.40003 914.4,-101.60002"
       id="path1-0-42"
       inkscape:label="path2" /><path
       style="display:inline;fill:#55be59;fill-opacity:1;stroke:#ffffff;stroke-width:67.7333;stroke-linecap:round;stroke-dasharray:67.7333, 541.866;stroke-dashoffset:203.2"
       d="M 101.60002,1117.6 1117.6,101.59999"
       id="path1-0-3-7"
       inkscape:label="path3" /><path
       style="display:inline;fill:#55be59;fill-opacity:1;stroke:#ffffff;stroke-width:67.7333;stroke-linecap:round;stroke-dasharray:67.7333, 541.866;stroke-dashoffset:0"
       d="M 304.80001,1320.8 1320.8,304.8"
       id="path1-0-3-8-5"
       inkscape:label="path4" /></g><g
     inkscape:groupmode="layer"
     id="layer3"
     inkscape:label="Text"
     inkscape:highlight-color="#55be59"
     style="display:inline"><path
       d="m 719.64817,587.04196 1.77622,0.88811 c 0,-9.76923 0,-14.20979 0,-13.32168 v 7.1049 c -0.88811,2.66433 -1.77622,4.44056 -1.77622,5.32867 z M 454.99083,574.60839 c 0,-24.86713 6.21678,-47.06993 17.76223,-67.4965 11.54546,-20.42658 27.53147,-36.41259 47.95804,-47.95804 20.42658,-11.54546 42.62938,-17.76224 66.60839,-17.76224 23.97903,0 47.06993,6.21678 66.6084,17.76224 20.42658,11.54545 36.41259,27.53146 48.84616,47.95804 12.43356,20.42657 18.65034,42.62937 18.65034,67.4965 V 441.39161 L 666.36145,281.53147 c -3.55245,-7.99301 -8.88112,-15.0979 -15.0979,-19.53846 C 644.15866,256.66434 637.05376,254 627.28453,254 H 335.09572 c -8.88112,0 -16.87413,2.66434 -23.97902,7.99301 -6.21679,4.44056 -11.54546,11.54545 -15.0979,19.53846 l -54.17483,159.86014 v 213.14685 c 0,7.1049 2.66434,14.20979 7.99301,19.53846 5.32867,5.32867 10.65734,7.99301 17.76223,7.99301 h 27.53147 c 7.1049,0 13.32168,-2.66434 18.65035,-7.99301 5.32867,-5.32867 7.99301,-12.43356 7.99301,-19.53846 V 627.8951 h 144.76224 c -7.99301,-16.87412 -11.54546,-34.63636 -11.54545,-53.28671 z M 375.06076,508 c 0,10.65734 -3.55245,20.42657 -11.54545,28.41958 -7.99301,7.99301 -17.76224,11.54545 -29.3077,11.54545 -10.65734,0 -20.42657,-3.55244 -27.53147,-11.54545 -7.993,-7.99301 -11.54545,-17.76224 -11.54545,-28.41958 0,-10.65734 3.55245,-20.42657 11.54545,-28.41958 7.1049,-7.99301 16.87413,-11.54545 27.53147,-11.54545 11.54546,0 21.31469,4.44055 29.3077,12.43356 7.993,7.99301 11.54545,16.87413 11.54545,27.53147 z m 292.1888,-94.13986 H 295.13068 l 39.96504,-119.00699 h 292.18881 z m 103.9091,299.29371 c 2.66433,1.77622 3.55245,4.44056 2.66433,7.993 0,3.55245 -1.77622,6.21679 -4.44056,8.88112 l -27.53147,27.53147 c -1.77622,2.66434 -5.32867,4.44056 -7.993,4.44056 -3.55245,0 -6.21679,-1.77622 -8.88112,-4.44056 L 616.62719,647.43357 c -14.20979,6.21678 -29.3077,7.993 -44.4056,4.44056 -15.0979,-3.55245 -28.41958,-11.54546 -39.96503,-23.09091 -11.54546,-10.65735 -18.65035,-24.86714 -21.31469,-41.74126 -3.55245,-15.98602 -0.88811,-31.97203 7.1049,-47.06993 l 52.3986,52.3986 35.52447,-35.52448 -52.3986,-52.3986 c 15.0979,-7.10489 31.08392,-8.88112 47.95804,-5.32867 16.87413,2.66434 30.19581,9.76923 41.74126,20.42657 10.65735,11.54546 17.76224,24.86714 21.31469,39.96504 3.55245,15.98601 2.66433,30.1958 -3.55245,43.51748 z"
       id="text3"
       style="font-size:1270px;font-family:'Hasklug Nerd Font Mono';-inkscape-font-specification:'Hasklug Nerd Font Mono';fill:#55be59;stroke:#55be59;stroke-width:0;stroke-linecap:round;stroke-dashoffset:653.143"
       aria-label="󱠔"
       inkscape:label="nf-md-car_wrench" /></g></svg>
