<?xml version="1.0" encoding="UTF-8"?>
<svg width="3840" height="3840" version="1.1" viewBox="0 0 1016 1016" xml:space="preserve" xmlns="http://www.w3.org/2000/svg"><g fill="#55be59" stroke-linecap="round"><g stroke="#d5efd5"><path d="m-304.8 711.2 1016-1016" stroke-dasharray="67.7333, 541.866" stroke-dashoffset="406.4" stroke-width="67.733"/><path d="m-101.6 914.4 1016-1016" stroke-dasharray="67.73332977,541.86663818" stroke-width="67.733"/><path d="m101.6 1117.6 1016-1016" stroke-dasharray="67.7333, 541.867" stroke-width="67.733"/><path d="m304.8 1320.8 1016-1016" stroke-dasharray="67.7333, 541.866" stroke-dashoffset="406.4" stroke-width="67.733"/></g><g stroke="#808080"><path d="m-304.8 711.2 1016-1016" stroke-dasharray="67.7333, 541.866" stroke-dashoffset="203.2" stroke-width="67.733"/><path d="m-101.6 914.4 1016-1016" stroke-dasharray="67.73332977,541.86663818" stroke-dashoffset="203.2" stroke-width="67.733"/><path d="m101.6 1117.6 1016-1016" stroke-dasharray="67.7333, 541.866" stroke-dashoffset="406.4" stroke-width="67.733"/><path d="m304.8 1320.8 1016-1016" stroke-dasharray="67.7333, 541.866" stroke-dashoffset="203.2" stroke-width="67.733"/></g></g><g fill="#55be59" stroke="#fff" stroke-linecap="round"><path d="m-304.8 711.2 1016-1016" stroke-dasharray="67.7333, 541.866" stroke-width="67.733"/><path d="m-101.6 914.4 1016-1016" stroke-dasharray="67.73332977,541.86663818" stroke-dashoffset="406.4" stroke-width="67.733"/><path d="m101.6 1117.6 1016-1016" stroke-dasharray="67.7333, 541.866" stroke-dashoffset="203.2" stroke-width="67.733"/><path d="m304.8 1320.8 1016-1016" stroke-dasharray="67.7333, 541.866" stroke-width="67.733"/></g><g><path d="m221.27 328.79v286.73h71.683v-286.73h430.1v286.73h71.683v-286.73c0-39.426-32.258-71.683-71.683-71.683h-430.1c-40.621 0-71.683 32.258-71.683 71.683zm-71.683 344.08c0 47.789 38.231 86.02 86.02 86.02h544.79c46.594 0 86.02-38.231 86.02-86.02 0-11.947-10.753-21.505-22.7-21.505h-672.63c-11.947 0-21.505 9.5578-21.505 21.505zm314.21-217.44c10.753-10.753 10.753-27.479 0-38.231s-27.479-10.753-38.231 0l-53.763 53.763c-9.5578 10.753-9.5578 27.479 0 38.231l53.763 53.763c10.753 9.5578 27.479 9.5578 38.231 0 10.753-10.753 10.753-27.479 0-38.231l-34.647-34.647zm125.45-38.231c-9.5578-9.5578-27.479-9.5578-38.231 0-10.753 10.753-10.753 27.479 0 38.231l34.647 34.647-34.647 34.647c-10.753 10.753-10.753 27.479 0 38.231 10.753 9.5578 28.673 9.5578 38.231 0l53.763-53.763c9.5578-10.753 9.5578-27.479 0-38.231z" fill="#55be59" stroke="#fff" stroke-width="6.2156" aria-label=""/></g></svg>
