<?xml version="1.0" encoding="UTF-8" standalone="no"?>
<!-- Created with Inkscape (http://www.inkscape.org/) -->

<svg
   width="3840"
   height="3840"
   viewBox="0 0 1016 1016"
   version="1.1"
   id="svg1"
   inkscape:version="1.4.1 (93de688d07, 2025-03-30)"
   sodipodi:docname="featured-services.svg"
   xml:space="preserve"
   xmlns:inkscape="http://www.inkscape.org/namespaces/inkscape"
   xmlns:sodipodi="http://sodipodi.sourceforge.net/DTD/sodipodi-0.dtd"
   xmlns="http://www.w3.org/2000/svg"
   xmlns:svg="http://www.w3.org/2000/svg"><sodipodi:namedview
     id="namedview1"
     pagecolor="#ffffff"
     bordercolor="#000000"
     borderopacity="0.25"
     inkscape:showpageshadow="2"
     inkscape:pageopacity="0.0"
     inkscape:pagecheckerboard="0"
     inkscape:deskcolor="#d1d1d1"
     inkscape:document-units="px"
     inkscape:zoom="0.27408313"
     inkscape:cx="1802.3729"
     inkscape:cy="1074.4915"
     inkscape:window-width="3838"
     inkscape:window-height="1065"
     inkscape:window-x="0"
     inkscape:window-y="0"
     inkscape:window-maximized="0"
     inkscape:current-layer="layer3"
     showguides="true"><sodipodi:guide
       position="0,508"
       orientation="0,1"
       id="guide1"
       inkscape:locked="false"
       inkscape:label=""
       inkscape:color="rgb(0,134,229)" /><sodipodi:guide
       position="508,1016"
       orientation="-1,0"
       id="guide3"
       inkscape:locked="false"
       inkscape:label=""
       inkscape:color="rgb(0,134,229)" /><sodipodi:guide
       position="203.2,812.8"
       orientation="-0.70710678,0.70710678"
       id="guide2"
       inkscape:locked="false"
       inkscape:label=""
       inkscape:color="rgb(0,134,229)" /><sodipodi:guide
       position="406.4,609.6"
       orientation="-0.70710678,0.70710678"
       id="guide4"
       inkscape:locked="false"
       inkscape:label=""
       inkscape:color="rgb(0,134,229)" /><sodipodi:guide
       position="609.6,406.4"
       orientation="-0.70710678,0.70710678"
       id="guide5"
       inkscape:locked="false"
       inkscape:label=""
       inkscape:color="rgb(0,134,229)" /><sodipodi:guide
       position="812.8,203.2"
       orientation="-0.70710678,0.70710678"
       id="guide6"
       inkscape:locked="false"
       inkscape:label=""
       inkscape:color="rgb(0,134,229)" /></sodipodi:namedview><defs
     id="defs1" /><g
     inkscape:label="Background 1"
     inkscape:groupmode="layer"
     id="layer1"
     inkscape:highlight-color="#e7e7b8"
     style="display:inline"><path
       style="fill:#55be59;fill-opacity:1;stroke:#e7e7b8;stroke-width:67.7333;stroke-linecap:round;stroke-dasharray:67.7333, 541.866;stroke-dashoffset:406.4;stroke-opacity:1"
       d="m -304.8,711.2 1016,-1016"
       id="path1"
       inkscape:label="path1" /><path
       style="display:inline;fill:#55be59;fill-opacity:1;stroke:#e7e7b8;stroke-width:67.7333;stroke-linecap:round;stroke-dasharray:67.7333, 541.867;stroke-dashoffset:0;stroke-opacity:1"
       d="M -101.6,914.40002 914.4,-101.60002"
       id="path1-0"
       inkscape:label="path2" /><path
       style="display:inline;fill:#55be59;fill-opacity:1;stroke:#e7e7b8;stroke-width:67.7333;stroke-linecap:round;stroke-dasharray:67.7333, 541.867;stroke-dashoffset:0;stroke-opacity:1"
       d="M 101.60002,1117.6 1117.6,101.59999"
       id="path1-0-3"
       inkscape:label="path3" /><path
       style="display:inline;fill:#55be59;fill-opacity:1;stroke:#e7e7b8;stroke-width:67.7333;stroke-linecap:round;stroke-dasharray:67.7333, 541.866;stroke-dashoffset:406.4;stroke-opacity:1"
       d="M 304.80001,1320.8 1320.8,304.8"
       id="path1-0-3-8"
       inkscape:label="path4" /></g><g
     inkscape:groupmode="layer"
     id="layer5"
     inkscape:label="Background 2"
     inkscape:highlight-color="#808080"
     style="display:inline"><path
       style="display:inline;fill:#55be59;fill-opacity:1;stroke:#808080;stroke-width:67.7333;stroke-linecap:round;stroke-dasharray:67.7333, 541.866;stroke-dashoffset:203.2;stroke-opacity:1"
       d="M -304.8,711.19997 711.2,-304.8"
       id="path1-2"
       inkscape:label="path1" /><path
       style="display:inline;fill:#55be59;fill-opacity:1;stroke:#808080;stroke-width:67.73333333;stroke-opacity:1;stroke-linecap:round;stroke-dasharray:67.73332977,541.86663818;stroke-dashoffset:203.19998932"
       d="M -101.6,914.40003 914.4,-101.60002"
       id="path1-0-4"
       inkscape:label="path2" /><path
       style="display:inline;fill:#55be59;fill-opacity:1;stroke:#808080;stroke-width:67.7333;stroke-linecap:round;stroke-dasharray:67.7333, 541.866;stroke-dashoffset:406.4;stroke-opacity:1"
       d="M 101.60002,1117.6 1117.6,101.59999"
       id="path1-0-3-5"
       inkscape:label="path3" /><path
       style="display:inline;fill:#55be59;fill-opacity:1;stroke:#808080;stroke-width:67.7333;stroke-linecap:round;stroke-dasharray:67.7333, 541.866;stroke-dashoffset:203.2;stroke-opacity:1"
       d="M 304.80001,1320.8 1320.8,304.8"
       id="path1-0-3-8-8"
       inkscape:label="path4" /></g><g
     inkscape:groupmode="layer"
     id="layer6"
     inkscape:label="Background 3"
     inkscape:highlight-color="#ffffff"
     style="stroke-dasharray:1,5;stroke-dashoffset:0"><path
       style="display:inline;fill:#55be59;fill-opacity:1;stroke:#ffffff;stroke-width:67.7333;stroke-linecap:round;stroke-dasharray:67.7333, 541.866;stroke-dashoffset:0"
       d="M -304.8,711.19997 711.2,-304.8"
       id="path1-25"
       inkscape:label="path1" /><path
       style="display:inline;fill:#55be59;fill-opacity:1;stroke:#ffffff;stroke-width:67.73333333;stroke-dasharray:67.73332977,541.86663818;stroke-linecap:round;stroke-dashoffset:406.39997864"
       d="M -101.6,914.40003 914.4,-101.60002"
       id="path1-0-42"
       inkscape:label="path2" /><path
       style="display:inline;fill:#55be59;fill-opacity:1;stroke:#ffffff;stroke-width:67.7333;stroke-linecap:round;stroke-dasharray:67.7333, 541.866;stroke-dashoffset:203.2"
       d="M 101.60002,1117.6 1117.6,101.59999"
       id="path1-0-3-7"
       inkscape:label="path3" /><path
       style="display:inline;fill:#55be59;fill-opacity:1;stroke:#ffffff;stroke-width:67.7333;stroke-linecap:round;stroke-dasharray:67.7333, 541.866;stroke-dashoffset:0"
       d="M 304.80001,1320.8 1320.8,304.8"
       id="path1-0-3-8-5"
       inkscape:label="path4" /></g><g
     inkscape:groupmode="layer"
     id="layer3"
     inkscape:label="Text"
     inkscape:highlight-color="#c4c44f"
     style="display:inline"><path
       d="m 717.49579,586.22709 1.75791,0.87896 c 0,-9.66851 0,-14.0633 0,-13.18435 v 7.03166 c -0.87896,2.63686 -1.75791,4.39478 -1.75791,5.27373 z M 455.56687,573.9217 c 0,-24.61077 6.15269,-46.58466 17.57912,-66.80066 11.42643,-20.21599 27.24764,-36.0372 47.46362,-47.46362 20.216,-11.42644 42.18991,-17.57913 65.92171,-17.57913 23.73182,0 46.58467,6.15269 65.92172,17.57913 20.21599,11.42642 36.0372,27.24763 48.34259,47.46362 12.30538,20.216 18.45807,42.18989 18.45807,66.80066 V 442.07828 l -54.49529,-158.2121 c -3.51582,-7.91059 -8.78956,-14.94225 -14.94225,-19.33703 -7.03164,-5.27373 -14.06329,-7.9106 -23.73181,-7.9106 H 336.9078 c -8.78957,0 -16.70017,2.63687 -23.73182,7.9106 -6.1527,4.39478 -11.42643,11.42643 -14.94225,19.33703 l -53.61633,158.2121 v 210.94947 c 0,7.03165 2.63688,14.0633 7.91061,19.33703 5.27374,5.27374 10.54747,7.91061 17.57912,7.91061 h 27.24764 c 7.03165,0 13.18434,-2.63687 18.45807,-7.91061 5.27374,-5.27373 7.91061,-12.30538 7.91061,-19.33703 V 626.65907 H 466.9933 C 459.08269,609.95891 455.56686,592.37979 455.56687,573.9217 Z M 376.46082,508 c 0,10.54747 -3.51582,20.21598 -11.42642,28.12659 -7.91061,7.91061 -17.57912,11.42643 -29.00556,11.42643 -10.54747,0 -20.21599,-3.51582 -27.24764,-11.42643 -7.9106,-7.91061 -11.42642,-17.57912 -11.42642,-28.1266 0,-10.54747 3.51582,-20.21599 11.42642,-28.1266 7.03165,-7.91061 16.70017,-11.42642 27.24764,-11.42642 11.42644,0 21.09495,4.39477 29.00556,12.30538 7.9106,7.9106 11.42642,16.70017 11.42642,27.24765 z m 289.17655,-93.16936 h -368.2826 l 39.55303,-117.7801 h 289.17655 z m 102.83787,296.20821 c 2.63686,1.75793 3.51583,4.39478 2.63686,7.91062 0,3.51581 -1.7579,6.1527 -4.39478,8.78956 l -27.24764,27.24764 c -1.75791,2.63687 -5.27373,4.39478 -7.9106,4.39478 -3.51582,0 -6.1527,-1.75791 -8.78956,-4.39478 L 615.53688,645.99612 c -14.0633,6.15269 -29.00556,7.9106 -43.94781,4.39477 -14.94225,-3.51584 -28.1266,-11.42643 -39.55302,-22.85285 -11.42644,-10.54748 -18.45808,-24.61078 -21.09495,-41.31094 -3.51583,-15.82121 -0.87896,-31.64242 7.03165,-46.58467 l 51.85841,51.85841 35.15824,-35.15825 -51.85841,-51.85841 c 14.94225,-7.03164 30.76347,-8.78956 47.46363,-5.27374 16.70017,2.63688 29.88451,9.66852 41.31094,20.21599 10.54748,11.42644 17.57912,24.61078 21.09495,39.55303 3.51582,15.82121 2.63686,29.8845 -3.51583,43.06885 z"
       id="text3"
       style="font-size:1270px;font-family:'Hasklug Nerd Font Mono';-inkscape-font-specification:'Hasklug Nerd Font Mono';fill:#c4c44f;fill-opacity:1;stroke:#ffffff;stroke-width:5.23711;stroke-linecap:round;stroke-linejoin:round;stroke-dasharray:none;stroke-dashoffset:653.143;stroke-opacity:1"
       aria-label="󱠔"
       inkscape:label="nf-md-car_wrench" /></g></svg>
