<?xml version="1.0" encoding="UTF-8" standalone="no"?>
<!-- Created with Inkscape (http://www.inkscape.org/) -->

<svg
   width="3840"
   height="3840"
   viewBox="0 0 1016 1016"
   version="1.1"
   id="svg1"
   inkscape:version="1.4.1 (93de688d07, 2025-03-30)"
   sodipodi:docname="featured-food.svg"
   xml:space="preserve"
   xmlns:inkscape="http://www.inkscape.org/namespaces/inkscape"
   xmlns:sodipodi="http://sodipodi.sourceforge.net/DTD/sodipodi-0.dtd"
   xmlns="http://www.w3.org/2000/svg"
   xmlns:svg="http://www.w3.org/2000/svg"><sodipodi:namedview
     id="namedview1"
     pagecolor="#ffffff"
     bordercolor="#000000"
     borderopacity="0.25"
     inkscape:showpageshadow="2"
     inkscape:pageopacity="0.0"
     inkscape:pagecheckerboard="0"
     inkscape:deskcolor="#d1d1d1"
     inkscape:document-units="px"
     inkscape:zoom="0.19380604"
     inkscape:cx="1682.0941"
     inkscape:cy="2585.0588"
     inkscape:window-width="1918"
     inkscape:window-height="2132"
     inkscape:window-x="0"
     inkscape:window-y="0"
     inkscape:window-maximized="0"
     inkscape:current-layer="layer1"
     showguides="true"><sodipodi:guide
       position="0,508"
       orientation="0,1"
       id="guide1"
       inkscape:locked="false"
       inkscape:label=""
       inkscape:color="rgb(0,134,229)" /><sodipodi:guide
       position="508,1016"
       orientation="-1,0"
       id="guide3"
       inkscape:locked="false"
       inkscape:label=""
       inkscape:color="rgb(0,134,229)" /><sodipodi:guide
       position="203.2,812.8"
       orientation="-0.70710678,0.70710678"
       id="guide2"
       inkscape:locked="false"
       inkscape:label=""
       inkscape:color="rgb(0,134,229)" /><sodipodi:guide
       position="406.4,609.6"
       orientation="-0.70710678,0.70710678"
       id="guide4"
       inkscape:locked="false"
       inkscape:label=""
       inkscape:color="rgb(0,134,229)" /><sodipodi:guide
       position="609.6,406.4"
       orientation="-0.70710678,0.70710678"
       id="guide5"
       inkscape:locked="false"
       inkscape:label=""
       inkscape:color="rgb(0,134,229)" /><sodipodi:guide
       position="812.8,203.2"
       orientation="-0.70710678,0.70710678"
       id="guide6"
       inkscape:locked="false"
       inkscape:label=""
       inkscape:color="rgb(0,134,229)" /></sodipodi:namedview><defs
     id="defs1" /><g
     inkscape:label="Background 1"
     inkscape:groupmode="layer"
     id="layer1"
     inkscape:highlight-color="#ecd6c6"
     style="display:inline"><path
       style="fill:#55be59;fill-opacity:1;stroke:#ecd6c6;stroke-width:67.7333;stroke-linecap:round;stroke-dasharray:67.7333, 541.866;stroke-dashoffset:406.4;stroke-opacity:1"
       d="m -304.8,711.2 1016,-1016"
       id="path1"
       inkscape:label="path1" /><path
       style="display:inline;fill:#55be59;fill-opacity:1;stroke:#ecd6c6;stroke-width:67.7333;stroke-linecap:round;stroke-dasharray:67.7333, 541.867;stroke-dashoffset:0;stroke-opacity:1"
       d="M -101.6,914.40002 914.4,-101.60002"
       id="path1-0"
       inkscape:label="path2" /><path
       style="display:inline;fill:#55be59;fill-opacity:1;stroke:#ecd6c6;stroke-width:67.7333;stroke-linecap:round;stroke-dasharray:67.7333, 541.867;stroke-dashoffset:0;stroke-opacity:1"
       d="M 101.60002,1117.6 1117.6,101.59999"
       id="path1-0-3"
       inkscape:label="path3" /><path
       style="display:inline;fill:#55be59;fill-opacity:1;stroke:#ecd6c6;stroke-width:67.7333;stroke-linecap:round;stroke-dasharray:67.7333, 541.866;stroke-dashoffset:406.4;stroke-opacity:1"
       d="M 304.80001,1320.8 1320.8,304.8"
       id="path1-0-3-8"
       inkscape:label="path4" /></g><g
     inkscape:groupmode="layer"
     id="layer5"
     inkscape:label="Background 2"
     inkscape:highlight-color="#808080"
     style="display:inline"><path
       style="display:inline;fill:#55be59;fill-opacity:1;stroke:#808080;stroke-width:67.7333;stroke-linecap:round;stroke-dasharray:67.7333, 541.866;stroke-dashoffset:203.2;stroke-opacity:1"
       d="M -304.8,711.19997 711.2,-304.8"
       id="path1-2"
       inkscape:label="path1" /><path
       style="display:inline;fill:#55be59;fill-opacity:1;stroke:#808080;stroke-width:67.73333333;stroke-opacity:1;stroke-linecap:round;stroke-dasharray:67.73332977,541.86663818;stroke-dashoffset:203.19998932"
       d="M -101.6,914.40003 914.4,-101.60002"
       id="path1-0-4"
       inkscape:label="path2" /><path
       style="display:inline;fill:#55be59;fill-opacity:1;stroke:#808080;stroke-width:67.7333;stroke-linecap:round;stroke-dasharray:67.7333, 541.866;stroke-dashoffset:406.4;stroke-opacity:1"
       d="M 101.60002,1117.6 1117.6,101.59999"
       id="path1-0-3-5"
       inkscape:label="path3" /><path
       style="display:inline;fill:#55be59;fill-opacity:1;stroke:#808080;stroke-width:67.7333;stroke-linecap:round;stroke-dasharray:67.7333, 541.866;stroke-dashoffset:203.2;stroke-opacity:1"
       d="M 304.80001,1320.8 1320.8,304.8"
       id="path1-0-3-8-8"
       inkscape:label="path4" /></g><g
     inkscape:groupmode="layer"
     id="layer6"
     inkscape:label="Background 3"
     inkscape:highlight-color="#ffffff"
     style="stroke-dasharray:1,5;stroke-dashoffset:0"><path
       style="display:inline;fill:#55be59;fill-opacity:1;stroke:#ffffff;stroke-width:67.7333;stroke-linecap:round;stroke-dasharray:67.7333, 541.866;stroke-dashoffset:0"
       d="M -304.8,711.19997 711.2,-304.8"
       id="path1-25"
       inkscape:label="path1" /><path
       style="display:inline;fill:#55be59;fill-opacity:1;stroke:#ffffff;stroke-width:67.73333333;stroke-dasharray:67.73332977,541.86663818;stroke-linecap:round;stroke-dashoffset:406.39997864"
       d="M -101.6,914.40003 914.4,-101.60002"
       id="path1-0-42"
       inkscape:label="path2" /><path
       style="display:inline;fill:#55be59;fill-opacity:1;stroke:#ffffff;stroke-width:67.7333;stroke-linecap:round;stroke-dasharray:67.7333, 541.866;stroke-dashoffset:203.2"
       d="M 101.60002,1117.6 1117.6,101.59999"
       id="path1-0-3-7"
       inkscape:label="path3" /><path
       style="display:inline;fill:#55be59;fill-opacity:1;stroke:#ffffff;stroke-width:67.7333;stroke-linecap:round;stroke-dasharray:67.7333, 541.866;stroke-dashoffset:0"
       d="M 304.80001,1320.8 1320.8,304.8"
       id="path1-0-3-8-5"
       inkscape:label="path4" /></g><g
     inkscape:groupmode="layer"
     id="layer3"
     inkscape:label="Text"
     inkscape:highlight-color="#c48a4f"
     style="display:inline"><path
       d="m 262.03374,646.08298 -49.62476,49.62356 50.70357,49.62357 50.70357,-49.62357 c 26.96998,19.41792 57.17636,35.59952 90.61914,46.38725 32.36399,11.86651 66.88557,17.26037 103.56474,17.26037 35.60038,0 70.12196,-5.39386 103.56474,-17.26037 32.36398,-10.78773 62.57036,-26.96933 90.61915,-46.38725 l 49.62478,49.62357 50.70357,-49.62357 -48.54598,-49.62356 c 23.73359,-29.12689 43.15197,-61.49009 57.17637,-98.16837 12.9456,-35.59951 20.49719,-73.35658 20.49719,-112.19242 0,-33.44196 -8.6304,-62.56885 -24.81238,-90.61694 -16.18199,-26.96934 -38.83677,-48.5448 -65.80676,-64.72641 -26.96999,-15.10282 -57.17638,-23.73301 -90.61916,-23.73301 -28.04879,0 -55.01877,6.47264 -79.83116,19.41792 C 544.67917,289.00902 524.18199,306.2694 508,327.84487 490.73921,306.2694 470.24202,289.00902 444.35083,276.06375 c -24.81237,-12.94528 -51.78236,-19.41792 -79.83115,-19.41792 -33.44278,0 -63.64916,8.63019 -90.61914,23.73301 -26.96999,16.1816 -48.54599,37.75706 -65.80678,64.7264 -16.18199,28.0481 -23.73358,57.17498 -23.73358,90.61694 0,38.83585 6.4728,76.59292 19.41839,112.19243 14.02439,36.67828 33.44279,69.04148 58.25517,98.16837 z m 387.28899,-3.23632 c -43.15198,30.20565 -89.54036,45.30846 -141.32272,45.30846 -51.78237,0 -99.24955,-15.10281 -142.40152,-45.30846 L 508.00001,501.52736 Z M 472.39963,435.72218 311.65851,596.45941 c -36.67918,-47.46602 -55.01876,-101.4047 -55.01876,-160.73722 0,-29.12687 9.7092,-55.01743 31.28518,-76.59289 20.49718,-20.4967 45.30958,-31.28443 75.51596,-31.28443 30.20638,0 55.01876,10.78773 76.59476,31.28443 21.57599,21.57546 32.36398,47.46602 32.36398,76.59288 z M 703.2627,596.45941 542.52159,435.72218 c 0,-29.12687 10.78798,-55.01742 32.36397,-76.59289 21.57599,-20.49669 46.38838,-31.28442 76.59476,-31.28442 30.20639,0 55.01878,10.78773 76.59475,31.28442 20.4972,21.57547 30.20639,47.46602 30.20639,76.59289 0,59.33253 -18.33959,113.2712 -55.01876,160.73723 z"
       id="text3"
       style="font-size:1270px;font-family:'Hasklug Nerd Font Mono';-inkscape-font-specification:'Hasklug Nerd Font Mono';fill:#c48a4f;stroke:#ffffff;stroke-width:5.29166;stroke-linecap:round;stroke-linejoin:round;stroke-dasharray:none;stroke-dashoffset:1536;stroke-opacity:1;fill-opacity:1"
       aria-label="󱕢"
       inkscape:label="nf-md-pretzel" /></g></svg>
