<?xml version="1.0" encoding="UTF-8" standalone="no"?>
<!-- Created with Inkscape (http://www.inkscape.org/) -->

<svg
   width="3840"
   height="3840"
   viewBox="0 0 1016 1016"
   version="1.1"
   id="svg1"
   inkscape:version="1.4.1 (93de688d07, 2025-03-30)"
   sodipodi:docname="featured-food.svg"
   xml:space="preserve"
   xmlns:inkscape="http://www.inkscape.org/namespaces/inkscape"
   xmlns:sodipodi="http://sodipodi.sourceforge.net/DTD/sodipodi-0.dtd"
   xmlns="http://www.w3.org/2000/svg"
   xmlns:svg="http://www.w3.org/2000/svg"><sodipodi:namedview
     id="namedview1"
     pagecolor="#ffffff"
     bordercolor="#000000"
     borderopacity="0.25"
     inkscape:showpageshadow="2"
     inkscape:pageopacity="0.0"
     inkscape:pagecheckerboard="0"
     inkscape:deskcolor="#d1d1d1"
     inkscape:document-units="px"
     inkscape:zoom="0.09690302"
     inkscape:cx="2094.878"
     inkscape:cy="1991.682"
     inkscape:window-width="1918"
     inkscape:window-height="2132"
     inkscape:window-x="0"
     inkscape:window-y="0"
     inkscape:window-maximized="0"
     inkscape:current-layer="g1"
     showguides="true"><sodipodi:guide
       position="0,508"
       orientation="0,1"
       id="guide1"
       inkscape:locked="false"
       inkscape:label=""
       inkscape:color="rgb(0,134,229)" /><sodipodi:guide
       position="508,1016"
       orientation="-1,0"
       id="guide3"
       inkscape:locked="false"
       inkscape:label=""
       inkscape:color="rgb(0,134,229)" /><sodipodi:guide
       position="203.2,812.8"
       orientation="-1,0"
       id="guide2"
       inkscape:locked="false"
       inkscape:label=""
       inkscape:color="rgb(0,134,229)" /><sodipodi:guide
       position="406.4,609.6"
       orientation="-1,0"
       id="guide4"
       inkscape:locked="false"
       inkscape:label=""
       inkscape:color="rgb(0,134,229)" /><sodipodi:guide
       position="609.6,406.4"
       orientation="-1,0"
       id="guide5"
       inkscape:locked="false"
       inkscape:label=""
       inkscape:color="rgb(0,134,229)" /><sodipodi:guide
       position="812.8,203.2"
       orientation="-1,0"
       id="guide6"
       inkscape:locked="false"
       inkscape:label=""
       inkscape:color="rgb(0,134,229)" /></sodipodi:namedview><defs
     id="defs1"><style
       id="style1">.cls-1{fill:#b82065;}.cls-2{fill:#d7156f;}.cls-3{fill:#c2aacf;}.cls-4{fill:#decee5;}.cls-5{fill:#f4e6f4;}.cls-6{fill:#14a36d;}.cls-7{fill:#15be79;}.cls-8{fill:#33db92;}.cls-9{fill:#fff;}.cls-10{fill:#ebd9ea;}.cls-11{fill:#f39e22;}.cls-12{fill:#f9c744;}.cls-13{fill:#c44a1a;}.cls-14{fill:#0989d8;}.cls-15{fill:#29a3fb;}.cls-16{fill:#7ed0fc;}.cls-17{fill:#ed72ab;}</style></defs><g
     inkscape:label="Background 1"
     inkscape:groupmode="layer"
     id="layer1"
     inkscape:highlight-color="#d9bfcb"
     style="display:inline"
     transform="translate(0,340.65103)"><path
       style="fill:#55be59;fill-opacity:1;stroke:#d9bfcb;stroke-width:67.7333;stroke-linecap:round;stroke-dasharray:67.7333, 541.866;stroke-dashoffset:406.4;stroke-opacity:1"
       d="M 203.20001,786.15384 V -650.68714"
       id="path1"
       inkscape:label="path1" /><path
       style="display:inline;fill:#55be59;fill-opacity:1;stroke:#d9bfcb;stroke-width:67.7333;stroke-linecap:round;stroke-dasharray:67.7333, 541.867;stroke-dashoffset:0;stroke-opacity:1"
       d="m 406.40001,853.88717 -2e-5,-1436.841"
       id="path1-0"
       inkscape:label="path2" /><path
       style="display:inline;fill:#55be59;fill-opacity:1;stroke:#d9bfcb;stroke-width:67.7333;stroke-linecap:round;stroke-dasharray:67.7333, 541.867;stroke-dashoffset:0;stroke-opacity:1"
       d="m 609.6,921.62047 10e-6,-1436.84095"
       id="path1-0-3"
       inkscape:label="path3" /><path
       style="display:inline;fill:#55be59;fill-opacity:1;stroke:#d9bfcb;stroke-width:67.7333;stroke-linecap:round;stroke-dasharray:67.7333, 541.866;stroke-dashoffset:406.4;stroke-opacity:1"
       d="M 812.80001,985.38507 812.8,-451.45591"
       id="path1-0-3-8"
       inkscape:label="path4" /></g><g
     inkscape:groupmode="layer"
     id="layer5"
     inkscape:label="Background 2"
     inkscape:highlight-color="#547d73"
     style="display:inline"
     transform="translate(0,340.65103)"><path
       style="display:inline;fill:#547d73;fill-opacity:1;stroke:#547d73;stroke-width:67.7333;stroke-linecap:round;stroke-dasharray:67.7333, 541.866;stroke-dashoffset:203.2;stroke-opacity:1"
       d="m 203.19999,786.15381 2e-5,-1436.84095"
       id="path1-2"
       inkscape:label="path1" /><path
       style="display:inline;fill:#547d73;fill-opacity:1;stroke:#547d73;stroke-width:67.7333;stroke-linecap:round;stroke-dasharray:67.7333, 541.867;stroke-dashoffset:203.2;stroke-opacity:1"
       d="m 406.40002,853.88718 -3e-5,-1436.84101"
       id="path1-0-4"
       inkscape:label="path2" /><path
       style="display:inline;fill:#547d73;fill-opacity:1;stroke:#547d73;stroke-width:67.7333;stroke-linecap:round;stroke-dasharray:67.7333, 541.866;stroke-dashoffset:406.4;stroke-opacity:1"
       d="m 609.6,921.62047 10e-6,-1436.84095"
       id="path1-0-3-5"
       inkscape:label="path3" /><path
       style="display:inline;fill:#547d73;fill-opacity:1;stroke:#547d73;stroke-width:67.7333;stroke-linecap:round;stroke-dasharray:67.7333, 541.866;stroke-dashoffset:203.2;stroke-opacity:1"
       d="M 812.80001,985.38507 812.8,-451.45591"
       id="path1-0-3-8-8"
       inkscape:label="path4" /></g><g
     inkscape:groupmode="layer"
     id="layer6"
     inkscape:label="Background 3"
     inkscape:highlight-color="#ffffff"
     style="stroke-dasharray:1, 5;stroke-dashoffset:0"
     transform="translate(0,340.65103)"><path
       style="display:inline;fill:#55be59;fill-opacity:1;stroke:#ffffff;stroke-width:67.7333;stroke-linecap:round;stroke-dasharray:67.7333, 541.866;stroke-dashoffset:0"
       d="m 203.19999,786.15381 2e-5,-1436.84095"
       id="path1-25"
       inkscape:label="path1" /><path
       style="display:inline;fill:#55be59;fill-opacity:1;stroke:#ffffff;stroke-width:67.7333;stroke-linecap:round;stroke-dasharray:67.7333, 541.867;stroke-dashoffset:406.4"
       d="m 406.40002,853.88718 -3e-5,-1436.84101"
       id="path1-0-42"
       inkscape:label="path2" /><path
       style="display:inline;fill:#55be59;fill-opacity:1;stroke:#ffffff;stroke-width:67.7333;stroke-linecap:round;stroke-dasharray:67.7333, 541.866;stroke-dashoffset:203.2"
       d="m 609.6,921.62047 10e-6,-1436.84095"
       id="path1-0-3-7"
       inkscape:label="path3" /><path
       style="display:inline;fill:#55be59;fill-opacity:1;stroke:#ffffff;stroke-width:67.7333;stroke-linecap:round;stroke-dasharray:67.7333, 541.866;stroke-dashoffset:0"
       d="M 812.80001,985.38507 812.8,-451.45591"
       id="path1-0-3-8-5"
       inkscape:label="path4" /></g><g
     id="g1"
     transform="translate(40.74583,19.050001)"
     inkscape:highlight-color="#b82065"
     inkscape:label="Text"><path
       d="m 560.25526,395.11103 c -17.5948,-15.9192 -36.8653,-26.8112 -59.48718,-33.514 -22.62189,-5.8649 -45.24378,-5.8649 -67.86566,0 -22.62189,6.7028 -41.89239,17.5948 -59.48719,34.3518 -16.75695,16.757 -28.48682,36.8654 -33.5139,59.4872 -5.86494,22.6219 -5.86494,44.406 0,67.0278 5.02708,22.62195 16.75695,42.7303 33.5139,59.48718 17.5948,16.757 36.8653,27.64901 59.48719,34.35179 22.62188,5.86493 45.24377,5.86493 67.86566,0 22.62188,-6.70278 41.89238,-17.59479 59.48718,-34.35179 16.75695,-16.75688 28.48683,-36.86523 33.5139,-59.48718 5.86493,-22.6218 5.86493,-44.4059 0,-67.0278 -5.86493,-22.6218 -16.75695,-42.7302 -33.5139,-60.325 z m 103.05526,-102.2175 c -1.67569,17.5948 -8.37848,35.1896 -20.10834,52.7845 28.48681,5.027 53.62224,18.4326 75.40629,39.3789 -15.08126,15.919 -32.67607,25.9732 -51.94656,30.1625 -17.5948,4.1891 -34.35175,4.1891 -51.10871,0 -4.18923,-19.2706 -13.40556,-35.1896 -26.81111,-47.7574 -12.56772,-13.4055 -29.32468,-22.6219 -47.75733,-27.6489 -4.18923,-15.9191 -4.18923,-33.5139 0,-50.2709 4.18924,-20.1084 14.24341,-36.8653 29.32467,-51.9465 22.62189,21.7839 36.02745,46.9194 40.21669,76.2441 10.89202,-7.5406 23.45974,-13.4056 36.02745,-17.5948 5.86493,-0.8379 11.72986,-1.6757 16.75695,-3.3515 z M 270.35997,685.00631 c 1.6757,-17.5948 8.37848,-35.18961 20.10834,-52.7844 -28.48682,-5.02709 -53.62224,-18.43266 -74.56843,-39.37879 14.24341,-15.9192 31.8382,-25.97338 51.1087,-30.16253 17.5948,-4.18928 34.35175,-4.18928 51.10871,0 4.18924,19.27042 13.40556,35.18962 26.81112,47.75727 12.56772,13.40557 29.32467,22.62189 47.75732,27.64898 4.18924,15.91911 4.18924,33.5139 0,50.27086 -4.18924,20.10834 -14.24341,36.86529 -29.32467,51.94656 -22.62189,-21.78405 -36.02745,-46.91948 -40.21669,-76.24415 -10.89202,7.54063 -23.45973,13.40557 -36.02745,17.59481 -5.86493,0.83784 -11.72986,1.67569 -16.75695,3.35139 z"
       id="text2"
       style="font-size:677.333px;font-family:'Hasklug Nerd Font Mono';-inkscape-font-specification:'Hasklug Nerd Font Mono';fill:#b82065;stroke:#ffffff;stroke-width:5.29167;stroke-linecap:round;stroke-linejoin:round;stroke-dashoffset:1536;stroke-opacity:1"
       aria-label="󱥰" /></g></svg>
