<?xml version="1.0" encoding="UTF-8"?>
<svg width="3840" height="3840" version="1.1" viewBox="0 0 1016 1016" xml:space="preserve" xmlns="http://www.w3.org/2000/svg"><g fill="#55be59" stroke-linecap="round"><g stroke="#d5efd5"><path d="m-304.8 711.2 1016-1016" stroke-dasharray="67.7333, 541.866" stroke-dashoffset="406.4" stroke-width="67.733"/><path d="m-101.6 914.4 1016-1016" stroke-dasharray="67.73332977,541.86663818" stroke-width="67.733"/><path d="m101.6 1117.6 1016-1016" stroke-dasharray="67.7333, 541.867" stroke-width="67.733"/><path d="m304.8 1320.8 1016-1016" stroke-dasharray="67.7333, 541.866" stroke-dashoffset="406.4" stroke-width="67.733"/></g><g stroke="#808080"><path d="m-304.8 711.2 1016-1016" stroke-dasharray="67.7333, 541.866" stroke-dashoffset="203.2" stroke-width="67.733"/><path d="m-101.6 914.4 1016-1016" stroke-dasharray="67.73332977,541.86663818" stroke-dashoffset="203.2" stroke-width="67.733"/><path d="m101.6 1117.6 1016-1016" stroke-dasharray="67.7333, 541.866" stroke-dashoffset="406.4" stroke-width="67.733"/><path d="m304.8 1320.8 1016-1016" stroke-dasharray="67.7333, 541.866" stroke-dashoffset="203.2" stroke-width="67.733"/></g></g><g fill="#55be59" stroke="#fff" stroke-linecap="round"><path d="m-304.8 711.2 1016-1016" stroke-dasharray="67.7333, 541.866" stroke-width="67.733"/><path d="m-101.6 914.4 1016-1016" stroke-dasharray="67.73332977,541.86663818" stroke-dashoffset="406.4" stroke-width="67.733"/><path d="m101.6 1117.6 1016-1016" stroke-dasharray="67.7333, 541.866" stroke-dashoffset="203.2" stroke-width="67.733"/><path d="m304.8 1320.8 1016-1016" stroke-dasharray="67.7333, 541.866" stroke-width="67.733"/></g><g><path d="m220.74 328.46v287.26h71.815v-287.26h430.89v287.26h71.815v-287.26c0-39.498-32.317-71.815-71.815-71.815h-430.89c-40.695 0-71.815 32.317-71.815 71.815zm-71.815 344.71c0 47.877 38.302 86.179 86.179 86.179h545.8c46.68 0 86.179-38.302 86.179-86.179 0-11.969-10.772-21.545-22.742-21.545h-673.87c-11.969 0-21.545 9.5754-21.545 21.545zm314.79-217.84c10.772-10.772 10.772-27.529 0-38.302-10.772-10.772-27.529-10.772-38.302 0l-53.862 53.862c-9.5754 10.772-9.5754 27.529 0 38.302l53.862 53.862c10.772 9.5754 27.529 9.5754 38.302 0 10.772-10.772 10.772-27.529 0-38.302l-34.711-34.711zm125.68-38.302v0c-9.5754-9.5754-27.529-9.5754-38.302 0-10.772 10.772-10.772 27.529 0 38.302l34.711 34.711-34.711 34.711c-10.772 10.772-10.772 27.529 0 38.302 10.772 9.5754 28.726 9.5754 38.302 0l53.862-53.862c9.5754-10.772 9.5754-27.529 0-38.302z" fill="#55be59" stroke="#fff" stroke-linecap="round" stroke-linejoin="round" stroke-width="5.2918" aria-label=""/></g></svg>
