<?xml version="1.0" encoding="UTF-8"?>
<svg width="3840" height="3840" version="1.1" viewBox="0 0 1016 1016" xml:space="preserve" xmlns="http://www.w3.org/2000/svg"><g fill="#55be59" stroke-linecap="round"><g stroke="#d5efd5"><path d="m-304.8 711.2 1016-1016" stroke-dasharray="67.7333, 541.866" stroke-dashoffset="406.4" stroke-width="67.733"/><path d="m-101.6 914.4 1016-1016" stroke-dasharray="67.73332977,541.86663818" stroke-width="67.733"/><path d="m101.6 1117.6 1016-1016" stroke-dasharray="67.7333, 541.867" stroke-width="67.733"/><path d="m304.8 1320.8 1016-1016" stroke-dasharray="67.7333, 541.866" stroke-dashoffset="406.4" stroke-width="67.733"/></g><g stroke="#808080"><path d="m-304.8 711.2 1016-1016" stroke-dasharray="67.7333, 541.866" stroke-dashoffset="203.2" stroke-width="67.733"/><path d="m-101.6 914.4 1016-1016" stroke-dasharray="67.73332977,541.86663818" stroke-dashoffset="203.2" stroke-width="67.733"/><path d="m101.6 1117.6 1016-1016" stroke-dasharray="67.7333, 541.866" stroke-dashoffset="406.4" stroke-width="67.733"/><path d="m304.8 1320.8 1016-1016" stroke-dasharray="67.7333, 541.866" stroke-dashoffset="203.2" stroke-width="67.733"/></g></g><g fill="#55be59" stroke="#fff" stroke-linecap="round"><path d="m-304.8 711.2 1016-1016" stroke-dasharray="67.7333, 541.866" stroke-width="67.733"/><path d="m-101.6 914.4 1016-1016" stroke-dasharray="67.73332977,541.86663818" stroke-dashoffset="406.4" stroke-width="67.733"/><path d="m101.6 1117.6 1016-1016" stroke-dasharray="67.7333, 541.866" stroke-dashoffset="203.2" stroke-width="67.733"/><path d="m304.8 1320.8 1016-1016" stroke-dasharray="67.7333, 541.866" stroke-width="67.733"/></g><g><path d="m259.45 647.54-50.146 50.146 51.236 50.146 51.236-50.146c27.253 19.622 57.777 35.974 91.571 46.876 32.704 11.991 67.588 17.442 104.65 17.442 35.974 0 70.858-5.4506 104.65-17.442 32.704-10.901 63.227-27.253 91.571-46.876l50.146 50.146 51.236-50.146-49.056-50.146c23.983-29.433 43.605-62.137 57.777-99.202 13.082-35.974 20.712-74.129 20.712-113.37 0-33.794-8.721-63.227-25.073-91.571-16.352-27.253-39.245-49.056-66.498-65.408-27.253-15.262-57.777-23.983-91.571-23.983-28.343 0-55.597 6.5408-80.67 19.622-26.163 13.082-46.876 30.524-63.227 52.326-17.442-21.803-38.155-39.245-64.318-52.326-25.073-13.082-52.326-19.622-80.67-19.622-33.794 0-64.318 8.721-91.571 23.983-27.253 16.352-49.056 38.155-66.498 65.408-16.352 28.343-23.983 57.777-23.983 91.571 0 39.245 6.5408 77.399 19.622 113.37 14.172 37.064 33.794 69.768 58.867 99.202zm391.36-3.2704c-43.605 30.524-90.481 45.785-142.81 45.785-52.326 0-100.29-15.262-143.9-45.785l143.9-142.81zm-178.78-209.3-162.43 162.43c-37.064-47.966-55.597-102.47-55.597-162.43 0-29.433 9.8112-55.597 31.614-77.399 20.712-20.712 45.785-31.614 76.309-31.614 30.524 0 55.597 10.901 77.399 31.614 21.803 21.803 32.704 47.966 32.704 77.399zm233.29 162.43-162.43-162.43c0-29.433 10.901-55.597 32.704-77.399 21.803-20.712 46.876-31.614 77.399-31.614 30.524 0 55.597 10.901 77.399 31.614 20.712 21.803 30.524 47.966 30.524 77.399 0 59.957-18.532 114.46-55.597 162.43z" fill="#55be59" stroke-width="0" aria-label="󱕢"/></g></svg>
