<?xml version="1.0" encoding="UTF-8"?>
<svg width="3840" height="3840" version="1.1" viewBox="0 0 1016 1016" xml:space="preserve" xmlns="http://www.w3.org/2000/svg"><g fill="#55be59" stroke-linecap="round"><g stroke="#d5efd5"><path d="m-304.8 711.2 1016-1016" stroke-dasharray="67.7333, 541.866" stroke-dashoffset="406.4" stroke-width="67.733"/><path d="m-101.6 914.4 1016-1016" stroke-dasharray="67.73332977,541.86663818" stroke-width="67.733"/><path d="m101.6 1117.6 1016-1016" stroke-dasharray="67.7333, 541.867" stroke-width="67.733"/><path d="m304.8 1320.8 1016-1016" stroke-dasharray="67.7333, 541.866" stroke-dashoffset="406.4" stroke-width="67.733"/></g><g stroke="#808080"><path d="m-304.8 711.2 1016-1016" stroke-dasharray="67.7333, 541.866" stroke-dashoffset="203.2" stroke-width="67.733"/><path d="m-101.6 914.4 1016-1016" stroke-dasharray="67.73332977,541.86663818" stroke-dashoffset="203.2" stroke-width="67.733"/><path d="m101.6 1117.6 1016-1016" stroke-dasharray="67.7333, 541.866" stroke-dashoffset="406.4" stroke-width="67.733"/><path d="m304.8 1320.8 1016-1016" stroke-dasharray="67.7333, 541.866" stroke-dashoffset="203.2" stroke-width="67.733"/></g></g><g fill="#55be59" stroke="#fff" stroke-linecap="round"><path d="m-304.8 711.2 1016-1016" stroke-dasharray="67.7333, 541.866" stroke-width="67.733"/><path d="m-101.6 914.4 1016-1016" stroke-dasharray="67.73332977,541.86663818" stroke-dashoffset="406.4" stroke-width="67.733"/><path d="m101.6 1117.6 1016-1016" stroke-dasharray="67.7333, 541.866" stroke-dashoffset="203.2" stroke-width="67.733"/><path d="m304.8 1320.8 1016-1016" stroke-dasharray="67.7333, 541.866" stroke-width="67.733"/></g><g><path d="m218.44 670.56-58.42 58.42 59.69 58.42 59.69-58.42c31.75 22.86 67.31 41.91 106.68 54.61 38.1 13.97 78.74 20.32 121.92 20.32 41.91 0 82.55-6.35 121.92-20.32 38.1-12.7 73.66-31.75 106.68-54.61l58.42 58.42 59.69-58.42-57.15-58.42c27.94-34.29 50.8-72.39 67.31-115.57 15.24-41.91 24.13-86.36 24.13-132.08 0-39.37-10.16-73.66-29.21-106.68-19.05-31.75-45.72-57.15-77.47-76.2-31.75-17.78-67.31-27.94-106.68-27.94-33.02 0-64.77 7.62-93.98 22.86-30.48 15.24-54.61 35.56-73.66 60.96-20.32-25.4-44.45-45.72-74.93-60.96-29.21-15.24-60.96-22.86-93.98-22.86-39.37 0-74.93 10.16-106.68 27.94-31.75 19.05-57.15 44.45-77.47 76.2-19.05 33.02-27.94 67.31-27.94 106.68 0 45.72 7.62 90.17 22.86 132.08 16.51 43.18 39.37 81.28 68.58 115.57zm455.93-3.81c-50.8 35.56-105.41 53.34-166.37 53.34s-116.84-17.78-167.64-53.34l167.64-166.37zm-208.28-243.84-189.23 189.23c-43.18-55.88-64.77-119.38-64.77-189.23 0-34.29 11.43-64.77 36.83-90.17 24.13-24.13 53.34-36.83 88.9-36.83s64.77 12.7 90.17 36.83c25.4 25.4 38.1 55.88 38.1 90.17zm271.78 189.23-189.23-189.23c0-34.29 12.7-64.77 38.1-90.17 25.4-24.13 54.61-36.83 90.17-36.83s64.77 12.7 90.17 36.83c24.13 25.4 35.56 55.88 35.56 90.17 0 69.85-21.59 133.35-64.77 189.23z" fill="#55be59" stroke-width="0" aria-label="󱕢"/></g></svg>
