<?xml version="1.0" encoding="UTF-8" standalone="no"?>
<!-- Created with Inkscape (http://www.inkscape.org/) -->

<svg
   width="3840"
   height="3840"
   viewBox="0 0 1016 1016"
   version="1.1"
   id="svg1"
   inkscape:version="1.4.1 (93de688d07, 2025-03-30)"
   sodipodi:docname="featured-bakery.svg"
   xml:space="preserve"
   xmlns:inkscape="http://www.inkscape.org/namespaces/inkscape"
   xmlns:sodipodi="http://sodipodi.sourceforge.net/DTD/sodipodi-0.dtd"
   xmlns="http://www.w3.org/2000/svg"
   xmlns:svg="http://www.w3.org/2000/svg"><sodipodi:namedview
     id="namedview1"
     pagecolor="#ffffff"
     bordercolor="#000000"
     borderopacity="0.25"
     inkscape:showpageshadow="2"
     inkscape:pageopacity="0.0"
     inkscape:pagecheckerboard="0"
     inkscape:deskcolor="#d1d1d1"
     inkscape:document-units="px"
     inkscape:zoom="0.19380604"
     inkscape:cx="1684.674"
     inkscape:cy="2582.4789"
     inkscape:window-width="3838"
     inkscape:window-height="1065"
     inkscape:window-x="0"
     inkscape:window-y="0"
     inkscape:window-maximized="0"
     inkscape:current-layer="layer3"
     showguides="true"><sodipodi:guide
       position="0,508"
       orientation="0,1"
       id="guide1"
       inkscape:locked="false"
       inkscape:label=""
       inkscape:color="rgb(0,134,229)" /><sodipodi:guide
       position="508,1016"
       orientation="-1,0"
       id="guide3"
       inkscape:locked="false"
       inkscape:label=""
       inkscape:color="rgb(0,134,229)" /><sodipodi:guide
       position="203.2,812.8"
       orientation="-0.70710678,0.70710678"
       id="guide2"
       inkscape:locked="false"
       inkscape:label=""
       inkscape:color="rgb(0,134,229)" /><sodipodi:guide
       position="406.4,609.6"
       orientation="-0.70710678,0.70710678"
       id="guide4"
       inkscape:locked="false"
       inkscape:label=""
       inkscape:color="rgb(0,134,229)" /><sodipodi:guide
       position="609.6,406.4"
       orientation="-0.70710678,0.70710678"
       id="guide5"
       inkscape:locked="false"
       inkscape:label=""
       inkscape:color="rgb(0,134,229)" /><sodipodi:guide
       position="812.8,203.2"
       orientation="-0.70710678,0.70710678"
       id="guide6"
       inkscape:locked="false"
       inkscape:label=""
       inkscape:color="rgb(0,134,229)" /></sodipodi:namedview><defs
     id="defs1" /><g
     inkscape:label="Background 1"
     inkscape:groupmode="layer"
     id="layer1"
     inkscape:highlight-color="#55be59"
     style="display:inline"><path
       style="fill:#55be59;fill-opacity:1;stroke:#d5efd5;stroke-width:67.7333;stroke-linecap:round;stroke-dasharray:67.7333, 541.866;stroke-dashoffset:406.4;stroke-opacity:1"
       d="m -304.8,711.2 1016,-1016"
       id="path1"
       inkscape:label="path1" /><path
       style="display:inline;fill:#55be59;fill-opacity:1;stroke:#d5efd5;stroke-width:67.73333333;stroke-linecap:round;stroke-dasharray:67.73332977,541.86663818;stroke-dashoffset:0;stroke-opacity:1"
       d="M -101.6,914.40002 914.4,-101.60002"
       id="path1-0"
       inkscape:label="path2" /><path
       style="display:inline;fill:#55be59;fill-opacity:1;stroke:#d5efd5;stroke-width:67.7333;stroke-linecap:round;stroke-dasharray:67.7333, 541.867;stroke-dashoffset:0;stroke-opacity:1"
       d="M 101.60002,1117.6 1117.6,101.59999"
       id="path1-0-3"
       inkscape:label="path3" /><path
       style="display:inline;fill:#55be59;fill-opacity:1;stroke:#d5efd5;stroke-width:67.7333;stroke-linecap:round;stroke-dasharray:67.7333, 541.866;stroke-dashoffset:406.4;stroke-opacity:1"
       d="M 304.80001,1320.8 1320.8,304.8"
       id="path1-0-3-8"
       inkscape:label="path4" /></g><g
     inkscape:groupmode="layer"
     id="layer5"
     inkscape:label="Background 2"
     inkscape:highlight-color="#808080"
     style="display:inline"><path
       style="display:inline;fill:#55be59;fill-opacity:1;stroke:#808080;stroke-width:67.7333;stroke-linecap:round;stroke-dasharray:67.7333, 541.866;stroke-dashoffset:203.2;stroke-opacity:1"
       d="M -304.8,711.19997 711.2,-304.8"
       id="path1-2"
       inkscape:label="path1" /><path
       style="display:inline;fill:#55be59;fill-opacity:1;stroke:#808080;stroke-width:67.73333333;stroke-opacity:1;stroke-linecap:round;stroke-dasharray:67.73332977,541.86663818;stroke-dashoffset:203.19998932"
       d="M -101.6,914.40003 914.4,-101.60002"
       id="path1-0-4"
       inkscape:label="path2" /><path
       style="display:inline;fill:#55be59;fill-opacity:1;stroke:#808080;stroke-width:67.7333;stroke-linecap:round;stroke-dasharray:67.7333, 541.866;stroke-dashoffset:406.4;stroke-opacity:1"
       d="M 101.60002,1117.6 1117.6,101.59999"
       id="path1-0-3-5"
       inkscape:label="path3" /><path
       style="display:inline;fill:#55be59;fill-opacity:1;stroke:#808080;stroke-width:67.7333;stroke-linecap:round;stroke-dasharray:67.7333, 541.866;stroke-dashoffset:203.2;stroke-opacity:1"
       d="M 304.80001,1320.8 1320.8,304.8"
       id="path1-0-3-8-8"
       inkscape:label="path4" /></g><g
     inkscape:groupmode="layer"
     id="layer6"
     inkscape:label="Background 3"
     inkscape:highlight-color="#ffffff"
     style="stroke-dasharray:1,5;stroke-dashoffset:0"><path
       style="display:inline;fill:#55be59;fill-opacity:1;stroke:#ffffff;stroke-width:67.7333;stroke-linecap:round;stroke-dasharray:67.7333, 541.866;stroke-dashoffset:0"
       d="M -304.8,711.19997 711.2,-304.8"
       id="path1-25"
       inkscape:label="path1" /><path
       style="display:inline;fill:#55be59;fill-opacity:1;stroke:#ffffff;stroke-width:67.73333333;stroke-dasharray:67.73332977,541.86663818;stroke-linecap:round;stroke-dashoffset:406.39997864"
       d="M -101.6,914.40003 914.4,-101.60002"
       id="path1-0-42"
       inkscape:label="path2" /><path
       style="display:inline;fill:#55be59;fill-opacity:1;stroke:#ffffff;stroke-width:67.7333;stroke-linecap:round;stroke-dasharray:67.7333, 541.866;stroke-dashoffset:203.2"
       d="M 101.60002,1117.6 1117.6,101.59999"
       id="path1-0-3-7"
       inkscape:label="path3" /><path
       style="display:inline;fill:#55be59;fill-opacity:1;stroke:#ffffff;stroke-width:67.7333;stroke-linecap:round;stroke-dasharray:67.7333, 541.866;stroke-dashoffset:0"
       d="M 304.80001,1320.8 1320.8,304.8"
       id="path1-0-3-8-5"
       inkscape:label="path4" /></g><g
     inkscape:groupmode="layer"
     id="layer3"
     inkscape:label="Text"
     inkscape:highlight-color="#55be59"
     style="display:inline"><path
       d="m 259.45064,647.53648 -50.14591,50.14592 51.23605,50.14593 51.23605,-50.14593 c 27.25322,19.62232 57.77682,35.97425 91.57081,46.87554 C 436.05151,756.54936 470.93563,762 508,762 c 35.97425,0 70.85837,-5.45064 104.65236,-17.44206 32.70386,-10.90129 63.22746,-27.25322 91.57081,-46.87554 l 50.14593,50.14593 51.23605,-50.14593 -49.0558,-50.14592 c 23.98284,-29.43348 43.60515,-62.13734 57.77683,-99.20172 13.08155,-35.97424 20.71245,-74.12875 20.71245,-113.37339 0,-33.79399 -8.72104,-63.22746 -25.07296,-91.57081 -16.35193,-27.25322 -39.24463,-49.0558 -66.49785,-65.40773 C 716.2146,262.72103 685.69098,254 651.89699,254 c -28.34335,0 -55.59656,6.54077 -80.66953,19.62232 C 545.06437,286.70386 524.35193,304.14592 508,325.9485 490.55794,304.14592 469.84549,286.70386 443.6824,273.62232 418.60945,260.54077 391.35623,254 363.01287,254 c -33.79399,0 -64.31759,8.72103 -91.5708,23.98283 -27.25323,16.35193 -49.05581,38.15451 -66.49787,65.40773 -16.35193,28.34335 -23.98283,57.77682 -23.98283,91.57081 0,39.24464 6.54078,77.39915 19.62232,113.37339 14.17167,37.06438 33.794,69.76824 58.86695,99.20172 z m 391.35623,-3.27039 c -43.60515,30.52361 -90.48069,45.78541 -142.80686,45.78541 -52.32618,0 -100.29185,-15.2618 -143.897,-45.78541 l 143.897,-142.80686 z M 472.02576,434.96137 309.59656,597.39056 c -37.06437,-47.96567 -55.59655,-102.47211 -55.59655,-162.42919 0,-29.43347 9.81116,-55.59656 31.61373,-77.39914 20.71244,-20.71244 45.78541,-31.61373 76.30901,-31.61373 30.52361,0 55.59656,10.90129 77.39915,31.61373 21.80257,21.80258 32.70386,47.96567 32.70386,77.39914 z M 705.31331,597.39056 542.88413,434.96137 c 0,-29.43347 10.90127,-55.59656 32.70385,-77.39914 21.80257,-20.71244 46.87554,-31.61373 77.39914,-31.61373 30.52361,0 55.59658,10.90129 77.39914,31.61373 20.71245,21.80258 30.52361,47.96567 30.52361,77.39914 0,59.95708 -18.53219,114.46352 -55.59656,162.42919 z"
       id="text3"
       style="font-size:1270px;font-family:'Hasklug Nerd Font Mono';-inkscape-font-specification:'Hasklug Nerd Font Mono';fill:#55be59;stroke:#55be59;stroke-width:0;stroke-linecap:round;stroke-dashoffset:1536"
       aria-label="󱕢"
       inkscape:label="nf-md-pretzel" /></g></svg>
