<?xml version="1.0" encoding="UTF-8"?>
<svg width="3840" height="3840" version="1.1" viewBox="0 0 1016 1016" xml:space="preserve" xmlns="http://www.w3.org/2000/svg"><g fill="#55be59" stroke-linecap="round"><g stroke="#d5efd5"><path d="m-304.8 711.2 1016-1016" stroke-dasharray="67.7333, 541.866" stroke-dashoffset="406.4" stroke-width="67.733"/><path d="m-101.6 914.4 1016-1016" stroke-dasharray="67.73332977,541.86663818" stroke-width="67.733"/><path d="m101.6 1117.6 1016-1016" stroke-dasharray="67.7333, 541.867" stroke-width="67.733"/><path d="m304.8 1320.8 1016-1016" stroke-dasharray="67.7333, 541.866" stroke-dashoffset="406.4" stroke-width="67.733"/></g><g stroke="#808080"><path d="m-304.8 711.2 1016-1016" stroke-dasharray="67.7333, 541.866" stroke-dashoffset="203.2" stroke-width="67.733"/><path d="m-101.6 914.4 1016-1016" stroke-dasharray="67.73332977,541.86663818" stroke-dashoffset="203.2" stroke-width="67.733"/><path d="m101.6 1117.6 1016-1016" stroke-dasharray="67.7333, 541.866" stroke-dashoffset="406.4" stroke-width="67.733"/><path d="m304.8 1320.8 1016-1016" stroke-dasharray="67.7333, 541.866" stroke-dashoffset="203.2" stroke-width="67.733"/></g></g><g fill="#55be59" stroke="#fff" stroke-linecap="round"><path d="m-304.8 711.2 1016-1016" stroke-dasharray="67.7333, 541.866" stroke-width="67.733"/><path d="m-101.6 914.4 1016-1016" stroke-dasharray="67.73332977,541.86663818" stroke-dashoffset="406.4" stroke-width="67.733"/><path d="m101.6 1117.6 1016-1016" stroke-dasharray="67.7333, 541.866" stroke-dashoffset="203.2" stroke-width="67.733"/><path d="m304.8 1320.8 1016-1016" stroke-dasharray="67.7333, 541.866" stroke-width="67.733"/></g><g><path d="m205.82 319.14v302.18h75.545v-302.18h453.27v302.18h75.545v-302.18c0-41.55-33.995-75.545-75.545-75.545h-453.27c-42.809 0-75.545 33.995-75.545 75.545zm-75.545 362.62c0 50.363 40.291 90.654 90.654 90.654h574.14c49.104 0 90.654-40.291 90.654-90.654 0-12.591-11.332-22.663-23.923-22.663h-708.86c-12.591 0-22.663 10.073-22.663 22.663zm331.14-229.15c11.332-11.332 11.332-28.959 0-40.291s-28.959-11.332-40.291 0l-56.659 56.659c-10.073 11.332-10.073 28.959 0 40.291l56.659 56.659c11.332 10.073 28.959 10.073 40.291 0 11.332-11.332 11.332-28.959 0-40.291l-36.513-36.513zm132.2-40.291c-10.073-10.073-28.959-10.073-40.291 0-11.332 11.332-11.332 28.959 0 40.291l36.513 36.513-36.513 36.513c-11.332 11.332-11.332 28.959 0 40.291 11.332 10.073 30.218 10.073 40.291 0l56.659-56.659c10.073-11.332 10.073-28.959 0-40.291z" fill="#55be59" stroke="#fff" stroke-width="6.5505" aria-label=""/></g></svg>
