<?xml version="1.0" encoding="UTF-8" standalone="no"?>
<!-- Created with Inkscape (http://www.inkscape.org/) -->

<svg
   width="3840"
   height="3840"
   viewBox="0 0 1016 1016"
   version="1.1"
   id="svg1"
   inkscape:version="1.4.1 (93de688d07, 2025-03-30)"
   sodipodi:docname="featured-bakery.svg"
   xml:space="preserve"
   xmlns:inkscape="http://www.inkscape.org/namespaces/inkscape"
   xmlns:sodipodi="http://sodipodi.sourceforge.net/DTD/sodipodi-0.dtd"
   xmlns="http://www.w3.org/2000/svg"
   xmlns:svg="http://www.w3.org/2000/svg"><sodipodi:namedview
     id="namedview1"
     pagecolor="#ffffff"
     bordercolor="#000000"
     borderopacity="0.25"
     inkscape:showpageshadow="2"
     inkscape:pageopacity="0.0"
     inkscape:pagecheckerboard="0"
     inkscape:deskcolor="#d1d1d1"
     inkscape:document-units="px"
     inkscape:zoom="0.19380604"
     inkscape:cx="1684.674"
     inkscape:cy="2579.899"
     inkscape:window-width="1918"
     inkscape:window-height="2132"
     inkscape:window-x="0"
     inkscape:window-y="0"
     inkscape:window-maximized="0"
     inkscape:current-layer="layer3"
     showguides="true"><sodipodi:guide
       position="0,508"
       orientation="0,1"
       id="guide1"
       inkscape:locked="false"
       inkscape:label=""
       inkscape:color="rgb(0,134,229)" /><sodipodi:guide
       position="508,1016"
       orientation="-1,0"
       id="guide3"
       inkscape:locked="false"
       inkscape:label=""
       inkscape:color="rgb(0,134,229)" /><sodipodi:guide
       position="203.2,812.8"
       orientation="-0.70710678,0.70710678"
       id="guide2"
       inkscape:locked="false"
       inkscape:label=""
       inkscape:color="rgb(0,134,229)" /><sodipodi:guide
       position="406.4,609.6"
       orientation="-0.70710678,0.70710678"
       id="guide4"
       inkscape:locked="false"
       inkscape:label=""
       inkscape:color="rgb(0,134,229)" /><sodipodi:guide
       position="609.6,406.4"
       orientation="-0.70710678,0.70710678"
       id="guide5"
       inkscape:locked="false"
       inkscape:label=""
       inkscape:color="rgb(0,134,229)" /><sodipodi:guide
       position="812.8,203.2"
       orientation="-0.70710678,0.70710678"
       id="guide6"
       inkscape:locked="false"
       inkscape:label=""
       inkscape:color="rgb(0,134,229)" /></sodipodi:namedview><defs
     id="defs1" /><g
     inkscape:label="Background 1"
     inkscape:groupmode="layer"
     id="layer1"
     inkscape:highlight-color="#55be59"
     style="display:inline"><path
       style="fill:#55be59;fill-opacity:1;stroke:#d5efd5;stroke-width:67.7333;stroke-linecap:round;stroke-dasharray:67.7333, 541.866;stroke-dashoffset:406.4;stroke-opacity:1"
       d="m -304.8,711.2 1016,-1016"
       id="path1"
       inkscape:label="path1" /><path
       style="display:inline;fill:#55be59;fill-opacity:1;stroke:#d5efd5;stroke-width:67.73333333;stroke-linecap:round;stroke-dasharray:67.73332977,541.86663818;stroke-dashoffset:0;stroke-opacity:1"
       d="M -101.6,914.40002 914.4,-101.60002"
       id="path1-0"
       inkscape:label="path2" /><path
       style="display:inline;fill:#55be59;fill-opacity:1;stroke:#d5efd5;stroke-width:67.7333;stroke-linecap:round;stroke-dasharray:67.7333, 541.867;stroke-dashoffset:0;stroke-opacity:1"
       d="M 101.60002,1117.6 1117.6,101.59999"
       id="path1-0-3"
       inkscape:label="path3" /><path
       style="display:inline;fill:#55be59;fill-opacity:1;stroke:#d5efd5;stroke-width:67.7333;stroke-linecap:round;stroke-dasharray:67.7333, 541.866;stroke-dashoffset:406.4;stroke-opacity:1"
       d="M 304.80001,1320.8 1320.8,304.8"
       id="path1-0-3-8"
       inkscape:label="path4" /></g><g
     inkscape:groupmode="layer"
     id="layer5"
     inkscape:label="Background 2"
     inkscape:highlight-color="#808080"
     style="display:inline"><path
       style="display:inline;fill:#55be59;fill-opacity:1;stroke:#808080;stroke-width:67.7333;stroke-linecap:round;stroke-dasharray:67.7333, 541.866;stroke-dashoffset:203.2;stroke-opacity:1"
       d="M -304.8,711.19997 711.2,-304.8"
       id="path1-2"
       inkscape:label="path1" /><path
       style="display:inline;fill:#55be59;fill-opacity:1;stroke:#808080;stroke-width:67.73333333;stroke-opacity:1;stroke-linecap:round;stroke-dasharray:67.73332977,541.86663818;stroke-dashoffset:203.19998932"
       d="M -101.6,914.40003 914.4,-101.60002"
       id="path1-0-4"
       inkscape:label="path2" /><path
       style="display:inline;fill:#55be59;fill-opacity:1;stroke:#808080;stroke-width:67.7333;stroke-linecap:round;stroke-dasharray:67.7333, 541.866;stroke-dashoffset:406.4;stroke-opacity:1"
       d="M 101.60002,1117.6 1117.6,101.59999"
       id="path1-0-3-5"
       inkscape:label="path3" /><path
       style="display:inline;fill:#55be59;fill-opacity:1;stroke:#808080;stroke-width:67.7333;stroke-linecap:round;stroke-dasharray:67.7333, 541.866;stroke-dashoffset:203.2;stroke-opacity:1"
       d="M 304.80001,1320.8 1320.8,304.8"
       id="path1-0-3-8-8"
       inkscape:label="path4" /></g><g
     inkscape:groupmode="layer"
     id="layer6"
     inkscape:label="Background 3"
     inkscape:highlight-color="#ffffff"
     style="stroke-dasharray:1,5;stroke-dashoffset:0"><path
       style="display:inline;fill:#55be59;fill-opacity:1;stroke:#ffffff;stroke-width:67.7333;stroke-linecap:round;stroke-dasharray:67.7333, 541.866;stroke-dashoffset:0"
       d="M -304.8,711.19997 711.2,-304.8"
       id="path1-25"
       inkscape:label="path1" /><path
       style="display:inline;fill:#55be59;fill-opacity:1;stroke:#ffffff;stroke-width:67.73333333;stroke-dasharray:67.73332977,541.86663818;stroke-linecap:round;stroke-dashoffset:406.39997864"
       d="M -101.6,914.40003 914.4,-101.60002"
       id="path1-0-42"
       inkscape:label="path2" /><path
       style="display:inline;fill:#55be59;fill-opacity:1;stroke:#ffffff;stroke-width:67.7333;stroke-linecap:round;stroke-dasharray:67.7333, 541.866;stroke-dashoffset:203.2"
       d="M 101.60002,1117.6 1117.6,101.59999"
       id="path1-0-3-7"
       inkscape:label="path3" /><path
       style="display:inline;fill:#55be59;fill-opacity:1;stroke:#ffffff;stroke-width:67.7333;stroke-linecap:round;stroke-dasharray:67.7333, 541.866;stroke-dashoffset:0"
       d="M 304.80001,1320.8 1320.8,304.8"
       id="path1-0-3-8-5"
       inkscape:label="path4" /></g><g
     inkscape:groupmode="layer"
     id="layer3"
     inkscape:label="Text"
     inkscape:highlight-color="#55be59"
     style="display:inline"><path
       d="m 218.44,670.56 -58.42,58.42 59.69,58.42 59.69,-58.42 c 31.75,22.86 67.31,41.91 106.68,54.61 38.1,13.97 78.74,20.32 121.92,20.32 41.91,0 82.55,-6.35 121.92,-20.32 38.1,-12.7 73.66,-31.75 106.68,-54.61 l 58.42,58.42 59.69,-58.42 -57.15,-58.42 c 27.94,-34.29 50.8,-72.39 67.31,-115.57 15.24,-41.91 24.13,-86.36 24.13,-132.08 0,-39.37 -10.16,-73.66 -29.21,-106.68 -19.05,-31.75 -45.72,-57.15 -77.47,-76.2 -31.75,-17.78 -67.31,-27.94 -106.68,-27.94 -33.02,0 -64.77,7.62 -93.98,22.86 -30.48,15.24 -54.61,35.56 -73.66,60.96 -20.32,-25.4 -44.45,-45.72 -74.93,-60.96 -29.21,-15.24 -60.96,-22.86 -93.98,-22.86 -39.37,0 -74.93,10.16 -106.68,27.94 -31.75,19.05 -57.15,44.45 -77.47,76.2 -19.05,33.02 -27.94,67.31 -27.94,106.68 0,45.72 7.62,90.17 22.86,132.08 16.51,43.18 39.37,81.28 68.58,115.57 z m 455.93,-3.81 c -50.8,35.56 -105.41,53.34 -166.37,53.34 -60.96,0 -116.84,-17.78 -167.64,-53.34 L 508,500.38 Z M 466.09,422.91 276.86,612.14 c -43.18,-55.88 -64.77,-119.38 -64.77,-189.23 0,-34.29 11.43,-64.77 36.83,-90.17 24.13,-24.13 53.34,-36.83 88.9,-36.83 35.56,0 64.77,12.7 90.17,36.83 25.4,25.4 38.1,55.88 38.1,90.17 z M 737.87,612.14 548.64,422.91 c 0,-34.29 12.7,-64.77 38.1,-90.17 25.4,-24.13 54.61,-36.83 90.17,-36.83 35.56,0 64.77,12.7 90.17,36.83 24.13,25.4 35.56,55.88 35.56,90.17 0,69.85 -21.59,133.35 -64.77,189.23 z"
       id="text3"
       style="font-size:1270px;font-family:'Hasklug Nerd Font Mono';-inkscape-font-specification:'Hasklug Nerd Font Mono';fill:#55be59;stroke:#55be59;stroke-width:0;stroke-linecap:round;stroke-dashoffset:1536"
       aria-label="󱕢"
       inkscape:label="nf-md-pretzel" /></g></svg>
