<?xml version="1.0" encoding="UTF-8"?>
<svg width="3840" height="3840" version="1.1" viewBox="0 0 1016 1016" xml:space="preserve" xmlns="http://www.w3.org/2000/svg"><defs><style>.cls-1{fill:#b82065;}.cls-2{fill:#d7156f;}.cls-3{fill:#c2aacf;}.cls-4{fill:#decee5;}.cls-5{fill:#f4e6f4;}.cls-6{fill:#14a36d;}.cls-7{fill:#15be79;}.cls-8{fill:#33db92;}.cls-9{fill:#fff;}.cls-10{fill:#ebd9ea;}.cls-11{fill:#f39e22;}.cls-12{fill:#f9c744;}.cls-13{fill:#c44a1a;}.cls-14{fill:#0989d8;}.cls-15{fill:#29a3fb;}.cls-16{fill:#7ed0fc;}.cls-17{fill:#ed72ab;}</style></defs><g transform="translate(0 340.65)" stroke-linecap="round" stroke-width="67.733"><g fill="#55be59" stroke="#d9bfcb"><path d="m203.2 786.15v-1436.8" stroke-dasharray="67.7333, 541.866" stroke-dashoffset="406.4"/><path d="m406.4 853.89-2e-5 -1436.8" stroke-dasharray="67.7333, 541.867"/><path d="m609.6 921.62 1e-5 -1436.8" stroke-dasharray="67.7333, 541.867"/><path d="m812.8 985.39-1e-5 -1436.8" stroke-dasharray="67.7333, 541.866" stroke-dashoffset="406.4"/></g><g fill="#547d73" stroke="#547d73"><path d="m203.2 786.15 2e-5 -1436.8" stroke-dasharray="67.7333, 541.866" stroke-dashoffset="203.2"/><path d="m406.4 853.89-3e-5 -1436.8" stroke-dasharray="67.7333, 541.867" stroke-dashoffset="203.2"/><path d="m609.6 921.62 1e-5 -1436.8" stroke-dasharray="67.7333, 541.866" stroke-dashoffset="406.4"/><path d="m812.8 985.39-1e-5 -1436.8" stroke-dasharray="67.7333, 541.866" stroke-dashoffset="203.2"/></g></g><g transform="translate(0 340.65)" fill="#55be59" stroke="#fff" stroke-linecap="round" stroke-width="67.733"><path d="m203.2 786.15 2e-5 -1436.8" stroke-dasharray="67.7333, 541.866"/><path d="m406.4 853.89-3e-5 -1436.8" stroke-dasharray="67.7333, 541.867" stroke-dashoffset="406.4"/><path d="m609.6 921.62 1e-5 -1436.8" stroke-dasharray="67.7333, 541.866" stroke-dashoffset="203.2"/><path d="m812.8 985.39-1e-5 -1436.8" stroke-dasharray="67.7333, 541.866"/></g><g transform="translate(40.746 19.05)"><path d="m560.26 395.11c-17.595-15.919-36.865-26.811-59.487-33.514-22.622-5.8649-45.244-5.8649-67.866 0-22.622 6.7028-41.892 17.595-59.487 34.352-16.757 16.757-28.487 36.865-33.514 59.487-5.8649 22.622-5.8649 44.406 0 67.028 5.0271 22.622 16.757 42.73 33.514 59.487 17.595 16.757 36.865 27.649 59.487 34.352 22.622 5.8649 45.244 5.8649 67.866 0 22.622-6.7028 41.892-17.595 59.487-34.352 16.757-16.757 28.487-36.865 33.514-59.487 5.8649-22.622 5.8649-44.406 0-67.028-5.8649-22.622-16.757-42.73-33.514-60.325zm103.06-102.22c-1.6757 17.595-8.3785 35.19-20.108 52.784 28.487 5.027 53.622 18.433 75.406 39.379-15.081 15.919-32.676 25.973-51.947 30.162-17.595 4.1891-34.352 4.1891-51.109 0-4.1892-19.271-13.406-35.19-26.811-47.757-12.568-13.406-29.325-22.622-47.757-27.649-4.1892-15.919-4.1892-33.514 0-50.271 4.1892-20.108 14.243-36.865 29.325-51.946 22.622 21.784 36.027 46.919 40.217 76.244 10.892-7.5406 23.46-13.406 36.027-17.595 5.8649-0.8379 11.73-1.6757 16.757-3.3515zm-392.95 392.11c1.6757-17.595 8.3785-35.19 20.108-52.784-28.487-5.0271-53.622-18.433-74.568-39.379 14.243-15.919 31.838-25.973 51.109-30.163 17.595-4.1893 34.352-4.1893 51.109 0 4.1892 19.27 13.406 35.19 26.811 47.757 12.568 13.406 29.325 22.622 47.757 27.649 4.1892 15.919 4.1892 33.514 0 50.271-4.1892 20.108-14.243 36.865-29.325 51.947-22.622-21.784-36.027-46.919-40.217-76.244-10.892 7.5406-23.46 13.406-36.027 17.595-5.8649 0.83784-11.73 1.6757-16.757 3.3514z" fill="#b82065" stroke="#fff" stroke-dashoffset="1536" stroke-linecap="round" stroke-linejoin="round" stroke-width="5.2917" aria-label="󱥰"/></g></svg>
