<?xml version="1.0" encoding="UTF-8"?>
<svg width="3840" height="3840" version="1.1" viewBox="0 0 1016 1016" xml:space="preserve" xmlns="http://www.w3.org/2000/svg"><g fill="#55be59" stroke-linecap="round"><g stroke="#d5efd5"><path d="m-304.8 711.2 1016-1016" stroke-dasharray="67.7333, 541.866" stroke-dashoffset="406.4" stroke-width="67.733"/><path d="m-101.6 914.4 1016-1016" stroke-dasharray="67.73332977,541.86663818" stroke-width="67.733"/><path d="m101.6 1117.6 1016-1016" stroke-dasharray="67.7333, 541.867" stroke-width="67.733"/><path d="m304.8 1320.8 1016-1016" stroke-dasharray="67.7333, 541.866" stroke-dashoffset="406.4" stroke-width="67.733"/></g><g stroke="#808080"><path d="m-304.8 711.2 1016-1016" stroke-dasharray="67.7333, 541.866" stroke-dashoffset="203.2" stroke-width="67.733"/><path d="m-101.6 914.4 1016-1016" stroke-dasharray="67.73332977,541.86663818" stroke-dashoffset="203.2" stroke-width="67.733"/><path d="m101.6 1117.6 1016-1016" stroke-dasharray="67.7333, 541.866" stroke-dashoffset="406.4" stroke-width="67.733"/><path d="m304.8 1320.8 1016-1016" stroke-dasharray="67.7333, 541.866" stroke-dashoffset="203.2" stroke-width="67.733"/></g></g><g fill="#55be59" stroke="#fff" stroke-linecap="round"><path d="m-304.8 711.2 1016-1016" stroke-dasharray="67.7333, 541.866" stroke-width="67.733"/><path d="m-101.6 914.4 1016-1016" stroke-dasharray="67.73332977,541.86663818" stroke-dashoffset="406.4" stroke-width="67.733"/><path d="m101.6 1117.6 1016-1016" stroke-dasharray="67.7333, 541.866" stroke-dashoffset="203.2" stroke-width="67.733"/><path d="m304.8 1320.8 1016-1016" stroke-dasharray="67.7333, 541.866" stroke-width="67.733"/></g><g><path d="m745.92 261.78c-10.076-6.7172-22.67-7.5568-33.586-1.6793l-440.81 251.89c-10.076 5.8775-15.953 16.793-15.114 27.708 0 11.755 6.7172 22.67 17.633 27.708l86.483 42.822 199.84-177.16c5.8775-5.8775 15.953-5.0379 21.831 0.83964s5.8775 15.114 0 21.831l-164.57 179.68c-2.5189 2.5189-4.1982 6.7172-4.1982 10.076v82.285c0 13.434 7.5568 25.189 20.151 30.227 11.755 4.1982 26.029 0.83964 34.425-8.3964l68.011-73.049 116.71 48.699c9.2361 3.3586 19.312 3.3586 27.708-1.6793 9.2361-4.1982 14.274-12.595 15.953-22.67l62.973-408.91c1.6793-11.755-3.3586-23.51-13.434-30.227z" fill="#55be59" stroke="#fff" stroke-width="4.3683" aria-label=""/></g></svg>
