<?xml version="1.0" encoding="UTF-8"?>
<svg width="3840" height="3840" version="1.1" viewBox="0 0 1016 1016" xml:space="preserve" xmlns="http://www.w3.org/2000/svg"><g fill="#55be59" stroke-linecap="round"><g stroke="#d5efd5"><path d="m-304.8 711.2 1016-1016" stroke-dasharray="67.7333, 541.866" stroke-dashoffset="406.4" stroke-width="67.733"/><path d="m-101.6 914.4 1016-1016" stroke-dasharray="67.73332977,541.86663818" stroke-width="67.733"/><path d="m101.6 1117.6 1016-1016" stroke-dasharray="67.7333, 541.867" stroke-width="67.733"/><path d="m304.8 1320.8 1016-1016" stroke-dasharray="67.7333, 541.866" stroke-dashoffset="406.4" stroke-width="67.733"/></g><g stroke="#808080"><path d="m-304.8 711.2 1016-1016" stroke-dasharray="67.7333, 541.866" stroke-dashoffset="203.2" stroke-width="67.733"/><path d="m-101.6 914.4 1016-1016" stroke-dasharray="67.73332977,541.86663818" stroke-dashoffset="203.2" stroke-width="67.733"/><path d="m101.6 1117.6 1016-1016" stroke-dasharray="67.7333, 541.866" stroke-dashoffset="406.4" stroke-width="67.733"/><path d="m304.8 1320.8 1016-1016" stroke-dasharray="67.7333, 541.866" stroke-dashoffset="203.2" stroke-width="67.733"/></g></g><g fill="#55be59" stroke="#fff" stroke-linecap="round"><path d="m-304.8 711.2 1016-1016" stroke-dasharray="67.7333, 541.866" stroke-width="67.733"/><path d="m-101.6 914.4 1016-1016" stroke-dasharray="67.73332977,541.86663818" stroke-dashoffset="406.4" stroke-width="67.733"/><path d="m101.6 1117.6 1016-1016" stroke-dasharray="67.7333, 541.866" stroke-dashoffset="203.2" stroke-width="67.733"/><path d="m304.8 1320.8 1016-1016" stroke-dasharray="67.7333, 541.866" stroke-width="67.733"/></g><g><path d="m745.62 262.09c-10.063-6.7087-22.642-7.5472-33.543-1.6772l-440.26 251.58c-10.063 5.8701-15.933 16.772-15.095 27.673 0 11.74 6.7087 22.642 17.61 27.673l86.374 42.768 199.58-176.94c5.8701-5.8701 15.933-5.0315 21.803 0.83858s5.8701 15.095 0 21.803l-164.36 179.46c-2.5158 2.5157-4.1929 6.7087-4.1929 10.063v82.181c0 13.417 7.5473 25.158 20.126 30.189 11.74 4.1929 25.996 0.83858 34.382-8.3858l67.925-72.957 116.56 48.638c9.2244 3.3543 19.287 3.3543 27.673-1.6772 9.2244-4.1929 14.256-12.579 15.933-22.642l62.894-408.39c1.6772-11.74-3.3543-23.48-13.417-30.189z" fill="#55be59" stroke="#fff" stroke-linecap="round" stroke-linejoin="round" stroke-width="5.2917" aria-label=""/></g></svg>
