<?xml version="1.0" encoding="UTF-8"?>
<svg width="3840" height="3840" version="1.1" viewBox="0 0 1016 1016" xml:space="preserve" xmlns="http://www.w3.org/2000/svg"><g fill="#55be59" stroke-linecap="round"><g stroke="#ecd6c6" stroke-width="67.733"><path d="m-304.8 711.2 1016-1016" stroke-dasharray="67.7333, 541.866" stroke-dashoffset="406.4"/><path d="m-101.6 914.4 1016-1016" stroke-dasharray="67.7333, 541.867"/><path d="m101.6 1117.6 1016-1016" stroke-dasharray="67.7333, 541.867"/><path d="m304.8 1320.8 1016-1016" stroke-dasharray="67.7333, 541.866" stroke-dashoffset="406.4"/></g><g stroke="#808080"><path d="m-304.8 711.2 1016-1016" stroke-dasharray="67.7333, 541.866" stroke-dashoffset="203.2" stroke-width="67.733"/><path d="m-101.6 914.4 1016-1016" stroke-dasharray="67.73332977,541.86663818" stroke-dashoffset="203.2" stroke-width="67.733"/><path d="m101.6 1117.6 1016-1016" stroke-dasharray="67.7333, 541.866" stroke-dashoffset="406.4" stroke-width="67.733"/><path d="m304.8 1320.8 1016-1016" stroke-dasharray="67.7333, 541.866" stroke-dashoffset="203.2" stroke-width="67.733"/></g></g><g fill="#55be59" stroke="#fff" stroke-linecap="round"><path d="m-304.8 711.2 1016-1016" stroke-dasharray="67.7333, 541.866" stroke-width="67.733"/><path d="m-101.6 914.4 1016-1016" stroke-dasharray="67.73332977,541.86663818" stroke-dashoffset="406.4" stroke-width="67.733"/><path d="m101.6 1117.6 1016-1016" stroke-dasharray="67.7333, 541.866" stroke-dashoffset="203.2" stroke-width="67.733"/><path d="m304.8 1320.8 1016-1016" stroke-dasharray="67.7333, 541.866" stroke-width="67.733"/></g><g><path d="m362.6 402.04c0 24.749 5.4138 47.951 17.015 68.832 11.601 20.882 27.069 37.896 47.177 51.044-43.31 16.241-78.113 43.31-105.96 80.433-27.842 37.123-43.31 79.66-44.857 126.84v0.7734c0 7.734 2.3202 14.695 7.734 20.108 5.4138 5.4138 11.601 8.5074 20.108 9.2808h408.35c7.734-0.7734 13.921-3.867 19.335-9.2808 5.4138-5.4138 8.5074-12.374 8.5074-20.108v-0.7734c-3.0936-47.177-17.788-88.941-45.63-126.84-27.842-37.123-62.645-64.192-105.96-80.433 20.108-13.148 35.576-30.162 47.177-51.044 11.601-20.882 17.788-44.084 17.788-68.832 0-19.335-3.867-38.67-11.601-56.458-7.734-17.788-17.788-33.256-30.936-46.404-13.148-13.148-28.616-23.202-46.404-30.936-17.788-7.734-37.123-11.601-56.458-11.601-20.108 0-38.67 3.867-57.231 11.601-17.788 7.734-33.256 17.788-46.404 30.936-12.374 13.148-23.202 28.616-30.936 46.404-7.734 17.788-10.828 37.123-10.828 56.458z" fill="#c48a4f" stroke="#fff" stroke-dashoffset="1536" stroke-linecap="round" stroke-linejoin="round" stroke-width="5.2917" aria-label=""/></g></svg>
