<?xml version="1.0" encoding="UTF-8" standalone="no"?>
<!-- Created with Inkscape (http://www.inkscape.org/) -->

<svg
   width="3840"
   height="3840"
   viewBox="0 0 1016 1016"
   version="1.1"
   id="svg1"
   inkscape:version="1.4.1 (93de688d07, 2025-03-30)"
   sodipodi:docname="featured-logo.svg"
   xml:space="preserve"
   xmlns:inkscape="http://www.inkscape.org/namespaces/inkscape"
   xmlns:sodipodi="http://sodipodi.sourceforge.net/DTD/sodipodi-0.dtd"
   xmlns:xlink="http://www.w3.org/1999/xlink"
   xmlns="http://www.w3.org/2000/svg"
   xmlns:svg="http://www.w3.org/2000/svg"><sodipodi:namedview
     id="namedview1"
     pagecolor="#ffffff"
     bordercolor="#000000"
     borderopacity="0.25"
     inkscape:showpageshadow="2"
     inkscape:pageopacity="0.0"
     inkscape:pagecheckerboard="0"
     inkscape:deskcolor="#d1d1d1"
     inkscape:document-units="px"
     inkscape:zoom="0.13704157"
     inkscape:cx="2101.5521"
     inkscape:cy="5348.742"
     inkscape:window-width="1918"
     inkscape:window-height="2132"
     inkscape:window-x="0"
     inkscape:window-y="0"
     inkscape:window-maximized="0"
     inkscape:current-layer="layer3"
     showguides="true"><sodipodi:guide
       position="0,508"
       orientation="0,1"
       id="guide1"
       inkscape:locked="false"
       inkscape:label=""
       inkscape:color="rgb(0,134,229)" /><sodipodi:guide
       position="508,1016"
       orientation="-1,0"
       id="guide3"
       inkscape:locked="false"
       inkscape:label=""
       inkscape:color="rgb(0,134,229)" /><sodipodi:guide
       position="203.2,812.8"
       orientation="-1,0"
       id="guide2"
       inkscape:locked="false"
       inkscape:label=""
       inkscape:color="rgb(0,134,229)" /><sodipodi:guide
       position="406.4,609.6"
       orientation="-1,0"
       id="guide4"
       inkscape:locked="false"
       inkscape:label=""
       inkscape:color="rgb(0,134,229)" /><sodipodi:guide
       position="609.6,406.4"
       orientation="-1,0"
       id="guide5"
       inkscape:locked="false"
       inkscape:label=""
       inkscape:color="rgb(0,134,229)" /><sodipodi:guide
       position="812.8,203.2"
       orientation="-1,0"
       id="guide6"
       inkscape:locked="false"
       inkscape:label=""
       inkscape:color="rgb(0,134,229)" /></sodipodi:namedview><defs
     id="defs1"><linearGradient
       id="swatch30"><stop
         style="stop-color:#40bf80;stop-opacity:1;"
         offset="0"
         id="stop30" /><stop
         style="stop-color:#40bf80;stop-opacity:0;"
         offset="1"
         id="stop31" /></linearGradient><clipPath
       clipPathUnits="userSpaceOnUse"
       id="clipPath25"><rect
         style="fill:#ff0000;stroke:none;stroke-width:3;stroke-linecap:square;stroke-linejoin:miter;paint-order:stroke markers fill;stop-color:#000000"
         id="rect25-8"
         width="78"
         height="45.033199"
         x="763.61322"
         y="452.82422" /></clipPath><clipPath
       clipPathUnits="userSpaceOnUse"
       id="clipPath25-9"><rect
         style="fill:#ff0000;stroke:none;stroke-width:3;stroke-linecap:square;stroke-linejoin:miter;paint-order:stroke markers fill;stop-color:#000000"
         id="rect25-8-3"
         width="78"
         height="45.033199"
         x="763.61322"
         y="452.82422" /></clipPath><linearGradient
       id="linearGradient1"
       inkscape:collect="always"><stop
         style="stop-color:#ffffff;stop-opacity:0.5;"
         offset="0"
         id="stop1" /><stop
         style="stop-color:#ffffff;stop-opacity:1;"
         offset="1"
         id="stop2" /></linearGradient><linearGradient
       id="linearGradient43"
       inkscape:collect="always"><stop
         style="stop-color:#abbab3;stop-opacity:0.5;"
         offset="0"
         id="stop43" /><stop
         style="stop-color:#abbab3;stop-opacity:1;"
         offset="1"
         id="stop4" /></linearGradient><linearGradient
       id="linearGradient37"
       inkscape:collect="always"><stop
         style="stop-color:#40bf80;stop-opacity:1;"
         offset="0"
         id="stop37" /><stop
         style="stop-color:#40bf80;stop-opacity:0.5;"
         offset="1"
         id="stop38" /></linearGradient><clipPath
       clipPathUnits="userSpaceOnUse"
       id="clipPath25-1"><rect
         style="fill:#ff0000;stroke:none;stroke-width:3;stroke-linecap:square;stroke-linejoin:miter;paint-order:stroke markers fill;stop-color:#000000"
         id="rect25-8-2"
         width="78"
         height="45.033199"
         x="763.61322"
         y="452.82422" /></clipPath><linearGradient
       inkscape:collect="always"
       xlink:href="#linearGradient37"
       id="linearGradient38"
       x1="0"
       y1="508"
       x2="1016"
       y2="508"
       gradientUnits="userSpaceOnUse" /><linearGradient
       inkscape:collect="always"
       xlink:href="#linearGradient43"
       id="linearGradient44"
       x1="404.2066"
       y1="508.00006"
       x2="610.10004"
       y2="508.00006"
       gradientUnits="userSpaceOnUse" /><linearGradient
       inkscape:collect="always"
       xlink:href="#linearGradient1"
       id="linearGradient2"
       x1="261.32178"
       y1="508.00003"
       x2="754.67816"
       y2="508"
       gradientUnits="userSpaceOnUse"
       gradientTransform="matrix(1.0105259,0,0,1.0105259,-5.3471552,-5.347157)" /></defs><g
     inkscape:label="Background 1"
     inkscape:groupmode="layer"
     id="layer1"
     inkscape:highlight-color="#abbab3"
     style="display:inline"
     transform="translate(0,340.65103)"><path
       style="fill:#55be59;fill-opacity:1;stroke:#abbab3;stroke-width:67.7333;stroke-linecap:round;stroke-dasharray:67.7333, 541.866;stroke-dashoffset:406.4;stroke-opacity:1"
       d="M 203.20001,786.15384 V -650.68714"
       id="path1"
       inkscape:label="path1" /><path
       style="display:inline;fill:#55be59;fill-opacity:1;stroke:#abbab3;stroke-width:67.7333;stroke-linecap:round;stroke-dasharray:67.7333, 541.867;stroke-dashoffset:0;stroke-opacity:1"
       d="m 406.40001,853.88717 -2e-5,-1436.841"
       id="path1-0"
       inkscape:label="path2" /><path
       style="display:inline;fill:#55be59;fill-opacity:1;stroke:#abbab3;stroke-width:67.7333;stroke-linecap:round;stroke-dasharray:67.7333, 541.867;stroke-dashoffset:0;stroke-opacity:1"
       d="m 609.6,921.62047 10e-6,-1436.84095"
       id="path1-0-3"
       inkscape:label="path3" /><path
       style="display:inline;fill:#55be59;fill-opacity:1;stroke:#abbab3;stroke-width:67.7333;stroke-linecap:round;stroke-dasharray:67.7333, 541.866;stroke-dashoffset:406.4;stroke-opacity:1"
       d="M 812.80001,985.38507 812.8,-451.45591"
       id="path1-0-3-8"
       inkscape:label="path4" /></g><g
     inkscape:groupmode="layer"
     id="layer5"
     inkscape:label="Background 2"
     inkscape:highlight-color="#78788c"
     style="display:inline"
     transform="translate(0,340.65103)"><path
       style="display:inline;fill:#55be59;fill-opacity:1;stroke:#78788c;stroke-width:67.7333;stroke-linecap:round;stroke-dasharray:67.7333, 541.866;stroke-dashoffset:203.2;stroke-opacity:1"
       d="m 203.19999,786.15381 2e-5,-1436.84095"
       id="path1-2"
       inkscape:label="path1" /><path
       style="display:inline;fill:#55be59;fill-opacity:1;stroke:#78788c;stroke-width:67.7333;stroke-linecap:round;stroke-dasharray:67.7333, 541.867;stroke-dashoffset:203.2;stroke-opacity:1"
       d="m 406.40002,853.88718 -3e-5,-1436.84101"
       id="path1-0-4"
       inkscape:label="path2" /><path
       style="display:inline;fill:#55be59;fill-opacity:1;stroke:#78788c;stroke-width:67.7333;stroke-linecap:round;stroke-dasharray:67.7333, 541.866;stroke-dashoffset:406.4;stroke-opacity:1"
       d="m 609.6,921.62047 10e-6,-1436.84095"
       id="path1-0-3-5"
       inkscape:label="path3" /><path
       style="display:inline;fill:#55be59;fill-opacity:1;stroke:#78788c;stroke-width:67.7333;stroke-linecap:round;stroke-dasharray:67.7333, 541.866;stroke-dashoffset:203.2;stroke-opacity:1"
       d="M 812.80001,985.38507 812.8,-451.45591"
       id="path1-0-3-8-8"
       inkscape:label="path4" /></g><g
     inkscape:groupmode="layer"
     id="layer6"
     inkscape:label="Background 3"
     inkscape:highlight-color="#ffffff"
     style="stroke-dasharray:1, 5;stroke-dashoffset:0"
     transform="translate(0,340.65103)"><path
       style="display:inline;fill:#55be59;fill-opacity:1;stroke:#ffffff;stroke-width:67.7333;stroke-linecap:round;stroke-dasharray:67.7333, 541.866;stroke-dashoffset:0"
       d="m 203.19999,786.15381 2e-5,-1436.84095"
       id="path1-25"
       inkscape:label="path1" /><path
       style="display:inline;fill:#55be59;fill-opacity:1;stroke:#ffffff;stroke-width:67.7333;stroke-linecap:round;stroke-dasharray:67.7333, 541.867;stroke-dashoffset:406.4"
       d="m 406.40002,853.88718 -3e-5,-1436.84101"
       id="path1-0-42"
       inkscape:label="path2" /><path
       style="display:inline;fill:#55be59;fill-opacity:1;stroke:#ffffff;stroke-width:67.7333;stroke-linecap:round;stroke-dasharray:67.7333, 541.866;stroke-dashoffset:203.2"
       d="m 609.6,921.62047 10e-6,-1436.84095"
       id="path1-0-3-7"
       inkscape:label="path3" /><path
       style="display:inline;fill:#55be59;fill-opacity:1;stroke:#ffffff;stroke-width:67.7333;stroke-linecap:round;stroke-dasharray:67.7333, 541.866;stroke-dashoffset:0"
       d="M 812.80001,985.38507 812.8,-451.45591"
       id="path1-0-3-8-5"
       inkscape:label="path4" /></g><g
     inkscape:groupmode="layer"
     id="layer3"
     inkscape:label="Text"
     inkscape:highlight-color="#40bf80"
     style="display:inline"><g
       id="g1"
       transform="matrix(0.5,0,0,0.5,254,254)"
       style="stroke-width:2"
       inkscape:label="logo"><g
         inkscape:label="Background"
         id="layer1-7"
         inkscape:highlight-color="#40bf80"
         style="display:inline;stroke-width:2"><path
           d="M 914.39999,660.39999 1016,558.79999 V 355.6 c -28.78668,15.24 -50.80001,23.70666 -67.73334,25.40001 -13.54666,0 -23.70667,-3.38668 -30.47999,-10.16001 -6.77333,-6.77333 -10.16001,-16.93333 -11.85334,-27.09334 l -3.38667,-13.54665 V 181.18666 L 761.99999,40.639995 c -6.77333,30.480014 -16.93333,50.799999 -30.47999,64.346685 -11.85333,11.85333 -22.01333,16.93333 -33.86667,15.23998 -8.46667,0 -16.93333,-3.38665 -25.40001,-10.15998 L 660.39999,99.906673 557.10667,0 h -203.2 c 15.24001,27.093338 25.39999,50.799999 27.09334,67.733333 0,13.546656 -5.08,23.706661 -11.85333,30.479989 -6.77336,6.773358 -15.24001,10.160008 -27.09334,11.853358 L 328.50666,111.76 H 179.49334 L 38.946669,257.38667 c 30.479989,6.77333 52.493325,16.93334 66.040011,28.78667 10.15998,10.16 15.23998,18.62666 15.23998,28.78666 -1.69333,10.16001 -5.08,20.32001 -11.85333,28.78666 L 99.906673,355.6 0,457.19999 v 203.2 C 27.093338,645.16001 49.106674,636.69333 66.040007,635 c 13.546656,0 23.706661,3.38666 30.479989,10.16001 6.773324,6.77333 10.160004,16.93333 11.853334,27.09331 L 111.76,685.8 V 828.04 L 252.30667,970.27999 C 259.08,941.49333 269.24,921.17334 282.78666,909.32001 294.63999,899.16001 304.8,894.08 316.65333,894.08 c 8.46668,1.69333 16.93333,5.08001 25.40001,11.85333 L 353.90667,916.09334 457.19999,1016 h 203.2 C 645.16001,988.90667 635,965.19999 635,948.26666 c 0,-13.54666 3.38666,-23.70667 10.16001,-30.47999 6.77333,-6.77333 15.23998,-10.16001 27.09331,-11.85334 L 685.8,904.24001 H 826.34667 L 970.27999,763.69334 c -28.78666,-8.46668 -49.10665,-18.62668 -62.65333,-30.48001 -10.16,-11.85333 -15.24001,-23.70666 -15.24001,-35.56 1.69335,-8.46667 6.77336,-16.93333 13.54668,-25.40001 3.38666,-5.08 5.08001,-8.46665 8.46666,-11.85333 z m -304.8,-152.4 c 0,28.78667 -10.16,52.49335 -30.47999,72.81334 -18.62666,20.32001 -44.02667,30.48001 -71.12001,30.48001 -28.78666,0 -54.18665,-10.16 -72.81333,-30.48001 -20.31999,-20.31999 -30.47999,-44.02667 -30.47999,-72.81334 0,-28.78666 10.16,-52.49332 30.47999,-72.81333 18.62668,-20.31999 44.02667,-30.47999 72.81333,-30.47999 27.09334,0 52.49335,10.16 71.12001,30.47999 20.31999,20.32001 30.47999,44.02667 30.47999,72.81333 z"
           id="text36"
           style="font-size:677.333px;font-family:'Hasklug Nerd Font Mono';-inkscape-font-specification:'Hasklug Nerd Font Mono';fill:url(#linearGradient38);fill-opacity:1;stroke-width:2.00024;stroke-linecap:round;stroke-linejoin:round;stroke-dashoffset:1536"
           aria-label="󰹡"
           sodipodi:nodetypes="ccccsccccsccccccscccccccccccsccccccccccssccccccccscscscscs" /><path
           d="m 609.59999,508.00001 c 0,28.78667 -10.16,52.49335 -30.47999,72.81334 -18.62666,20.32001 -44.02667,30.48001 -71.12001,30.48001 -28.78666,0 -54.18665,-10.16 -72.81333,-30.48001 -20.31999,-20.31999 -30.47999,-44.02667 -30.47999,-72.81334 0,-28.78666 10.16,-52.49332 30.47999,-72.81333 18.62668,-20.31999 44.02667,-30.47999 72.81333,-30.47999 27.09334,0 52.49335,10.16 71.12001,30.47999 20.31999,20.32001 30.47999,44.02667 30.47999,72.81333 z"
           style="font-size:677.333px;font-family:'Hasklug Nerd Font Mono';-inkscape-font-specification:'Hasklug Nerd Font Mono';display:inline;fill:url(#linearGradient44);fill-opacity:1;stroke:none;stroke-width:2.00024;stroke-linecap:round;stroke-linejoin:round;stroke-dashoffset:1536;stroke-opacity:1"
           id="path1-09" /></g><g
         id="layer3-1"
         inkscape:label="Text"
         inkscape:highlight-color="#ffffff"
         style="display:inline;stroke-width:2;stroke-dasharray:2, 10;stroke-dashoffset:0"><path
           d="m 611.57249,535.12621 h -23.83811 l -60.00629,61.65049 v 22.19417 L 669.93476,760.356 754.60114,678.15534 Z m 22.1941,-64.1165 33.70216,-32.88026 50.14222,50.9644 c 13.15207,-13.15211 19.7281,-30.41424 19.7281,-50.1424 0,-19.72815 -6.57603,-36.99029 -19.7281,-50.9644 l -83.84438,-83.84466 -33.70215,33.70227 v -67.40454 l -16.44009,-16.44013 -84.66639,83.84467 17.26208,16.44012 h 67.40431 l -33.70216,33.70227 25.48212,26.30421 L 508,481.69579 408.53755,383.87701 v -33.70226 l -71.51434,-70.69256 -66.58231,65.76053 71.51433,72.33656 h 32.88015 l 97.81846,98.64078 -19.72809,18.90615 H 402.78351 L 261.39886,678.15534 343.59924,762.00001 487.44991,618.97087 V 568.82849 L 609.10647,447.17151 Z"
           id="text3"
           style="font-size:1270px;font-family:'Hasklug Nerd Font Mono';-inkscape-font-specification:'Hasklug Nerd Font Mono';display:inline;fill:url(#linearGradient2);fill-opacity:1;stroke:none;stroke-width:10.5833;stroke-linecap:round;stroke-linejoin:round;stroke-dasharray:none;stroke-dashoffset:1536;stroke-opacity:1"
           aria-label="󱌢"
           inkscape:label="nf-md-hammer_screwdriver"
           inkscape:highlight-color="#ffffff" /></g></g></g></svg>
