<?xml version="1.0" encoding="UTF-8" standalone="no"?>
<!-- Created with Inkscape (http://www.inkscape.org/) -->

<svg
   width="3840"
   height="3840"
   viewBox="0 0 1016 1016"
   version="1.1"
   id="svg1"
   inkscape:version="1.4.1 (93de688d07, 2025-03-30)"
   sodipodi:docname="featured-autoshop.svg"
   xml:space="preserve"
   xmlns:inkscape="http://www.inkscape.org/namespaces/inkscape"
   xmlns:sodipodi="http://sodipodi.sourceforge.net/DTD/sodipodi-0.dtd"
   xmlns="http://www.w3.org/2000/svg"
   xmlns:svg="http://www.w3.org/2000/svg"><sodipodi:namedview
     id="namedview1"
     pagecolor="#ffffff"
     bordercolor="#000000"
     borderopacity="0.25"
     inkscape:showpageshadow="2"
     inkscape:pageopacity="0.0"
     inkscape:pagecheckerboard="0"
     inkscape:deskcolor="#d1d1d1"
     inkscape:document-units="px"
     inkscape:zoom="0.19380604"
     inkscape:cx="1684.674"
     inkscape:cy="2579.899"
     inkscape:window-width="1918"
     inkscape:window-height="2132"
     inkscape:window-x="0"
     inkscape:window-y="0"
     inkscape:window-maximized="0"
     inkscape:current-layer="layer3"
     showguides="true"><sodipodi:guide
       position="0,508"
       orientation="0,1"
       id="guide1"
       inkscape:locked="false"
       inkscape:label=""
       inkscape:color="rgb(0,134,229)" /><sodipodi:guide
       position="508,1016"
       orientation="-1,0"
       id="guide3"
       inkscape:locked="false"
       inkscape:label=""
       inkscape:color="rgb(0,134,229)" /><sodipodi:guide
       position="203.2,812.8"
       orientation="-0.70710678,0.70710678"
       id="guide2"
       inkscape:locked="false"
       inkscape:label=""
       inkscape:color="rgb(0,134,229)" /><sodipodi:guide
       position="406.4,609.6"
       orientation="-0.70710678,0.70710678"
       id="guide4"
       inkscape:locked="false"
       inkscape:label=""
       inkscape:color="rgb(0,134,229)" /><sodipodi:guide
       position="609.6,406.4"
       orientation="-0.70710678,0.70710678"
       id="guide5"
       inkscape:locked="false"
       inkscape:label=""
       inkscape:color="rgb(0,134,229)" /><sodipodi:guide
       position="812.8,203.2"
       orientation="-0.70710678,0.70710678"
       id="guide6"
       inkscape:locked="false"
       inkscape:label=""
       inkscape:color="rgb(0,134,229)" /></sodipodi:namedview><defs
     id="defs1" /><g
     inkscape:label="Background 1"
     inkscape:groupmode="layer"
     id="layer1"
     inkscape:highlight-color="#55be59"
     style="display:inline"><path
       style="fill:#55be59;fill-opacity:1;stroke:#d5efd5;stroke-width:67.7333;stroke-linecap:round;stroke-dasharray:67.7333, 541.866;stroke-dashoffset:406.4;stroke-opacity:1"
       d="m -304.8,711.2 1016,-1016"
       id="path1"
       inkscape:label="path1" /><path
       style="display:inline;fill:#55be59;fill-opacity:1;stroke:#d5efd5;stroke-width:67.73333333;stroke-linecap:round;stroke-dasharray:67.73332977,541.86663818;stroke-dashoffset:0;stroke-opacity:1"
       d="M -101.6,914.40002 914.4,-101.60002"
       id="path1-0"
       inkscape:label="path2" /><path
       style="display:inline;fill:#55be59;fill-opacity:1;stroke:#d5efd5;stroke-width:67.7333;stroke-linecap:round;stroke-dasharray:67.7333, 541.867;stroke-dashoffset:0;stroke-opacity:1"
       d="M 101.60002,1117.6 1117.6,101.59999"
       id="path1-0-3"
       inkscape:label="path3" /><path
       style="display:inline;fill:#55be59;fill-opacity:1;stroke:#d5efd5;stroke-width:67.7333;stroke-linecap:round;stroke-dasharray:67.7333, 541.866;stroke-dashoffset:406.4;stroke-opacity:1"
       d="M 304.80001,1320.8 1320.8,304.8"
       id="path1-0-3-8"
       inkscape:label="path4" /></g><g
     inkscape:groupmode="layer"
     id="layer5"
     inkscape:label="Background 2"
     inkscape:highlight-color="#808080"
     style="display:inline"><path
       style="display:inline;fill:#55be59;fill-opacity:1;stroke:#808080;stroke-width:67.7333;stroke-linecap:round;stroke-dasharray:67.7333, 541.866;stroke-dashoffset:203.2;stroke-opacity:1"
       d="M -304.8,711.19997 711.2,-304.8"
       id="path1-2"
       inkscape:label="path1" /><path
       style="display:inline;fill:#55be59;fill-opacity:1;stroke:#808080;stroke-width:67.73333333;stroke-opacity:1;stroke-linecap:round;stroke-dasharray:67.73332977,541.86663818;stroke-dashoffset:203.19998932"
       d="M -101.6,914.40003 914.4,-101.60002"
       id="path1-0-4"
       inkscape:label="path2" /><path
       style="display:inline;fill:#55be59;fill-opacity:1;stroke:#808080;stroke-width:67.7333;stroke-linecap:round;stroke-dasharray:67.7333, 541.866;stroke-dashoffset:406.4;stroke-opacity:1"
       d="M 101.60002,1117.6 1117.6,101.59999"
       id="path1-0-3-5"
       inkscape:label="path3" /><path
       style="display:inline;fill:#55be59;fill-opacity:1;stroke:#808080;stroke-width:67.7333;stroke-linecap:round;stroke-dasharray:67.7333, 541.866;stroke-dashoffset:203.2;stroke-opacity:1"
       d="M 304.80001,1320.8 1320.8,304.8"
       id="path1-0-3-8-8"
       inkscape:label="path4" /></g><g
     inkscape:groupmode="layer"
     id="layer6"
     inkscape:label="Background 3"
     inkscape:highlight-color="#ffffff"
     style="stroke-dasharray:1,5;stroke-dashoffset:0"><path
       style="display:inline;fill:#55be59;fill-opacity:1;stroke:#ffffff;stroke-width:67.7333;stroke-linecap:round;stroke-dasharray:67.7333, 541.866;stroke-dashoffset:0"
       d="M -304.8,711.19997 711.2,-304.8"
       id="path1-25"
       inkscape:label="path1" /><path
       style="display:inline;fill:#55be59;fill-opacity:1;stroke:#ffffff;stroke-width:67.73333333;stroke-dasharray:67.73332977,541.86663818;stroke-linecap:round;stroke-dashoffset:406.39997864"
       d="M -101.6,914.40003 914.4,-101.60002"
       id="path1-0-42"
       inkscape:label="path2" /><path
       style="display:inline;fill:#55be59;fill-opacity:1;stroke:#ffffff;stroke-width:67.7333;stroke-linecap:round;stroke-dasharray:67.7333, 541.866;stroke-dashoffset:203.2"
       d="M 101.60002,1117.6 1117.6,101.59999"
       id="path1-0-3-7"
       inkscape:label="path3" /><path
       style="display:inline;fill:#55be59;fill-opacity:1;stroke:#ffffff;stroke-width:67.7333;stroke-linecap:round;stroke-dasharray:67.7333, 541.866;stroke-dashoffset:0"
       d="M 304.80001,1320.8 1320.8,304.8"
       id="path1-0-3-8-5"
       inkscape:label="path4" /></g><g
     inkscape:groupmode="layer"
     id="layer3"
     inkscape:label="Text"
     inkscape:highlight-color="#55be59"
     style="display:inline"><path
       d="m 810.65688,621.03 2.53999,1.27 c 0,-13.97 0,-20.32 0,-19.05 v 10.16 c -1.27,3.81 -2.53999,6.35 -2.53999,7.62 z m -378.46,-17.78 c 0,-35.56 8.89,-67.31 25.39999,-96.52 16.51001,-29.21 39.37,-52.07 68.58,-68.58 29.21001,-16.51 60.96001,-25.4 95.25,-25.4 34.29,0 67.31,8.89 95.25,25.4 29.21001,16.51 52.07001,39.37 69.85001,68.58 17.77999,29.21 26.66999,60.96 26.66999,96.52 v -190.5 l -78.74,-228.6 c -5.08,-11.43 -12.7,-21.59 -21.59,-27.94 -10.16,-7.62 -20.32,-11.43 -34.29,-11.43 h -417.83 c -12.7,0 -24.13,3.81 -34.29,11.43 -8.89,6.35 -16.51,16.51 -21.59,27.94 l -77.47,228.6 v 304.8 c 0,10.16 3.81,20.32 11.43,27.94 7.62,7.62 15.24,11.43 25.4,11.43 h 39.37 c 10.16,0 19.05,-3.81 26.67,-11.43 7.62,-7.62 11.43,-17.78 11.43,-27.94 v -38.1 h 207.01 c -11.43,-24.13 -16.51,-49.53 -16.50999,-76.2 z m -114.3,-95.25 c 0,15.24 -5.08,29.21 -16.51,40.64 -11.43,11.43 -25.4,16.51 -41.91,16.51 -15.24,0 -29.21,-5.08 -39.37,-16.51 -11.43,-11.43 -16.51,-25.4 -16.51,-40.64 0,-15.24 5.08,-29.21 16.51,-40.64 10.16,-11.43 24.13,-16.51 39.37,-16.51 16.51,0 30.48,6.35 41.91,17.78 11.43,11.43 16.51,24.13 16.51,39.37 z M 735.72687,373.38 h -532.13 l 57.15,-170.18 h 417.83 z m 148.59,427.99 c 3.81,2.54 5.08001,6.35 3.81,11.43 0,5.08 -2.54,8.89 -6.35,12.7 l -39.37,39.37 c -2.54,3.81 -7.62,6.35 -11.43,6.35 -5.08,0 -8.89,-2.54 -12.7,-6.35 l -154.94,-157.48 c -20.32,8.89 -41.91,11.43 -63.5,6.35 -21.59,-5.08 -40.64,-16.51 -57.15,-33.02 -16.51,-15.24 -26.67,-35.56 -30.48,-59.69 -5.08,-22.86 -1.27,-45.72 10.16,-67.31 l 74.93,74.93 50.8,-50.8 -74.93,-74.93 c 21.59,-10.16 44.45,-12.7 68.58,-7.62 24.13,3.81 43.18,13.97 59.69,29.21 15.24,16.51 25.4,35.56 30.48,57.15 5.08,22.86 3.81,43.18 -5.08,62.23 z"
       id="text3"
       style="font-size:1270px;font-family:'Hasklug Nerd Font Mono';-inkscape-font-specification:'Hasklug Nerd Font Mono';fill:#55be59;stroke:#55be59;stroke-width:0;stroke-linecap:round;stroke-dashoffset:653.143"
       aria-label="󱠔"
       inkscape:label="nf-md-car_wrench" /></g></svg>
