<?xml version="1.0" encoding="UTF-8" standalone="no"?>
<!-- Created with Inkscape (http://www.inkscape.org/) -->

<svg
   width="3840"
   height="3840"
   viewBox="0 0 1016 1016"
   version="1.1"
   id="svg1"
   inkscape:version="1.4.1 (93de688d07, 2025-03-30)"
   sodipodi:docname="featured-logo.svg"
   xml:space="preserve"
   xmlns:inkscape="http://www.inkscape.org/namespaces/inkscape"
   xmlns:sodipodi="http://sodipodi.sourceforge.net/DTD/sodipodi-0.dtd"
   xmlns="http://www.w3.org/2000/svg"
   xmlns:svg="http://www.w3.org/2000/svg"><sodipodi:namedview
     id="namedview1"
     pagecolor="#ffffff"
     bordercolor="#000000"
     borderopacity="0.25"
     inkscape:showpageshadow="2"
     inkscape:pageopacity="0.0"
     inkscape:pagecheckerboard="0"
     inkscape:deskcolor="#d1d1d1"
     inkscape:document-units="px"
     inkscape:zoom="0.19380604"
     inkscape:cx="1037.1194"
     inkscape:cy="2755.3321"
     inkscape:window-width="1918"
     inkscape:window-height="2132"
     inkscape:window-x="0"
     inkscape:window-y="0"
     inkscape:window-maximized="0"
     inkscape:current-layer="layer3"
     showguides="true"><sodipodi:guide
       position="0,508"
       orientation="0,1"
       id="guide1"
       inkscape:locked="false"
       inkscape:label=""
       inkscape:color="rgb(0,134,229)" /><sodipodi:guide
       position="508,1016"
       orientation="-1,0"
       id="guide3"
       inkscape:locked="false"
       inkscape:label=""
       inkscape:color="rgb(0,134,229)" /><sodipodi:guide
       position="203.2,812.8"
       orientation="-0.70710678,0.70710678"
       id="guide2"
       inkscape:locked="false"
       inkscape:label=""
       inkscape:color="rgb(0,134,229)" /><sodipodi:guide
       position="406.4,609.6"
       orientation="-0.70710678,0.70710678"
       id="guide4"
       inkscape:locked="false"
       inkscape:label=""
       inkscape:color="rgb(0,134,229)" /><sodipodi:guide
       position="609.6,406.4"
       orientation="-0.70710678,0.70710678"
       id="guide5"
       inkscape:locked="false"
       inkscape:label=""
       inkscape:color="rgb(0,134,229)" /><sodipodi:guide
       position="812.8,203.2"
       orientation="-0.70710678,0.70710678"
       id="guide6"
       inkscape:locked="false"
       inkscape:label=""
       inkscape:color="rgb(0,134,229)" /></sodipodi:namedview><defs
     id="defs1" /><g
     inkscape:label="Background 1"
     inkscape:groupmode="layer"
     id="layer1"
     inkscape:highlight-color="#ecd6c6"
     style="display:inline"><path
       style="fill:#55be59;fill-opacity:1;stroke:#ecd6c6;stroke-width:67.7333;stroke-linecap:round;stroke-dasharray:67.7333, 541.866;stroke-dashoffset:406.4;stroke-opacity:1"
       d="m -304.8,711.2 1016,-1016"
       id="path1"
       inkscape:label="path1" /><path
       style="display:inline;fill:#55be59;fill-opacity:1;stroke:#ecd6c6;stroke-width:67.7333;stroke-linecap:round;stroke-dasharray:67.7333, 541.867;stroke-dashoffset:0;stroke-opacity:1"
       d="M -101.6,914.40002 914.4,-101.60002"
       id="path1-0"
       inkscape:label="path2" /><path
       style="display:inline;fill:#55be59;fill-opacity:1;stroke:#ecd6c6;stroke-width:67.7333;stroke-linecap:round;stroke-dasharray:67.7333, 541.867;stroke-dashoffset:0;stroke-opacity:1"
       d="M 101.60002,1117.6 1117.6,101.59999"
       id="path1-0-3"
       inkscape:label="path3" /><path
       style="display:inline;fill:#55be59;fill-opacity:1;stroke:#ecd6c6;stroke-width:67.7333;stroke-linecap:round;stroke-dasharray:67.7333, 541.866;stroke-dashoffset:406.4;stroke-opacity:1"
       d="M 304.80001,1320.8 1320.8,304.8"
       id="path1-0-3-8"
       inkscape:label="path4" /></g><g
     inkscape:groupmode="layer"
     id="layer5"
     inkscape:label="Background 2"
     inkscape:highlight-color="#808080"
     style="display:inline"><path
       style="display:inline;fill:#55be59;fill-opacity:1;stroke:#808080;stroke-width:67.7333;stroke-linecap:round;stroke-dasharray:67.7333, 541.866;stroke-dashoffset:203.2;stroke-opacity:1"
       d="M -304.8,711.19997 711.2,-304.8"
       id="path1-2"
       inkscape:label="path1" /><path
       style="display:inline;fill:#55be59;fill-opacity:1;stroke:#808080;stroke-width:67.73333333;stroke-opacity:1;stroke-linecap:round;stroke-dasharray:67.73332977,541.86663818;stroke-dashoffset:203.19998932"
       d="M -101.6,914.40003 914.4,-101.60002"
       id="path1-0-4"
       inkscape:label="path2" /><path
       style="display:inline;fill:#55be59;fill-opacity:1;stroke:#808080;stroke-width:67.7333;stroke-linecap:round;stroke-dasharray:67.7333, 541.866;stroke-dashoffset:406.4;stroke-opacity:1"
       d="M 101.60002,1117.6 1117.6,101.59999"
       id="path1-0-3-5"
       inkscape:label="path3" /><path
       style="display:inline;fill:#55be59;fill-opacity:1;stroke:#808080;stroke-width:67.7333;stroke-linecap:round;stroke-dasharray:67.7333, 541.866;stroke-dashoffset:203.2;stroke-opacity:1"
       d="M 304.80001,1320.8 1320.8,304.8"
       id="path1-0-3-8-8"
       inkscape:label="path4" /></g><g
     inkscape:groupmode="layer"
     id="layer6"
     inkscape:label="Background 3"
     inkscape:highlight-color="#ffffff"
     style="stroke-dasharray:1,5;stroke-dashoffset:0"><path
       style="display:inline;fill:#55be59;fill-opacity:1;stroke:#ffffff;stroke-width:67.7333;stroke-linecap:round;stroke-dasharray:67.7333, 541.866;stroke-dashoffset:0"
       d="M -304.8,711.19997 711.2,-304.8"
       id="path1-25"
       inkscape:label="path1" /><path
       style="display:inline;fill:#55be59;fill-opacity:1;stroke:#ffffff;stroke-width:67.73333333;stroke-dasharray:67.73332977,541.86663818;stroke-linecap:round;stroke-dashoffset:406.39997864"
       d="M -101.6,914.40003 914.4,-101.60002"
       id="path1-0-42"
       inkscape:label="path2" /><path
       style="display:inline;fill:#55be59;fill-opacity:1;stroke:#ffffff;stroke-width:67.7333;stroke-linecap:round;stroke-dasharray:67.7333, 541.866;stroke-dashoffset:203.2"
       d="M 101.60002,1117.6 1117.6,101.59999"
       id="path1-0-3-7"
       inkscape:label="path3" /><path
       style="display:inline;fill:#55be59;fill-opacity:1;stroke:#ffffff;stroke-width:67.7333;stroke-linecap:round;stroke-dasharray:67.7333, 541.866;stroke-dashoffset:0"
       d="M 304.80001,1320.8 1320.8,304.8"
       id="path1-0-3-8-5"
       inkscape:label="path4" /></g><g
     inkscape:groupmode="layer"
     id="layer3"
     inkscape:label="Text"
     inkscape:highlight-color="#c48a4f"
     style="display:inline"><g
       id="g2"
       transform="matrix(0.50095542,0,0,0.50095542,253.51464,253.51466)"
       style="display:inline;stroke-width:1.99619"
       inkscape:label="logo"><g
         id="layer2-2"
         inkscape:label="Background 1"
         inkscape:highlight-color="#ffffff"
         style="display:inline;stroke-width:1.99619"><circle
           style="display:inline;fill:#ffffff;fill-opacity:1;stroke-width:0.0873383"
           id="path1-36-8-9"
           cx="508"
           cy="508"
           r="396.875"
           inkscape:label="circle" /></g><g
         id="layer3-2-1"
         inkscape:label="Text"
         inkscape:highlight-color="#c48a4f"
         style="display:inline;stroke-width:1.99645;stroke-dasharray:none"
         transform="translate(-2.7343756e-6)"><path
           d="m 490.22253,3.4591223 c -47.40652,-6.7723609 -94.81303,0 -137.1403,23.7032647 L 195.62484,110.12381 c -40.63416,22.01017 -74.49598,57.56506 -94.81305,99.89233 L 22.929641,369.16662 C 2.612557,411.49386 -5.8528942,460.59348 4.3056473,508.00001 L 34.781271,682.3883 c 8.465452,45.71344 32.168715,89.73379 64.337428,121.90251 L 226.10047,927.8864 c 33.86181,33.8618 77.88213,54.17887 125.28868,60.95126 l 174.38829,23.70324 c 47.40652,6.7724 94.81306,0 137.1403,-23.70324 l 157.45739,-82.96144 c 40.63416,-22.01017 74.49597,-57.56506 94.81307,-99.89232 l 77.88215,-159.15049 c 20.31705,-42.32727 28.78255,-91.42686 18.62395,-137.14029 L 981.21873,333.61171 C 972.75325,287.89828 949.05,243.87794 916.88128,211.70922 L 789.89953,88.113635 C 756.03772,55.944921 712.01736,33.934747 664.61083,27.162387 Z M 405.56802,270.96737 c 37.24799,0 69.41672,30.47564 69.41672,67.72361 0,37.248 -32.16873,67.72361 -69.41672,67.72361 -35.55489,0 -66.03051,-30.47561 -66.03051,-67.72361 0,-37.24797 30.47562,-67.72361 66.03051,-67.72361 z M 270.12081,677.30903 c 0,-37.24797 32.16871,-67.72361 69.4167,-67.72361 37.24797,0 66.03051,30.47564 66.03051,67.72361 0,37.24799 -28.78254,67.72361 -66.03051,67.72361 -37.24799,0 -69.4167,-30.47562 -69.4167,-67.72361 z M 745.87917,541.86182 c 35.55489,0 66.03053,30.47562 66.03053,67.7236 0,37.24799 -30.47564,67.72361 -66.03053,67.72361 -37.248,0 -69.41672,-30.47562 -69.41672,-67.72361 0,-37.24798 32.16872,-67.7236 69.41672,-67.7236 z"
           id="text2"
           style="font-size:677.333px;font-family:'Hasklug Nerd Font Mono';-inkscape-font-specification:'Hasklug Nerd Font Mono';display:inline;fill:#ecd6c6;fill-opacity:1;stroke-width:10.5632;stroke-linecap:round;stroke-linejoin:round;stroke-dashoffset:1536"
           aria-label=""
           inkscape:label="nf-fa-cookie" /><path
           d="m 510.53966,25.468134 c -1.6931,-11.85166 -8.46547,-20.3171318 -20.31713,-22.0102261 -47.40664,-6.7723778 -94.81328,0 -137.14064,23.7033201 L 195.62415,110.12284 c -40.63427,22.01023 -74.49615,57.56521 -94.81329,99.89257 L 22.928547,369.16627 C 2.6114168,411.49363 -5.8540541,460.59337 4.3045114,508.00001 L 34.780206,682.38872 c 8.465471,45.71355 32.168789,89.73401 64.337579,121.9028 L 226.09984,927.88741 c 33.86187,33.86189 77.88232,54.17902 125.28897,60.9514 l 174.3887,23.70319 c 47.40663,6.7725 94.81327,0 137.14061,-23.70319 l 157.45777,-82.96163 c 40.63426,-22.01023 74.49614,-57.56521 94.81327,-99.89257 L 993.0715,646.83374 c 20.3171,-42.32735 28.7825,-91.42708 18.6241,-137.14063 -1.6932,-10.15858 -11.85173,-20.31714 -22.01029,-22.01024 C 879.63418,470.75194 793.28639,387.79031 769.58307,282.81846 764.50378,265.88751 750.95902,252.34277 735.72117,250.64967 618.89769,232.02564 529.1637,142.29163 510.53966,25.468134 Z M 405.56782,270.9668 c 37.24807,0 69.41686,30.4757 69.41686,67.72377 0,37.24808 -32.16879,67.72378 -69.41686,67.72378 -35.55498,0 -66.03067,-30.4757 -66.03067,-67.72378 0,-37.24807 30.47569,-67.72377 66.03067,-67.72377 z M 270.12028,677.30944 c 0,-37.24806 32.16879,-67.72377 69.41687,-67.72377 37.24806,0 66.03067,30.47571 66.03067,67.72377 0,37.24807 -28.78261,67.72377 -66.03067,67.72377 -37.24808,0 -69.41687,-30.4757 -69.41687,-67.72377 z M 745.87975,541.8619 c 35.55498,0 66.03067,30.47569 66.03067,67.72377 0,37.24807 -30.47569,67.72377 -66.03067,67.72377 -37.24808,0 -69.41687,-30.4757 -69.41687,-67.72377 0,-37.24808 32.16879,-67.72377 69.41687,-67.72377 z"
           id="text1"
           style="font-size:1667.83px;font-family:'Hasklug Nerd Font Mono';-inkscape-font-specification:'Hasklug Nerd Font Mono';display:inline;fill:#c48a4f;stroke:none;stroke-width:1.99645;stroke-linecap:round;stroke-linejoin:round;stroke-dasharray:none;stroke-dashoffset:1536"
           inkscape:label="nf-fa-cookie_bite"
           aria-label="" /></g></g></g></svg>
