<?xml version="1.0" encoding="UTF-8"?>
<svg width="3840" height="3840" version="1.1" viewBox="0 0 1016 1016" xml:space="preserve" xmlns="http://www.w3.org/2000/svg"><defs><style>.cls-1{fill:#5b9c95;}.cls-2{fill:#72392f;}.cls-3{fill:#5e302b;}.cls-4{fill:#7f3e37;}.cls-5{fill:#cc9458;}.cls-6{fill:#f0c788;}.cls-7{fill:#eaac2e;}.cls-8{fill:#da4d5d;}.cls-9{fill:#d63d55;}.cls-10{fill:#f6e0b8;}.cls-11{fill:#76c27d;}.cls-12{fill:#69aa6d;}.cls-13{fill:#c99028;}</style></defs><g transform="translate(.00015708 .00015443)" stroke="#fff" stroke-dashoffset="1536" stroke-linecap="round" stroke-linejoin="round"><g fill="#b6c8c5" stroke-width="12.948"><path transform="matrix(.39916 .00028305 -.00027004 .41839 770.94 314.19)" d="m569.6 254-123.09 0.0833-38.116-117.04 99.532-72.417 99.63 72.282z"/><path transform="matrix(.39916 .00028305 -.00027004 .41839 770.94 60.192)" d="m569.6 254-123.09 0.0833-38.116-117.04 99.532-72.417 99.63 72.282z"/><path transform="matrix(.39916 .00028305 -.00027004 .41839 601.6 -24.475)" d="m569.6 254-123.09 0.0833-38.116-117.04 99.532-72.417 99.63 72.282z"/><path transform="matrix(.39916 .00028305 -.00027004 .41839 516.94 568.19)" d="m569.6 254-123.09 0.0833-38.116-117.04 99.532-72.417 99.63 72.282z"/><path transform="matrix(.39916 .00028305 -.00027004 .41839 516.94 314.19)" d="m569.6 254-123.09 0.0833-38.116-117.04 99.532-72.417 99.63 72.282z"/><path transform="matrix(.39916 .00028305 -.00027004 .41839 516.94 60.192)" d="m569.6 254-123.09 0.0833-38.116-117.04 99.532-72.417 99.63 72.282z"/><path transform="matrix(.39916 .00028305 -.00027004 .41839 432.27 652.86)" d="m569.6 254-123.09 0.0833-38.116-117.04 99.532-72.417 99.63 72.282z"/><path transform="matrix(.39916 .00028305 -.00027004 .41839 347.6 229.52)" d="m569.6 254-123.09 0.0833-38.116-117.04 99.532-72.417 99.63 72.282z"/><path transform="matrix(.39916 .00028305 -.00027004 .41839 347.6 -24.475)" d="m569.6 254-123.09 0.0833-38.116-117.04 99.532-72.417 99.63 72.282z"/><path transform="matrix(.39916 .00028305 -.00027004 .41839 262.94 314.19)" d="m569.6 254-123.09 0.0833-38.116-117.04 99.532-72.417 99.63 72.282z"/><path transform="matrix(.39916 .00028305 -.00027004 .41839 262.94 60.192)" d="m569.6 254-123.09 0.0833-38.116-117.04 99.532-72.417 99.63 72.282z"/><path transform="matrix(.39916 .00028305 -.00027004 .41839 178.27 398.86)" d="m569.6 254-123.09 0.0833-38.116-117.04 99.532-72.417 99.63 72.282z"/><path transform="matrix(.39916 .00028305 -.00027004 .41839 8.9362 822.19)" d="m569.6 254-123.09 0.0833-38.116-117.04 99.532-72.417 99.63 72.282z"/><path transform="matrix(.39916 .00028305 -.00027004 .41839 -75.73 652.86)" d="m569.6 254-123.09 0.0833-38.116-117.04 99.532-72.417 99.63 72.282z"/><path transform="matrix(.39916 .00028305 -.00027004 .41839 -160.4 737.52)" d="m569.6 254-123.09 0.0833-38.116-117.04 99.532-72.417 99.63 72.282z"/><path transform="matrix(.39916 .00028305 -.00027004 .41839 -160.4 229.52)" d="m569.6 254-123.09 0.0833-38.116-117.04 99.532-72.417 99.63 72.282z"/><path transform="matrix(.39916 .00028305 -.00027004 .41839 -160.4 -24.475)" d="m569.6 254-123.09 0.0833-38.116-117.04 99.532-72.417 99.63 72.282z"/></g><g fill="#577557" stroke-width="12.949"><path transform="matrix(.39916 .00028305 -.00027004 .41839 770.94 652.86)" d="m569.6 254-123.09 0.0833-38.116-117.04 99.532-72.417 99.63 72.282z"/><path transform="matrix(.39916 .00028305 -.00027004 .41839 770.94 398.86)" d="m569.6 254-123.09 0.0833-38.116-117.04 99.532-72.417 99.63 72.282z"/><path transform="matrix(.39916 .00028305 -.00027004 .41839 686.27 -24.475)" d="m569.6 254-123.09 0.0833-38.116-117.04 99.532-72.417 99.63 72.282z"/><path transform="matrix(.39916 .00028305 -.00027004 .41839 601.6 568.19)" d="m569.6 254-123.09 0.0833-38.116-117.04 99.532-72.417 99.63 72.282z"/><path transform="matrix(.39916 .00028305 -.00027004 .41839 516.94 906.86)" d="m569.6 254-123.09 0.0833-38.116-117.04 99.532-72.417 99.63 72.282z"/><path transform="matrix(.39916 .00028305 -.00027004 .41839 347.6 822.19)" d="m569.6 254-123.09 0.0833-38.116-117.04 99.532-72.417 99.63 72.282z"/><path transform="matrix(.39916 .00028305 -.00027004 .41839 178.27 737.52)" d="m569.6 254-123.09 0.0833-38.116-117.04 99.532-72.417 99.63 72.282z"/><path transform="matrix(.39916 .00028305 -.00027004 .41839 178.27 483.52)" d="m569.6 254-123.09 0.0833-38.116-117.04 99.532-72.417 99.63 72.282z"/><path transform="matrix(.39916 .00028305 -.00027004 .41839 178.27 229.53)" d="m569.6 254-123.09 0.0833-38.116-117.04 99.532-72.417 99.63 72.282z"/><path transform="matrix(.39916 .00028305 -.00027004 .41839 93.604 822.19)" d="m569.6 254-123.09 0.0833-38.116-117.04 99.532-72.417 99.63 72.282z"/><path transform="matrix(.39916 .00028305 -.00027004 .41839 93.604 568.19)" d="m569.6 254-123.09 0.0833-38.116-117.04 99.532-72.417 99.63 72.282z"/><path transform="matrix(.39916 .00028305 -.00027004 .41839 93.604 314.19)" d="m569.6 254-123.09 0.0833-38.116-117.04 99.532-72.417 99.63 72.282z"/><path transform="matrix(.39916 .00028305 -.00027004 .41839 93.604 60.192)" d="m569.6 254-123.09 0.0833-38.116-117.04 99.532-72.417 99.63 72.282z"/><path transform="matrix(.39916 .00028305 -.00027004 .41839 8.937 398.86)" d="m569.6 254-123.09 0.0833-38.116-117.04 99.532-72.417 99.63 72.282z"/><path transform="matrix(.39916 .00028305 -.00027004 .41839 -75.73 229.53)" d="m569.6 254-123.09 0.0833-38.116-117.04 99.532-72.417 99.63 72.282z"/><path transform="matrix(.39916 .00028305 -.00027004 .41839 -75.73 -24.475)" d="m569.6 254-123.09 0.0833-38.116-117.04 99.532-72.417 99.63 72.282z"/><path transform="matrix(.39916 .00028305 -.00027004 .41839 -160.4 822.19)" d="m569.6 254-123.09 0.0833-38.116-117.04 99.532-72.417 99.63 72.282z"/><path transform="matrix(.39916 .00028305 -.00027004 .41839 -160.4 568.19)" d="m569.6 254-123.09 0.0833-38.116-117.04 99.532-72.417 99.63 72.282z"/><path transform="matrix(.39916 .00028305 -.00027004 .41839 -160.4 60.192)" d="m569.6 254-123.09 0.0833-38.116-117.04 99.532-72.417 99.63 72.282z"/></g></g><g transform="translate(.00015708 .00015443)" fill="#fff" stroke="#fff" stroke-dashoffset="1536" stroke-linecap="round" stroke-linejoin="round" stroke-width="12.949"><path transform="matrix(.39916 .00028305 -.00027004 .41839 770.94 483.52)" d="m569.6 254-123.09 0.0833-38.116-117.04 99.532-72.417 99.63 72.282z"/><path transform="matrix(.39916 .00028305 -.00027004 .41839 686.27 568.19)" d="m569.6 254-123.09 0.0833-38.116-117.04 99.532-72.417 99.63 72.282z"/><path transform="matrix(.39916 .00028305 -.00027004 .41839 686.27 314.19)" d="m569.6 254-123.09 0.0833-38.116-117.04 99.532-72.417 99.63 72.282z"/><path transform="matrix(.39916 .00028305 -.00027004 .41839 601.6 398.86)" d="m569.6 254-123.09 0.0833-38.116-117.04 99.532-72.417 99.63 72.282z"/><path transform="matrix(.39916 .00028305 -.00027004 .41839 601.6 144.86)" d="m569.6 254-123.09 0.0833-38.116-117.04 99.532-72.417 99.63 72.282z"/><path transform="matrix(.39916 .00028305 -.00027004 .41839 516.94 229.53)" d="m569.6 254-123.09 0.0833-38.116-117.04 99.532-72.417 99.63 72.282z"/><path transform="matrix(.39916 .00028305 -.00027004 .41839 516.94 -24.475)" d="m569.6 254-123.09 0.0833-38.116-117.04 99.532-72.417 99.63 72.282z"/><path transform="matrix(.39916 .00028305 -.00027004 .41839 347.6 906.86)" d="m569.6 254-123.09 0.0833-38.116-117.04 99.532-72.417 99.63 72.282z"/><path transform="matrix(.39916 .00028305 -.00027004 .41839 347.6 652.86)" d="m569.6 254-123.09 0.0833-38.116-117.04 99.532-72.417 99.63 72.282z"/><path transform="matrix(.39916 .00028305 -.00027004 .41839 347.6 398.86)" d="m569.6 254-123.09 0.0833-38.116-117.04 99.532-72.417 99.63 72.282z"/><path transform="matrix(.39916 .00028305 -.00027004 .41839 262.94 737.52)" d="m569.6 254-123.09 0.0833-38.116-117.04 99.532-72.417 99.63 72.282z"/><path transform="matrix(.39916 .00028305 -.00027004 .41839 262.94 -24.475)" d="m569.6 254-123.09 0.0833-38.116-117.04 99.532-72.417 99.63 72.282z"/><path transform="matrix(.39916 .00028305 -.00027004 .41839 178.27 568.19)" d="m569.6 254-123.09 0.0833-38.116-117.04 99.532-72.417 99.63 72.282z"/><path transform="matrix(.39916 .00028305 -.00027004 .41839 93.603 906.86)" d="m569.6 254-123.09 0.0833-38.116-117.04 99.532-72.417 99.63 72.282z"/><path transform="matrix(.39916 .00028305 -.00027004 .41839 93.603 652.86)" d="m569.6 254-123.09 0.0833-38.116-117.04 99.532-72.417 99.63 72.282z"/><path transform="matrix(.39916 .00028305 -.00027004 .41839 8.9368 -24.475)" d="m569.6 254-123.09 0.0833-38.116-117.04 99.532-72.417 99.63 72.282z"/><path transform="matrix(.39916 .00028305 -.00027004 .41839 -75.73 314.19)" d="m569.6 254-123.09 0.0833-38.116-117.04 99.532-72.417 99.63 72.282z"/><path transform="matrix(.39916 .00028305 -.00027004 .41839 -160.4 144.86)" d="m569.6 254-123.09 0.0833-38.116-117.04 99.532-72.417 99.63 72.282z"/></g><path d="m362.6 402.04c0 24.749 5.4138 47.951 17.015 68.832 11.601 20.882 27.069 37.896 47.177 51.044-43.31 16.241-78.113 43.31-105.96 80.433-27.842 37.123-43.31 79.66-44.857 126.84v0.77339c0 7.734 2.3202 14.694 7.734 20.108 5.4138 5.4139 11.601 8.5074 20.108 9.2808h408.35c7.734-0.7734 13.921-3.8669 19.335-9.2808 5.4138-5.4138 8.5074-12.374 8.5074-20.108v-0.77339c-3.0936-47.177-17.788-88.941-45.63-126.84-27.842-37.123-62.645-64.192-105.96-80.433 20.108-13.148 35.576-30.162 47.177-51.044 11.601-20.882 17.788-44.084 17.788-68.832 0-19.335-3.867-38.67-11.601-56.458-7.734-17.788-17.788-33.256-30.936-46.404-13.148-13.148-28.616-23.202-46.404-30.936-17.788-7.734-37.123-11.601-56.458-11.601-20.108 0-38.67 3.867-57.231 11.601-17.788 7.734-33.256 17.788-46.404 30.936-12.374 13.148-23.202 28.616-30.936 46.404-7.734 17.788-10.828 37.123-10.828 56.458z" fill="#4fc4a7" stroke="#fff" stroke-dashoffset="1536" stroke-linecap="round" stroke-linejoin="round" stroke-width="5.2917" aria-label=""/></svg>
