<?xml version="1.0" encoding="UTF-8"?>
<svg width="3840" height="3840" version="1.1" viewBox="0 0 1016 1016" xml:space="preserve" xmlns="http://www.w3.org/2000/svg"><g transform="translate(0 340.65)" stroke-linecap="round" stroke-width="67.733"><g fill="#55be59" stroke="#d9bfcb"><path d="m203.2 786.15v-1436.8" stroke-dasharray="67.7333, 541.866" stroke-dashoffset="406.4"/><path d="m406.4 853.89-2e-5 -1436.8" stroke-dasharray="67.7333, 541.867"/><path d="m609.6 921.62 1e-5 -1436.8" stroke-dasharray="67.7333, 541.867"/><path d="m812.8 985.39-1e-5 -1436.8" stroke-dasharray="67.7333, 541.866" stroke-dashoffset="406.4"/></g><g fill="#547d73" stroke="#547d73"><path d="m203.2 786.15 2e-5 -1436.8" stroke-dasharray="67.7333, 541.866" stroke-dashoffset="203.2"/><path d="m406.4 853.89-3e-5 -1436.8" stroke-dasharray="67.7333, 541.867" stroke-dashoffset="203.2"/><path d="m609.6 921.62 1e-5 -1436.8" stroke-dasharray="67.7333, 541.866" stroke-dashoffset="406.4"/><path d="m812.8 985.39-1e-5 -1436.8" stroke-dasharray="67.7333, 541.866" stroke-dashoffset="203.2"/></g></g><g transform="translate(0 340.65)" fill="#55be59" stroke="#fff" stroke-linecap="round" stroke-width="67.733"><path d="m203.2 786.15 2e-5 -1436.8" stroke-dasharray="67.7333, 541.866"/><path d="m406.4 853.89-3e-5 -1436.8" stroke-dasharray="67.7333, 541.867" stroke-dashoffset="406.4"/><path d="m609.6 921.62 1e-5 -1436.8" stroke-dasharray="67.7333, 541.866" stroke-dashoffset="203.2"/><path d="m812.8 985.39-1e-5 -1436.8" stroke-dasharray="67.7333, 541.866"/></g><g><text x="275.62317" y="783.36658" fill="#b82065" font-family="'Hasklug Nerd Font Mono'" font-size="774.59px" stroke="#ffffff" stroke-dashoffset="1536" stroke-linecap="round" stroke-linejoin="round" stroke-width="5.2917" xml:space="preserve"><tspan x="275.62317" y="783.36658" fill="#b82065" stroke-width="5.2917"></tspan></text></g></svg>
