/*
 * File: featured-services.svg
 * Author: Leopold Meinel (leo@meinel.dev)
 * -----
 * Copyright (c) 2025 Leopold Meinel & contributors
 * SPDX ID: MIT
 * URL: https://opensource.org/licenses/MIT
 * -----
 */

<?xml version="1.0" encoding="UTF-8" standalone="no"?>
<!-- Created with Inkscape (http://www.inkscape.org/) -->

<svg
   width="3840"
   height="3840"
   viewBox="0 0 1016 1016"
   version="1.1"
   id="svg1"
   inkscape:version="1.4.1 (93de688d07, 2025-03-30)"
   sodipodi:docname="featured-services.svg"
   xml:space="preserve"
   xmlns:inkscape="http://www.inkscape.org/namespaces/inkscape"
   xmlns:sodipodi="http://sodipodi.sourceforge.net/DTD/sodipodi-0.dtd"
   xmlns="http://www.w3.org/2000/svg"
   xmlns:svg="http://www.w3.org/2000/svg"><sodipodi:namedview
     id="namedview1"
     pagecolor="#ffffff"
     bordercolor="#000000"
     borderopacity="0.25"
     inkscape:showpageshadow="2"
     inkscape:pageopacity="0.0"
     inkscape:pagecheckerboard="0"
     inkscape:deskcolor="#d1d1d1"
     inkscape:document-units="px"
     inkscape:zoom="0.27408313"
     inkscape:cx="1806.0214"
     inkscape:cy="1074.4915"
     inkscape:window-width="1918"
     inkscape:window-height="1065"
     inkscape:window-x="0"
     inkscape:window-y="0"
     inkscape:window-maximized="0"
     inkscape:current-layer="layer3"
     showguides="true"><sodipodi:guide
       position="0,508"
       orientation="0,1"
       id="guide1"
       inkscape:locked="false"
       inkscape:label=""
       inkscape:color="rgb(0,134,229)" /><sodipodi:guide
       position="508,1016"
       orientation="-1,0"
       id="guide3"
       inkscape:locked="false"
       inkscape:label=""
       inkscape:color="rgb(0,134,229)" /><sodipodi:guide
       position="203.2,812.8"
       orientation="-0.70710678,0.70710678"
       id="guide2"
       inkscape:locked="false"
       inkscape:label=""
       inkscape:color="rgb(0,134,229)" /><sodipodi:guide
       position="406.4,609.6"
       orientation="-0.70710678,0.70710678"
       id="guide4"
       inkscape:locked="false"
       inkscape:label=""
       inkscape:color="rgb(0,134,229)" /><sodipodi:guide
       position="609.6,406.4"
       orientation="-0.70710678,0.70710678"
       id="guide5"
       inkscape:locked="false"
       inkscape:label=""
       inkscape:color="rgb(0,134,229)" /><sodipodi:guide
       position="812.8,203.2"
       orientation="-0.70710678,0.70710678"
       id="guide6"
       inkscape:locked="false"
       inkscape:label=""
       inkscape:color="rgb(0,134,229)" /></sodipodi:namedview><defs
     id="defs1" /><g
     inkscape:label="Background 1"
     inkscape:groupmode="layer"
     id="layer1"
     inkscape:highlight-color="#e7e7b8"
     style="display:inline"><path
       style="fill:#55be59;fill-opacity:1;stroke:#e7e7b8;stroke-width:67.7333;stroke-linecap:round;stroke-dasharray:67.7333, 541.866;stroke-dashoffset:406.4;stroke-opacity:1"
       d="m -304.8,711.2 1016,-1016"
       id="path1"
       inkscape:label="path1" /><path
       style="display:inline;fill:#55be59;fill-opacity:1;stroke:#e7e7b8;stroke-width:67.7333;stroke-linecap:round;stroke-dasharray:67.7333, 541.867;stroke-dashoffset:0;stroke-opacity:1"
       d="M -101.6,914.40002 914.4,-101.60002"
       id="path1-0"
       inkscape:label="path2" /><path
       style="display:inline;fill:#55be59;fill-opacity:1;stroke:#e7e7b8;stroke-width:67.7333;stroke-linecap:round;stroke-dasharray:67.7333, 541.867;stroke-dashoffset:0;stroke-opacity:1"
       d="M 101.60002,1117.6 1117.6,101.59999"
       id="path1-0-3"
       inkscape:label="path3" /><path
       style="display:inline;fill:#55be59;fill-opacity:1;stroke:#e7e7b8;stroke-width:67.7333;stroke-linecap:round;stroke-dasharray:67.7333, 541.866;stroke-dashoffset:406.4;stroke-opacity:1"
       d="M 304.80001,1320.8 1320.8,304.8"
       id="path1-0-3-8"
       inkscape:label="path4" /></g><g
     inkscape:groupmode="layer"
     id="layer5"
     inkscape:label="Background 2"
     inkscape:highlight-color="#808080"
     style="display:inline"><path
       style="display:inline;fill:#55be59;fill-opacity:1;stroke:#808080;stroke-width:67.7333;stroke-linecap:round;stroke-dasharray:67.7333, 541.866;stroke-dashoffset:203.2;stroke-opacity:1"
       d="M -304.8,711.19997 711.2,-304.8"
       id="path1-2"
       inkscape:label="path1" /><path
       style="display:inline;fill:#55be59;fill-opacity:1;stroke:#808080;stroke-width:67.73333333;stroke-opacity:1;stroke-linecap:round;stroke-dasharray:67.73332977,541.86663818;stroke-dashoffset:203.19998932"
       d="M -101.6,914.40003 914.4,-101.60002"
       id="path1-0-4"
       inkscape:label="path2" /><path
       style="display:inline;fill:#55be59;fill-opacity:1;stroke:#808080;stroke-width:67.7333;stroke-linecap:round;stroke-dasharray:67.7333, 541.866;stroke-dashoffset:406.4;stroke-opacity:1"
       d="M 101.60002,1117.6 1117.6,101.59999"
       id="path1-0-3-5"
       inkscape:label="path3" /><path
       style="display:inline;fill:#55be59;fill-opacity:1;stroke:#808080;stroke-width:67.7333;stroke-linecap:round;stroke-dasharray:67.7333, 541.866;stroke-dashoffset:203.2;stroke-opacity:1"
       d="M 304.80001,1320.8 1320.8,304.8"
       id="path1-0-3-8-8"
       inkscape:label="path4" /></g><g
     inkscape:groupmode="layer"
     id="layer6"
     inkscape:label="Background 3"
     inkscape:highlight-color="#ffffff"
     style="stroke-dasharray:1,5;stroke-dashoffset:0"><path
       style="display:inline;fill:#55be59;fill-opacity:1;stroke:#ffffff;stroke-width:67.7333;stroke-linecap:round;stroke-dasharray:67.7333, 541.866;stroke-dashoffset:0"
       d="M -304.8,711.19997 711.2,-304.8"
       id="path1-25"
       inkscape:label="path1" /><path
       style="display:inline;fill:#55be59;fill-opacity:1;stroke:#ffffff;stroke-width:67.73333333;stroke-dasharray:67.73332977,541.86663818;stroke-linecap:round;stroke-dashoffset:406.39997864"
       d="M -101.6,914.40003 914.4,-101.60002"
       id="path1-0-42"
       inkscape:label="path2" /><path
       style="display:inline;fill:#55be59;fill-opacity:1;stroke:#ffffff;stroke-width:67.7333;stroke-linecap:round;stroke-dasharray:67.7333, 541.866;stroke-dashoffset:203.2"
       d="M 101.60002,1117.6 1117.6,101.59999"
       id="path1-0-3-7"
       inkscape:label="path3" /><path
       style="display:inline;fill:#55be59;fill-opacity:1;stroke:#ffffff;stroke-width:67.7333;stroke-linecap:round;stroke-dasharray:67.7333, 541.866;stroke-dashoffset:0"
       d="M 304.80001,1320.8 1320.8,304.8"
       id="path1-0-3-8-5"
       inkscape:label="path4" /></g><g
     inkscape:groupmode="layer"
     id="layer3"
     inkscape:label="Text"
     inkscape:highlight-color="#c4c44f"
     style="display:inline"><path
       d="m 717.47336,586.2186 1.75772,0.87886 c 0,-9.66746 0,-14.06177 0,-13.18292 v 7.0309 c -0.87887,2.63657 -1.75772,4.3943 -1.75772,5.27316 z M 455.57285,573.91454 c 0,-24.6081 6.15202,-46.5796 17.57721,-66.79341 11.42519,-20.21379 27.24469,-36.03329 47.45847,-47.45846 20.21381,-11.4252 42.18534,-17.57723 65.91456,-17.57723 23.72925,0 46.57962,6.15203 65.91457,17.57723 20.2138,11.42517 36.03329,27.24467 48.33735,47.45846 12.30404,20.21381 18.45607,42.18531 18.45607,66.79341 V 442.08543 L 664.7417,283.8905 c -3.51544,-7.90973 -8.78861,-14.94062 -14.94063,-19.33493 -7.03088,-5.27316 -14.06177,-7.90974 -23.72924,-7.90974 H 336.92665 c -8.78862,0 -16.69836,2.63658 -23.72925,7.90974 -6.15203,4.39431 -11.42519,11.42519 -14.94063,19.33493 l -53.61051,158.19493 v 210.92658 c 0,7.03089 2.63659,14.06177 7.90975,19.33493 5.27317,5.27317 10.54633,7.90975 17.57721,7.90975 h 27.24469 c 7.03089,0 13.18291,-2.63658 18.45607,-7.90975 5.27317,-5.27316 7.90975,-12.30404 7.90975,-19.33493 v -26.36582 h 143.25431 c -7.90975,-16.69835 -11.4252,-34.27556 -11.42519,-52.73165 z M 376.47538,508 c 0,10.54632 -3.51544,20.21378 -11.42518,28.12354 -7.90975,7.90975 -17.57721,11.42519 -29.00242,11.42519 -10.54632,0 -20.21379,-3.51544 -27.24468,-11.42519 -7.90974,-7.90976 -11.42518,-17.57722 -11.42518,-28.12355 0,-10.54633 3.51544,-20.2138 11.42518,-28.12355 7.03089,-7.90975 16.69836,-11.42518 27.24468,-11.42518 11.42521,0 21.09267,4.39429 29.00242,12.30405 7.90974,7.90974 11.42518,16.69835 11.42518,27.24469 z M 665.62056,414.84075 H 297.37791 l 39.54874,-117.76732 h 289.14518 z m 102.82672,296.17606 c 2.63657,1.75774 3.51545,4.39431 2.63657,7.90976 0,3.51543 -1.75771,6.15204 -4.3943,8.78861 l -27.24469,27.24468 c -1.75772,2.63659 -5.27315,4.39431 -7.90974,4.39431 -3.51544,0 -6.15203,-1.75772 -8.78861,-4.39431 l -107.221,-108.97872 c -14.06178,6.15202 -29.00242,7.90974 -43.94305,4.39429 -14.94063,-3.51545 -28.12355,-11.42519 -39.54873,-22.85037 -11.4252,-10.54633 -18.45607,-24.6081 -21.09266,-41.30645 -3.51545,-15.81949 -0.87886,-31.63899 7.03089,-46.57962 l 51.85278,51.85279 35.15443,-35.15444 -51.85278,-51.85278 c 14.94062,-7.03088 30.76013,-8.78861 47.45848,-5.27317 16.69836,2.6366 29.88127,9.66747 41.30646,20.2138 10.54633,11.4252 17.57721,24.60811 21.09266,39.54874 3.51544,15.81949 2.63657,29.88125 -3.51545,43.06417 z"
       id="text3"
       style="font-size:1270px;font-family:'Hasklug Nerd Font Mono';-inkscape-font-specification:'Hasklug Nerd Font Mono';fill:#c4c44f;fill-opacity:1;stroke:#ffffff;stroke-width:5.29167;stroke-linecap:round;stroke-linejoin:round;stroke-dasharray:none;stroke-dashoffset:653.143;stroke-opacity:1"
       aria-label="󱠔"
       inkscape:label="nf-md-car_wrench" /></g></svg>
