<?xml version="1.0" encoding="UTF-8"?>
<svg width="3840" height="3840" version="1.1" viewBox="0 0 1016 1016" xml:space="preserve" xmlns="http://www.w3.org/2000/svg"><defs><style>.cls-1{fill:#b82065;}.cls-2{fill:#d7156f;}.cls-3{fill:#c2aacf;}.cls-4{fill:#decee5;}.cls-5{fill:#f4e6f4;}.cls-6{fill:#14a36d;}.cls-7{fill:#15be79;}.cls-8{fill:#33db92;}.cls-9{fill:#fff;}.cls-10{fill:#ebd9ea;}.cls-11{fill:#f39e22;}.cls-12{fill:#f9c744;}.cls-13{fill:#c44a1a;}.cls-14{fill:#0989d8;}.cls-15{fill:#29a3fb;}.cls-16{fill:#7ed0fc;}.cls-17{fill:#ed72ab;}</style></defs><g transform="translate(0 340.65)" stroke-linecap="round" stroke-width="67.733"><g fill="#55be59" stroke="#d9bfcb"><path d="m203.2 786.15v-1436.8" stroke-dasharray="67.7333, 541.866" stroke-dashoffset="406.4"/><path d="m406.4 853.89-2e-5 -1436.8" stroke-dasharray="67.7333, 541.867"/><path d="m609.6 921.62 1e-5 -1436.8" stroke-dasharray="67.7333, 541.867"/><path d="m812.8 985.39-1e-5 -1436.8" stroke-dasharray="67.7333, 541.866" stroke-dashoffset="406.4"/></g><g fill="#547d73" stroke="#547d73"><path d="m203.2 786.15 2e-5 -1436.8" stroke-dasharray="67.7333, 541.866" stroke-dashoffset="203.2"/><path d="m406.4 853.89-3e-5 -1436.8" stroke-dasharray="67.7333, 541.867" stroke-dashoffset="203.2"/><path d="m609.6 921.62 1e-5 -1436.8" stroke-dasharray="67.7333, 541.866" stroke-dashoffset="406.4"/><path d="m812.8 985.39-1e-5 -1436.8" stroke-dasharray="67.7333, 541.866" stroke-dashoffset="203.2"/></g></g><g transform="translate(0 340.65)" fill="#55be59" stroke="#fff" stroke-linecap="round" stroke-width="67.733"><path d="m203.2 786.15 2e-5 -1436.8" stroke-dasharray="67.7333, 541.866"/><path d="m406.4 853.89-3e-5 -1436.8" stroke-dasharray="67.7333, 541.867" stroke-dashoffset="406.4"/><path d="m609.6 921.62 1e-5 -1436.8" stroke-dasharray="67.7333, 541.866" stroke-dashoffset="203.2"/><path d="m812.8 985.39-1e-5 -1436.8" stroke-dasharray="67.7333, 541.866"/></g><g transform="translate(40.746 19.05)"><path d="m423.51 739.6c12.031 3.2811 25.155-5.4685 25.155-18.593v-429.82c0-4.3748-2.1874-9.8433-6.5622-12.031-21.874-17.499-73.278-41.561-139.99-41.561-56.872 0-110.46 15.312-143.27 28.436-13.124 4.3748-19.687 17.499-19.687 30.624v422.17c0 14.218 14.218 22.968 27.342 19.687 36.092-13.124 91.871-26.249 135.62-26.249 39.373 0 90.777 15.312 121.4 27.342zm87.496 0c30.624-12.031 80.934-27.342 120.31-27.342 43.748 0 99.527 13.124 135.62 26.249 13.124 3.2811 28.436-5.4685 28.436-19.687v-422.17c0-13.124-7.6559-26.249-20.78-30.624-31.717-13.124-86.402-28.436-143.27-28.436-66.716 0-118.12 24.061-139.99 41.561-4.3748 2.1874-6.5622 7.6559-6.5622 12.031v429.82c0 13.124 14.218 21.874 26.249 18.593z" fill="#b82065" stroke="#fff" stroke-linecap="round" stroke-linejoin="round" stroke-width="5.2917" aria-label=""/></g></svg>
