<?xml version="1.0" encoding="UTF-8" standalone="no"?>
<!-- Created with Inkscape (http://www.inkscape.org/) -->

<svg
   width="3840"
   height="3840"
   viewBox="0 0 1016 1016"
   version="1.1"
   id="svg1"
   inkscape:version="1.4.1 (93de688d07, 2025-03-30)"
   sodipodi:docname="featured-logo.svg"
   xml:space="preserve"
   xmlns:inkscape="http://www.inkscape.org/namespaces/inkscape"
   xmlns:sodipodi="http://sodipodi.sourceforge.net/DTD/sodipodi-0.dtd"
   xmlns="http://www.w3.org/2000/svg"
   xmlns:svg="http://www.w3.org/2000/svg"><sodipodi:namedview
     id="namedview1"
     pagecolor="#ffffff"
     bordercolor="#000000"
     borderopacity="0.25"
     inkscape:showpageshadow="2"
     inkscape:pageopacity="0.0"
     inkscape:pagecheckerboard="0"
     inkscape:deskcolor="#d1d1d1"
     inkscape:document-units="px"
     inkscape:zoom="0.09690302"
     inkscape:cx="4550.9418"
     inkscape:cy="1991.682"
     inkscape:window-width="1918"
     inkscape:window-height="2132"
     inkscape:window-x="0"
     inkscape:window-y="0"
     inkscape:window-maximized="0"
     inkscape:current-layer="layer3"
     showguides="true"><sodipodi:guide
       position="0,508"
       orientation="0,1"
       id="guide1"
       inkscape:locked="false"
       inkscape:label=""
       inkscape:color="rgb(0,134,229)" /><sodipodi:guide
       position="508,1016"
       orientation="-1,0"
       id="guide3"
       inkscape:locked="false"
       inkscape:label=""
       inkscape:color="rgb(0,134,229)" /><sodipodi:guide
       position="203.2,812.8"
       orientation="-1,0"
       id="guide2"
       inkscape:locked="false"
       inkscape:label=""
       inkscape:color="rgb(0,134,229)" /><sodipodi:guide
       position="406.4,609.6"
       orientation="-1,0"
       id="guide4"
       inkscape:locked="false"
       inkscape:label=""
       inkscape:color="rgb(0,134,229)" /><sodipodi:guide
       position="609.6,406.4"
       orientation="-1,0"
       id="guide5"
       inkscape:locked="false"
       inkscape:label=""
       inkscape:color="rgb(0,134,229)" /><sodipodi:guide
       position="812.8,203.2"
       orientation="-1,0"
       id="guide6"
       inkscape:locked="false"
       inkscape:label=""
       inkscape:color="rgb(0,134,229)" /></sodipodi:namedview><defs
     id="defs1"><style
       id="style1">.cls-1{fill:#b82065;}.cls-2{fill:#d7156f;}.cls-3{fill:#c2aacf;}.cls-4{fill:#decee5;}.cls-5{fill:#f4e6f4;}.cls-6{fill:#14a36d;}.cls-7{fill:#15be79;}.cls-8{fill:#33db92;}.cls-9{fill:#fff;}.cls-10{fill:#ebd9ea;}.cls-11{fill:#f39e22;}.cls-12{fill:#f9c744;}.cls-13{fill:#c44a1a;}.cls-14{fill:#0989d8;}.cls-15{fill:#29a3fb;}.cls-16{fill:#7ed0fc;}.cls-17{fill:#ed72ab;}</style></defs><g
     inkscape:label="Background 1"
     inkscape:groupmode="layer"
     id="layer1"
     inkscape:highlight-color="#d9bfcb"
     style="display:inline"
     transform="translate(0,340.65103)"><path
       style="fill:#55be59;fill-opacity:1;stroke:#d9bfcb;stroke-width:67.7333;stroke-linecap:round;stroke-dasharray:67.7333, 541.866;stroke-dashoffset:406.4;stroke-opacity:1"
       d="M 203.20001,786.15384 V -650.68714"
       id="path1"
       inkscape:label="path1" /><path
       style="display:inline;fill:#55be59;fill-opacity:1;stroke:#d9bfcb;stroke-width:67.7333;stroke-linecap:round;stroke-dasharray:67.7333, 541.867;stroke-dashoffset:0;stroke-opacity:1"
       d="m 406.40001,853.88717 -2e-5,-1436.841"
       id="path1-0"
       inkscape:label="path2" /><path
       style="display:inline;fill:#55be59;fill-opacity:1;stroke:#d9bfcb;stroke-width:67.7333;stroke-linecap:round;stroke-dasharray:67.7333, 541.867;stroke-dashoffset:0;stroke-opacity:1"
       d="m 609.6,921.62047 10e-6,-1436.84095"
       id="path1-0-3"
       inkscape:label="path3" /><path
       style="display:inline;fill:#55be59;fill-opacity:1;stroke:#d9bfcb;stroke-width:67.7333;stroke-linecap:round;stroke-dasharray:67.7333, 541.866;stroke-dashoffset:406.4;stroke-opacity:1"
       d="M 812.80001,985.38507 812.8,-451.45591"
       id="path1-0-3-8"
       inkscape:label="path4" /></g><g
     inkscape:groupmode="layer"
     id="layer5"
     inkscape:label="Background 2"
     inkscape:highlight-color="#547d73"
     style="display:inline"
     transform="translate(0,340.65103)"><path
       style="display:inline;fill:#547d73;fill-opacity:1;stroke:#547d73;stroke-width:67.7333;stroke-linecap:round;stroke-dasharray:67.7333, 541.866;stroke-dashoffset:203.2;stroke-opacity:1"
       d="m 203.19999,786.15381 2e-5,-1436.84095"
       id="path1-2"
       inkscape:label="path1" /><path
       style="display:inline;fill:#547d73;fill-opacity:1;stroke:#547d73;stroke-width:67.7333;stroke-linecap:round;stroke-dasharray:67.7333, 541.867;stroke-dashoffset:203.2;stroke-opacity:1"
       d="m 406.40002,853.88718 -3e-5,-1436.84101"
       id="path1-0-4"
       inkscape:label="path2" /><path
       style="display:inline;fill:#547d73;fill-opacity:1;stroke:#547d73;stroke-width:67.7333;stroke-linecap:round;stroke-dasharray:67.7333, 541.866;stroke-dashoffset:406.4;stroke-opacity:1"
       d="m 609.6,921.62047 10e-6,-1436.84095"
       id="path1-0-3-5"
       inkscape:label="path3" /><path
       style="display:inline;fill:#547d73;fill-opacity:1;stroke:#547d73;stroke-width:67.7333;stroke-linecap:round;stroke-dasharray:67.7333, 541.866;stroke-dashoffset:203.2;stroke-opacity:1"
       d="M 812.80001,985.38507 812.8,-451.45591"
       id="path1-0-3-8-8"
       inkscape:label="path4" /></g><g
     inkscape:groupmode="layer"
     id="layer6"
     inkscape:label="Background 3"
     inkscape:highlight-color="#ffffff"
     style="stroke-dasharray:1, 5;stroke-dashoffset:0"
     transform="translate(0,340.65103)"><path
       style="display:inline;fill:#55be59;fill-opacity:1;stroke:#ffffff;stroke-width:67.7333;stroke-linecap:round;stroke-dasharray:67.7333, 541.866;stroke-dashoffset:0"
       d="m 203.19999,786.15381 2e-5,-1436.84095"
       id="path1-25"
       inkscape:label="path1" /><path
       style="display:inline;fill:#55be59;fill-opacity:1;stroke:#ffffff;stroke-width:67.7333;stroke-linecap:round;stroke-dasharray:67.7333, 541.867;stroke-dashoffset:406.4"
       d="m 406.40002,853.88718 -3e-5,-1436.84101"
       id="path1-0-42"
       inkscape:label="path2" /><path
       style="display:inline;fill:#55be59;fill-opacity:1;stroke:#ffffff;stroke-width:67.7333;stroke-linecap:round;stroke-dasharray:67.7333, 541.866;stroke-dashoffset:203.2"
       d="m 609.6,921.62047 10e-6,-1436.84095"
       id="path1-0-3-7"
       inkscape:label="path3" /><path
       style="display:inline;fill:#55be59;fill-opacity:1;stroke:#ffffff;stroke-width:67.7333;stroke-linecap:round;stroke-dasharray:67.7333, 541.866;stroke-dashoffset:0"
       d="M 812.80001,985.38507 812.8,-451.45591"
       id="path1-0-3-8-5"
       inkscape:label="path4" /></g><g
     inkscape:groupmode="layer"
     id="layer3"
     inkscape:label="Text"
     inkscape:highlight-color="#b82065"
     style="display:inline"><g
       id="g1"
       transform="matrix(0.13229212,0,0,0.13229212,253.99912,253.99976)"
       inkscape:label="logo"
       style="stroke-width:1.99999;stroke-dasharray:1.99999, 9.99997;stroke-dashoffset:0"><g
         id="layer1-3"
         inkscape:label="Background"
         inkscape:highlight-color="#b82065"
         style="stroke-width:1.99999"><circle
           class="cls-1"
           cx="1920.0751"
           cy="1920.0636"
           r="1919.925"
           id="circle1"
           style="stroke-width:1.99999" /><path
           class="cls-2"
           d="M 0,1918.2637 A 1917.2999,1917.2999 0 0 1 775.83032,378.30341 C 1627.4137,-253.59628 2829.9356,-75.614328 3461.8353,775.81896 a 1910.7747,1910.7747 0 0 1 374.4897,1020.03994 576.69754,576.69754 0 0 0 -106.8042,51.6019 c -178.807,110.5544 -315.0123,314.2623 -524.3455,333.3131 -143.6306,13.1254 -279.686,-69.3027 -383.2649,-169.6567 -103.5791,-100.3539 -186.5323,-221.3336 -295.5116,-315.9123 a 844.00799,844.00799 0 0 0 -1182.7963,75.0029 c -106.2791,119.1797 -198.9827,280.8111 -357.61395,300.0118 -215.63344,25.8009 -384.16502,-237.2344 -600.02346,-217.1335 -69.75272,6.5252 -132.9052,42.4517 -200.48284,60.0023 A 408.76598,408.76598 0 0 1 0,1918.2637 Z"
           id="path1-5"
           style="stroke-width:1.99999" /></g><g
         id="layer2"
         inkscape:label="Objects"
         inkscape:highlight-color="#15be79"
         style="stroke-width:1.99999"><g
           inkscape:groupmode="layer"
           id="layer3-6"
           inkscape:label="Cans"
           style="stroke-width:1.99999"><rect
             class="cls-3"
             x="-2638.4651"
             y="1129.4574"
             width="112.05438"
             height="946.61194"
             rx="36.376423"
             transform="rotate(-75)"
             id="rect1"
             style="stroke-width:1.99999" /><rect
             class="cls-4"
             x="-2638.3994"
             y="1251.0302"
             width="112.05438"
             height="825.10724"
             rx="36.376423"
             transform="rotate(-75)"
             id="rect2"
             style="stroke-width:1.99999" /><ellipse
             class="cls-5"
             cx="-2571.5984"
             cy="1628.2544"
             rx="36.226414"
             ry="120.0797"
             transform="rotate(-75)"
             id="ellipse2"
             style="stroke-width:1.99999" /><ellipse
             class="cls-5"
             cx="-2571.6567"
             cy="1853.479"
             rx="23.400913"
             ry="85.653343"
             transform="rotate(-75)"
             id="ellipse3"
             style="stroke-width:1.99999" /><path
             class="cls-6"
             d="m 1779.6696,1691.6047 -255.01,952.5373 a 510.01994,510.01994 0 0 1 -109.2043,204.308 l -104.0291,118.6546 -834.10754,-223.7338 -30.7512,-154.731 a 509.56992,509.56992 0 0 1 7.50029,-231.534 l 255.00997,-952.5373 a 510.01994,510.01994 0 0 1 109.20427,-204.308 l 104.25408,-118.4296 833.95763,223.2088 30.7512,154.806 a 509.56992,509.56992 0 0 1 -7.5753,231.759 z"
             id="path3"
             style="stroke-width:1.99999" /><path
             class="cls-7"
             d="m 1779.6696,1691.6047 -255.01,952.5373 a 510.01994,510.01994 0 0 1 -109.2043,204.308 l -104.0291,118.6546 -708.62764,-190.0574 -30.8262,-154.8061 a 510.61996,510.61996 0 0 1 7.5003,-231.534 l 255.00996,-952.5373 a 510.84497,510.84497 0 0 1 109.12926,-204.3079 l 104.10412,-118.6547 708.7777,189.8325 30.7512,154.806 a 509.56992,509.56992 0 0 1 -7.5753,231.759 z"
             id="path4"
             style="stroke-width:1.99999" /><ellipse
             class="cls-8"
             cx="-436.05997"
             cy="2010.8757"
             rx="124.80487"
             ry="200.85785"
             transform="rotate(-58.74)"
             id="ellipse4"
             style="stroke-width:1.99999" /><ellipse
             class="cls-8"
             cx="1628.9214"
             cy="1735.2531"
             rx="65.402557"
             ry="119.10465"
             transform="rotate(-0.76000019)"
             id="ellipse5"
             style="stroke-width:1.99999" /><path
             class="cls-9"
             d="m 1700.4665,1987.5663 -125.405,-33.8263 c -18.5257,-193.5076 -143.9306,-360.0141 -329.3378,-409.816 -185.4072,-49.802 -377.33975,31.9513 -490.14416,190.2824 l -125.55491,-33.6013 -96.67878,360.6892 125.4799,33.6013 c 18.52573,193.5825 143.93063,360.014 329.33788,409.8909 185.40727,49.877 377.33967,-31.9512 490.14417,-190.2824 l 125.4799,33.6013 z"
             id="path5"
             style="stroke-width:1.99999" /><rect
             class="cls-10"
             x="1048.7145"
             y="1479.5396"
             width="129.90509"
             height="373.43961"
             transform="rotate(15)"
             id="rect5"
             style="stroke-width:1.99999" /><ellipse
             class="cls-11"
             cx="-1666.2579"
             cy="1602.7921"
             rx="360.61411"
             ry="331.81299"
             transform="rotate(-75)"
             id="ellipse6"
             style="stroke-width:1.99999" /><ellipse
             class="cls-12"
             cx="-1666.2579"
             cy="1602.7921"
             rx="269.18552"
             ry="247.65967"
             transform="rotate(-75)"
             id="ellipse7"
             style="stroke-width:1.99999" /><rect
             class="cls-13"
             x="1463.6443"
             y="1511.0188"
             width="275.18573"
             height="72.977844"
             rx="36.451424"
             transform="rotate(15)"
             id="rect7"
             style="stroke-width:1.99999" /><rect
             class="cls-13"
             x="1373.2761"
             y="1642.6132"
             width="455.8678"
             height="72.977844"
             rx="36.451424"
             transform="rotate(15)"
             id="rect8"
             style="stroke-width:1.99999" /><path
             class="cls-3"
             d="m 1171.0958,730.51718 -47.9268,27.67609 a 102.15399,102.15399 0 0 0 -25.5761,156.0811 l 106.6542,136.88033 a 105.0041,105.0041 0 0 0 135.0053,26.401 v 0 a 105.0041,105.0041 0 0 0 45.0017,-130.28004 l -65.2525,-160.80629 a 102.15399,102.15399 0 0 0 -147.9058,-55.95219 z m 110.3293,77.10302 a 65.177548,65.177548 0 0 1 -23.851,88.95348 l -33.8263,19.57576 a 65.177548,65.177548 0 0 1 -89.0284,-23.62592 l -4.2002,-7.5003 a 65.102545,65.102545 0 0 1 23.851,-88.95347 l 33.8263,-19.57577 a 65.177548,65.177548 0 0 1 88.9535,23.85094 z"
             id="path8"
             style="stroke-width:1.99999" /><rect
             class="cls-3"
             x="-806.19934"
             y="1129.5172"
             width="112.05438"
             height="946.61194"
             rx="36.376423"
             transform="rotate(-75)"
             id="rect9"
             style="stroke-width:1.99999" /><rect
             class="cls-4"
             x="-806.22809"
             y="1250.9423"
             width="112.05438"
             height="825.10724"
             rx="36.376423"
             transform="rotate(-75)"
             id="rect10"
             style="stroke-width:1.99999" /><ellipse
             class="cls-5"
             cx="-739.42706"
             cy="1628.1666"
             rx="36.226414"
             ry="120.0797"
             transform="rotate(-75)"
             id="ellipse10"
             style="stroke-width:1.99999" /><ellipse
             class="cls-5"
             cx="-739.39081"
             cy="1853.5389"
             rx="23.400913"
             ry="85.653343"
             transform="rotate(-75)"
             id="ellipse11"
             style="stroke-width:1.99999" /><rect
             class="cls-3"
             x="1633.2102"
             y="3520.3052"
             width="946.61194"
             height="112.05438"
             rx="36.376423"
             transform="rotate(-15)"
             id="rect11"
             style="stroke-width:1.99999" /><rect
             class="cls-4"
             x="1754.7532"
             y="3520.3264"
             width="825.10724"
             height="112.05438"
             rx="36.376423"
             transform="rotate(-15)"
             id="rect12"
             style="stroke-width:1.99999" /><ellipse
             class="cls-5"
             cx="2131.9109"
             cy="3565.553"
             rx="120.0797"
             ry="36.226414"
             transform="rotate(-15)"
             id="ellipse12"
             style="stroke-width:1.99999" /><ellipse
             class="cls-5"
             cx="2357.249"
             cy="3565.5513"
             rx="85.653343"
             ry="23.400913"
             transform="rotate(-15)"
             id="ellipse13"
             style="stroke-width:1.99999" /><path
             class="cls-14"
             d="m 3130.8473,1404.7935 255.01,952.5373 a 509.56992,509.56992 0 0 1 7.5004,231.534 l -30.7513,154.731 -833.9576,223.5088 -103.804,-118.8796 a 510.01994,510.01994 0 0 1 -109.2043,-204.3081 l -255.01,-952.5372 a 509.56992,509.56992 0 0 1 -7.5002,-231.534 l 30.7512,-154.806 833.7326,-223.2088 104.029,118.6547 a 510.01994,510.01994 0 0 1 109.2042,204.3079 z"
             id="path13"
             style="stroke-width:1.99999" /><path
             class="cls-15"
             d="m 3130.8473,1404.7935 255.01,952.5373 a 509.56992,509.56992 0 0 1 7.5004,231.534 l -30.7513,154.731 -708.2526,189.6825 -104.2542,-118.6546 a 510.84497,510.84497 0 0 1 -108.9792,-204.533 l -255.0099,-952.5373 a 510.61996,510.61996 0 0 1 -7.5004,-231.534 l 30.8263,-154.806 708.1777,-189.3825 104.029,118.6547 a 510.01994,510.01994 0 0 1 109.2042,204.3079 z"
             id="path14"
             style="stroke-width:1.99999" /><ellipse
             class="cls-16"
             cx="-1249.2343"
             cy="2772.8303"
             rx="124.80488"
             ry="200.85785"
             transform="rotate(-88.74)"
             id="ellipse14"
             style="stroke-width:1.99999" /><ellipse
             class="cls-16"
             cx="1843.7794"
             cy="2828.6721"
             rx="65.402557"
             ry="119.10465"
             transform="rotate(-30.76)"
             id="ellipse15"
             style="stroke-width:1.99999" /><path
             class="cls-9"
             d="m 3210.1255,1700.6051 -125.4799,33.6013 c -112.5044,-158.3311 -304.737,-240.0094 -490.1442,-190.2824 -185.4073,49.7269 -310.8121,216.3084 -329.4129,409.816 l -125.4048,33.8263 96.6787,360.6891 125.48,-33.6013 c 112.5043,158.3312 304.7369,240.0094 490.1441,190.2824 185.4072,-49.7269 310.8122,-216.3084 329.3379,-409.891 l 125.4798,-33.6012 z"
             id="path15"
             style="stroke-width:1.99999" /><rect
             class="cls-10"
             x="1552.4106"
             y="2473.4819"
             width="129.90509"
             height="373.43961"
             transform="rotate(-15)"
             id="rect15"
             style="stroke-width:1.99999" /><ellipse
             class="cls-11"
             cx="2106.5068"
             cy="2660.1753"
             rx="331.81299"
             ry="360.61411"
             transform="rotate(-15)"
             id="ellipse16"
             style="stroke-width:1.99999" /><ellipse
             class="cls-12"
             cx="2106.5068"
             cy="2660.1753"
             rx="247.65967"
             ry="269.18552"
             transform="rotate(-15)"
             id="ellipse17"
             style="stroke-width:1.99999" /><rect
             class="cls-13"
             x="1967.322"
             y="2504.9678"
             width="275.18573"
             height="72.977844"
             rx="36.451424"
             transform="rotate(-15)"
             id="rect17"
             style="stroke-width:1.99999" /><rect
             class="cls-13"
             x="1877.0273"
             y="2636.4895"
             width="455.8678"
             height="72.977844"
             rx="36.451424"
             transform="rotate(-15)"
             id="rect18"
             style="stroke-width:1.99999" /><path
             class="cls-3"
             d="m 2521.1486,786.46937 -65.2526,160.80629 a 105.0041,105.0041 0 0 0 45.0018,130.28004 v 0 a 105.0041,105.0041 0 0 0 135.0053,-26.401 l 106.6541,-136.88033 a 102.15399,102.15399 0 0 0 -25.576,-156.0811 l -47.9268,-27.67609 a 102.15399,102.15399 0 0 0 -147.9058,55.95219 z m 41.8516,13.80055 a 65.177548,65.177548 0 0 1 88.9535,-23.85094 l 33.8263,19.57577 a 65.102545,65.102545 0 0 1 23.8509,89.02847 l -4.2002,7.5003 a 65.177548,65.177548 0 0 1 -89.0285,23.85093 l -33.8263,-19.57576 a 65.177548,65.177548 0 0 1 -23.8508,-88.95348 z"
             id="path18"
             style="stroke-width:1.99999" /><rect
             class="cls-3"
             x="1633.1941"
             y="1688.0468"
             width="946.61194"
             height="112.05438"
             rx="36.376423"
             transform="rotate(-15)"
             id="rect19"
             style="stroke-width:1.99999" /><rect
             class="cls-4"
             x="1754.6818"
             y="1688.0708"
             width="825.10724"
             height="112.05438"
             rx="36.376423"
             transform="rotate(-15)"
             id="rect20"
             style="stroke-width:1.99999" /><ellipse
             class="cls-5"
             cx="2142.4954"
             cy="1738.045"
             rx="120.58895"
             ry="36.380051"
             transform="rotate(-15.00492)"
             id="ellipse20"
             style="stroke-width:2.00847" /><ellipse
             class="cls-5"
             cx="2357.2307"
             cy="1733.3124"
             rx="85.653343"
             ry="23.400913"
             transform="rotate(-15)"
             id="ellipse21"
             style="stroke-width:1.99999" /><rect
             class="cls-17"
             x="1888.1238"
             y="442.80594"
             width="63.827499"
             height="408.24097"
             rx="31.95125"
             id="rect21"
             style="stroke-width:1.99999" /><rect
             class="cls-17"
             x="1446.8781"
             y="959.14227"
             width="63.827492"
             height="330.08789"
             rx="31.95125"
             transform="rotate(-15)"
             id="rect22"
             style="stroke-width:1.99999" /><rect
             class="cls-17"
             x="898.59393"
             y="1344.1101"
             width="63.827492"
             height="244.20955"
             rx="31.95125"
             transform="rotate(-30)"
             id="rect23"
             style="stroke-width:1.99999" /><rect
             class="cls-17"
             x="-2262.5408"
             y="-295.33063"
             width="63.827492"
             height="330.08789"
             rx="31.95125"
             transform="rotate(-165)"
             id="rect24"
             style="stroke-width:1.99999" /><rect
             class="cls-17"
             x="-2427.0386"
             y="331.73322"
             width="63.827492"
             height="244.20955"
             rx="31.95125"
             transform="rotate(-150)"
             id="rect25"
             style="stroke-width:1.99999" /></g></g></g></g></svg>
