<?xml version="1.0" encoding="UTF-8"?>
<svg width="3840" height="3840" version="1.1" viewBox="0 0 1016 1016" xml:space="preserve" xmlns="http://www.w3.org/2000/svg"><g fill="#55be59" stroke-linecap="round"><g stroke="#d5efd5"><path d="m-304.8 711.2 1016-1016" stroke-dasharray="67.7333, 541.866" stroke-dashoffset="406.4" stroke-width="67.733"/><path d="m-101.6 914.4 1016-1016" stroke-dasharray="67.73332977,541.86663818" stroke-width="67.733"/><path d="m101.6 1117.6 1016-1016" stroke-dasharray="67.7333, 541.867" stroke-width="67.733"/><path d="m304.8 1320.8 1016-1016" stroke-dasharray="67.7333, 541.866" stroke-dashoffset="406.4" stroke-width="67.733"/></g><g stroke="#808080"><path d="m-304.8 711.2 1016-1016" stroke-dasharray="67.7333, 541.866" stroke-dashoffset="203.2" stroke-width="67.733"/><path d="m-101.6 914.4 1016-1016" stroke-dasharray="67.73332977,541.86663818" stroke-dashoffset="203.2" stroke-width="67.733"/><path d="m101.6 1117.6 1016-1016" stroke-dasharray="67.7333, 541.866" stroke-dashoffset="406.4" stroke-width="67.733"/><path d="m304.8 1320.8 1016-1016" stroke-dasharray="67.7333, 541.866" stroke-dashoffset="203.2" stroke-width="67.733"/></g></g><g fill="#55be59" stroke="#fff" stroke-linecap="round"><path d="m-304.8 711.2 1016-1016" stroke-dasharray="67.7333, 541.866" stroke-width="67.733"/><path d="m-101.6 914.4 1016-1016" stroke-dasharray="67.73332977,541.86663818" stroke-dashoffset="406.4" stroke-width="67.733"/><path d="m101.6 1117.6 1016-1016" stroke-dasharray="67.7333, 541.866" stroke-dashoffset="203.2" stroke-width="67.733"/><path d="m304.8 1320.8 1016-1016" stroke-dasharray="67.7333, 541.866" stroke-width="67.733"/></g><g><path d="m865.08 138.46c-15.122-10.081-34.025-11.342-50.407-2.5204l-661.59 378.05c-15.122 8.8213-23.943 25.204-22.683 41.586 0 17.643 10.081 34.025 26.464 41.586l129.8 64.269 299.92-265.9c8.8213-8.8213 23.943-7.5611 32.765 1.2602 8.8213 8.8213 8.8213 22.683 0 32.765l-247 269.68c-3.7805 3.7805-6.3009 10.081-6.3009 15.122v123.5c0 20.163 11.342 37.805 30.244 45.366 17.643 6.3009 39.066 1.2602 51.667-12.602l102.07-109.64 175.17 73.09c13.862 5.0407 28.984 5.0407 41.586-2.5204 13.862-6.3009 21.423-18.903 23.943-34.025l94.514-613.71c2.5204-17.643-5.0407-35.285-20.163-45.366z" fill="#55be59" stroke="#fff" stroke-width="6.5562" aria-label=""/></g></svg>
