<?xml version="1.0" encoding="UTF-8"?>
<svg width="3840" height="3840" version="1.1" viewBox="0 0 1016 1016" xml:space="preserve" xmlns="http://www.w3.org/2000/svg"><g fill="#55be59" stroke-linecap="round"><g stroke="#d5efd5"><path d="m-304.8 711.2 1016-1016" stroke-dasharray="67.7333, 541.866" stroke-dashoffset="406.4" stroke-width="67.733"/><path d="m-101.6 914.4 1016-1016" stroke-dasharray="67.73332977,541.86663818" stroke-width="67.733"/><path d="m101.6 1117.6 1016-1016" stroke-dasharray="67.7333, 541.867" stroke-width="67.733"/><path d="m304.8 1320.8 1016-1016" stroke-dasharray="67.7333, 541.866" stroke-dashoffset="406.4" stroke-width="67.733"/></g><g stroke="#808080"><path d="m-304.8 711.2 1016-1016" stroke-dasharray="67.7333, 541.866" stroke-dashoffset="203.2" stroke-width="67.733"/><path d="m-101.6 914.4 1016-1016" stroke-dasharray="67.73332977,541.86663818" stroke-dashoffset="203.2" stroke-width="67.733"/><path d="m101.6 1117.6 1016-1016" stroke-dasharray="67.7333, 541.866" stroke-dashoffset="406.4" stroke-width="67.733"/><path d="m304.8 1320.8 1016-1016" stroke-dasharray="67.7333, 541.866" stroke-dashoffset="203.2" stroke-width="67.733"/></g></g><g fill="#55be59" stroke="#fff" stroke-linecap="round"><path d="m-304.8 711.2 1016-1016" stroke-dasharray="67.7333, 541.866" stroke-width="67.733"/><path d="m-101.6 914.4 1016-1016" stroke-dasharray="67.73332977,541.86663818" stroke-dashoffset="406.4" stroke-width="67.733"/><path d="m101.6 1117.6 1016-1016" stroke-dasharray="67.7333, 541.866" stroke-dashoffset="203.2" stroke-width="67.733"/><path d="m304.8 1320.8 1016-1016" stroke-dasharray="67.7333, 541.866" stroke-width="67.733"/></g><g><path d="m717.47 586.22 1.7577 0.87886v-13.183 7.0309c-0.87886 2.6366-1.7577 4.3943-1.7577 5.2732zm-261.9-12.304c0-24.608 6.1521-46.58 17.577-66.793 11.425-20.214 27.245-36.033 47.459-47.458 20.214-11.425 42.186-17.577 65.915-17.577 23.729 0 46.58 6.152 65.915 17.577 20.214 11.425 36.034 27.245 48.338 47.458 12.304 20.214 18.456 42.185 18.456 66.793v-131.83l-54.49-158.19c-3.5155-7.9097-8.7887-14.941-14.941-19.335-7.0309-5.2732-14.062-7.9098-23.729-7.9098h-289.15c-8.7887 0-16.698 2.6366-23.729 7.9098-6.1521 4.3943-11.425 11.425-14.941 19.335l-53.611 158.19v210.93c0 7.0309 2.6366 14.062 7.9098 19.335 5.2732 5.2732 10.546 7.9098 17.577 7.9098h27.245c7.0309 0 13.183-2.6366 18.456-7.9098 5.2732-5.2732 7.9098-12.304 7.9098-19.335v-26.366h143.26c-7.9098-16.698-11.425-34.276-11.425-52.732zm-79.098-65.915c0 10.546-3.5155 20.214-11.425 28.124-7.9098 7.9098-17.577 11.425-29.003 11.425-10.546 0-20.214-3.5154-27.245-11.425-7.9098-7.9098-11.425-17.577-11.425-28.124 0-10.546 3.5155-20.214 11.425-28.124 7.0309-7.9098 16.698-11.425 27.245-11.425 11.425 0 21.093 4.3943 29.003 12.304 7.9098 7.9098 11.425 16.698 11.425 27.245zm289.15-93.159h-368.24l39.549-117.77h289.15zm102.83 296.18c2.6366 1.7577 3.5155 4.3943 2.6366 7.9097 0 3.5154-1.7577 6.152-4.3943 8.7886l-27.245 27.245c-1.7577 2.6366-5.2732 4.3943-7.9098 4.3943-3.5155 0-6.1521-1.7577-8.7887-4.3943l-107.22-108.98c-14.062 6.152-29.003 7.9098-43.943 4.3943-14.941-3.5154-28.124-11.425-39.549-22.85-11.425-10.546-18.456-24.608-21.093-41.306-3.5155-15.82-0.87886-31.639 7.0309-46.58l51.853 51.853 35.155-35.154-51.853-51.853c14.941-7.0309 30.76-8.7886 47.459-5.2732 16.698 2.6366 29.881 9.6675 41.307 20.214 10.546 11.425 17.577 24.608 21.093 39.549 3.5155 15.819 2.6366 29.881-3.5155 43.064z" fill="#55be59" stroke="#f4ffff" stroke-dashoffset="653.14" stroke-linecap="round" stroke-linejoin="round" stroke-width="5.2917" aria-label="󱠔"/></g></svg>
