<?xml version="1.0" encoding="UTF-8" standalone="no"?>
<!-- Created with Inkscape (http://www.inkscape.org/) -->

<svg
   width="3840"
   height="3840"
   viewBox="0 0 1016 1016"
   version="1.1"
   id="svg1"
   inkscape:version="1.4.1 (93de688d07, 2025-03-30)"
   sodipodi:docname="featured-autoshop.svg"
   xml:space="preserve"
   xmlns:inkscape="http://www.inkscape.org/namespaces/inkscape"
   xmlns:sodipodi="http://sodipodi.sourceforge.net/DTD/sodipodi-0.dtd"
   xmlns="http://www.w3.org/2000/svg"
   xmlns:svg="http://www.w3.org/2000/svg"><sodipodi:namedview
     id="namedview1"
     pagecolor="#ffffff"
     bordercolor="#000000"
     borderopacity="0.25"
     inkscape:showpageshadow="2"
     inkscape:pageopacity="0.0"
     inkscape:pagecheckerboard="0"
     inkscape:deskcolor="#d1d1d1"
     inkscape:document-units="px"
     inkscape:zoom="0.19380604"
     inkscape:cx="1684.674"
     inkscape:cy="2579.899"
     inkscape:window-width="3043"
     inkscape:window-height="2132"
     inkscape:window-x="0"
     inkscape:window-y="0"
     inkscape:window-maximized="0"
     inkscape:current-layer="layer3"
     showguides="true"><sodipodi:guide
       position="0,508"
       orientation="0,1"
       id="guide1"
       inkscape:locked="false"
       inkscape:label=""
       inkscape:color="rgb(0,134,229)" /><sodipodi:guide
       position="508,1016"
       orientation="-1,0"
       id="guide3"
       inkscape:locked="false"
       inkscape:label=""
       inkscape:color="rgb(0,134,229)" /><sodipodi:guide
       position="203.2,812.8"
       orientation="-0.70710678,0.70710678"
       id="guide2"
       inkscape:locked="false"
       inkscape:label=""
       inkscape:color="rgb(0,134,229)" /><sodipodi:guide
       position="406.4,609.6"
       orientation="-0.70710678,0.70710678"
       id="guide4"
       inkscape:locked="false"
       inkscape:label=""
       inkscape:color="rgb(0,134,229)" /><sodipodi:guide
       position="609.6,406.4"
       orientation="-0.70710678,0.70710678"
       id="guide5"
       inkscape:locked="false"
       inkscape:label=""
       inkscape:color="rgb(0,134,229)" /><sodipodi:guide
       position="812.8,203.2"
       orientation="-0.70710678,0.70710678"
       id="guide6"
       inkscape:locked="false"
       inkscape:label=""
       inkscape:color="rgb(0,134,229)" /></sodipodi:namedview><defs
     id="defs1" /><g
     inkscape:label="Background 1"
     inkscape:groupmode="layer"
     id="layer1"
     inkscape:highlight-color="#55be59"
     style="display:inline"><path
       style="fill:#55be59;fill-opacity:1;stroke:#d5efd5;stroke-width:67.7333;stroke-linecap:round;stroke-dasharray:67.7333, 541.866;stroke-dashoffset:406.4;stroke-opacity:1"
       d="m -304.8,711.2 1016,-1016"
       id="path1"
       inkscape:label="path1" /><path
       style="display:inline;fill:#55be59;fill-opacity:1;stroke:#d5efd5;stroke-width:67.73333333;stroke-linecap:round;stroke-dasharray:67.73332977,541.86663818;stroke-dashoffset:0;stroke-opacity:1"
       d="M -101.6,914.40002 914.4,-101.60002"
       id="path1-0"
       inkscape:label="path2" /><path
       style="display:inline;fill:#55be59;fill-opacity:1;stroke:#d5efd5;stroke-width:67.7333;stroke-linecap:round;stroke-dasharray:67.7333, 541.867;stroke-dashoffset:0;stroke-opacity:1"
       d="M 101.60002,1117.6 1117.6,101.59999"
       id="path1-0-3"
       inkscape:label="path3" /><path
       style="display:inline;fill:#55be59;fill-opacity:1;stroke:#d5efd5;stroke-width:67.7333;stroke-linecap:round;stroke-dasharray:67.7333, 541.866;stroke-dashoffset:406.4;stroke-opacity:1"
       d="M 304.80001,1320.8 1320.8,304.8"
       id="path1-0-3-8"
       inkscape:label="path4" /></g><g
     inkscape:groupmode="layer"
     id="layer5"
     inkscape:label="Background 2"
     inkscape:highlight-color="#808080"
     style="display:inline"><path
       style="display:inline;fill:#55be59;fill-opacity:1;stroke:#808080;stroke-width:67.7333;stroke-linecap:round;stroke-dasharray:67.7333, 541.866;stroke-dashoffset:203.2;stroke-opacity:1"
       d="M -304.8,711.19997 711.2,-304.8"
       id="path1-2"
       inkscape:label="path1" /><path
       style="display:inline;fill:#55be59;fill-opacity:1;stroke:#808080;stroke-width:67.73333333;stroke-opacity:1;stroke-linecap:round;stroke-dasharray:67.73332977,541.86663818;stroke-dashoffset:203.19998932"
       d="M -101.6,914.40003 914.4,-101.60002"
       id="path1-0-4"
       inkscape:label="path2" /><path
       style="display:inline;fill:#55be59;fill-opacity:1;stroke:#808080;stroke-width:67.7333;stroke-linecap:round;stroke-dasharray:67.7333, 541.866;stroke-dashoffset:406.4;stroke-opacity:1"
       d="M 101.60002,1117.6 1117.6,101.59999"
       id="path1-0-3-5"
       inkscape:label="path3" /><path
       style="display:inline;fill:#55be59;fill-opacity:1;stroke:#808080;stroke-width:67.7333;stroke-linecap:round;stroke-dasharray:67.7333, 541.866;stroke-dashoffset:203.2;stroke-opacity:1"
       d="M 304.80001,1320.8 1320.8,304.8"
       id="path1-0-3-8-8"
       inkscape:label="path4" /></g><g
     inkscape:groupmode="layer"
     id="layer6"
     inkscape:label="Background 3"
     inkscape:highlight-color="#ffffff"
     style="stroke-dasharray:1,5;stroke-dashoffset:0"><path
       style="display:inline;fill:#55be59;fill-opacity:1;stroke:#ffffff;stroke-width:67.7333;stroke-linecap:round;stroke-dasharray:67.7333, 541.866;stroke-dashoffset:0"
       d="M -304.8,711.19997 711.2,-304.8"
       id="path1-25"
       inkscape:label="path1" /><path
       style="display:inline;fill:#55be59;fill-opacity:1;stroke:#ffffff;stroke-width:67.73333333;stroke-dasharray:67.73332977,541.86663818;stroke-linecap:round;stroke-dashoffset:406.39997864"
       d="M -101.6,914.40003 914.4,-101.60002"
       id="path1-0-42"
       inkscape:label="path2" /><path
       style="display:inline;fill:#55be59;fill-opacity:1;stroke:#ffffff;stroke-width:67.7333;stroke-linecap:round;stroke-dasharray:67.7333, 541.866;stroke-dashoffset:203.2"
       d="M 101.60002,1117.6 1117.6,101.59999"
       id="path1-0-3-7"
       inkscape:label="path3" /><path
       style="display:inline;fill:#55be59;fill-opacity:1;stroke:#ffffff;stroke-width:67.7333;stroke-linecap:round;stroke-dasharray:67.7333, 541.866;stroke-dashoffset:0"
       d="M 304.80001,1320.8 1320.8,304.8"
       id="path1-0-3-8-5"
       inkscape:label="path4" /></g><g
     inkscape:groupmode="layer"
     id="layer3"
     inkscape:label="Text"
     inkscape:highlight-color="#55be59"
     style="display:inline"><path
       d="m 717.47462,586.21861 1.75773,0.87886 c 0,-9.66747 0,-14.06177 0,-13.18291 v 7.03089 c -0.87886,2.63657 -1.75773,4.3943 -1.75773,5.27316 z m -261.9021,-12.30405 c 0,-24.6081 6.15206,-46.57962 17.57732,-66.79341 11.42526,-20.21382 27.24485,-36.0333 47.45877,-47.45849 20.21392,-11.4252 42.18558,-17.57722 65.91495,-17.57722 23.7294,0 46.57991,6.15202 65.91497,17.57722 20.21393,11.42519 36.03351,27.24467 48.33764,47.45849 12.30412,20.21379 18.45618,42.18531 18.45618,66.79341 V 442.08544 l -54.4897,-158.19493 c -3.51547,-7.90974 -8.78866,-14.94063 -14.94072,-19.33493 -7.03093,-5.27316 -14.06186,-7.90975 -23.72939,-7.90975 H 336.92559 c -8.78866,0 -16.69846,2.63659 -23.72938,7.90975 -6.15207,4.3943 -11.42526,11.42518 -14.94072,19.33493 l -53.61084,158.19493 v 210.92658 c 0,7.03089 2.6366,14.06177 7.9098,19.33493 5.27319,5.27316 10.54639,7.90975 17.57731,7.90975 h 27.24485 c 7.03094,0 13.183,-2.63658 18.45619,-7.90975 5.2732,-5.27317 7.9098,-12.30404 7.9098,-19.33493 V 626.6462 h 143.25518 c -7.9098,-16.69835 -11.42527,-34.27557 -11.42526,-52.73164 z M 376.47457,508 c 0,10.54633 -3.51546,20.2138 -11.42525,28.12355 -7.9098,7.90975 -17.57732,11.42517 -29.00259,11.42517 -10.54639,0 -20.21392,-3.51543 -27.24485,-11.42517 -7.90979,-7.90976 -11.42526,-17.57722 -11.42526,-28.12356 0,-10.54632 3.51547,-20.21379 11.42526,-28.12354 7.03093,-7.90975 16.69846,-11.42518 27.24485,-11.42518 11.42527,0 21.09279,4.39429 29.00259,12.30404 7.90979,7.90975 11.42525,16.69836 11.42525,27.24469 z m 289.14694,-93.15924 h -368.2449 l 39.54898,-117.76733 h 289.14695 z m 102.82735,296.17607 c 2.63659,1.75771 3.51546,4.39431 2.63659,7.90974 0,3.51545 -1.75773,6.15204 -4.39433,8.78861 l -27.24485,27.24469 c -1.75773,2.63658 -5.2732,4.3943 -7.90979,4.3943 -3.51547,0 -6.15207,-1.75772 -8.78866,-4.3943 L 615.52615,645.98113 c -14.06185,6.15202 -29.00259,7.90975 -43.94331,4.39432 -14.94072,-3.51545 -28.12371,-11.42521 -39.54897,-22.85038 -11.42526,-10.54634 -18.45619,-24.60811 -21.09279,-41.30646 -3.51547,-15.8195 -0.87886,-31.639 7.03093,-46.57962 l 51.8531,51.85278 35.15464,-35.15443 -51.8531,-51.85279 c 14.94073,-7.03088 30.76032,-8.78861 47.45877,-5.27316 16.69846,2.63658 29.88145,9.66746 41.30671,20.2138 10.5464,11.42519 17.57732,24.60811 21.09279,39.54873 3.51547,15.81949 2.63659,29.88126 -3.51547,43.06417 z"
       id="text3"
       style="font-size:1270px;font-family:'Hasklug Nerd Font Mono';-inkscape-font-specification:'Hasklug Nerd Font Mono';fill:#55be59;stroke:#f4ffff;stroke-width:5.29166;stroke-linecap:round;stroke-linejoin:round;stroke-dasharray:none;stroke-dashoffset:653.143;stroke-opacity:1"
       aria-label="󱠔"
       inkscape:label="nf-md-car_wrench" /></g></svg>
