<?xml version="1.0" encoding="UTF-8"?>
<svg width="3840" height="3840" version="1.1" viewBox="0 0 1016 1016" xml:space="preserve" xmlns="http://www.w3.org/2000/svg"><g fill="#55be59" stroke-linecap="round"><g stroke="#d5efd5"><path d="m-304.8 711.2 1016-1016" stroke-dasharray="67.7333, 541.866" stroke-dashoffset="406.4" stroke-width="67.733"/><path d="m-101.6 914.4 1016-1016" stroke-dasharray="67.73332977,541.86663818" stroke-width="67.733"/><path d="m101.6 1117.6 1016-1016" stroke-dasharray="67.7333, 541.867" stroke-width="67.733"/><path d="m304.8 1320.8 1016-1016" stroke-dasharray="67.7333, 541.866" stroke-dashoffset="406.4" stroke-width="67.733"/></g><g stroke="#808080"><path d="m-304.8 711.2 1016-1016" stroke-dasharray="67.7333, 541.866" stroke-dashoffset="203.2" stroke-width="67.733"/><path d="m-101.6 914.4 1016-1016" stroke-dasharray="67.73332977,541.86663818" stroke-dashoffset="203.2" stroke-width="67.733"/><path d="m101.6 1117.6 1016-1016" stroke-dasharray="67.7333, 541.866" stroke-dashoffset="406.4" stroke-width="67.733"/><path d="m304.8 1320.8 1016-1016" stroke-dasharray="67.7333, 541.866" stroke-dashoffset="203.2" stroke-width="67.733"/></g></g><g fill="#55be59" stroke="#fff" stroke-linecap="round"><path d="m-304.8 711.2 1016-1016" stroke-dasharray="67.7333, 541.866" stroke-width="67.733"/><path d="m-101.6 914.4 1016-1016" stroke-dasharray="67.73332977,541.86663818" stroke-dashoffset="406.4" stroke-width="67.733"/><path d="m101.6 1117.6 1016-1016" stroke-dasharray="67.7333, 541.866" stroke-dashoffset="203.2" stroke-width="67.733"/><path d="m304.8 1320.8 1016-1016" stroke-dasharray="67.7333, 541.866" stroke-width="67.733"/></g><g><path d="m646.85 762v-186.27c0-25.4-5.08-49.107-14.393-70.273-9.3133-16.087-22.86-33.867-41.487-51.647-11.007-11.007-25.4-20.32-42.333-29.633s-35.56-16.933-55.88-22.013l-6.7733-54.187h114.3v-93.98h45.72v93.98h115.99l-38.947 379.31c-0.84666 10.16-5.08 18.627-12.7 25.4-6.7733 5.9267-15.24 9.3133-24.553 9.3133zm-392.85-23.707c0 6.7733 1.6933 11.853 6.7733 16.933 4.2333 4.2333 10.16 6.7733 16.933 6.7733h298.87c6.7733 0 12.7-2.54 16.933-6.7733 5.08-5.08 6.7733-10.16 6.7733-16.933v-22.86h-346.29zm346.29-160.87h-346.29c0-35.56 11.853-65.193 36.407-88.9 21.167-22.013 49.953-36.407 84.667-44.027 34.713-7.62 69.427-7.62 104.99 0 34.713 7.62 63.5 22.013 84.667 44.027 23.707 23.707 35.56 53.34 35.56 88.9zm-346.29 46.567v44.873h345.44v-44.873z" fill="#55be59" stroke-width="0" aria-label="󰉚"/></g></svg>
