<?xml version="1.0" encoding="UTF-8"?>
<svg width="3840" height="3840" version="1.1" viewBox="0 0 1016 1016" xml:space="preserve" xmlns="http://www.w3.org/2000/svg"><g fill="#55be59" stroke-linecap="round"><g stroke="#d5efd5"><path d="m-304.8 711.2 1016-1016" stroke-dasharray="67.7333, 541.866" stroke-dashoffset="406.4" stroke-width="67.733"/><path d="m-101.6 914.4 1016-1016" stroke-dasharray="67.73332977,541.86663818" stroke-width="67.733"/><path d="m101.6 1117.6 1016-1016" stroke-dasharray="67.7333, 541.867" stroke-width="67.733"/><path d="m304.8 1320.8 1016-1016" stroke-dasharray="67.7333, 541.866" stroke-dashoffset="406.4" stroke-width="67.733"/></g><g stroke="#808080"><path d="m-304.8 711.2 1016-1016" stroke-dasharray="67.7333, 541.866" stroke-dashoffset="203.2" stroke-width="67.733"/><path d="m-101.6 914.4 1016-1016" stroke-dasharray="67.73332977,541.86663818" stroke-dashoffset="203.2" stroke-width="67.733"/><path d="m101.6 1117.6 1016-1016" stroke-dasharray="67.7333, 541.866" stroke-dashoffset="406.4" stroke-width="67.733"/><path d="m304.8 1320.8 1016-1016" stroke-dasharray="67.7333, 541.866" stroke-dashoffset="203.2" stroke-width="67.733"/></g></g><g fill="#55be59" stroke="#fff" stroke-linecap="round"><path d="m-304.8 711.2 1016-1016" stroke-dasharray="67.7333, 541.866" stroke-width="67.733"/><path d="m-101.6 914.4 1016-1016" stroke-dasharray="67.73332977,541.86663818" stroke-dashoffset="406.4" stroke-width="67.733"/><path d="m101.6 1117.6 1016-1016" stroke-dasharray="67.7333, 541.866" stroke-dashoffset="203.2" stroke-width="67.733"/><path d="m304.8 1320.8 1016-1016" stroke-dasharray="67.7333, 541.866" stroke-width="67.733"/></g><g><path d="m719.65 587.04 1.7762 0.88811v-13.322 7.1049c-0.88811 2.6643-1.7762 4.4406-1.7762 5.3287zm-264.66-12.434c0-24.867 6.2168-47.07 17.762-67.496 11.545-20.427 27.531-36.413 47.958-47.958 20.427-11.545 42.629-17.762 66.608-17.762 23.979 0 47.07 6.2168 66.608 17.762 20.427 11.545 36.413 27.531 48.846 47.958 12.434 20.427 18.65 42.629 18.65 67.496v-133.22l-55.063-159.86c-3.5524-7.993-8.8811-15.098-15.098-19.538-7.1049-5.3287-14.21-7.993-23.979-7.993h-292.19c-8.8811 0-16.874 2.6643-23.979 7.993-6.2168 4.4406-11.545 11.545-15.098 19.538l-54.175 159.86v213.15c0 7.1049 2.6643 14.21 7.993 19.538s10.657 7.993 17.762 7.993h27.531c7.1049 0 13.322-2.6643 18.65-7.993s7.993-12.434 7.993-19.538v-26.643h144.76c-7.993-16.874-11.545-34.636-11.545-53.287zm-79.93-66.608c0 10.657-3.5524 20.427-11.545 28.42-7.993 7.993-17.762 11.545-29.308 11.545-10.657 0-20.427-3.5524-27.531-11.545-7.993-7.993-11.545-17.762-11.545-28.42s3.5524-20.427 11.545-28.42c7.1049-7.993 16.874-11.545 27.531-11.545 11.545 0 21.315 4.4406 29.308 12.434 7.993 7.993 11.545 16.874 11.545 27.531zm292.19-94.14h-372.12l39.965-119.01h292.19zm103.91 299.29c2.6643 1.7762 3.5524 4.4406 2.6643 7.993 0 3.5524-1.7762 6.2168-4.4406 8.8811l-27.531 27.531c-1.7762 2.6643-5.3287 4.4406-7.993 4.4406-3.5524 0-6.2168-1.7762-8.8811-4.4406l-108.35-110.13c-14.21 6.2168-29.308 7.993-44.406 4.4406-15.098-3.5524-28.42-11.545-39.965-23.091-11.545-10.657-18.65-24.867-21.315-41.741-3.5524-15.986-0.88811-31.972 7.1049-47.07l52.399 52.399 35.524-35.524-52.399-52.399c15.098-7.1049 31.084-8.8811 47.958-5.3287 16.874 2.6643 30.196 9.7692 41.741 20.427 10.657 11.545 17.762 24.867 21.315 39.965 3.5524 15.986 2.6643 30.196-3.5524 43.517z" fill="#55be59" stroke-width="0" aria-label="󱠔"/></g></svg>
