<?xml version="1.0" encoding="UTF-8"?>
<svg width="3840" height="3840" version="1.1" viewBox="0 0 1016 1016" xml:space="preserve" xmlns="http://www.w3.org/2000/svg"><g fill="#55be59" stroke-linecap="round"><g stroke="#e7e7b8" stroke-width="67.733"><path d="m-304.8 711.2 1016-1016" stroke-dasharray="67.7333, 541.866" stroke-dashoffset="406.4"/><path d="m-101.6 914.4 1016-1016" stroke-dasharray="67.7333, 541.867"/><path d="m101.6 1117.6 1016-1016" stroke-dasharray="67.7333, 541.867"/><path d="m304.8 1320.8 1016-1016" stroke-dasharray="67.7333, 541.866" stroke-dashoffset="406.4"/></g><g stroke="#808080"><path d="m-304.8 711.2 1016-1016" stroke-dasharray="67.7333, 541.866" stroke-dashoffset="203.2" stroke-width="67.733"/><path d="m-101.6 914.4 1016-1016" stroke-dasharray="67.73332977,541.86663818" stroke-dashoffset="203.2" stroke-width="67.733"/><path d="m101.6 1117.6 1016-1016" stroke-dasharray="67.7333, 541.866" stroke-dashoffset="406.4" stroke-width="67.733"/><path d="m304.8 1320.8 1016-1016" stroke-dasharray="67.7333, 541.866" stroke-dashoffset="203.2" stroke-width="67.733"/></g></g><g fill="#55be59" stroke="#fff" stroke-linecap="round"><path d="m-304.8 711.2 1016-1016" stroke-dasharray="67.7333, 541.866" stroke-width="67.733"/><path d="m-101.6 914.4 1016-1016" stroke-dasharray="67.73332977,541.86663818" stroke-dashoffset="406.4" stroke-width="67.733"/><path d="m101.6 1117.6 1016-1016" stroke-dasharray="67.7333, 541.866" stroke-dashoffset="203.2" stroke-width="67.733"/><path d="m304.8 1320.8 1016-1016" stroke-dasharray="67.7333, 541.866" stroke-width="67.733"/></g><g><path d="m464.25 758.65c12.031 3.2811 25.155-5.4684 25.155-18.593v-429.82c0-4.3748-2.1874-9.8432-6.5622-12.031-21.874-17.499-73.277-41.56-139.99-41.56-56.872 0-110.46 15.312-143.27 28.436-13.124 4.3748-19.686 17.499-19.686 30.623v422.16c0 14.218 14.218 22.968 27.342 19.686 36.092-13.124 91.87-26.249 135.62-26.249 39.373 0 90.776 15.312 121.4 27.342zm87.495 0c30.623-12.031 80.933-27.342 120.31-27.342 43.748 0 99.526 13.124 135.62 26.249 13.124 3.2811 28.436-5.4685 28.436-19.686v-422.16c0-13.124-7.6558-26.249-20.78-30.623-31.717-13.124-86.402-28.436-143.27-28.436-66.715 0-118.12 24.061-139.99 41.56-4.3748 2.1874-6.5621 7.6558-6.5621 12.031v429.82c0 13.124 14.218 21.874 26.249 18.593z" fill="#c4c44f" stroke="#fff" stroke-linecap="round" stroke-linejoin="round" stroke-width="5.2958" aria-label=""/></g></svg>
