<?xml version="1.0" encoding="UTF-8"?>
<svg width="3840" height="3840" version="1.1" viewBox="0 0 1016 1016" xml:space="preserve" xmlns="http://www.w3.org/2000/svg"><defs><style>.cls-1{fill:#5b9c95;}.cls-2{fill:#72392f;}.cls-3{fill:#5e302b;}.cls-4{fill:#7f3e37;}.cls-5{fill:#cc9458;}.cls-6{fill:#f0c788;}.cls-7{fill:#eaac2e;}.cls-8{fill:#da4d5d;}.cls-9{fill:#d63d55;}.cls-10{fill:#f6e0b8;}.cls-11{fill:#76c27d;}.cls-12{fill:#69aa6d;}.cls-13{fill:#c99028;}</style><style>.cls-1{fill:#5b9c95;}.cls-2{fill:#72392f;}.cls-3{fill:#5e302b;}.cls-4{fill:#7f3e37;}.cls-5{fill:#cc9458;}.cls-6{fill:#f0c788;}.cls-7{fill:#eaac2e;}.cls-8{fill:#da4d5d;}.cls-9{fill:#d63d55;}.cls-10{fill:#f6e0b8;}.cls-11{fill:#76c27d;}.cls-12{fill:#69aa6d;}.cls-13{fill:#c99028;}</style></defs><g transform="translate(.00015708 .00015443)" stroke="#fff" stroke-dashoffset="1536" stroke-linecap="round" stroke-linejoin="round"><g fill="#c9b5b5" stroke-width="12.948"><path transform="matrix(.39916 .00028305 -.00027004 .41839 770.94 314.19)" d="m569.6 254-123.09 0.0833-38.116-117.04 99.532-72.417 99.63 72.282z"/><path transform="matrix(.39916 .00028305 -.00027004 .41839 770.94 60.192)" d="m569.6 254-123.09 0.0833-38.116-117.04 99.532-72.417 99.63 72.282z"/><path transform="matrix(.39916 .00028305 -.00027004 .41839 601.6 -24.475)" d="m569.6 254-123.09 0.0833-38.116-117.04 99.532-72.417 99.63 72.282z"/><path transform="matrix(.39916 .00028305 -.00027004 .41839 516.94 568.19)" d="m569.6 254-123.09 0.0833-38.116-117.04 99.532-72.417 99.63 72.282z"/><path transform="matrix(.39916 .00028305 -.00027004 .41839 516.94 314.19)" d="m569.6 254-123.09 0.0833-38.116-117.04 99.532-72.417 99.63 72.282z"/><path transform="matrix(.39916 .00028305 -.00027004 .41839 516.94 60.192)" d="m569.6 254-123.09 0.0833-38.116-117.04 99.532-72.417 99.63 72.282z"/><path transform="matrix(.39916 .00028305 -.00027004 .41839 432.27 652.86)" d="m569.6 254-123.09 0.0833-38.116-117.04 99.532-72.417 99.63 72.282z"/><path transform="matrix(.39916 .00028305 -.00027004 .41839 347.6 229.52)" d="m569.6 254-123.09 0.0833-38.116-117.04 99.532-72.417 99.63 72.282z"/><path transform="matrix(.39916 .00028305 -.00027004 .41839 347.6 -24.475)" d="m569.6 254-123.09 0.0833-38.116-117.04 99.532-72.417 99.63 72.282z"/><path transform="matrix(.39916 .00028305 -.00027004 .41839 262.94 314.19)" d="m569.6 254-123.09 0.0833-38.116-117.04 99.532-72.417 99.63 72.282z"/><path transform="matrix(.39916 .00028305 -.00027004 .41839 262.94 60.192)" d="m569.6 254-123.09 0.0833-38.116-117.04 99.532-72.417 99.63 72.282z"/><path transform="matrix(.39916 .00028305 -.00027004 .41839 178.27 398.86)" d="m569.6 254-123.09 0.0833-38.116-117.04 99.532-72.417 99.63 72.282z"/><path transform="matrix(.39916 .00028305 -.00027004 .41839 8.9362 822.19)" d="m569.6 254-123.09 0.0833-38.116-117.04 99.532-72.417 99.63 72.282z"/><path transform="matrix(.39916 .00028305 -.00027004 .41839 -75.73 652.86)" d="m569.6 254-123.09 0.0833-38.116-117.04 99.532-72.417 99.63 72.282z"/><path transform="matrix(.39916 .00028305 -.00027004 .41839 -160.4 737.52)" d="m569.6 254-123.09 0.0833-38.116-117.04 99.532-72.417 99.63 72.282z"/><path transform="matrix(.39916 .00028305 -.00027004 .41839 -160.4 229.52)" d="m569.6 254-123.09 0.0833-38.116-117.04 99.532-72.417 99.63 72.282z"/><path transform="matrix(.39916 .00028305 -.00027004 .41839 -160.4 -24.475)" d="m569.6 254-123.09 0.0833-38.116-117.04 99.532-72.417 99.63 72.282z"/></g><g fill="#9f7e60" stroke-width="12.949"><path transform="matrix(.39916 .00028305 -.00027004 .41839 770.94 652.86)" d="m569.6 254-123.09 0.0833-38.116-117.04 99.532-72.417 99.63 72.282z"/><path transform="matrix(.39916 .00028305 -.00027004 .41839 770.94 398.86)" d="m569.6 254-123.09 0.0833-38.116-117.04 99.532-72.417 99.63 72.282z"/><path transform="matrix(.39916 .00028305 -.00027004 .41839 686.27 -24.475)" d="m569.6 254-123.09 0.0833-38.116-117.04 99.532-72.417 99.63 72.282z"/><path transform="matrix(.39916 .00028305 -.00027004 .41839 601.6 568.19)" d="m569.6 254-123.09 0.0833-38.116-117.04 99.532-72.417 99.63 72.282z"/><path transform="matrix(.39916 .00028305 -.00027004 .41839 516.94 906.86)" d="m569.6 254-123.09 0.0833-38.116-117.04 99.532-72.417 99.63 72.282z"/><path transform="matrix(.39916 .00028305 -.00027004 .41839 347.6 822.19)" d="m569.6 254-123.09 0.0833-38.116-117.04 99.532-72.417 99.63 72.282z"/><path transform="matrix(.39916 .00028305 -.00027004 .41839 178.27 737.52)" d="m569.6 254-123.09 0.0833-38.116-117.04 99.532-72.417 99.63 72.282z"/><path transform="matrix(.39916 .00028305 -.00027004 .41839 178.27 483.52)" d="m569.6 254-123.09 0.0833-38.116-117.04 99.532-72.417 99.63 72.282z"/><path transform="matrix(.39916 .00028305 -.00027004 .41839 178.27 229.53)" d="m569.6 254-123.09 0.0833-38.116-117.04 99.532-72.417 99.63 72.282z"/><path transform="matrix(.39916 .00028305 -.00027004 .41839 93.604 822.19)" d="m569.6 254-123.09 0.0833-38.116-117.04 99.532-72.417 99.63 72.282z"/><path transform="matrix(.39916 .00028305 -.00027004 .41839 93.604 568.19)" d="m569.6 254-123.09 0.0833-38.116-117.04 99.532-72.417 99.63 72.282z"/><path transform="matrix(.39916 .00028305 -.00027004 .41839 93.604 314.19)" d="m569.6 254-123.09 0.0833-38.116-117.04 99.532-72.417 99.63 72.282z"/><path transform="matrix(.39916 .00028305 -.00027004 .41839 93.604 60.192)" d="m569.6 254-123.09 0.0833-38.116-117.04 99.532-72.417 99.63 72.282z"/><path transform="matrix(.39916 .00028305 -.00027004 .41839 8.937 398.86)" d="m569.6 254-123.09 0.0833-38.116-117.04 99.532-72.417 99.63 72.282z"/><path transform="matrix(.39916 .00028305 -.00027004 .41839 -75.73 229.53)" d="m569.6 254-123.09 0.0833-38.116-117.04 99.532-72.417 99.63 72.282z"/><path transform="matrix(.39916 .00028305 -.00027004 .41839 -75.73 -24.475)" d="m569.6 254-123.09 0.0833-38.116-117.04 99.532-72.417 99.63 72.282z"/><path transform="matrix(.39916 .00028305 -.00027004 .41839 -160.4 822.19)" d="m569.6 254-123.09 0.0833-38.116-117.04 99.532-72.417 99.63 72.282z"/><path transform="matrix(.39916 .00028305 -.00027004 .41839 -160.4 568.19)" d="m569.6 254-123.09 0.0833-38.116-117.04 99.532-72.417 99.63 72.282z"/><path transform="matrix(.39916 .00028305 -.00027004 .41839 -160.4 60.192)" d="m569.6 254-123.09 0.0833-38.116-117.04 99.532-72.417 99.63 72.282z"/></g></g><g transform="translate(.00015708 .00015443)" fill="#fff" stroke="#fff" stroke-dashoffset="1536" stroke-linecap="round" stroke-linejoin="round" stroke-width="12.949"><path transform="matrix(.39916 .00028305 -.00027004 .41839 770.94 483.52)" d="m569.6 254-123.09 0.0833-38.116-117.04 99.532-72.417 99.63 72.282z"/><path transform="matrix(.39916 .00028305 -.00027004 .41839 686.27 568.19)" d="m569.6 254-123.09 0.0833-38.116-117.04 99.532-72.417 99.63 72.282z"/><path transform="matrix(.39916 .00028305 -.00027004 .41839 686.27 314.19)" d="m569.6 254-123.09 0.0833-38.116-117.04 99.532-72.417 99.63 72.282z"/><path transform="matrix(.39916 .00028305 -.00027004 .41839 601.6 398.86)" d="m569.6 254-123.09 0.0833-38.116-117.04 99.532-72.417 99.63 72.282z"/><path transform="matrix(.39916 .00028305 -.00027004 .41839 601.6 144.86)" d="m569.6 254-123.09 0.0833-38.116-117.04 99.532-72.417 99.63 72.282z"/><path transform="matrix(.39916 .00028305 -.00027004 .41839 516.94 229.53)" d="m569.6 254-123.09 0.0833-38.116-117.04 99.532-72.417 99.63 72.282z"/><path transform="matrix(.39916 .00028305 -.00027004 .41839 516.94 -24.475)" d="m569.6 254-123.09 0.0833-38.116-117.04 99.532-72.417 99.63 72.282z"/><path transform="matrix(.39916 .00028305 -.00027004 .41839 347.6 906.86)" d="m569.6 254-123.09 0.0833-38.116-117.04 99.532-72.417 99.63 72.282z"/><path transform="matrix(.39916 .00028305 -.00027004 .41839 347.6 652.86)" d="m569.6 254-123.09 0.0833-38.116-117.04 99.532-72.417 99.63 72.282z"/><path transform="matrix(.39916 .00028305 -.00027004 .41839 347.6 398.86)" d="m569.6 254-123.09 0.0833-38.116-117.04 99.532-72.417 99.63 72.282z"/><path transform="matrix(.39916 .00028305 -.00027004 .41839 262.94 737.52)" d="m569.6 254-123.09 0.0833-38.116-117.04 99.532-72.417 99.63 72.282z"/><path transform="matrix(.39916 .00028305 -.00027004 .41839 262.94 -24.475)" d="m569.6 254-123.09 0.0833-38.116-117.04 99.532-72.417 99.63 72.282z"/><path transform="matrix(.39916 .00028305 -.00027004 .41839 178.27 568.19)" d="m569.6 254-123.09 0.0833-38.116-117.04 99.532-72.417 99.63 72.282z"/><path transform="matrix(.39916 .00028305 -.00027004 .41839 93.603 906.86)" d="m569.6 254-123.09 0.0833-38.116-117.04 99.532-72.417 99.63 72.282z"/><path transform="matrix(.39916 .00028305 -.00027004 .41839 93.603 652.86)" d="m569.6 254-123.09 0.0833-38.116-117.04 99.532-72.417 99.63 72.282z"/><path transform="matrix(.39916 .00028305 -.00027004 .41839 8.9368 -24.475)" d="m569.6 254-123.09 0.0833-38.116-117.04 99.532-72.417 99.63 72.282z"/><path transform="matrix(.39916 .00028305 -.00027004 .41839 -75.73 314.19)" d="m569.6 254-123.09 0.0833-38.116-117.04 99.532-72.417 99.63 72.282z"/><path transform="matrix(.39916 .00028305 -.00027004 .41839 -160.4 144.86)" d="m569.6 254-123.09 0.0833-38.116-117.04 99.532-72.417 99.63 72.282z"/></g><g transform="matrix(.13229 0 0 .13229 254 254)"><g stroke-width="2"><circle cx="1920" cy="1920" r="1920" fill="#c44f4f" stroke-dashoffset="1536" stroke-linecap="round" stroke-linejoin="round" stroke-width="40"/></g><g id="Icons" transform="scale(7.5)" stroke-width=".24444"><circle transform="matrix(1.0909 0 0 1.0909 -11.636 -23.273)" cx="42.667" cy="362.67" r="21.333" fill="#fdbc34"/><path transform="matrix(1.0909 0 0 1.0909 -11.636 -23.273)" d="m213.33 149.33 64-64c21.333-21.333 21.333-42.667 21.333-42.667s0-21.333 21.333-21.333 21.333 21.333 42.667 21.333 21.333-21.333 42.667-21.333 21.333 21.333 21.333 42.667 21.333 21.333 21.333 21.333c21.333 0 21.333 21.333 21.333 21.333 0 21.333-21.333 21.333-21.333 42.667s21.333 21.333 21.333 42.667-21.333 21.333-42.667 42.667l-64 64z" fill="#89af83"/><g fill="#608c5a"><path transform="matrix(1.0909 0 0 1.0909 -11.636 -23.273)" d="m370.21 291.12-15.083-15.083 56.458-56.458c9.8958-9.8958 19.854-16.062 27.125-20.542 2.5417-1.5833 8.4792-5.25 9.4792-6.6042-0.1875-2.1042-0.1875-2.2708-4.6042-6.6875-6.3333-6.3333-16.917-16.917-16.917-36.417s10.583-30.083 16.917-36.417l15.083 15.083c-5.25 5.25-10.667 10.667-10.667 21.333s5.4167 16.083 10.667 21.333c5.4792 5.4792 10.667 10.667 10.667 21.333 0 13.188-8.1458 18.229-19.417 25.188-7.0833 4.375-15.104 9.3333-23.25 17.479z"/><path transform="matrix(1.0909 0 0 1.0909 -11.636 -23.273)" d="m448 106.67c-20.688 0-42.667-14.958-42.667-42.667h21.333c0 21.083 21.125 21.333 21.333 21.333z"/><path transform="matrix(1.0909 0 0 1.0909 -11.636 -23.273)" d="m362.67 64c-19.5 0-30.083-10.583-36.417-16.917-4.4167-4.4167-4.5833-4.4167-6.25-4.4167v-21.333c10.667 0 15.854 5.1875 21.333 10.667 5.25 5.25 10.667 10.667 21.333 10.667z"/></g><g><path transform="matrix(1.0909 0 0 1.0909 -11.636 -23.273)" d="m256 170.67 85.333-85.333s21.333-21.333 42.667-21.333 42.667 21.333 42.667 42.667 21.333 21.333 21.333 42.667-42.667 64-42.667 64l-42.667 42.667z" fill="#89af83"/><path transform="matrix(1.0909 0 0 1.0909 -11.636 -23.273)" d="m213.33 171.71 91.604-92.504a51.326 51.326 0 0 1 36.47-15.211c21.26 0 42.593 21.333 42.593 42.667s21.333 21.333 21.333 21.333c42.667 0 42.667 28.981 42.667 42.593v0.14717a51.326 51.326 0 0 1-15.033 36.293l-91.634 91.634z" fill="#c40"/><path transform="matrix(1.0909 0 0 1.0909 -11.636 -23.273)" d="m320 85.333c30.17 0 42.667 42.667 42.667 42.667 0 21.333 21.333 21.333 21.333 21.333 14.119 0 42.667 0 42.667 42.667 0 12.815-6.9046 28.238-21.333 42.667l-21.333 21.333-128-128s0.20859 0.20856 21.542-21.125 42.458-21.542 42.458-21.542z" fill="#b33c00"/><path transform="matrix(1.0909 0 0 1.0909 -11.636 -23.273)" d="m298.87 85.333c0 21.333 21.126 42.667 42.459 42.667s21.333 21.333 21.333 21.333c0 21.333 21.333 42.667 42.667 42.667s21.333 21.333 21.333 21.333l-42.667 42.667-128-128z" fill="#930"/></g><path transform="matrix(1.0909 0 0 1.0909 -11.636 -23.273)" d="m142.01 490.67h-1.8e-4a120.68 120.68 0 0 1-120.68-120.68v-1.7e-4a120.68 120.68 0 0 1 35.346-85.333l199.32-199.32 24.994 24.994a206.01 206.01 0 0 1 60.34 145.67v1.7e-4c0 54.638-0.37151 85.705-39.006 124.34l-74.981 74.981a120.68 120.68 0 0 1-85.333 35.346z" fill="#fdbc34"/><path transform="matrix(1.0909 0 0 1.0909 -11.636 -23.273)" d="m328.03 183.79a205.7 205.7 0 0 0-11.809-26.214 228.17 228.17 0 0 0-60.219-8.2448c-25.555 0-47.742 0.1823-68.805 4.8047l-55.529 55.529c39-39 71.125-39 124.33-39a205.77 205.77 0 0 1 72.027 13.125z" fill="#fdab00"/><path transform="matrix(1.0909 0 0 1.0909 -11.636 -23.273)" d="m21.333 369.99v1.7e-4a120.68 120.68 0 0 0 120.68 120.68h1.7e-4a120.68 120.68 0 0 0 85.333-35.346l199.32-199.32-24.994-24.994a206.01 206.01 0 0 0-145.67-60.34h-1.8e-4c-54.638 0-85.705 0.37151-124.34 39.006l-74.981 74.981a120.68 120.68 0 0 0-35.346 85.333z" fill="#fdcf6d"/><g fill="#fdbc34"><path transform="matrix(1.0909 0 0 1.0909 -11.636 -23.273)" d="m142.02 490.67a120.83 120.83 0 0 1-120.69-120.69h42.667a78.017 78.017 0 0 0 133.19 55.167l169.02-169.04a162.21 162.21 0 0 0-110.21-42.771v-42.667a204.61 204.61 0 0 1 145.67 60.333l25 25-199.31 199.31a119.91 119.91 0 0 1-85.333 35.354z"/><circle transform="matrix(1.0909 0 0 1.0909 -11.636 -23.273)" cx="298.67" cy="320" r="21.333"/><circle transform="matrix(1.0909 0 0 1.0909 -11.636 -23.273)" cx="256" cy="213.33" r="21.333"/><circle transform="matrix(1.0909 0 0 1.0909 -11.636 -23.273)" cx="160" cy="373.33" r="10.667"/><circle transform="matrix(1.0909 0 0 1.0909 -11.636 -23.273)" cx="192" cy="320" r="21.333"/><circle transform="matrix(1.0909 0 0 1.0909 -11.636 -23.273)" cx="160" cy="266.67" r="10.667"/><circle transform="matrix(1.0909 0 0 1.0909 -11.636 -23.273)" cx="309.33" cy="245.33" r="10.667"/></g><circle transform="matrix(1.0909 0 0 1.0909 -11.636 -23.273)" cx="256" cy="149.33" r="21.333" fill="#fdab00"/><circle transform="matrix(1.0909 0 0 1.0909 -11.636 -23.273)" cx="245.33" cy="117.33" r="10.667" fill="#fdab00"/><g fill="#fdbc34"><circle transform="matrix(1.0909 0 0 1.0909 -11.636 -23.273)" cx="245.33" cy="352" r="10.667"/><circle transform="matrix(1.0909 0 0 1.0909 -11.636 -23.273)" cx="149.33" cy="448" r="21.333"/><circle transform="matrix(1.0909 0 0 1.0909 -11.636 -23.273)" cx="74.667" cy="309.33" r="10.667"/></g></g></g></svg>
