<?xml version="1.0" encoding="UTF-8"?>
<svg width="3840" height="3840" version="1.1" viewBox="0 0 1016 1016" xml:space="preserve" xmlns="http://www.w3.org/2000/svg"><g fill="#55be59" stroke-linecap="round"><g stroke="#e7e7b8" stroke-width="67.733"><path d="m-304.8 711.2 1016-1016" stroke-dasharray="67.7333, 541.866" stroke-dashoffset="406.4"/><path d="m-101.6 914.4 1016-1016" stroke-dasharray="67.7333, 541.867"/><path d="m101.6 1117.6 1016-1016" stroke-dasharray="67.7333, 541.867"/><path d="m304.8 1320.8 1016-1016" stroke-dasharray="67.7333, 541.866" stroke-dashoffset="406.4"/></g><g stroke="#808080"><path d="m-304.8 711.2 1016-1016" stroke-dasharray="67.7333, 541.866" stroke-dashoffset="203.2" stroke-width="67.733"/><path d="m-101.6 914.4 1016-1016" stroke-dasharray="67.73332977,541.86663818" stroke-dashoffset="203.2" stroke-width="67.733"/><path d="m101.6 1117.6 1016-1016" stroke-dasharray="67.7333, 541.866" stroke-dashoffset="406.4" stroke-width="67.733"/><path d="m304.8 1320.8 1016-1016" stroke-dasharray="67.7333, 541.866" stroke-dashoffset="203.2" stroke-width="67.733"/></g></g><g fill="#55be59" stroke="#fff" stroke-linecap="round"><path d="m-304.8 711.2 1016-1016" stroke-dasharray="67.7333, 541.866" stroke-width="67.733"/><path d="m-101.6 914.4 1016-1016" stroke-dasharray="67.73332977,541.86663818" stroke-dashoffset="406.4" stroke-width="67.733"/><path d="m101.6 1117.6 1016-1016" stroke-dasharray="67.7333, 541.866" stroke-dashoffset="203.2" stroke-width="67.733"/><path d="m304.8 1320.8 1016-1016" stroke-dasharray="67.7333, 541.866" stroke-width="67.733"/></g><g><g transform="matrix(.5 0 0 .5 254 254)"><g><circle cx="508" cy="508" r="317.5" fill="#fff" stroke-width=".043753"/><circle cx="508" cy="508" r="254" fill="#c4c44f" stroke-width=".035002"/></g><g transform="translate(-2.7344e-6)"><path d="m666.74 567.28 1.3322 0.66608v-9.9913 5.3287c-0.66609 1.9982-1.3322 3.3304-1.3322 3.9965zm-198.49-9.3252c0-18.65 4.6626-35.302 13.322-50.622 8.6591-15.32 20.649-27.309 35.969-35.969 15.32-8.6591 31.972-13.322 49.956-13.322 17.984 0 35.302 4.6626 49.956 13.322 15.32 8.6591 27.309 20.649 36.635 35.969 9.3252 15.32 13.988 31.972 13.988 50.622v-99.913l-41.297-119.9c-2.6643-5.9948-6.6608-11.323-11.323-14.654-5.3287-3.9965-10.657-5.9948-17.984-5.9948h-219.14c-6.6608 0-12.656 1.9982-17.984 5.9948-4.6626 3.3304-8.6591 8.6591-11.323 14.654l-40.631 119.9v159.86c0 5.3287 1.9983 10.657 5.9948 14.654s7.993 5.9948 13.322 5.9948h20.649c5.3287 0 9.9913-1.9983 13.988-5.9948 3.9965-3.9965 5.9948-9.3252 5.9948-14.654v-19.983h108.57c-5.9948-12.656-8.6591-25.977-8.6591-39.965zm-59.948-49.956c0 7.993-2.6643 15.32-8.6591 21.315-5.9948 5.9948-13.322 8.6591-21.981 8.6591-7.993 0-15.32-2.6643-20.649-8.6591-5.9948-5.9948-8.6591-13.322-8.6591-21.315s2.6643-15.32 8.6591-21.315c5.3287-5.9948 12.656-8.6591 20.649-8.6591 8.6591 0 15.986 3.3304 21.981 9.3252 5.9948 5.9948 8.6591 12.656 8.6591 20.649zm219.14-70.605h-279.09l29.974-89.255h219.14zm77.932 224.47c1.9982 1.3322 2.6643 3.3304 1.9982 5.9948 0 2.6643-1.3322 4.6626-3.3304 6.6608l-20.649 20.649c-1.3322 1.9982-3.9965 3.3304-5.9948 3.3304-2.6643 0-4.6626-1.3322-6.6608-3.3304l-81.262-82.594c-10.657 4.6626-21.981 5.9948-33.304 3.3304-11.323-2.6643-21.315-8.6591-29.974-17.318-8.6591-7.993-13.988-18.65-15.986-31.306-2.6643-11.99-0.66608-23.979 5.3287-35.302l39.299 39.299 26.643-26.643-39.299-39.299c11.323-5.3287 23.313-6.6608 35.969-3.9965 12.656 1.9982 22.647 7.3269 31.306 15.32 7.993 8.6591 13.322 18.65 15.986 29.974 2.6643 11.99 1.9982 22.647-2.6643 32.638z" fill="#fff" stroke-width="0" aria-label="󱠔"/><path d="m895.77 387.77 94.827-35.56c16.933 59.267 25.4 111.76 25.4 155.79 0 62.653-11.853 123.61-35.56 182.88l-91.44-40.64c-15.24 32.173-22.013 47.413-22.013 47.413l91.44 40.64c-27.093 54.187-62.653 99.907-104.99 140.55-42.333 40.64-89.747 72.813-143.93 94.827l-35.56-93.133-47.413 15.24 35.56 96.52c-59.267 15.24-110.07 23.707-154.09 23.707-62.653 0-123.61-11.853-184.57-35.56l40.64-89.747-47.413-22.013-40.64 89.747c-52.493-27.093-99.907-60.96-140.55-103.29-40.64-42.333-71.12-91.44-93.133-143.93l93.133-35.56-16.933-47.413-94.827 35.56c-16.933-59.267-23.707-111.76-23.707-155.79 0-62.653 10.16-123.61 33.867-182.88l93.133 40.64c13.547-32.173 20.32-49.107 20.32-49.107l-91.44-38.947c27.093-54.187 62.653-99.907 104.99-140.55 42.333-40.64 89.747-72.813 143.93-94.827l35.56 93.133 47.413-15.24-35.56-96.52c59.267-15.24 110.07-23.707 155.79-23.707 60.96 0 121.92 11.853 182.88 35.56l-40.64 89.747 47.413 22.013 40.64-89.747c52.493 27.093 99.907 60.96 140.55 103.29 40.64 42.333 71.12 91.44 93.133 143.93l-93.133 35.56zm-270.93 401.32c50.8-20.32 91.44-52.493 123.61-94.827 33.867-42.333 54.187-91.44 60.96-145.63 8.4667-54.187 1.6933-106.68-20.32-157.48-20.32-50.8-52.493-93.133-96.52-125.31-42.333-32.173-89.747-52.493-143.93-59.267-54.187-6.7733-106.68 0-157.48 20.32-50.8 20.32-93.133 52.493-125.31 94.827-33.867 42.333-52.493 91.44-60.96 145.63-6.7733 54.187 0 106.68 20.32 157.48 22.013 50.8 52.493 93.133 96.52 125.31 42.333 32.173 89.747 52.493 145.63 59.267 54.187 6.7733 106.68 0 157.48-20.32z" fill="#c4c44f" stroke-dashoffset="1536" stroke-linecap="round" stroke-width="6.6146" aria-label="󱢖"/></g></g></g></svg>
