<?xml version="1.0" encoding="UTF-8"?>
<svg width="3840" height="3840" version="1.1" viewBox="0 0 1016 1016" xml:space="preserve" xmlns="http://www.w3.org/2000/svg"><g transform="translate(0 340.65)" fill="#55be59" stroke-linecap="round" stroke-width="67.733"><g stroke="#abbab3"><path d="m203.2 786.15v-1436.8" stroke-dasharray="67.7333, 541.866" stroke-dashoffset="406.4"/><path d="m406.4 853.89-2e-5 -1436.8" stroke-dasharray="67.7333, 541.867"/><path d="m609.6 921.62 1e-5 -1436.8" stroke-dasharray="67.7333, 541.867"/><path d="m812.8 985.39-1e-5 -1436.8" stroke-dasharray="67.7333, 541.866" stroke-dashoffset="406.4"/></g><g stroke="#78788c"><path d="m203.2 786.15 2e-5 -1436.8" stroke-dasharray="67.7333, 541.866" stroke-dashoffset="203.2"/><path d="m406.4 853.89-3e-5 -1436.8" stroke-dasharray="67.7333, 541.867" stroke-dashoffset="203.2"/><path d="m609.6 921.62 1e-5 -1436.8" stroke-dasharray="67.7333, 541.866" stroke-dashoffset="406.4"/><path d="m812.8 985.39-1e-5 -1436.8" stroke-dasharray="67.7333, 541.866" stroke-dashoffset="203.2"/></g></g><g transform="translate(0 340.65)" fill="#55be59" stroke="#fff" stroke-linecap="round" stroke-width="67.733"><path d="m203.2 786.15 2e-5 -1436.8" stroke-dasharray="67.7333, 541.866"/><path d="m406.4 853.89-3e-5 -1436.8" stroke-dasharray="67.7333, 541.867" stroke-dashoffset="406.4"/><path d="m609.6 921.62 1e-5 -1436.8" stroke-dasharray="67.7333, 541.866" stroke-dashoffset="203.2"/><path d="m812.8 985.39-1e-5 -1436.8" stroke-dasharray="67.7333, 541.866"/></g><g stroke-dasharray="1, 5"><path d="m610.49 534.84h-23.59l-59.381 61.008v21.963l140.73 139.91 83.784-81.344zm21.963-63.449 33.351-32.538 49.62 50.434c13.015-13.015 19.523-30.097 19.523-49.62s-6.5075-36.605-19.523-50.434l-82.971-82.971-33.351 33.351v-66.702l-16.269-16.269-83.784 82.971 17.082 16.269h66.702l-33.351 33.351 25.217 26.03-66.702 66.702-98.426-96.8v-33.351l-70.769-69.956-65.889 65.076 70.769 71.583h32.538l96.8 97.613-19.523 18.709h-49.62l-139.91 141.54 81.344 82.971 142.35-141.54v-49.62l120.39-120.39z" fill="#40bf80" stroke="#fff" stroke-dasharray="none" stroke-dashoffset="1536" stroke-linecap="round" stroke-linejoin="round" stroke-width="5.2917" aria-label="󱌢"/></g></svg>
