<?xml version="1.0" encoding="UTF-8"?>
<svg width="3840" height="3840" version="1.1" viewBox="0 0 1016 1016" xml:space="preserve" xmlns="http://www.w3.org/2000/svg"><g fill="#55be59" stroke-linecap="round"><g stroke="#d5efd5"><path d="m-304.8 711.2 1016-1016" stroke-dasharray="67.7333, 541.866" stroke-dashoffset="406.4" stroke-width="67.733"/><path d="m-101.6 914.4 1016-1016" stroke-dasharray="67.73332977,541.86663818" stroke-width="67.733"/><path d="m101.6 1117.6 1016-1016" stroke-dasharray="67.7333, 541.867" stroke-width="67.733"/><path d="m304.8 1320.8 1016-1016" stroke-dasharray="67.7333, 541.866" stroke-dashoffset="406.4" stroke-width="67.733"/></g><g stroke="#808080"><path d="m-304.8 711.2 1016-1016" stroke-dasharray="67.7333, 541.866" stroke-dashoffset="203.2" stroke-width="67.733"/><path d="m-101.6 914.4 1016-1016" stroke-dasharray="67.73332977,541.86663818" stroke-dashoffset="203.2" stroke-width="67.733"/><path d="m101.6 1117.6 1016-1016" stroke-dasharray="67.7333, 541.866" stroke-dashoffset="406.4" stroke-width="67.733"/><path d="m304.8 1320.8 1016-1016" stroke-dasharray="67.7333, 541.866" stroke-dashoffset="203.2" stroke-width="67.733"/></g></g><g fill="#55be59" stroke="#fff" stroke-linecap="round"><path d="m-304.8 711.2 1016-1016" stroke-dasharray="67.7333, 541.866" stroke-width="67.733"/><path d="m-101.6 914.4 1016-1016" stroke-dasharray="67.73332977,541.86663818" stroke-dashoffset="406.4" stroke-width="67.733"/><path d="m101.6 1117.6 1016-1016" stroke-dasharray="67.7333, 541.866" stroke-dashoffset="203.2" stroke-width="67.733"/><path d="m304.8 1320.8 1016-1016" stroke-dasharray="67.7333, 541.866" stroke-width="67.733"/></g><g><path d="m464.29 758.46c12.021 3.2785 25.135-5.4642 25.135-18.578v-429.49c0-4.3714-2.1857-9.8356-6.557-12.021-21.857-17.485-73.22-41.528-139.88-41.528-56.828 0-110.38 15.3-143.16 28.414-13.114 4.3714-19.671 17.485-19.671 30.6v421.84c0 14.207 14.207 22.95 27.321 19.671 36.064-13.114 91.799-26.228 135.51-26.228 39.342 0 90.706 15.3 121.31 27.321zm87.427 0c30.6-12.021 80.87-27.321 120.21-27.321 43.714 0 99.449 13.114 135.51 26.228 13.114 3.2785 28.414-5.4642 28.414-19.671v-421.84c0-13.114-7.6499-26.228-20.764-30.6-31.692-13.114-86.334-28.414-143.16-28.414-66.663 0-118.03 24.042-139.88 41.528-4.3714 2.1857-6.557 7.6499-6.557 12.021v429.49c0 13.114 14.207 21.857 26.228 18.578z" fill="#55be59" stroke="#fff" stroke-width="5.6856" aria-label=""/></g></svg>
