<?xml version="1.0" encoding="UTF-8"?>
<svg width="3840" height="3840" version="1.1" viewBox="0 0 1016 1016" xml:space="preserve" xmlns="http://www.w3.org/2000/svg"><g fill="#55be59" stroke-linecap="round"><g stroke="#d5efd5"><path d="m-304.8 711.2 1016-1016" stroke-dasharray="67.7333, 541.866" stroke-dashoffset="406.4" stroke-width="67.733"/><path d="m-101.6 914.4 1016-1016" stroke-dasharray="67.73332977,541.86663818" stroke-width="67.733"/><path d="m101.6 1117.6 1016-1016" stroke-dasharray="67.7333, 541.867" stroke-width="67.733"/><path d="m304.8 1320.8 1016-1016" stroke-dasharray="67.7333, 541.866" stroke-dashoffset="406.4" stroke-width="67.733"/></g><g stroke="#808080"><path d="m-304.8 711.2 1016-1016" stroke-dasharray="67.7333, 541.866" stroke-dashoffset="203.2" stroke-width="67.733"/><path d="m-101.6 914.4 1016-1016" stroke-dasharray="67.73332977,541.86663818" stroke-dashoffset="203.2" stroke-width="67.733"/><path d="m101.6 1117.6 1016-1016" stroke-dasharray="67.7333, 541.866" stroke-dashoffset="406.4" stroke-width="67.733"/><path d="m304.8 1320.8 1016-1016" stroke-dasharray="67.7333, 541.866" stroke-dashoffset="203.2" stroke-width="67.733"/></g></g><g fill="#55be59" stroke="#fff" stroke-linecap="round"><path d="m-304.8 711.2 1016-1016" stroke-dasharray="67.7333, 541.866" stroke-width="67.733"/><path d="m-101.6 914.4 1016-1016" stroke-dasharray="67.73332977,541.86663818" stroke-dashoffset="406.4" stroke-width="67.733"/><path d="m101.6 1117.6 1016-1016" stroke-dasharray="67.7333, 541.866" stroke-dashoffset="203.2" stroke-width="67.733"/><path d="m304.8 1320.8 1016-1016" stroke-dasharray="67.7333, 541.866" stroke-width="67.733"/></g><g><path d="m457.64 796.56c13.85 3.7772 28.959-6.2954 28.959-21.404v-494.82c0-5.0363-2.5182-11.332-7.5545-13.85-25.182-20.145-84.359-47.845-161.16-47.845-65.472 0-127.17 17.627-164.94 32.736-15.109 5.0363-22.663 20.145-22.663 35.254v486.01c0 16.368 16.368 26.441 31.477 22.663 41.55-15.109 105.76-30.218 156.13-30.218 45.327 0 104.5 17.627 139.76 31.477zm100.73 0c35.254-13.85 93.172-31.477 138.5-31.477 50.363 0 114.58 15.109 156.13 30.218 15.109 3.7772 32.736-6.2954 32.736-22.663v-486.01c0-15.109-8.8136-30.218-23.923-35.254-36.513-15.109-99.468-32.736-164.94-32.736-76.804 0-135.98 27.7-161.16 47.845-5.0363 2.5182-7.5545 8.8136-7.5545 13.85v494.82c0 15.109 16.368 25.182 30.218 21.404z" fill="#55be59" stroke="#fff" stroke-width="6.5504" aria-label=""/></g></svg>
