<?xml version="1.0" encoding="UTF-8"?>
<svg width="3840" height="3840" version="1.1" viewBox="0 0 1016 1016" xml:space="preserve" xmlns="http://www.w3.org/2000/svg"><g transform="translate(.00015708 .00015443)" stroke="#fff" stroke-dashoffset="1536" stroke-linecap="round" stroke-linejoin="round"><g fill="#b6c8c5" stroke-width="12.948"><path transform="matrix(.39916 .00028305 -.00027004 .41839 770.94 314.19)" d="m569.6 254-123.09 0.0833-38.116-117.04 99.532-72.417 99.63 72.282z"/><path transform="matrix(.39916 .00028305 -.00027004 .41839 770.94 60.192)" d="m569.6 254-123.09 0.0833-38.116-117.04 99.532-72.417 99.63 72.282z"/><path transform="matrix(.39916 .00028305 -.00027004 .41839 601.6 -24.475)" d="m569.6 254-123.09 0.0833-38.116-117.04 99.532-72.417 99.63 72.282z"/><path transform="matrix(.39916 .00028305 -.00027004 .41839 516.94 568.19)" d="m569.6 254-123.09 0.0833-38.116-117.04 99.532-72.417 99.63 72.282z"/><path transform="matrix(.39916 .00028305 -.00027004 .41839 516.94 314.19)" d="m569.6 254-123.09 0.0833-38.116-117.04 99.532-72.417 99.63 72.282z"/><path transform="matrix(.39916 .00028305 -.00027004 .41839 516.94 60.192)" d="m569.6 254-123.09 0.0833-38.116-117.04 99.532-72.417 99.63 72.282z"/><path transform="matrix(.39916 .00028305 -.00027004 .41839 432.27 652.86)" d="m569.6 254-123.09 0.0833-38.116-117.04 99.532-72.417 99.63 72.282z"/><path transform="matrix(.39916 .00028305 -.00027004 .41839 347.6 229.52)" d="m569.6 254-123.09 0.0833-38.116-117.04 99.532-72.417 99.63 72.282z"/><path transform="matrix(.39916 .00028305 -.00027004 .41839 347.6 -24.475)" d="m569.6 254-123.09 0.0833-38.116-117.04 99.532-72.417 99.63 72.282z"/><path transform="matrix(.39916 .00028305 -.00027004 .41839 262.94 314.19)" d="m569.6 254-123.09 0.0833-38.116-117.04 99.532-72.417 99.63 72.282z"/><path transform="matrix(.39916 .00028305 -.00027004 .41839 262.94 60.192)" d="m569.6 254-123.09 0.0833-38.116-117.04 99.532-72.417 99.63 72.282z"/><path transform="matrix(.39916 .00028305 -.00027004 .41839 178.27 398.86)" d="m569.6 254-123.09 0.0833-38.116-117.04 99.532-72.417 99.63 72.282z"/><path transform="matrix(.39916 .00028305 -.00027004 .41839 8.9362 822.19)" d="m569.6 254-123.09 0.0833-38.116-117.04 99.532-72.417 99.63 72.282z"/><path transform="matrix(.39916 .00028305 -.00027004 .41839 -75.73 652.86)" d="m569.6 254-123.09 0.0833-38.116-117.04 99.532-72.417 99.63 72.282z"/><path transform="matrix(.39916 .00028305 -.00027004 .41839 -160.4 737.52)" d="m569.6 254-123.09 0.0833-38.116-117.04 99.532-72.417 99.63 72.282z"/><path transform="matrix(.39916 .00028305 -.00027004 .41839 -160.4 229.52)" d="m569.6 254-123.09 0.0833-38.116-117.04 99.532-72.417 99.63 72.282z"/><path transform="matrix(.39916 .00028305 -.00027004 .41839 -160.4 -24.475)" d="m569.6 254-123.09 0.0833-38.116-117.04 99.532-72.417 99.63 72.282z"/></g><g fill="#577557" stroke-width="12.949"><path transform="matrix(.39916 .00028305 -.00027004 .41839 770.94 652.86)" d="m569.6 254-123.09 0.0833-38.116-117.04 99.532-72.417 99.63 72.282z"/><path transform="matrix(.39916 .00028305 -.00027004 .41839 770.94 398.86)" d="m569.6 254-123.09 0.0833-38.116-117.04 99.532-72.417 99.63 72.282z"/><path transform="matrix(.39916 .00028305 -.00027004 .41839 686.27 -24.475)" d="m569.6 254-123.09 0.0833-38.116-117.04 99.532-72.417 99.63 72.282z"/><path transform="matrix(.39916 .00028305 -.00027004 .41839 601.6 568.19)" d="m569.6 254-123.09 0.0833-38.116-117.04 99.532-72.417 99.63 72.282z"/><path transform="matrix(.39916 .00028305 -.00027004 .41839 516.94 906.86)" d="m569.6 254-123.09 0.0833-38.116-117.04 99.532-72.417 99.63 72.282z"/><path transform="matrix(.39916 .00028305 -.00027004 .41839 347.6 822.19)" d="m569.6 254-123.09 0.0833-38.116-117.04 99.532-72.417 99.63 72.282z"/><path transform="matrix(.39916 .00028305 -.00027004 .41839 178.27 737.52)" d="m569.6 254-123.09 0.0833-38.116-117.04 99.532-72.417 99.63 72.282z"/><path transform="matrix(.39916 .00028305 -.00027004 .41839 178.27 483.52)" d="m569.6 254-123.09 0.0833-38.116-117.04 99.532-72.417 99.63 72.282z"/><path transform="matrix(.39916 .00028305 -.00027004 .41839 178.27 229.53)" d="m569.6 254-123.09 0.0833-38.116-117.04 99.532-72.417 99.63 72.282z"/><path transform="matrix(.39916 .00028305 -.00027004 .41839 93.604 822.19)" d="m569.6 254-123.09 0.0833-38.116-117.04 99.532-72.417 99.63 72.282z"/><path transform="matrix(.39916 .00028305 -.00027004 .41839 93.604 568.19)" d="m569.6 254-123.09 0.0833-38.116-117.04 99.532-72.417 99.63 72.282z"/><path transform="matrix(.39916 .00028305 -.00027004 .41839 93.604 314.19)" d="m569.6 254-123.09 0.0833-38.116-117.04 99.532-72.417 99.63 72.282z"/><path transform="matrix(.39916 .00028305 -.00027004 .41839 93.604 60.192)" d="m569.6 254-123.09 0.0833-38.116-117.04 99.532-72.417 99.63 72.282z"/><path transform="matrix(.39916 .00028305 -.00027004 .41839 8.937 398.86)" d="m569.6 254-123.09 0.0833-38.116-117.04 99.532-72.417 99.63 72.282z"/><path transform="matrix(.39916 .00028305 -.00027004 .41839 -75.73 229.53)" d="m569.6 254-123.09 0.0833-38.116-117.04 99.532-72.417 99.63 72.282z"/><path transform="matrix(.39916 .00028305 -.00027004 .41839 -75.73 -24.475)" d="m569.6 254-123.09 0.0833-38.116-117.04 99.532-72.417 99.63 72.282z"/><path transform="matrix(.39916 .00028305 -.00027004 .41839 -160.4 822.19)" d="m569.6 254-123.09 0.0833-38.116-117.04 99.532-72.417 99.63 72.282z"/><path transform="matrix(.39916 .00028305 -.00027004 .41839 -160.4 568.19)" d="m569.6 254-123.09 0.0833-38.116-117.04 99.532-72.417 99.63 72.282z"/><path transform="matrix(.39916 .00028305 -.00027004 .41839 -160.4 60.192)" d="m569.6 254-123.09 0.0833-38.116-117.04 99.532-72.417 99.63 72.282z"/></g></g><g transform="translate(.00015708 .00015443)" fill="#fff" stroke="#fff" stroke-dashoffset="1536" stroke-linecap="round" stroke-linejoin="round" stroke-width="12.949"><path transform="matrix(.39916 .00028305 -.00027004 .41839 770.94 483.52)" d="m569.6 254-123.09 0.0833-38.116-117.04 99.532-72.417 99.63 72.282z"/><path transform="matrix(.39916 .00028305 -.00027004 .41839 686.27 568.19)" d="m569.6 254-123.09 0.0833-38.116-117.04 99.532-72.417 99.63 72.282z"/><path transform="matrix(.39916 .00028305 -.00027004 .41839 686.27 314.19)" d="m569.6 254-123.09 0.0833-38.116-117.04 99.532-72.417 99.63 72.282z"/><path transform="matrix(.39916 .00028305 -.00027004 .41839 601.6 398.86)" d="m569.6 254-123.09 0.0833-38.116-117.04 99.532-72.417 99.63 72.282z"/><path transform="matrix(.39916 .00028305 -.00027004 .41839 601.6 144.86)" d="m569.6 254-123.09 0.0833-38.116-117.04 99.532-72.417 99.63 72.282z"/><path transform="matrix(.39916 .00028305 -.00027004 .41839 516.94 229.53)" d="m569.6 254-123.09 0.0833-38.116-117.04 99.532-72.417 99.63 72.282z"/><path transform="matrix(.39916 .00028305 -.00027004 .41839 516.94 -24.475)" d="m569.6 254-123.09 0.0833-38.116-117.04 99.532-72.417 99.63 72.282z"/><path transform="matrix(.39916 .00028305 -.00027004 .41839 347.6 906.86)" d="m569.6 254-123.09 0.0833-38.116-117.04 99.532-72.417 99.63 72.282z"/><path transform="matrix(.39916 .00028305 -.00027004 .41839 347.6 652.86)" d="m569.6 254-123.09 0.0833-38.116-117.04 99.532-72.417 99.63 72.282z"/><path transform="matrix(.39916 .00028305 -.00027004 .41839 347.6 398.86)" d="m569.6 254-123.09 0.0833-38.116-117.04 99.532-72.417 99.63 72.282z"/><path transform="matrix(.39916 .00028305 -.00027004 .41839 262.94 737.52)" d="m569.6 254-123.09 0.0833-38.116-117.04 99.532-72.417 99.63 72.282z"/><path transform="matrix(.39916 .00028305 -.00027004 .41839 262.94 -24.475)" d="m569.6 254-123.09 0.0833-38.116-117.04 99.532-72.417 99.63 72.282z"/><path transform="matrix(.39916 .00028305 -.00027004 .41839 178.27 568.19)" d="m569.6 254-123.09 0.0833-38.116-117.04 99.532-72.417 99.63 72.282z"/><path transform="matrix(.39916 .00028305 -.00027004 .41839 93.603 906.86)" d="m569.6 254-123.09 0.0833-38.116-117.04 99.532-72.417 99.63 72.282z"/><path transform="matrix(.39916 .00028305 -.00027004 .41839 93.603 652.86)" d="m569.6 254-123.09 0.0833-38.116-117.04 99.532-72.417 99.63 72.282z"/><path transform="matrix(.39916 .00028305 -.00027004 .41839 8.9368 -24.475)" d="m569.6 254-123.09 0.0833-38.116-117.04 99.532-72.417 99.63 72.282z"/><path transform="matrix(.39916 .00028305 -.00027004 .41839 -75.73 314.19)" d="m569.6 254-123.09 0.0833-38.116-117.04 99.532-72.417 99.63 72.282z"/><path transform="matrix(.39916 .00028305 -.00027004 .41839 -160.4 144.86)" d="m569.6 254-123.09 0.0833-38.116-117.04 99.532-72.417 99.63 72.282z"/></g><path d="m464.25 758.65c12.031 3.2811 25.155-5.4685 25.155-18.593v-429.82c0-4.3748-2.1874-9.8433-6.5622-12.031-21.874-17.499-73.278-41.561-139.99-41.561-56.872 0-110.46 15.312-143.27 28.436-13.124 4.3748-19.687 17.499-19.687 30.624v422.17c0 14.218 14.218 22.968 27.342 19.687 36.092-13.124 91.871-26.249 135.62-26.249 39.373 0 90.777 15.312 121.4 27.343zm87.496 0c30.624-12.031 80.934-27.343 120.31-27.343 43.748 0 99.527 13.124 135.62 26.249 13.124 3.2811 28.436-5.4685 28.436-19.687v-422.17c0-13.124-7.6559-26.249-20.78-30.624-31.717-13.124-86.402-28.436-143.27-28.436-66.716 0-118.12 24.061-139.99 41.561-4.3748 2.1874-6.5622 7.6559-6.5622 12.031v429.82c0 13.124 14.218 21.874 26.249 18.593z" fill="#4fc4a7" stroke="#fff" stroke-linecap="round" stroke-linejoin="round" stroke-width="5.2917" aria-label=""/></svg>
