<?xml version="1.0" encoding="UTF-8"?>
<svg width="3840" height="3840" version="1.1" viewBox="0 0 1016 1016" xml:space="preserve" xmlns="http://www.w3.org/2000/svg"><g transform="translate(.00015708 .00015443)" stroke="#fff" stroke-dashoffset="1536" stroke-linecap="round" stroke-linejoin="round"><g fill="#b6c8c5" stroke-width="12.948"><path transform="matrix(.39916 .00028305 -.00027004 .41839 770.94 314.19)" d="m569.6 254-123.09 0.0833-38.116-117.04 99.532-72.417 99.63 72.282z"/><path transform="matrix(.39916 .00028305 -.00027004 .41839 770.94 60.192)" d="m569.6 254-123.09 0.0833-38.116-117.04 99.532-72.417 99.63 72.282z"/><path transform="matrix(.39916 .00028305 -.00027004 .41839 601.6 -24.475)" d="m569.6 254-123.09 0.0833-38.116-117.04 99.532-72.417 99.63 72.282z"/><path transform="matrix(.39916 .00028305 -.00027004 .41839 516.94 568.19)" d="m569.6 254-123.09 0.0833-38.116-117.04 99.532-72.417 99.63 72.282z"/><path transform="matrix(.39916 .00028305 -.00027004 .41839 516.94 314.19)" d="m569.6 254-123.09 0.0833-38.116-117.04 99.532-72.417 99.63 72.282z"/><path transform="matrix(.39916 .00028305 -.00027004 .41839 516.94 60.192)" d="m569.6 254-123.09 0.0833-38.116-117.04 99.532-72.417 99.63 72.282z"/><path transform="matrix(.39916 .00028305 -.00027004 .41839 432.27 652.86)" d="m569.6 254-123.09 0.0833-38.116-117.04 99.532-72.417 99.63 72.282z"/><path transform="matrix(.39916 .00028305 -.00027004 .41839 347.6 229.52)" d="m569.6 254-123.09 0.0833-38.116-117.04 99.532-72.417 99.63 72.282z"/><path transform="matrix(.39916 .00028305 -.00027004 .41839 347.6 -24.475)" d="m569.6 254-123.09 0.0833-38.116-117.04 99.532-72.417 99.63 72.282z"/><path transform="matrix(.39916 .00028305 -.00027004 .41839 262.94 314.19)" d="m569.6 254-123.09 0.0833-38.116-117.04 99.532-72.417 99.63 72.282z"/><path transform="matrix(.39916 .00028305 -.00027004 .41839 262.94 60.192)" d="m569.6 254-123.09 0.0833-38.116-117.04 99.532-72.417 99.63 72.282z"/><path transform="matrix(.39916 .00028305 -.00027004 .41839 178.27 398.86)" d="m569.6 254-123.09 0.0833-38.116-117.04 99.532-72.417 99.63 72.282z"/><path transform="matrix(.39916 .00028305 -.00027004 .41839 8.9362 822.19)" d="m569.6 254-123.09 0.0833-38.116-117.04 99.532-72.417 99.63 72.282z"/><path transform="matrix(.39916 .00028305 -.00027004 .41839 -75.73 652.86)" d="m569.6 254-123.09 0.0833-38.116-117.04 99.532-72.417 99.63 72.282z"/><path transform="matrix(.39916 .00028305 -.00027004 .41839 -160.4 737.52)" d="m569.6 254-123.09 0.0833-38.116-117.04 99.532-72.417 99.63 72.282z"/><path transform="matrix(.39916 .00028305 -.00027004 .41839 -160.4 229.52)" d="m569.6 254-123.09 0.0833-38.116-117.04 99.532-72.417 99.63 72.282z"/><path transform="matrix(.39916 .00028305 -.00027004 .41839 -160.4 -24.475)" d="m569.6 254-123.09 0.0833-38.116-117.04 99.532-72.417 99.63 72.282z"/></g><g fill="#577557" stroke-width="12.949"><path transform="matrix(.39916 .00028305 -.00027004 .41839 770.94 652.86)" d="m569.6 254-123.09 0.0833-38.116-117.04 99.532-72.417 99.63 72.282z"/><path transform="matrix(.39916 .00028305 -.00027004 .41839 770.94 398.86)" d="m569.6 254-123.09 0.0833-38.116-117.04 99.532-72.417 99.63 72.282z"/><path transform="matrix(.39916 .00028305 -.00027004 .41839 686.27 -24.475)" d="m569.6 254-123.09 0.0833-38.116-117.04 99.532-72.417 99.63 72.282z"/><path transform="matrix(.39916 .00028305 -.00027004 .41839 601.6 568.19)" d="m569.6 254-123.09 0.0833-38.116-117.04 99.532-72.417 99.63 72.282z"/><path transform="matrix(.39916 .00028305 -.00027004 .41839 516.94 906.86)" d="m569.6 254-123.09 0.0833-38.116-117.04 99.532-72.417 99.63 72.282z"/><path transform="matrix(.39916 .00028305 -.00027004 .41839 347.6 822.19)" d="m569.6 254-123.09 0.0833-38.116-117.04 99.532-72.417 99.63 72.282z"/><path transform="matrix(.39916 .00028305 -.00027004 .41839 178.27 737.52)" d="m569.6 254-123.09 0.0833-38.116-117.04 99.532-72.417 99.63 72.282z"/><path transform="matrix(.39916 .00028305 -.00027004 .41839 178.27 483.52)" d="m569.6 254-123.09 0.0833-38.116-117.04 99.532-72.417 99.63 72.282z"/><path transform="matrix(.39916 .00028305 -.00027004 .41839 178.27 229.53)" d="m569.6 254-123.09 0.0833-38.116-117.04 99.532-72.417 99.63 72.282z"/><path transform="matrix(.39916 .00028305 -.00027004 .41839 93.604 822.19)" d="m569.6 254-123.09 0.0833-38.116-117.04 99.532-72.417 99.63 72.282z"/><path transform="matrix(.39916 .00028305 -.00027004 .41839 93.604 568.19)" d="m569.6 254-123.09 0.0833-38.116-117.04 99.532-72.417 99.63 72.282z"/><path transform="matrix(.39916 .00028305 -.00027004 .41839 93.604 314.19)" d="m569.6 254-123.09 0.0833-38.116-117.04 99.532-72.417 99.63 72.282z"/><path transform="matrix(.39916 .00028305 -.00027004 .41839 93.604 60.192)" d="m569.6 254-123.09 0.0833-38.116-117.04 99.532-72.417 99.63 72.282z"/><path transform="matrix(.39916 .00028305 -.00027004 .41839 8.937 398.86)" d="m569.6 254-123.09 0.0833-38.116-117.04 99.532-72.417 99.63 72.282z"/><path transform="matrix(.39916 .00028305 -.00027004 .41839 -75.73 229.53)" d="m569.6 254-123.09 0.0833-38.116-117.04 99.532-72.417 99.63 72.282z"/><path transform="matrix(.39916 .00028305 -.00027004 .41839 -75.73 -24.475)" d="m569.6 254-123.09 0.0833-38.116-117.04 99.532-72.417 99.63 72.282z"/><path transform="matrix(.39916 .00028305 -.00027004 .41839 -160.4 822.19)" d="m569.6 254-123.09 0.0833-38.116-117.04 99.532-72.417 99.63 72.282z"/><path transform="matrix(.39916 .00028305 -.00027004 .41839 -160.4 568.19)" d="m569.6 254-123.09 0.0833-38.116-117.04 99.532-72.417 99.63 72.282z"/><path transform="matrix(.39916 .00028305 -.00027004 .41839 -160.4 60.192)" d="m569.6 254-123.09 0.0833-38.116-117.04 99.532-72.417 99.63 72.282z"/></g></g><g transform="translate(.00015708 .00015443)" fill="#fff" stroke="#fff" stroke-dashoffset="1536" stroke-linecap="round" stroke-linejoin="round" stroke-width="12.949"><path transform="matrix(.39916 .00028305 -.00027004 .41839 770.94 483.52)" d="m569.6 254-123.09 0.0833-38.116-117.04 99.532-72.417 99.63 72.282z"/><path transform="matrix(.39916 .00028305 -.00027004 .41839 686.27 568.19)" d="m569.6 254-123.09 0.0833-38.116-117.04 99.532-72.417 99.63 72.282z"/><path transform="matrix(.39916 .00028305 -.00027004 .41839 686.27 314.19)" d="m569.6 254-123.09 0.0833-38.116-117.04 99.532-72.417 99.63 72.282z"/><path transform="matrix(.39916 .00028305 -.00027004 .41839 601.6 398.86)" d="m569.6 254-123.09 0.0833-38.116-117.04 99.532-72.417 99.63 72.282z"/><path transform="matrix(.39916 .00028305 -.00027004 .41839 601.6 144.86)" d="m569.6 254-123.09 0.0833-38.116-117.04 99.532-72.417 99.63 72.282z"/><path transform="matrix(.39916 .00028305 -.00027004 .41839 516.94 229.53)" d="m569.6 254-123.09 0.0833-38.116-117.04 99.532-72.417 99.63 72.282z"/><path transform="matrix(.39916 .00028305 -.00027004 .41839 516.94 -24.475)" d="m569.6 254-123.09 0.0833-38.116-117.04 99.532-72.417 99.63 72.282z"/><path transform="matrix(.39916 .00028305 -.00027004 .41839 347.6 906.86)" d="m569.6 254-123.09 0.0833-38.116-117.04 99.532-72.417 99.63 72.282z"/><path transform="matrix(.39916 .00028305 -.00027004 .41839 347.6 652.86)" d="m569.6 254-123.09 0.0833-38.116-117.04 99.532-72.417 99.63 72.282z"/><path transform="matrix(.39916 .00028305 -.00027004 .41839 347.6 398.86)" d="m569.6 254-123.09 0.0833-38.116-117.04 99.532-72.417 99.63 72.282z"/><path transform="matrix(.39916 .00028305 -.00027004 .41839 262.94 737.52)" d="m569.6 254-123.09 0.0833-38.116-117.04 99.532-72.417 99.63 72.282z"/><path transform="matrix(.39916 .00028305 -.00027004 .41839 262.94 -24.475)" d="m569.6 254-123.09 0.0833-38.116-117.04 99.532-72.417 99.63 72.282z"/><path transform="matrix(.39916 .00028305 -.00027004 .41839 178.27 568.19)" d="m569.6 254-123.09 0.0833-38.116-117.04 99.532-72.417 99.63 72.282z"/><path transform="matrix(.39916 .00028305 -.00027004 .41839 93.603 906.86)" d="m569.6 254-123.09 0.0833-38.116-117.04 99.532-72.417 99.63 72.282z"/><path transform="matrix(.39916 .00028305 -.00027004 .41839 93.603 652.86)" d="m569.6 254-123.09 0.0833-38.116-117.04 99.532-72.417 99.63 72.282z"/><path transform="matrix(.39916 .00028305 -.00027004 .41839 8.9368 -24.475)" d="m569.6 254-123.09 0.0833-38.116-117.04 99.532-72.417 99.63 72.282z"/><path transform="matrix(.39916 .00028305 -.00027004 .41839 -75.73 314.19)" d="m569.6 254-123.09 0.0833-38.116-117.04 99.532-72.417 99.63 72.282z"/><path transform="matrix(.39916 .00028305 -.00027004 .41839 -160.4 144.86)" d="m569.6 254-123.09 0.0833-38.116-117.04 99.532-72.417 99.63 72.282z"/></g><path d="m424.03 256.77c-23.463-1.676-41.061 14.246-46.927 34.358l-11.732 43.575h1.676c174.3 0 315.08 141.62 315.08 315.08v1.676l43.575-11.732c20.112-5.8659 35.195-24.302 33.519-46.927-12.57-180.17-155.86-323.46-335.19-336.03zm226.26 403.07v-10.056c0-156.7-126.54-283.24-283.24-283.24h-10.056l-99.72 372.9c-1.676 5.8658 0 11.732 4.1899 15.922 4.1899 3.3519 9.2178 5.0279 15.084 3.3519zm-220.39-198.6c17.598 0 31.843 13.408 31.843 31.006 0 16.76-14.246 31.844-31.843 31.844-16.76 0-31.843-15.084-31.843-31.844 0-17.598 15.084-31.006 31.843-31.006zm62.849 125.7c0-17.598 14.246-31.844 31.843-31.844 16.76 0 31.843 14.246 31.843 31.844 0 16.76-15.084 31.006-31.843 31.006-17.598 0-31.843-14.246-31.843-31.006zm-140.78 46.927c0-16.76 13.408-31.844 31.005-31.844 16.76 0 31.005 15.084 31.005 31.844 0 17.598-14.246 31.844-31.005 31.844-17.598 0-31.005-14.246-31.005-31.844z" fill="#4fc4a7" stroke="#fff" stroke-dashoffset="1536" stroke-linecap="round" stroke-linejoin="round" stroke-width="5.2917" aria-label=""/></svg>
