<?xml version="1.0" encoding="UTF-8"?>
<svg width="3840" height="3840" version="1.1" viewBox="0 0 1016 1016" xml:space="preserve" xmlns="http://www.w3.org/2000/svg"><g fill="#55be59" stroke-linecap="round"><g stroke="#d5efd5"><path d="m-304.8 711.2 1016-1016" stroke-dasharray="67.7333, 541.866" stroke-dashoffset="406.4" stroke-width="67.733"/><path d="m-101.6 914.4 1016-1016" stroke-dasharray="67.73332977,541.86663818" stroke-width="67.733"/><path d="m101.6 1117.6 1016-1016" stroke-dasharray="67.7333, 541.867" stroke-width="67.733"/><path d="m304.8 1320.8 1016-1016" stroke-dasharray="67.7333, 541.866" stroke-dashoffset="406.4" stroke-width="67.733"/></g><g stroke="#808080"><path d="m-304.8 711.2 1016-1016" stroke-dasharray="67.7333, 541.866" stroke-dashoffset="203.2" stroke-width="67.733"/><path d="m-101.6 914.4 1016-1016" stroke-dasharray="67.73332977,541.86663818" stroke-dashoffset="203.2" stroke-width="67.733"/><path d="m101.6 1117.6 1016-1016" stroke-dasharray="67.7333, 541.866" stroke-dashoffset="406.4" stroke-width="67.733"/><path d="m304.8 1320.8 1016-1016" stroke-dasharray="67.7333, 541.866" stroke-dashoffset="203.2" stroke-width="67.733"/></g></g><g fill="#55be59" stroke="#fff" stroke-linecap="round"><path d="m-304.8 711.2 1016-1016" stroke-dasharray="67.7333, 541.866" stroke-width="67.733"/><path d="m-101.6 914.4 1016-1016" stroke-dasharray="67.73332977,541.86663818" stroke-dashoffset="406.4" stroke-width="67.733"/><path d="m101.6 1117.6 1016-1016" stroke-dasharray="67.7333, 541.866" stroke-dashoffset="203.2" stroke-width="67.733"/><path d="m304.8 1320.8 1016-1016" stroke-dasharray="67.7333, 541.866" stroke-width="67.733"/></g><g><path d="m716.28 889v-279.4c0-38.1-7.62-73.66-21.59-105.41-13.97-24.13-34.29-50.8-62.23-77.47-16.51-16.51-38.1-30.48-63.5-44.45s-53.34-25.4-83.82-33.02l-10.16-81.28h171.45v-140.97h68.58v140.97h173.99l-58.42 568.96c-1.27 15.24-7.62 27.94-19.05 38.1-10.16 8.89-22.86 13.97-36.83 13.97zm-589.28-35.56c0 10.16 2.54 17.78 10.16 25.4 6.35 6.35 15.24 10.16 25.4 10.16h448.31c10.16 0 19.05-3.81 25.4-10.16 7.62-7.62 10.16-15.24 10.16-25.4v-34.29h-519.43zm519.43-241.3h-519.43c0-53.34 17.78-97.79 54.61-133.35 31.75-33.02 74.93-54.61 127-66.04s104.14-11.43 157.48 0c52.07 11.43 95.25 33.02 127 66.04 35.56 35.56 53.34 80.01 53.34 133.35zm-519.43 69.85v67.31h518.16v-67.31z" fill="#55be59" stroke-width="0" aria-label="󰉚"/></g></svg>
