<?xml version="1.0" encoding="UTF-8"?>
<svg width="3840" height="3840" version="1.1" viewBox="0 0 1016 1016" xml:space="preserve" xmlns="http://www.w3.org/2000/svg"><g fill="#55be59" stroke-linecap="round"><g stroke="#d5efd5"><path d="m-304.8 711.2 1016-1016" stroke-dasharray="67.7333, 541.866" stroke-dashoffset="406.4" stroke-width="67.733"/><path d="m-101.6 914.4 1016-1016" stroke-dasharray="67.73332977,541.86663818" stroke-width="67.733"/><path d="m101.6 1117.6 1016-1016" stroke-dasharray="67.7333, 541.867" stroke-width="67.733"/><path d="m304.8 1320.8 1016-1016" stroke-dasharray="67.7333, 541.866" stroke-dashoffset="406.4" stroke-width="67.733"/></g><g stroke="#808080"><path d="m-304.8 711.2 1016-1016" stroke-dasharray="67.7333, 541.866" stroke-dashoffset="203.2" stroke-width="67.733"/><path d="m-101.6 914.4 1016-1016" stroke-dasharray="67.73332977,541.86663818" stroke-dashoffset="203.2" stroke-width="67.733"/><path d="m101.6 1117.6 1016-1016" stroke-dasharray="67.7333, 541.866" stroke-dashoffset="406.4" stroke-width="67.733"/><path d="m304.8 1320.8 1016-1016" stroke-dasharray="67.7333, 541.866" stroke-dashoffset="203.2" stroke-width="67.733"/></g></g><g fill="#55be59" stroke="#fff" stroke-linecap="round"><path d="m-304.8 711.2 1016-1016" stroke-dasharray="67.7333, 541.866" stroke-width="67.733"/><path d="m-101.6 914.4 1016-1016" stroke-dasharray="67.73332977,541.86663818" stroke-dashoffset="406.4" stroke-width="67.733"/><path d="m101.6 1117.6 1016-1016" stroke-dasharray="67.7333, 541.866" stroke-dashoffset="203.2" stroke-width="67.733"/><path d="m304.8 1320.8 1016-1016" stroke-dasharray="67.7333, 541.866" stroke-width="67.733"/></g><g><path d="m645.41 759.35v-184.33c0-25.135-5.0271-48.595-14.243-69.541-9.2163-15.919-22.622-33.514-41.055-51.109-10.892-10.892-25.135-20.108-41.892-29.325s-35.19-16.757-55.298-21.784l-6.7028-53.622h113.11v-93.001h45.244v93.001h114.79l-38.541 375.36c-0.83785 10.054-5.0271 18.433-12.568 25.135-6.7028 5.8649-15.081 9.2163-24.298 9.2163zm-388.76-23.46c0 6.7028 1.6757 11.73 6.7028 16.757 4.1892 4.1892 10.054 6.7028 16.757 6.7028h295.76c6.7028 0 12.568-2.5135 16.757-6.7028 5.0271-5.0271 6.7028-10.054 6.7028-16.757v-22.622h-342.68zm342.68-159.19h-342.68c0-35.19 11.73-64.514 36.027-87.974 20.946-21.784 49.433-36.027 83.785-43.568 34.352-7.5406 68.703-7.5406 103.89 0 34.352 7.5406 62.839 21.784 83.785 43.568 23.46 23.46 35.19 52.784 35.19 87.974zm-342.68 46.082v44.406h341.84v-44.406z" fill="#55be59" stroke="#fff" stroke-dashoffset="1536" stroke-linecap="round" stroke-linejoin="round" stroke-width="5.2917" aria-label="󰉚"/></g></svg>
