<?xml version="1.0" encoding="UTF-8"?>
<svg width="3840" height="3840" version="1.1" viewBox="0 0 1016 1016" xml:space="preserve" xmlns="http://www.w3.org/2000/svg"><g fill="#55be59" stroke-linecap="round"><g stroke="#d5efd5"><path d="m-304.8 711.2 1016-1016" stroke-dasharray="67.7333, 541.866" stroke-dashoffset="406.4" stroke-width="67.733"/><path d="m-101.6 914.4 1016-1016" stroke-dasharray="67.73332977,541.86663818" stroke-width="67.733"/><path d="m101.6 1117.6 1016-1016" stroke-dasharray="67.7333, 541.867" stroke-width="67.733"/><path d="m304.8 1320.8 1016-1016" stroke-dasharray="67.7333, 541.866" stroke-dashoffset="406.4" stroke-width="67.733"/></g><g stroke="#808080"><path d="m-304.8 711.2 1016-1016" stroke-dasharray="67.7333, 541.866" stroke-dashoffset="203.2" stroke-width="67.733"/><path d="m-101.6 914.4 1016-1016" stroke-dasharray="67.73332977,541.86663818" stroke-dashoffset="203.2" stroke-width="67.733"/><path d="m101.6 1117.6 1016-1016" stroke-dasharray="67.7333, 541.866" stroke-dashoffset="406.4" stroke-width="67.733"/><path d="m304.8 1320.8 1016-1016" stroke-dasharray="67.7333, 541.866" stroke-dashoffset="203.2" stroke-width="67.733"/></g></g><g fill="#55be59" stroke="#fff" stroke-linecap="round"><path d="m-304.8 711.2 1016-1016" stroke-dasharray="67.7333, 541.866" stroke-width="67.733"/><path d="m-101.6 914.4 1016-1016" stroke-dasharray="67.73332977,541.86663818" stroke-dashoffset="406.4" stroke-width="67.733"/><path d="m101.6 1117.6 1016-1016" stroke-dasharray="67.7333, 541.866" stroke-dashoffset="203.2" stroke-width="67.733"/><path d="m304.8 1320.8 1016-1016" stroke-dasharray="67.7333, 541.866" stroke-width="67.733"/></g><g><path d="m810.66 621.03 2.54 1.27v-19.05 10.16c-1.27 3.81-2.54 6.35-2.54 7.62zm-378.46-17.78c0-35.56 8.89-67.31 25.4-96.52 16.51-29.21 39.37-52.07 68.58-68.58 29.21-16.51 60.96-25.4 95.25-25.4 34.29 0 67.31 8.89 95.25 25.4 29.21 16.51 52.07 39.37 69.85 68.58 17.78 29.21 26.67 60.96 26.67 96.52v-190.5l-78.74-228.6c-5.08-11.43-12.7-21.59-21.59-27.94-10.16-7.62-20.32-11.43-34.29-11.43h-417.83c-12.7 0-24.13 3.81-34.29 11.43-8.89 6.35-16.51 16.51-21.59 27.94l-77.47 228.6v304.8c0 10.16 3.81 20.32 11.43 27.94s15.24 11.43 25.4 11.43h39.37c10.16 0 19.05-3.81 26.67-11.43s11.43-17.78 11.43-27.94v-38.1h207.01c-11.43-24.13-16.51-49.53-16.51-76.2zm-114.3-95.25c0 15.24-5.08 29.21-16.51 40.64s-25.4 16.51-41.91 16.51c-15.24 0-29.21-5.08-39.37-16.51-11.43-11.43-16.51-25.4-16.51-40.64s5.08-29.21 16.51-40.64c10.16-11.43 24.13-16.51 39.37-16.51 16.51 0 30.48 6.35 41.91 17.78s16.51 24.13 16.51 39.37zm417.83-134.62h-532.13l57.15-170.18h417.83zm148.59 427.99c3.81 2.54 5.08 6.35 3.81 11.43 0 5.08-2.54 8.89-6.35 12.7l-39.37 39.37c-2.54 3.81-7.62 6.35-11.43 6.35-5.08 0-8.89-2.54-12.7-6.35l-154.94-157.48c-20.32 8.89-41.91 11.43-63.5 6.35s-40.64-16.51-57.15-33.02c-16.51-15.24-26.67-35.56-30.48-59.69-5.08-22.86-1.27-45.72 10.16-67.31l74.93 74.93 50.8-50.8-74.93-74.93c21.59-10.16 44.45-12.7 68.58-7.62 24.13 3.81 43.18 13.97 59.69 29.21 15.24 16.51 25.4 35.56 30.48 57.15 5.08 22.86 3.81 43.18-5.08 62.23z" fill="#55be59" stroke-width="0" aria-label="󱠔"/></g></svg>
