<?xml version="1.0" encoding="UTF-8"?>
<svg width="3840" height="3840" version="1.1" viewBox="0 0 1016 1016" xml:space="preserve" xmlns="http://www.w3.org/2000/svg"><g fill="#55be59" stroke-linecap="round"><g stroke="#e7e7b8" stroke-width="67.733"><path d="m-304.8 711.2 1016-1016" stroke-dasharray="67.7333, 541.866" stroke-dashoffset="406.4"/><path d="m-101.6 914.4 1016-1016" stroke-dasharray="67.7333, 541.867"/><path d="m101.6 1117.6 1016-1016" stroke-dasharray="67.7333, 541.867"/><path d="m304.8 1320.8 1016-1016" stroke-dasharray="67.7333, 541.866" stroke-dashoffset="406.4"/></g><g stroke="#808080"><path d="m-304.8 711.2 1016-1016" stroke-dasharray="67.7333, 541.866" stroke-dashoffset="203.2" stroke-width="67.733"/><path d="m-101.6 914.4 1016-1016" stroke-dasharray="67.73332977,541.86663818" stroke-dashoffset="203.2" stroke-width="67.733"/><path d="m101.6 1117.6 1016-1016" stroke-dasharray="67.7333, 541.866" stroke-dashoffset="406.4" stroke-width="67.733"/><path d="m304.8 1320.8 1016-1016" stroke-dasharray="67.7333, 541.866" stroke-dashoffset="203.2" stroke-width="67.733"/></g></g><g fill="#55be59" stroke="#fff" stroke-linecap="round"><path d="m-304.8 711.2 1016-1016" stroke-dasharray="67.7333, 541.866" stroke-width="67.733"/><path d="m-101.6 914.4 1016-1016" stroke-dasharray="67.73332977,541.86663818" stroke-dashoffset="406.4" stroke-width="67.733"/><path d="m101.6 1117.6 1016-1016" stroke-dasharray="67.7333, 541.866" stroke-dashoffset="203.2" stroke-width="67.733"/><path d="m304.8 1320.8 1016-1016" stroke-dasharray="67.7333, 541.866" stroke-width="67.733"/></g><g><path d="m717.5 586.23 1.7579 0.87896v-13.184 7.0317c-0.87896 2.6369-1.7579 4.3948-1.7579 5.2737zm-261.93-12.305c0-24.611 6.1527-46.585 17.579-66.801 11.426-20.216 27.248-36.037 47.464-47.464 20.216-11.426 42.19-17.579 65.922-17.579 23.732 0 46.585 6.1527 65.922 17.579 20.216 11.426 36.037 27.248 48.343 47.464 12.305 20.216 18.458 42.19 18.458 66.801v-131.84l-54.495-158.21c-3.5158-7.9106-8.7896-14.942-14.942-19.337-7.0316-5.2737-14.063-7.9106-23.732-7.9106h-289.18c-8.7896 0-16.7 2.6369-23.732 7.9106-6.1527 4.3948-11.426 11.426-14.942 19.337l-53.616 158.21v210.95c0 7.0316 2.6369 14.063 7.9106 19.337 5.2737 5.2737 10.547 7.9106 17.579 7.9106h27.248c7.0316 0 13.184-2.6369 18.458-7.9106 5.2737-5.2737 7.9106-12.305 7.9106-19.337v-26.369h143.27c-7.9106-16.7-11.426-34.279-11.426-52.737zm-79.106-65.922c0 10.547-3.5158 20.216-11.426 28.127-7.9106 7.9106-17.579 11.426-29.006 11.426-10.547 0-20.216-3.5158-27.248-11.426-7.9106-7.9106-11.426-17.579-11.426-28.127 0-10.547 3.5158-20.216 11.426-28.127 7.0316-7.9106 16.7-11.426 27.248-11.426 11.426 0 21.095 4.3948 29.006 12.305 7.9106 7.9106 11.426 16.7 11.426 27.248zm289.18-93.169h-368.28l39.553-117.78h289.18zm102.84 296.21c2.6369 1.7579 3.5158 4.3948 2.6369 7.9106 0 3.5158-1.7579 6.1527-4.3948 8.7896l-27.248 27.248c-1.7579 2.6369-5.2737 4.3948-7.9106 4.3948-3.5158 0-6.1527-1.7579-8.7896-4.3948l-107.23-108.99c-14.063 6.1527-29.006 7.9106-43.948 4.3948-14.942-3.5158-28.127-11.426-39.553-22.853-11.426-10.547-18.458-24.611-21.095-41.311-3.5158-15.821-0.87896-31.642 7.0316-46.585l51.858 51.858 35.158-35.158-51.858-51.858c14.942-7.0316 30.763-8.7896 47.464-5.2737 16.7 2.6369 29.885 9.6685 41.311 20.216 10.547 11.426 17.579 24.611 21.095 39.553 3.5158 15.821 2.6369 29.884-3.5158 43.069z" fill="#c4c44f" stroke="#fff" stroke-dashoffset="653.14" stroke-linecap="round" stroke-linejoin="round" stroke-width="5.2371" aria-label="󱠔"/></g></svg>
