<?xml version="1.0" encoding="UTF-8"?>
<svg width="5461.3" height="5461.3" version="1.1" viewBox="0 0 5461.3 5461.3" xmlns="http://www.w3.org/2000/svg"><path d="m2642 5460c-55.467-1.4805-94.128-4.2043-169-11.907-10.725-1.1033-28.5-2.9308-39.5-4.0611-11-1.1304-27.2-2.7194-36-3.5311-8.8-0.8118-17.125-1.707-18.5-1.9893-1.375-0.2822-9.475-1.3768-18-2.4324-37.506-4.6439-87.86-12.547-127-19.932-5.775-1.0897-13.2-2.4832-16.5-3.0967-10.905-2.0271-45.851-9.1198-54.5-11.062-4.675-1.0495-13.9-3.07-20.5-4.49s-13.575-3.0032-15.5-3.5183-10.25-2.502-18.5-4.4154c-35.965-8.3412-89.931-22.27-117-30.199-2.75-0.8055-7.475-2.1466-10.5-2.9804-3.025-0.8337-12.25-3.5473-20.5-6.0301-8.25-2.4829-16.575-4.9471-18.5-5.476s-6.2-1.8038-9.5-2.833-12.75-3.976-21-6.5485c-36.469-11.372-93.889-30.985-128.5-43.892-1.925-0.7179-8.45-3.1166-14.5-5.3306s-12.125-4.5099-13.5-5.1021c-1.375-0.5921-10.15-4.0467-19.5-7.6767-35.535-13.796-83.385-33.639-106.5-44.164-3.025-1.3773-13.825-6.2426-24-10.812-17.935-8.0536-27.349-12.398-52.5-24.227-46.46-21.851-122.95-61.956-176.5-92.541-81.647-46.634-174.16-105.98-239.7-153.78-5.6101-4.0909-13.023-9.4631-16.472-11.938-66.659-47.824-170.94-133.11-232.33-190.01-2.75-2.549-8.6-7.9499-13-12.002-93.725-86.316-193.31-193.45-276.08-296.99-38.772-48.506-63.798-82.011-110.17-147.5-10.221-14.435-54.257-81.009-67.468-102-38.8-61.648-80.354-134.09-112.72-196.5-16.7-32.203-45.546-90.91-54.05-110-2.0825-4.675-5.897-13-8.4767-18.5-17.514-37.341-43.473-99.678-68.303-164.02-37.338-96.759-81.118-239.85-103.71-338.98-1.5043-6.6-3.117-13.35-3.5838-15s-2.0042-8.4-3.4164-15-3.4325-15.825-4.4897-20.5c-2.136-9.446-12.698-62.092-16.05-80-1.1839-6.325-2.8331-15.054-3.6649-19.399s-2.133-11.769-2.8917-16.5c-0.75868-4.7306-2.3089-14.226-3.4449-21.101-8.5032-51.46-17.769-120.48-21.01-156.5-0.59382-6.6-1.2527-12.675-1.4641-13.5-0.21144-0.825-0.87867-8.25-1.4827-16.5s-1.5253-19.05-2.0472-24c-0.52189-4.95-1.6426-19.575-2.4905-32.5s-1.9946-30.025-2.5482-38c-1.0978-15.813-2.4897-45.759-3.9044-84-2.3729-64.146-0.36657-184.51 4.0255-241.5 0.55107-7.15 1.8696-24.7 2.93-39 1.9835-26.747 4.5995-56.319 5.5288-62.5 0.28944-1.925 1.4006-12.5 2.4692-23.5 3.4574-35.59 5.0733-50.968 5.5164-52.5 0.38242-1.3218 6.2866-41.555 9.979-68 3.8787-27.78 11.964-78.06 14.473-90 0.51999-2.475 2.1195-10.8 3.5545-18.5 4.6616-25.014 13.19-65.95 18.855-90.5 6.5525-28.4 18.359-75.736 23.82-95.5 1.6716-6.05 3.3781-12.35 3.7923-14 2.3024-9.1723 13.712-48.066 24.055-82 17.243-56.572 43.924-132.57 68.635-195.5 13.233-33.7 25.959-64.88 32.856-80.5 0.72852-1.65 4.3348-9.975 8.014-18.5s7.8132-17.975 9.1868-21 5.4059-12.025 8.9608-20c13.109-29.409 52.616-108.91 74.541-150 88.803-166.43 192.69-320.53 314.18-466 102.48-122.72 223.33-243.22 346.6-345.61 25.217-20.945 65.59-53.25 85-68.014 7.975-6.066 18.55-14.109 23.5-17.874 10.722-8.1542 49.496-36.435 61.5-44.858 33.049-23.188 37.492-26.219 70.5-48.095 28.887-19.145 37.11-24.464 63.263-40.916 35.667-22.438 97.048-58.188 139.74-81.389 74.947-40.731 159.19-81.497 232.5-112.51 31.121-13.166 35.48-14.968 57.669-23.842 53.42-21.364 97.885-37.517 155.33-56.428 38.241-12.589 67.279-21.606 98-30.432 7.975-2.2911 17.425-5.0058 21-6.0328 28.477-8.1805 86.941-23.06 130-33.086 4.675-1.0885 10.3-2.408 12.5-2.9322 3.9525-0.94179 25.427-5.5642 39-8.395 3.85-0.80293 11.275-2.363 16.5-3.4669 15.392-3.2518 67.12-13.042 77.5-14.668 2.2-0.34465 7.375-1.234 11.5-1.9764s13.462-2.2772 20.75-3.4106c7.2875-1.1334 18.988-2.9527 26-4.0428 7.0125-1.0901 19.725-2.913 28.25-4.0509 8.525-1.1379 20.225-2.7136 26-3.5016 19.9-2.7153 50.205-5.7717 103.5-10.438 12.65-1.1077 24.125-2.2371 25.5-2.5099s13.075-1.1799 26-2.0159c12.925-0.83601 29.575-1.9762 37-2.5338 7.425-0.55761 23.85-1.4513 36.5-1.9859s30.65-1.4027 40-1.929c20.853-1.1738 122.32-1.1986 158.5-0.038837 33.609 1.0774 92.253 3.777 97.5 4.4883 2.2 0.29824 15.25 1.4266 29 2.5074 44.551 3.502 61.569 4.983 86 7.4848 35.326 3.6174 51.327 5.4094 57.5 6.4392 3.025 0.50467 8.2 1.2014 11.5 1.5482 10.328 1.0856 60.796 8.4651 85 12.429 20.174 3.3038 24.6 4.0604 35.75 6.1117 5.9125 1.0877 15.812 2.9076 22 4.0442 27.152 4.9876 82.958 16.42 97.25 19.923 2.2 0.53918 13.9 3.2738 26 6.0769 32.085 7.4328 77.581 19.042 107.5 27.43 5.225 1.4649 12.425 3.4711 16 4.4582 17.335 4.7866 56.222 16.496 81.5 24.541 39.452 12.556 89.282 29.577 114 38.939 3.85 1.4583 11.725 4.3813 17.5 6.4956 15.277 5.5929 58.783 22.664 75.5 29.624 4.4 1.8321 15.2 6.3227 24 9.9793s17.35 7.2445 19 7.9732 12.45 5.4803 24 10.559c59.568 26.193 131.91 61.371 185 89.964 11.55 6.2201 23.925 12.877 27.5 14.793 20.117 10.781 72.2 40.851 103 59.466 138.66 83.802 276.65 185.75 399.49 295.14 32.442 28.889 71.049 65.624 121.06 115.2 15.445 15.307 66.81 68.664 72.942 75.77 0.55 0.63733 5.5177 6.0976 11.039 12.134 40.519 44.296 87.812 100.43 128.85 152.95 15.856 20.29 50.483 66.176 58.9 78.051 3.1096 4.3875 9.6039 13.489 14.432 20.226 63.676 88.854 132.88 200.48 183.06 295.25 2.7661 5.225 8.0304 15.125 11.698 22 7.4881 14.035 39.515 78.133 46.718 93.5 2.5779 5.5 7.1887 15.304 10.246 21.786 3.0574 6.4824 5.559 11.944 5.559 12.136s1.9524 4.564 4.3387 9.714c2.3863 5.1499 5.3725 11.614 6.636 14.364 3.3223 7.2306 18.683 42.614 22.574 52 1.8241 4.4 5.3942 12.95 7.9337 19 10.688 25.463 27.648 68.845 40.908 104.64 11.766 31.76 30.88 88.229 42.094 124.36 2.5605 8.25 5.0386 16.125 5.5069 17.5s2.2721 7.45 4.0084 13.5 3.5445 12.125 4.0182 13.5 2.9421 9.925 5.4852 19c2.5432 9.075 5.477 19.425 6.5197 23 7.5575 25.913 23.486 89.604 32.511 130 0.7988 3.575 2.3353 10.325 3.4147 15 2.7914 12.091 14.332 70.001 18.433 92.5 2.9756 16.323 6.1787 35.346 13.133 78 2.1844 13.397 7.3253 50.375 11.957 86 0.858 6.6 2.2317 18.525 3.0525 26.5 0.8209 7.975 1.7208 15.85 1.9999 17.5 0.6469 3.8257 3.007 30.234 5.4517 61 1.0488 13.2 2.3741 29.85 2.9451 37 5.4203 67.877 7.5732 181.34 5.0549 266.4-1.0105 34.132-4.4852 108.35-5.4825 117.1-0.2821 2.475-1.1816 13.275-1.9989 24-2.9365 38.532-9.5833 98.285-16.408 147.5-3.8057 27.446-6.0574 42.307-11.591 76.5-2.3995 14.827-6.2822 37.03-9.0059 51.5-1.4493 7.7-3.0139 16.25-3.4769 19-0.9962 5.9183-7.2709 37.192-10.032 50-1.067 4.95-3.0804 14.4-4.4741 21-1.3938 6.6-2.9714 13.8-3.5058 16-0.5345 2.2-3.4718 14.8-6.5274 28-6.0692 26.219-18.626 76.004-23.961 95-3.3632 11.975-6.9706 24.645-12.67 44.5-5.8815 20.489-14.853 49.235-26.217 84-8.2379 25.202-29.037 83.425-40.189 112.5-3.1643 8.25-6.7716 17.7-8.0162 21-2.0923 5.5475-12.481 31.382-20.71 51.5-9.119 22.295-25.21 59.683-34.431 80-1.3728 3.025-4.4242 9.775-6.7809 15-4.0838 9.0542-7.8002 17.081-18.289 39.5-13.933 29.78-52.253 105.08-68.351 134.31-1.7229 3.1286-5.8588 10.638-9.1907 16.688-33.047 60.006-71.002 122.4-112.23 184.5-23.855 35.934-26.684 40.1-42.787 63-77.653 110.44-162.6 213.71-259.08 314.98-33.265 34.915-94.32 94.396-135.1 131.62-70.945 64.753-154.32 132.51-235.51 191.4-37.276 27.036-47.508 34.156-86.957 60.509-34.608 23.12-40.006 26.633-65 42.302-7.425 4.6549-15.075 9.4806-17 10.724-4.4166 2.8521-13.24 8.1772-33.5 20.217-8.8 5.2297-19.15 11.418-23 13.752-12.868 7.7999-58.396 33.464-78 43.969-3.85 2.063-10.825 5.8153-15.5 8.3384-28.77 15.528-97.273 49.892-126.6 63.509-7.756 3.601-17.656 8.1976-22 10.215-48.236 22.396-122.84 53.36-176.9 73.419-12.1 4.49-24.25 9.0106-27 10.046-30.603 11.52-109.04 37.386-145.5 47.984-4.125 1.1989-10.2 3.0146-13.5 4.0348s-11.85 3.4818-19 5.4702-16.825 4.6955-21.5 6.0157c-23.242 6.5636-87.85 23.032-106 27.02-3.575 0.7854-11.45 2.5708-17.5 3.9675-11.43 2.6389-27.194 6.1117-43.5 9.5834-5.225 1.1124-12.425 2.6574-16 3.4333-5.4892 1.1914-25.133 4.9913-62 11.994-7.6061 1.4446-52.202 8.9761-70.5 11.906-13.023 2.0853-27.438 4.1568-46 6.6104-8.25 1.0904-16.125 2.204-17.5 2.4745-7.5843 1.492-90.737 10.142-125 13.002-10.175 0.8495-23 2.0104-28.5 2.5797s-19.9 1.4497-32 1.9564-27.4 1.3822-34 1.9457c-31.332 2.6748-155.24 3.7803-222.5 1.9851z" fill="#fff"/><path d="m2657.3 0.56576c-32.351 4.2493-66.072 2.6553-98.667 4.8867-54.724 3.7464-109.39 9.2907-164 14.773-141.1 14.164-282.51 46.859-418.67 85.678-653.86 186.41-1225.6 623.63-1578.4 1204.8-153.28 252.5-267.62 531.44-331.7 820-123.79 557.36-70.985 1147.6 153.34 1673.3 94.851 222.29 219.53 431.44 369.04 621.33 170.59 216.67 375.75 407.07 603.72 562.21 265.87 180.92 563.99 314.6 876 392.6 325.08 81.27 666.46 102.15 998.67 60.814 728.36-90.623 1396.5-477.66 1841.5-1061 177.32-232.41 312.99-494.89 408.72-770.67 91.793-264.42 137.61-546.33 144.44-825.33 19.165-783.04-319.94-1556.5-899.98-2081.1-295.58-267.33-649.26-464.83-1029.3-582.93-194.63-60.473-396.9-97.854-600-112.09-65.304-4.5758-130.43-7.8809-196-7.8809-25.691 0-53.197-2.7793-78.667 0.56576m-1824 3963.4v-510.67c0-9.1364-3.8044-29.471 3.0905-36.319 8.0253-7.97 20.65-13.468 30.243-19.425 19.614-12.179 39.068-24.615 58.667-36.821 58.306-36.314 116.36-73.02 174.67-109.33 184.31-114.79 367.44-231.47 552-345.85 67.76-41.992 135.14-84.635 202.67-126.99 15.989-10.028 31.979-20.057 48-30.035 6.8044-4.238 15.742-7.4899 15.968-16.57 0.3731-15.015-22.395-22.88-33.301-29.753-37.259-23.48-74.278-47.514-112-70.242-154.43-93.046-305.84-191.56-458.67-287.23-116.91-73.187-234.65-145.26-350.67-219.84-30.85-19.833-62.261-38.835-93.333-58.323-9.7432-6.1107-30.216-14.118-35.963-24.18-5.5327-9.6869-1.3704-31.378-1.3704-42.42v-501.33c14.979 4.7728 29.597 17.525 42.667 26.222 23.802 15.839 48.058 31.022 72 46.652 78.476 51.233 157.21 102.12 236 152.87 257.75 166.02 514.25 333.98 772 500 107.7 69.373 215.71 138.4 322.67 208.92 31.39 20.694 63.276 40.638 94.667 61.333 11.679 7.6996 30.352 15.199 39.196 26.042 4.833 5.9261 2.1378 20.04 2.1378 27.295v362.67c0 7.9912 2.3171 20.314-0.8045 27.754-3.7524 8.9436-20.707 15.599-28.529 20.705-25.735 16.801-51.675 33.287-77.333 50.204-99.452 65.567-200.74 128.38-300 194.23-246.58 163.58-496.56 322.47-745.33 482.7-93.483 60.212-186.52 121.12-280 181.33-49.525 31.899-97.869 67.758-149.33 96.41m3614.7-2402.3c94.208-11.153 176.43 65.864 185.11 156.95 3.2002 33.603 0.2263 68.902 0.2263 102.67v818.67c0 80.784 8.2767 163.18-60 221.15-12.432 10.556-26.449 19.213-41.333 25.871-17.745 7.9378-36.686 12.242-56 14.081-93.897 8.9433-175.05-65.52-183.77-157.11-3.2002-33.603-0.2263-68.902-0.2263-102.67v-813.33c0-76.538-11.095-164.44 53.339-220.77 14.011-12.249 28.642-22.022 45.328-30.226 18.023-8.8607 37.52-12.949 57.333-15.294m-1732 316c23.407-2.7711 48.427-0.3805 72-0.3805h836c45.702 0 96.501-6.1563 141.33 3.5495 21.711 4.7002 43.092 13.586 61.333 26.368 85.588 59.974 98.428 187.42 23.881 261.96-18.842 18.842-42.77 32.768-67.881 41.347-32.064 10.955-66.687 8.1051-100 8.1051h-894.67c-39.148 0-79.988 3.7731-117.33-10.419-113.86-43.266-147.87-194.8-61.214-281.46 28.823-28.823 66.622-44.345 106.55-49.072m316 682.67c94.191-11.151 176.43 65.884 185.11 156.95 3.2002 33.602 0.2262 68.902 0.2262 102.67v818.67c0 79.84 8.5124 162.34-58.667 220-12.958 11.121-27.236 19.725-42.667 26.959-17.509 8.2083-36.834 12.324-56 14.149-93.874 8.9414-175.05-65.535-183.77-157.11-3.2002-33.603-0.2262-68.902-0.2262-102.67v-814.67c0-76.206-10.792-163.37 53.338-219.43 14.01-12.248 28.64-22.027 45.328-30.226 17.992-8.8392 37.567-12.954 57.333-15.294m733.33 682.67c23.406-2.7711 48.428-0.3808 72-0.3808h836c45.701 0 96.502-6.1566 141.33 3.5494 21.772 4.7136 43.034 13.545 61.333 26.368 85.577 59.967 98.414 187.43 23.881 261.96-18.842 18.842-42.77 32.77-67.881 41.348-32.457 11.087-67.612 8.1048-101.33 8.1048h-894.67c-41.075 0-82.455 3.2721-121.33-12.603-110.77-45.231-140.32-194.84-55.881-279.28 28.823-28.823 66.622-44.345 106.55-49.072z" fill="#55bd59"/></svg>
