<?xml version="1.0" encoding="UTF-8" standalone="no"?>
<svg
   viewBox="0 0 3840 3840"
   version="1.1"
   id="svg42"
   sodipodi:docname="logo.svg"
   inkscape:version="1.4.1 (93de688d07, 2025-03-30)"
   width="3840"
   height="3840"
   xmlns:inkscape="http://www.inkscape.org/namespaces/inkscape"
   xmlns:sodipodi="http://sodipodi.sourceforge.net/DTD/sodipodi-0.dtd"
   xmlns="http://www.w3.org/2000/svg"
   xmlns:svg="http://www.w3.org/2000/svg"
   xmlns:rdf="http://www.w3.org/1999/02/22-rdf-syntax-ns#"
   xmlns:cc="http://creativecommons.org/ns#"
   xmlns:dc="http://purl.org/dc/elements/1.1/">
  <sodipodi:namedview
     id="namedview42"
     pagecolor="#ffffff"
     bordercolor="#000000"
     borderopacity="0.25"
     inkscape:showpageshadow="2"
     inkscape:pageopacity="0.0"
     inkscape:pagecheckerboard="0"
     inkscape:deskcolor="#d1d1d1"
     inkscape:zoom="0.10563298"
     inkscape:cx="1230.6762"
     inkscape:cy="378.66961"
     inkscape:window-width="1918"
     inkscape:window-height="2132"
     inkscape:window-x="0"
     inkscape:window-y="0"
     inkscape:window-maximized="0"
     inkscape:current-layer="layer1" />
  <defs
     id="defs1">
    <style
       id="style1">.cls-1{fill:#5b9c95;}.cls-2{fill:#72392f;}.cls-3{fill:#5e302b;}.cls-4{fill:#7f3e37;}.cls-5{fill:#cc9458;}.cls-6{fill:#f0c788;}.cls-7{fill:#eaac2e;}.cls-8{fill:#da4d5d;}.cls-9{fill:#d63d55;}.cls-10{fill:#f6e0b8;}.cls-11{fill:#76c27d;}.cls-12{fill:#69aa6d;}.cls-13{fill:#c99028;}</style>
  </defs>
  <title
     id="title1">Food</title>
  <g
     inkscape:groupmode="layer"
     id="layer1"
     inkscape:label="Background"
     inkscape:highlight-color="#4fc4a7"
     style="display:inline">
    <circle
       class="cls-1"
       cx="1920"
       cy="1920"
       r="1920"
       id="circle1"
       style="fill:#4fc4a7;fill-opacity:1;stroke-width:0.999997"
       inkscape:label="circle" />
  </g>
  <g
     id="Icons"
     inkscape:label="Icon"
     inkscape:highlight-color="#72392f"
     transform="scale(7.5)"
     style="stroke-width:0.133333">
    <g
       inkscape:groupmode="layer"
       id="layer6"
       inkscape:label="Tray"
       inkscape:highlight-color="#72392f"
       style="display:inline;stroke-width:0.133333">
      <path
         class="cls-2"
         d="M 443.82,20.91 H 65.11 A 23.63,23.63 0 0 0 41.47,44.55 v 337.71 a 23.64,23.64 0 0 0 23.64,23.65 H 217.18 L 214.66,452 a 39.87,39.87 0 1 0 79.62,0 l -2.54,-46.06 h 152.08 a 23.65,23.65 0 0 0 23.65,-23.65 V 44.55 A 23.64,23.64 0 0 0 443.82,20.91 Z M 254.47,463.67 a 15.21,15.21 0 1 1 15.21,-15.21 15.21,15.21 0 0 1 -15.21,15.21 z"
         id="path1"
         style="display:inline;stroke-width:0.133333" />
      <path
         class="cls-3"
         d="m 261.44,461.37 a 15.2,15.2 0 1 1 0.3,-25.63 l 1.64,-29.83 H 216.13 L 213.6,452 A 39.87,39.87 0 0 0 277,486.26 39.85,39.85 0 0 1 261.44,461.37 Z M 111.31,20.91 H 64.05 A 23.64,23.64 0 0 0 40.41,44.55 v 337.72 a 23.65,23.65 0 0 0 23.64,23.64 h 47.26 A 23.65,23.65 0 0 1 87.66,382.27 V 44.55 a 23.64,23.64 0 0 1 23.65,-23.64 z"
         id="path2"
         style="display:inline;stroke-width:0.133333" />
      <rect
         class="cls-4"
         x="418.25"
         y="288.95001"
         width="19.92"
         height="81.129997"
         rx="9.96"
         id="rect2"
         style="display:inline;stroke-width:0.133333" />
      <rect
         class="cls-4"
         x="380.09"
         y="32.810001"
         width="19.92"
         height="81.129997"
         rx="9.96"
         id="rect3"
         style="display:inline;stroke-width:0.133333" />
      <rect
         class="cls-4"
         x="116.67"
         y="32.810001"
         width="19.92"
         height="81.129997"
         rx="9.96"
         id="rect4"
         style="display:inline;stroke-width:0.133333" />
      <rect
         class="cls-4"
         x="123.78"
         y="316.66"
         width="19.92"
         height="81.129997"
         rx="9.96"
         id="rect5"
         style="display:inline;stroke-width:0.133333" />
    </g>
    <g
       inkscape:groupmode="layer"
       id="layer5"
       inkscape:label="Pizza"
       inkscape:highlight-color="#72392f"
       style="display:inline;stroke-width:0.133333">
      <circle
         class="cls-5"
         cx="256.59"
         cy="218.42"
         r="196.69"
         id="circle5"
         style="stroke-width:0.133333" />
      <circle
         class="cls-6"
         cx="256.59"
         cy="218.42"
         r="179.53999"
         id="circle6"
         style="stroke-width:0.133333" />
      <path
         class="cls-7"
         d="m 88.93,218.42 c 0,18.66 -7.42,38.28 -2,55.11 5.67,17.45 23.39,28.92 34,43.44 10.61,14.52 16.18,35 30.85,45.71 14.67,10.71 35.53,9.57 53,15.24 16.84,5.47 33.17,18.8 51.83,18.8 18.66,0 35,-13.33 51.82,-18.8 17.45,-5.67 38.46,-4.67 53,-15.24 14.68,-10.68 20.17,-31 30.85,-45.71 10.68,-14.71 28.29,-26 34,-43.44 5.47,-16.83 -1.95,-36.45 -1.95,-55.11 0,-18.66 7.42,-38.27 1.95,-55.11 -5.67,-17.45 -23.39,-28.91 -34,-43.44 -10.61,-14.53 -16.17,-35 -30.85,-45.7 -14.52,-10.57 -35.53,-9.58 -53,-15.24 -16.84,-5.47 -33.16,-18.8 -51.82,-18.8 -18.66,0 -35,13.33 -51.83,18.8 -17.45,5.66 -38.46,4.67 -53,15.24 -14.54,10.57 -20.17,31 -30.85,45.7 -10.68,14.7 -28.29,26 -34,43.44 -5.42,16.84 2,36.45 2,55.11 z"
         id="path6"
         style="stroke-width:0.133333" />
      <path
         class="cls-8"
         d="m 113.5,218.42 c 0,15.93 -6.33,32.67 -1.66,47 4.83,14.89 20,24.67 29,37.07 9,12.4 13.8,29.89 26.32,39 12.52,9.11 30.33,8.17 45.22,13 14.37,4.67 28.3,16 44.23,16 15.93,0 29.86,-11.37 44.22,-16 14.9,-4.83 32.82,-4 45.22,-13 12.4,-9 17.21,-26.48 26.33,-39 9.12,-12.52 24.14,-22.18 29,-37.07 4.66,-14.37 -1.67,-31.11 -1.67,-47 0,-15.89 6.33,-32.66 1.67,-47 -4.84,-14.89 -20,-24.67 -29,-37.07 -9,-12.4 -13.8,-29.89 -26.32,-39 -12.52,-9.11 -30.32,-8.18 -45.21,-13 -14.37,-4.67 -28.31,-16 -44.23,-16 -15.92,0 -29.86,11.38 -44.23,16 -14.89,4.83 -32.82,4 -45.22,13 -12.4,9 -17.21,26.48 -26.32,39 -9.11,12.52 -24.15,22.18 -29,37.07 -4.68,14.34 1.65,31.08 1.65,47 z"
         id="path7"
         style="stroke-width:0.133333" />
      <path
         class="cls-9"
         d="m 288.11,354.54 c 2.12,0.69 4.24,1.53 6.35,2.45 -12.18,5.33 -24.31,13.59 -37.87,13.59 -15.93,0 -29.86,-11.37 -44.23,-16 -14.89,-4.83 -32.82,-4 -45.21,-13 -12.39,-9 -17.22,-26.48 -26.33,-39 -9.11,-12.52 -24.15,-22.17 -29,-37.06 -4.66,-14.37 1.67,-31.11 1.67,-47 0,-15.89 -6.33,-32.66 -1.67,-47 4.84,-14.89 20,-24.67 29,-37.07 9,-12.4 13.8,-29.9 26.33,-39 12.53,-9.1 30.32,-8.18 45.21,-13 14.37,-4.67 28.3,-16 44.23,-16 13.56,0 25.69,8.26 37.87,13.58 a 68,68 0 0 1 -6.35,2.46 c -14.9,4.83 -32.82,4 -45.22,13 -12.4,9 -17.22,26.48 -26.33,39 -9.11,12.52 -24.14,22.18 -29,37.07 -4.68,14.37 1.66,31.11 1.66,47 0,15.89 -6.34,32.67 -1.66,47 4.83,14.89 19.95,24.67 29,37.06 9.05,12.39 13.81,29.9 26.33,39 12.52,9.1 30.32,8.09 45.22,12.92 z"
         id="path8"
         style="stroke-width:0.133333" />
      <path
         class="cls-10"
         d="m 336.17,144.05 q 0,-0.59 0,-1.17 a 25.85,25.85 0 1 0 -25.84,25.84 h 0.07 a 19.2,19.2 0 0 1 10.89,3.22 15.89,15.89 0 1 0 14.85,-27.89 z"
         id="path9"
         style="stroke-width:0.133333" />
      <path
         class="cls-10"
         d="m 215.4,147 q 0,-0.59 0,-1.17 a 25.84,25.84 0 1 0 -19,24.94 15.89,15.89 0 1 0 19,-23.77 z"
         id="path10"
         style="stroke-width:0.133333" />
      <circle
         class="cls-10"
         cx="170.21001"
         cy="232.84"
         r="24.35"
         id="circle10"
         style="stroke-width:0.133333" />
      <circle
         class="cls-10"
         cx="339.67999"
         cy="232.84"
         r="24.35"
         id="circle11"
         style="stroke-width:0.133333" />
      <path
         class="cls-10"
         d="M 285.34,272.76 A 5.31,5.31 0 0 1 283,268.3 v -0.18 a 20.87,20.87 0 0 0 -41.57,-2.64 20.32,20.32 0 0 0 0.32,7.12 5.19,5.19 0 0 1 -1.24,4.74 34.79,34.79 0 1 0 44.81,-4.58 z"
         id="path11"
         style="stroke-width:0.133333" />
      <circle
         class="cls-9"
         cx="265.63"
         cy="197.09"
         r="24.01"
         id="circle12"
         style="stroke-width:0.133333" />
      <circle
         class="cls-9"
         cx="329.12"
         cy="310.82001"
         r="13.8"
         id="circle13"
         style="stroke-width:0.133333" />
      <circle
         class="cls-9"
         cx="371.23001"
         cy="192.89999"
         r="13.8"
         id="circle14"
         style="stroke-width:0.133333" />
      <circle
         class="cls-9"
         cx="257.5"
         cy="120.02"
         r="13.8"
         id="circle15"
         style="stroke-width:0.133333" />
      <path
         class="cls-11"
         d="m 288.8,99.66 v 0 21.86 a 35,35 0 0 1 -35,35 v 0 -21.85 a 35,35 0 0 1 35,-35 z"
         id="path15"
         style="stroke-width:0.133333" />
      <path
         class="cls-12"
         d="m 288.8,99.66 v 2.83 a 35,35 0 0 0 -21.2,32.18 v 19 a 34.89,34.89 0 0 1 -13.8,2.83 v -21.83 a 35,35 0 0 1 35,-35.01 z"
         id="path16"
         style="stroke-width:0.133333" />
      <path
         class="cls-11"
         d="m 304,133.82 v 0 21.86 a 35,35 0 0 1 -35,35 v 0 -21.86 a 35,35 0 0 1 35,-35 z"
         transform="rotate(70.08,286.48635,162.22799)"
         id="path17"
         style="stroke-width:0.133333" />
      <path
         class="cls-12"
         d="m 319.19,169 -2.66,1 a 35,35 0 0 0 -37.48,-9 l -17.89,6.48 a 34.64,34.64 0 0 1 -7.36,-12 L 274.35,148 a 35,35 0 0 1 44.84,21 z"
         id="path18"
         style="stroke-width:0.133333" />
      <path
         class="cls-11"
         d="m 385.14,237.56 v 0 21.86 a 35,35 0 0 1 -35,35 v 0 -21.86 a 35,35 0 0 1 35,-35 z"
         transform="rotate(79.72,367.6362,265.98139)"
         id="path19"
         style="stroke-width:0.133333" />
      <path
         class="cls-12"
         d="m 398.73,278.14 -2.78,0.5 A 35,35 0 0 0 360.5,263.52 l -18.72,3.39 a 34.82,34.82 0 0 1 -5.25,-13.07 l 21.51,-3.9 a 35,35 0 0 1 40.69,28.2 z"
         id="path20"
         style="stroke-width:0.133333" />
      <path
         class="cls-11"
         d="m 198.7,254.17 v 0 21.83 a 35,35 0 0 1 -35,35 v 0 -21.82 a 35,35 0 0 1 35,-35 z"
         transform="rotate(44.97,181.19825,282.57398)"
         id="path21"
         style="stroke-width:0.133333" />
      <path
         class="cls-12"
         d="m 213.67,274.86 -2,2 a 35,35 0 0 0 -37.75,7.78 l -13.44,13.46 a 34.72,34.72 0 0 1 -11.76,-7.75 l 15.45,-15.46 a 35,35 0 0 1 49.5,-0.03 z"
         id="path22"
         style="stroke-width:0.133333" />
      <path
         class="cls-11"
         d="m 226.46,164.47 v 0 21.86 a 35,35 0 0 1 -35,35 v 0 -21.85 a 35,35 0 0 1 35,-35.01 z"
         transform="rotate(114.06,208.96197,192.91645)"
         id="path23"
         style="stroke-width:0.133333" />
      <path
         class="cls-12"
         d="m 227.79,220.48 -2.58,-1.15 a 35,35 0 0 0 -20.74,-32.49 l -17.38,-7.76 a 34.71,34.71 0 0 1 3,-13.75 l 20,8.91 a 35,35 0 0 1 17.7,46.24 z"
         id="path24"
         style="stroke-width:0.133333" />
      <path
         class="cls-11"
         d="m 354.24,258.6 v 0 21.86 a 35,35 0 0 1 -35,35 v 0 -21.86 a 35,35 0 0 1 35,-35 z"
         transform="rotate(149.79,336.72886,287.04852)"
         id="path25"
         style="stroke-width:0.133333" />
      <path
         class="cls-12"
         d="M 335.92,320.41 334.49,318 a 35,35 0 0 0 2.14,-38.48 L 327.06,263 a 34.7,34.7 0 0 1 10.5,-9.38 l 11,18.89 a 35,35 0 0 1 -12.64,47.9 z"
         id="path26"
         style="stroke-width:0.133333" />
      <circle
         class="cls-13"
         cx="98.199997"
         cy="174.69"
         r="7.1100001"
         id="circle26"
         style="stroke-width:0.133333" />
      <circle
         class="cls-13"
         cx="126.63"
         cy="133.82001"
         r="7.1100001"
         id="circle27"
         style="stroke-width:0.133333" />
      <circle
         class="cls-13"
         cx="216.07001"
         cy="66.269997"
         r="7.1100001"
         id="circle28"
         style="stroke-width:0.133333" />
      <circle
         class="cls-13"
         cx="307.51999"
         cy="73.370003"
         r="7.1100001"
         id="circle29"
         style="stroke-width:0.133333" />
      <circle
         class="cls-13"
         cx="103.21"
         cy="275.5"
         r="7.1100001"
         id="circle30"
         style="stroke-width:0.133333" />
      <circle
         class="cls-13"
         cx="208.97"
         cy="364.34"
         r="7.1100001"
         id="circle31"
         style="stroke-width:0.133333" />
      <circle
         class="cls-13"
         cx="103.21"
         cy="201.69"
         r="5.02"
         id="circle32"
         style="stroke-width:0.133333" />
      <circle
         class="cls-13"
         cx="98.199997"
         cy="253.66"
         r="5.02"
         id="circle33"
         style="stroke-width:0.133333" />
      <circle
         class="cls-13"
         cx="133.74001"
         cy="308.73001"
         r="5.02"
         id="circle34"
         style="stroke-width:0.133333" />
      <circle
         class="cls-13"
         cx="158.73"
         cy="352.20999"
         r="5.02"
         id="circle35"
         style="stroke-width:0.133333" />
      <circle
         class="cls-13"
         cx="315.32999"
         cy="362.23999"
         r="5.02"
         id="circle36"
         style="stroke-width:0.133333" />
      <circle
         class="cls-13"
         cx="267.54001"
         cy="382.73001"
         r="5.02"
         id="circle37"
         style="stroke-width:0.133333" />
      <circle
         class="cls-13"
         cx="380.01001"
         cy="308.73001"
         r="5.02"
         id="circle38"
         style="stroke-width:0.133333" />
      <circle
         class="cls-13"
         cx="371.23001"
         cy="327.12"
         r="5.02"
         id="circle39"
         style="stroke-width:0.133333" />
      <circle
         class="cls-13"
         cx="412.20999"
         cy="181.8"
         r="5.02"
         id="circle40"
         style="stroke-width:0.133333" />
      <circle
         class="cls-13"
         cx="390.04999"
         cy="133.82001"
         r="5.02"
         id="circle41"
         style="stroke-width:0.133333" />
      <circle
         class="cls-13"
         cx="163.74001"
         cy="83.769997"
         r="5.02"
         id="circle42"
         inkscape:label="circle42"
         style="stroke-width:0.133333" />
    </g>
  </g>
  <metadata
     id="metadata42">
    <rdf:RDF>
      <cc:Work
         rdf:about="">
        <dc:title>Food</dc:title>
      </cc:Work>
    </rdf:RDF>
  </metadata>
</svg>
