<?xml version="1.0" encoding="UTF-8" standalone="no"?>
<!-- Created with Inkscape (http://www.inkscape.org/) -->

<svg
   version="1.1"
   id="svg1"
   width="5461.3335"
   height="5461.3335"
   viewBox="0 0 5461.3335 5461.3335"
   sodipodi:docname="logo.inkscape.svg"
   inkscape:version="1.4.1 (93de688d07, 2025-03-30)"
   inkscape:export-filename="../favicon/android-chrome-512x512.png"
   inkscape:export-xdpi="9"
   inkscape:export-ydpi="9"
   xmlns:inkscape="http://www.inkscape.org/namespaces/inkscape"
   xmlns:sodipodi="http://sodipodi.sourceforge.net/DTD/sodipodi-0.dtd"
   xmlns="http://www.w3.org/2000/svg"
   xmlns:svg="http://www.w3.org/2000/svg">
  <defs
     id="defs1">
    <filter
       style="color-interpolation-filters:sRGB;"
       inkscape:label="Colorize"
       id="filter2"
       x="0"
       y="0"
       width="1"
       height="1">
      <feComposite
         in2="SourceGraphic"
         operator="arithmetic"
         k1="0"
         k2="1"
         result="composite1"
         id="feComposite1" />
      <feColorMatrix
         in="composite1"
         values="1"
         type="saturate"
         result="colormatrix1"
         id="feColorMatrix1" />
      <feFlood
         flood-opacity="1"
         flood-color="rgb(0,0,0)"
         result="flood1"
         id="feFlood1" />
      <feBlend
         in="flood1"
         in2="colormatrix1"
         mode="multiply"
         result="blend1"
         id="feBlend1" />
      <feBlend
         in2="blend1"
         mode="screen"
         result="blend2"
         id="feBlend2" />
      <feColorMatrix
         in="blend2"
         values="1"
         type="saturate"
         result="colormatrix2"
         id="feColorMatrix2" />
      <feComposite
         in="colormatrix2"
         in2="SourceGraphic"
         operator="in"
         k2="1"
         result="composite2"
         id="feComposite2" />
    </filter>
  </defs>
  <sodipodi:namedview
     id="namedview1"
     pagecolor="#ffffff"
     bordercolor="#000000"
     borderopacity="0.25"
     inkscape:showpageshadow="2"
     inkscape:pageopacity="0.0"
     inkscape:pagecheckerboard="0"
     inkscape:deskcolor="#d1d1d1"
     showgrid="false"
     inkscape:zoom="0.045578577"
     inkscape:cx="-1228.6474"
     inkscape:cy="1755.2106"
     inkscape:window-width="1920"
     inkscape:window-height="1054"
     inkscape:window-x="0"
     inkscape:window-y="0"
     inkscape:window-maximized="0"
     inkscape:current-layer="layer1" />
  <g
     inkscape:groupmode="layer"
     id="layer1"
     inkscape:label="Content">
    <g
       id="g2"
       inkscape:label="logo">
      <path
         style="display:inline;fill:#ffffff;fill-opacity:1"
         d="m 2642,5459.9622 c -55.4672,-1.4805 -94.1281,-4.2043 -169,-11.9067 -10.725,-1.1033 -28.5,-2.9308 -39.5,-4.0611 -11,-1.1304 -27.2,-2.7194 -36,-3.5311 -8.8,-0.8118 -17.125,-1.707 -18.5,-1.9893 -1.375,-0.2822 -9.475,-1.3768 -18,-2.4324 -37.5064,-4.6439 -87.8597,-12.5468 -127,-19.9324 -5.775,-1.0897 -13.2,-2.4832 -16.5,-3.0967 -10.905,-2.0271 -45.8508,-9.1198 -54.5,-11.0615 -4.675,-1.0495 -13.9,-3.07 -20.5,-4.49 -6.6,-1.42 -13.575,-3.0032 -15.5,-3.5183 -1.925,-0.5151 -10.25,-2.502 -18.5,-4.4154 -35.965,-8.3412 -89.931,-22.2702 -117,-30.1986 -2.75,-0.8055 -7.475,-2.1466 -10.5,-2.9804 -3.025,-0.8337 -12.25,-3.5473 -20.5,-6.0301 -8.25,-2.4829 -16.575,-4.9471 -18.5,-5.476 -1.925,-0.5289 -6.2,-1.8038 -9.5,-2.833 -3.3,-1.0292 -12.75,-3.976 -21,-6.5485 -36.4693,-11.3718 -93.8886,-30.9846 -128.5,-43.892 -1.925,-0.7179 -8.45,-3.1166 -14.5,-5.3306 -6.05,-2.214 -12.125,-4.5099 -13.5,-5.1021 -1.375,-0.5921 -10.15,-4.0467 -19.5,-7.6767 -35.535,-13.7962 -83.385,-33.6388 -106.5,-44.1638 -3.025,-1.3773 -13.825,-6.2426 -24,-10.8116 -17.9347,-8.0536 -27.3493,-12.398 -52.5,-24.2267 -46.4604,-21.8507 -122.952,-61.9561 -176.5,-92.5408 -81.647,-46.6337 -174.1576,-105.9834 -239.7001,-153.7783 -5.6101,-4.0909 -13.0226,-9.4631 -16.4724,-11.9381 -66.6588,-47.824 -170.94318,-133.113 -232.3275,-190.0091 -2.75,-2.549 -8.6,-7.9499 -13,-12.0021 C 780.77536,4647.673 681.18959,4540.5436 598.4241,4437 c -38.77218,-48.5058 -63.79766,-82.0111 -110.17113,-147.5021 -10.22121,-14.435 -54.25732,-81.0091 -67.46753,-101.9979 -38.8004,-61.6475 -80.35446,-134.0865 -112.72065,-196.5 -16.69987,-32.2033 -45.54604,-90.9102 -54.04951,-110 -2.08246,-4.675 -5.89697,-13 -8.47669,-18.5 -17.51431,-37.3407 -43.47294,-99.6777 -68.30341,-164.0236 C 139.89684,3601.7175 96.116995,3458.6233 73.524877,3359.5 c -1.504267,-6.6 -3.116986,-13.35 -3.58382,-15 -0.466834,-1.65 -2.004191,-8.4 -3.41635,-15 -1.412159,-6.6 -3.432503,-15.825 -4.489654,-20.5 -2.136013,-9.446 -12.698226,-62.0915 -16.050323,-80 -1.183908,-6.325 -2.833096,-15.0545 -3.664862,-19.3989 -0.831766,-4.3444 -2.133038,-11.7694 -2.891716,-16.5 -0.758677,-4.7306 -2.308869,-14.2261 -3.44487,-21.1011 -8.503159,-51.4605 -17.769415,-120.4836 -21.009923,-156.5 -0.593823,-6.6 -1.252672,-12.675 -1.46411,-13.5 -0.211437,-0.825 -0.878672,-8.25 -1.482743,-16.5 -0.604071,-8.25 -1.525312,-19.05 -2.0472006,-24 -0.521889,-4.95 -1.6425954,-19.575 -2.4904586,-32.5 -0.8478632,-12.925 -1.9945657,-30.025 -2.5482278,-38 -1.0978422,-15.8134 -2.489734,-45.759 -3.9043842,-84 -2.3729365,-64.1456 -0.36656571,-184.514 4.0254612,-241.5 0.5510653,-7.15 1.869576,-24.7 2.9300237,-39 1.9834702,-26.7468 4.5994723,-56.3193 5.5287883,-62.5 0.289441,-1.925 1.400563,-12.5 2.469161,-23.5 3.457366,-35.5897 5.073274,-50.9685 5.516355,-52.5 0.382417,-1.3218 6.286599,-41.5549 9.978968,-68 3.878736,-27.7799 11.964209,-78.0602 14.472714,-90 0.519989,-2.475 2.119522,-10.8 3.554519,-18.5 4.661628,-25.0137 13.19028,-65.9505 18.854508,-90.5 6.552527,-28.3995 18.35945,-75.7359 23.820208,-95.5 1.671594,-6.05 3.378141,-12.35 3.792327,-14 2.302438,-9.1723 13.712362,-48.0664 24.055392,-82 17.24327,-56.572 43.92401,-132.5693 68.63518,-195.5 13.23327,-33.7005 25.9592,-64.8805 32.85559,-80.5 0.72852,-1.65 4.33482,-9.975 8.014,-18.5 3.67918,-8.525 7.81323,-17.975 9.18678,-21 1.37355,-3.025 5.40592,-12.025 8.96083,-20 13.10936,-29.4093 52.61634,-108.9097 74.54102,-150 C 411.03155,1277.5685 514.92241,1123.4727 636.40363,978 738.88247,855.28251 859.72981,734.779 983,632.38975 c 25.2166,-20.94514 65.5895,-53.2503 85,-68.01447 7.975,-6.066 18.55,-14.10908 23.5,-17.87352 10.7223,-8.15422 49.4955,-36.43529 61.5,-44.85788 33.0491,-23.188 37.4921,-26.219 70.5,-48.09541 28.8873,-19.1454 37.1103,-24.46377 63.2626,-40.916 35.6672,-22.43798 97.0475,-58.18849 139.7374,-81.38909 74.9471,-40.73133 159.1867,-81.49704 232.5,-112.51278 31.1213,-13.1661 35.4802,-14.96818 57.6693,-23.84205 53.4199,-21.3637 97.8849,-37.51687 155.3307,-56.42823 38.2407,-12.58895 67.2789,-21.60611 98,-30.43166 7.975,-2.29106 17.425,-5.00581 21,-6.03278 28.4771,-8.18047 86.9408,-23.059706 130,-33.085514 4.675,-1.088516 10.3,-2.408016 12.5,-2.932224 3.9525,-0.941787 25.4266,-5.564204 39,-8.394978 3.85,-0.802927 11.275,-2.36301 16.5,-3.466852 15.3925,-3.251836 67.1205,-13.042427 77.5,-14.668475 2.2,-0.34465 7.375,-1.234049 11.5,-1.976443 4.125,-0.742394 13.4625,-2.277164 20.75,-3.410601 7.2875,-1.133436 18.9875,-2.952695 26,-4.042798 7.0125,-1.090102 19.725,-2.913018 28.25,-4.050924 8.525,-1.137905 20.225,-2.713616 26,-3.50158 19.9002,-2.71526 50.2054,-5.77166 103.5,-10.438385 12.65,-1.107694 24.125,-2.2371348 25.5,-2.5098699 1.375,-0.2727351 13.075,-1.1798877 26,-2.0158946 12.925,-0.836007 29.575,-1.9762378 37,-2.5338463 7.425,-0.5576084 23.85,-1.4512698 36.5,-1.985914 12.65,-0.5346442 30.65,-1.4026853 40,-1.9289801 20.8527,-1.17375954 122.3203,-1.19862233 158.5,-0.038837 33.6091,1.0773806 92.2529,3.7769609 97.5,4.4882637 2.2,0.2982372 15.25,1.426554 29,2.5073708 44.5514,3.5019534 61.5687,4.9830204 86,7.4848254 35.3255,3.617383 51.3273,5.409359 57.5,6.439177 3.025,0.504673 8.2,1.201385 11.5,1.548249 10.3284,1.085625 60.7959,8.465133 85,12.428952 20.1738,3.303803 24.5997,4.060444 35.75,6.111741 5.9125,1.087712 15.8125,2.907579 22,4.04415 27.1524,4.987578 82.958,16.419932 97.25,19.922664 2.2,0.539185 13.9,3.273809 26,6.076942 32.0846,7.432846 77.5808,19.041674 107.5,27.429736 5.225,1.464865 12.425,3.471065 16,4.458215 17.335,4.78663 56.2215,16.49624 81.5,24.54148 39.4525,12.55632 89.2825,29.57686 114,38.93923 3.85,1.45829 11.725,4.38128 17.5,6.49555 15.2768,5.59294 58.7833,22.66371 75.5,29.62415 4.4,1.83206 15.2,6.32274 24,9.9793 8.8,3.65656 17.35,7.24452 19,7.97324 1.65,0.72872 12.45,5.48032 24,10.55912 59.5682,26.19349 131.9055,61.37051 185,89.96404 11.55,6.22013 23.925,12.87697 27.5,14.79297 20.1166,10.78135 72.2001,40.85126 103,59.46604 138.6581,83.80189 276.6523,185.7489 399.4929,295.13634 32.4423,28.88937 71.0488,65.62419 121.0646,115.19531 15.4447,15.30736 66.8103,68.66404 72.9425,75.7699 0.55,0.63733 5.5177,6.09764 11.0394,12.13403 40.5188,44.29574 87.8116,100.43241 128.851,152.94655 15.8563,20.2898 50.4834,66.1761 58.8998,78.0514 3.1096,4.3875 9.6039,13.4893 14.4318,20.2262 63.6759,88.8538 132.882,200.4763 183.0561,295.2511 2.7661,5.225 8.0304,15.125 11.6985,22 7.4881,14.0349 39.5153,78.133 46.7182,93.5 2.5779,5.5 7.1887,15.3037 10.2462,21.786 3.0574,6.4824 5.559,11.9438 5.559,12.1365 0,0.1927 1.9524,4.564 4.3387,9.714 2.3863,5.1499 5.3725,11.6135 6.636,14.3635 3.3223,7.2306 18.6827,42.6143 22.5737,52 1.8241,4.4 5.3942,12.95 7.9337,19 10.6878,25.4629 27.6482,68.8449 40.9084,104.6373 11.7664,31.7602 30.8798,88.2286 42.0942,124.3627 2.5605,8.25 5.0386,16.125 5.5069,17.5 0.4683,1.375 2.2721,7.45 4.0084,13.5 1.7363,6.05 3.5445,12.125 4.0182,13.5 0.4737,1.375 2.9421,9.925 5.4852,19 2.5432,9.075 5.477,19.425 6.5197,23 7.5575,25.9128 23.4858,89.6038 32.5112,130 0.7988,3.575 2.3353,10.325 3.4147,15 2.7914,12.0911 14.3315,70.0009 18.433,92.5 2.9756,16.3226 6.1787,35.3462 13.1332,78 2.1844,13.3973 7.3253,50.3746 11.9566,86 0.858,6.6 2.2317,18.525 3.0525,26.5 0.8209,7.975 1.7208,15.85 1.9999,17.5 0.6469,3.8257 3.007,30.2335 5.4517,61 1.0488,13.2 2.3741,29.85 2.9451,37 5.4203,67.8767 7.5732,181.3363 5.0549,266.4045 -1.0105,34.1319 -4.4852,108.3455 -5.4825,117.0955 -0.2821,2.475 -1.1816,13.275 -1.9989,24 -2.9365,38.5318 -9.5833,98.2854 -16.4076,147.5 -3.8057,27.4457 -6.0574,42.3066 -11.5909,76.5 -2.3995,14.8268 -6.2822,37.03 -9.0059,51.5 -1.4493,7.7 -3.0139,16.25 -3.4769,19 -0.9962,5.9183 -7.2709,37.1915 -10.0321,50 -1.067,4.95 -3.0804,14.4 -4.4741,21 -1.3938,6.6 -2.9714,13.8 -3.5058,16 -0.5345,2.2 -3.4718,14.8 -6.5274,28 -6.0692,26.2186 -18.6261,76.0038 -23.9612,95 -3.3632,11.9752 -6.9706,24.6453 -12.67,44.5 -5.8815,20.4893 -14.8533,49.2351 -26.2169,84 -8.2379,25.2022 -29.0369,83.4248 -40.1887,112.5 -3.1643,8.25 -6.7716,17.7 -8.0162,21 -2.0923,5.5475 -12.4814,31.3822 -20.7101,51.5 -9.119,22.2946 -25.2105,59.6833 -34.4307,80 -1.3728,3.025 -4.4242,9.775 -6.7809,15 -4.0838,9.0542 -7.8002,17.0808 -18.2891,39.5 -13.9327,29.7802 -52.2534,105.0813 -68.3512,134.3117 -1.7229,3.1286 -5.8588,10.6383 -9.1907,16.6883 -33.0473,60.0059 -71.0024,122.4046 -112.2253,184.5 -23.8553,35.934 -26.6845,40.0997 -42.787,63 -77.6533,110.4353 -162.6045,213.7148 -259.0833,314.9807 -33.2647,34.9153 -94.3198,94.3965 -135.1021,131.6195 -70.9449,64.7532 -154.3233,132.514 -235.5138,191.3998 -37.2763,27.0358 -47.5083,34.1557 -86.9566,60.509 -34.6085,23.1201 -40.006,26.6328 -65,42.3022 -7.425,4.6549 -15.075,9.4806 -17,10.7236 -4.4166,2.8521 -13.2403,8.1772 -33.5,20.2173 -8.8,5.2297 -19.15,11.4179 -23,13.7515 -12.8682,7.7999 -58.3955,33.4636 -78,43.9687 -3.85,2.063 -10.825,5.8153 -15.5,8.3384 -28.7699,15.5275 -97.2729,49.8915 -126.6016,63.5088 -7.756,3.601 -17.656,8.1976 -22,10.2146 -48.2361,22.3963 -122.8401,53.3597 -176.8984,73.4193 -12.1,4.49 -24.25,9.0106 -27,10.0458 -30.6033,11.5199 -109.0361,37.3862 -145.5,47.9843 -4.125,1.1989 -10.2,3.0146 -13.5,4.0348 -3.3,1.0202 -11.85,3.4818 -19,5.4702 -7.15,1.9884 -16.825,4.6955 -21.5,6.0157 -23.2417,6.5636 -87.8503,23.0325 -106,27.0198 -3.575,0.7854 -11.45,2.5708 -17.5,3.9675 -11.4301,2.6389 -27.1937,6.1117 -43.5,9.5834 -5.225,1.1124 -12.425,2.6574 -16,3.4333 -5.4892,1.1914 -25.1329,4.9913 -62,11.9936 -7.6061,1.4446 -52.2018,8.9761 -70.5,11.9062 -13.0227,2.0853 -27.4376,4.1568 -46,6.6104 -8.25,1.0904 -16.125,2.204 -17.5,2.4745 -7.5843,1.492 -90.7367,10.1415 -125,13.0024 -10.175,0.8495 -23,2.0104 -28.5,2.5797 -5.5,0.5693 -19.9,1.4497 -32,1.9564 -12.1,0.5067 -27.4,1.3822 -34,1.9457 -31.332,2.6748 -155.2419,3.7803 -222.5,1.9851 z"
         id="path2"
         inkscape:label="background" />
      <path
         style="display:inline;fill:#55bd59;stroke:none"
         d="m 2657.3334,0.56575523 c -32.3507,4.24934907 -66.0719,2.65527347 -98.6667,4.88671887 -54.7241,3.7464194 -109.3885,9.2906909 -164,14.7727869 C 2253.5635,34.389649 2112.1609,67.084637 1976.0001,105.90332 1322.1389,292.31609 750.38332,729.53746 397.60393,1310.6667 c -153.28158,252.499 -267.61772,531.4414 -331.704753,820 -123.786442,557.3617 -70.9848705,1147.6166 153.337443,1673.3334 94.85148,222.2917 219.52881,431.4388 369.04428,621.3334 170.59494,216.6666 375.74655,407.0745 603.7191,562.2077 265.8729,180.9244 563.9854,314.5954 876.0001,392.5989 325.0791,81.2696 666.4567,102.1478 998.6667,60.8138 728.3584,-90.6233 1396.4681,-477.6575 1841.4876,-1060.9538 177.3152,-232.4101 312.9861,-494.8939 408.7201,-770.6667 91.7927,-264.4199 137.6107,-546.3255 144.4395,-825.3333 C 5480.4787,2000.9603 5141.3709,1227.5013 4561.3335,702.89292 4265.755,435.55991 3912.0717,238.05795 3532.0001,119.96615 3337.3702,59.49284 3135.1013,22.11198 2932.0001,7.8808596 2866.6964,3.3050131 2801.5652,0 2736.0001,0 2710.3095,0 2682.803,-2.779297 2657.3334,0.56575523 M 833.33336,3964.0001 v -408 -102.6667 c 0,-9.1364 -3.80436,-29.4713 3.09049,-36.319 8.02531,-7.97 20.65015,-13.4681 30.24284,-19.4248 19.61353,-12.179 39.06828,-24.6149 58.66667,-36.8209 58.30559,-36.3135 116.36104,-73.0199 174.66664,-109.3334 184.3077,-114.789 367.4382,-231.4671 552,-345.8457 67.7595,-41.9925 135.1363,-84.6354 202.6667,-126.9899 15.9893,-10.028 31.9794,-20.057 48,-30.0348 6.8044,-4.238 15.7425,-7.4899 15.9681,-16.57 0.3731,-15.0153 -22.3947,-22.8796 -33.3014,-29.753 -37.2591,-23.4801 -74.2782,-47.5143 -112,-70.2418 -154.4331,-93.0456 -305.8378,-191.5589 -458.6667,-287.2325 -116.9087,-73.1868 -234.6458,-145.2568 -350.66667,-219.8447 -30.84961,-19.8327 -62.26075,-38.8353 -93.33334,-58.3232 -9.74316,-6.1107 -30.21606,-14.1179 -35.96297,-24.1797 -5.53272,-9.6869 -1.37036,-31.3776 -1.37036,-42.4199 v -106.6667 -394.6667 c 14.97876,4.7728 29.59668,17.5254 42.66667,26.2223 23.80249,15.8389 48.05818,31.0215 72,46.6521 78.47567,51.233 157.21027,102.1191 235.99997,152.8694 257.7481,166.0218 514.2541,333.9795 772.0001,500 107.7018,69.3734 215.7073,138.4047 322.6666,208.9187 31.3903,20.6943 63.2756,40.6383 94.6667,61.3333 11.679,7.6996 30.3522,15.1992 39.1955,26.0423 4.833,5.9261 2.1378,20.0397 2.1378,27.2953 v 72 225.3333 65.3334 c 0,7.9912 2.3171,20.3141 -0.8045,27.7539 -3.7524,8.9436 -20.707,15.5986 -28.5288,20.705 -25.7349,16.8008 -51.6746,33.2871 -77.3333,50.2038 -99.4523,65.5671 -200.7357,128.3763 -300,194.2272 -246.5805,163.5795 -496.5645,322.4691 -745.3334,482.6996 -93.4832,60.2119 -186.5171,121.1214 -280,181.3333 -49.52499,31.8988 -97.86931,67.7575 -149.33334,96.4105 M 4448.0001,1561.7139 c 94.2077,-11.153 176.4323,65.8636 185.1071,156.9528 3.2002,33.6026 0.2263,68.9017 0.2263,102.6667 v 204 614.6667 c 0,80.7835 8.2767,163.1816 -60,221.1543 -12.4323,10.556 -26.4489,19.2132 -41.3334,25.8714 -17.7451,7.9378 -36.6858,12.2419 -56,14.0811 -93.8974,8.9433 -175.0514,-65.5196 -183.7737,-157.1068 -3.2002,-33.6026 -0.2263,-68.9017 -0.2263,-102.6667 v -201.3333 -612 c 0,-76.5378 -11.0947,-164.4376 53.3386,-220.7663 14.0114,-12.2491 28.6419,-22.0222 45.3281,-30.2256 18.0228,-8.8607 37.5202,-12.9486 57.3333,-15.2943 m -1732,316 c 23.4066,-2.7711 48.4274,-0.3805 72,-0.3805 h 140 432 264 c 45.7015,0 96.5013,-6.1563 141.3333,3.5495 21.711,4.7002 43.0915,13.5856 61.3334,26.3681 85.5879,59.9737 98.428,187.4161 23.8808,261.9633 -18.8421,18.8421 -42.7698,32.7679 -67.8808,41.3473 -32.0638,10.9547 -66.6869,8.1051 -100,8.1051 h -158.6667 -546.6667 -189.3333 c -39.1485,0 -79.9875,3.7731 -117.3334,-10.4186 -113.8569,-43.2663 -147.8709,-194.8044 -61.214,-281.4622 28.8228,-28.823 66.6222,-44.3454 106.5474,-49.072 m 316,682.6667 c 94.1914,-11.151 176.4342,65.8841 185.1071,156.9528 3.2002,33.6022 0.2262,68.9017 0.2262,102.6667 v 204 614.6667 c 0,79.8398 8.5124,162.3415 -58.6666,219.999 -12.9584,11.1214 -27.2364,19.7249 -42.6667,26.9587 -17.5091,8.2083 -36.8337,12.3235 -56,14.1491 -93.8744,8.9414 -175.0531,-65.5352 -183.7738,-157.1068 -3.2002,-33.6026 -0.2262,-68.9017 -0.2262,-102.6667 v -202.6667 -612 c 0,-76.2057 -10.7917,-163.3691 53.3385,-219.4329 14.0101,-12.2481 28.6403,-22.0271 45.3282,-30.2256 17.9918,-8.8392 37.5673,-12.9541 57.3333,-15.2943 m 733.3333,682.667 c 23.4063,-2.7711 48.4275,-0.3808 72,-0.3808 h 141.3334 432 262.6667 c 45.7011,0 96.5016,-6.1566 141.3333,3.5494 21.7721,4.7136 43.0335,13.545 61.3333,26.3685 85.5772,59.9668 98.4141,187.4304 23.8809,261.9629 -18.8421,18.8418 -42.7695,32.7696 -67.8809,41.3477 -32.457,11.0872 -67.6119,8.1048 -101.3333,8.1048 h -160 -550.6667 -184 c -41.0752,0 -82.4547,3.2721 -121.3333,-12.6029 -110.7718,-45.2311 -140.3197,-194.8398 -55.8809,-279.278 28.8233,-28.8229 66.6221,-44.345 106.5475,-49.0716 z"
         id="path1"
         inkscape:label="green" />
    </g>
  </g>
</svg>
