<?xml version="1.0" encoding="UTF-8"?>
<svg width="3840" height="3840" version="1.1" viewBox="0 0 1016 1016" xml:space="preserve" xmlns="http://www.w3.org/2000/svg"><g><circle cx="508" cy="508" r="396.88" fill="#fff" stroke-width=".043753"/></g><g transform="translate(-2.7344e-6)" stroke-width="1.0001"><path d="m490.22 3.4591c-47.407-6.7724-94.813 0-137.14 23.703l-157.46 82.961c-40.634 22.01-74.496 57.565-94.813 99.892l-77.882 159.15c-20.317 42.327-28.783 91.427-18.624 138.83l30.476 174.39c8.4655 45.713 32.169 89.734 64.337 121.9l126.98 123.6c33.862 33.862 77.882 54.179 125.29 60.951l174.39 23.703c47.407 6.7724 94.813 0 137.14-23.703l157.46-82.961c40.634-22.01 74.496-57.565 94.813-99.892l77.882-159.15c20.317-42.327 28.783-91.427 18.624-137.14l-30.476-176.08c-8.4655-45.713-32.169-89.734-64.337-121.9l-126.98-123.6c-33.862-32.169-77.882-54.179-125.29-60.951zm-84.655 267.51c37.248 0 69.417 30.476 69.417 67.724 0 37.248-32.169 67.724-69.417 67.724-35.555 0-66.031-30.476-66.031-67.724 0-37.248 30.476-67.724 66.031-67.724zm-135.45 406.34c0-37.248 32.169-67.724 69.417-67.724 37.248 0 66.031 30.476 66.031 67.724 0 37.248-28.783 67.724-66.031 67.724-37.248 0-69.417-30.476-69.417-67.724zm475.76-135.45c35.555 0 66.031 30.476 66.031 67.724 0 37.248-30.476 67.724-66.031 67.724-37.248 0-69.417-30.476-69.417-67.724 0-37.248 32.169-67.724 69.417-67.724z" fill="#ecd6c6" stroke-dashoffset="1536" stroke-linecap="round" stroke-linejoin="round" stroke-width="5.2917" aria-label=""/><path d="m510.54 25.468c-1.6931-11.852-8.4655-20.317-20.317-22.01-47.407-6.7724-94.813 0-137.14 23.703l-157.46 82.962c-40.634 22.01-74.496 57.565-94.813 99.893l-77.882 159.15c-20.317 42.327-28.783 91.427-18.624 138.83l30.476 174.39c8.4655 45.714 32.169 89.734 64.338 121.9l126.98 123.6c33.862 33.862 77.882 54.179 125.29 60.951l174.39 23.703c47.407 6.7725 94.813 0 137.14-23.703l157.46-82.962c40.634-22.01 74.496-57.565 94.813-99.893l77.882-159.15c20.317-42.327 28.782-91.427 18.624-137.14-1.6932-10.159-11.852-20.317-22.01-22.01-110.05-16.931-196.4-99.893-220.1-204.86-5.0793-16.931-18.624-30.476-33.862-32.169-116.82-18.624-206.56-108.36-225.18-225.18zm-104.97 245.5c37.248 0 69.417 30.476 69.417 67.724 0 37.248-32.169 67.724-69.417 67.724-35.555 0-66.031-30.476-66.031-67.724 0-37.248 30.476-67.724 66.031-67.724zm-135.45 406.34c0-37.248 32.169-67.724 69.417-67.724 37.248 0 66.031 30.476 66.031 67.724 0 37.248-28.783 67.724-66.031 67.724-37.248 0-69.417-30.476-69.417-67.724zm475.76-135.45c35.555 0 66.031 30.476 66.031 67.724 0 37.248-30.476 67.724-66.031 67.724-37.248 0-69.417-30.476-69.417-67.724 0-37.248 32.169-67.724 69.417-67.724z" fill="#c48a4f" aria-label=""/></g></svg>
