<?xml version="1.0" encoding="UTF-8" standalone="no"?>
<!-- Created with Inkscape (http://www.inkscape.org/) -->

<svg
   width="3840"
   height="3840"
   viewBox="0 0 1016 1016"
   version="1.1"
   id="svg1"
   inkscape:version="1.4.1 (93de688d07, 2025-03-30)"
   sodipodi:docname="logo.svg"
   xml:space="preserve"
   xmlns:inkscape="http://www.inkscape.org/namespaces/inkscape"
   xmlns:sodipodi="http://sodipodi.sourceforge.net/DTD/sodipodi-0.dtd"
   xmlns="http://www.w3.org/2000/svg"
   xmlns:svg="http://www.w3.org/2000/svg"><sodipodi:namedview
     id="namedview1"
     pagecolor="#ffffff"
     bordercolor="#000000"
     borderopacity="0.25"
     inkscape:showpageshadow="2"
     inkscape:pageopacity="0.0"
     inkscape:pagecheckerboard="0"
     inkscape:deskcolor="#d1d1d1"
     inkscape:document-units="px"
     inkscape:zoom="0.35355339"
     inkscape:cx="700.03571"
     inkscape:cy="1202.0815"
     inkscape:window-width="3840"
     inkscape:window-height="2134"
     inkscape:window-x="0"
     inkscape:window-y="0"
     inkscape:window-maximized="0"
     inkscape:current-layer="svg1"
     showguides="true"><sodipodi:guide
       position="0,508"
       orientation="0,1"
       id="guide1"
       inkscape:locked="false"
       inkscape:label=""
       inkscape:color="rgb(0,134,229)" /><sodipodi:guide
       position="406.4,1016"
       orientation="-1,0"
       id="guide2"
       inkscape:locked="false"
       inkscape:label=""
       inkscape:color="rgb(0,134,229)" /><sodipodi:guide
       position="508,1016"
       orientation="-1,0"
       id="guide3"
       inkscape:locked="false"
       inkscape:label=""
       inkscape:color="rgb(0,134,229)" /><sodipodi:guide
       position="609.6,1016"
       orientation="-1,0"
       id="guide4"
       inkscape:locked="false"
       inkscape:label=""
       inkscape:color="rgb(0,134,229)" /></sodipodi:namedview><defs
     id="defs1" /><g
     inkscape:groupmode="layer"
     id="layer2"
     inkscape:label="Background 1"
     inkscape:highlight-color="#ffffff"
     style="display:inline"><circle
       style="display:inline;fill:#ffffff;fill-opacity:1;stroke-width:0.0437526"
       id="path1-36-8"
       cx="508"
       cy="508"
       r="317.5"
       inkscape:label="circle" /></g><g
     inkscape:label="Background 2"
     inkscape:groupmode="layer"
     id="layer1"
     inkscape:highlight-color="#c4c44f"
     style="display:inline"><circle
       style="display:inline;fill:#c4c44f;fill-opacity:1;stroke-width:0.0350021"
       id="path1-36"
       cx="508"
       cy="508"
       r="254"
       inkscape:label="circle" /></g><g
     id="layer3-2"
     inkscape:label="Text"
     inkscape:highlight-color="#ffffff"
     style="display:inline"
     transform="translate(-2.7343756e-6)"><path
       d="m 666.73613,567.28147 1.33217,0.66608 c 0,-7.32692 0,-10.65734 0,-9.99126 v 5.32868 c -0.66609,1.99824 -1.33217,3.33042 -1.33217,3.9965 z m -198.49301,-9.32518 c 0,-18.65035 4.66259,-35.30245 13.32168,-50.62237 8.65909,-15.31994 20.6486,-27.30945 35.96853,-35.96853 15.31993,-8.6591 31.97203,-13.32168 49.95629,-13.32168 17.98427,0 35.30245,4.66258 49.9563,13.32168 15.31993,8.65909 27.30944,20.64859 36.63462,35.96853 9.32517,15.31992 13.98776,31.97202 13.98776,50.62237 V 458.04371 L 626.77109,338.1486 c -2.66434,-5.99476 -6.66084,-11.32342 -11.32343,-14.65384 C 610.119,319.49825 604.79032,317.5 597.4634,317.5 H 378.32179 c -6.66084,0 -12.6556,1.99825 -17.98426,5.99476 -4.6626,3.33042 -8.6591,8.65909 -11.32343,14.65384 l -40.63112,119.89511 v 159.86014 c 0,5.32867 1.99826,10.65734 5.99476,14.65384 3.9965,3.9965 7.993,5.99476 13.32167,5.99476 h 20.6486 c 5.32868,0 9.99126,-1.99826 13.98777,-5.99476 3.9965,-3.9965 5.99475,-9.32517 5.99475,-14.65384 v -19.98252 h 108.57168 c -5.99476,-12.6556 -8.65909,-25.97728 -8.65909,-39.96504 z M 408.29557,508 c 0,7.993 -2.66434,15.31993 -8.65909,21.31468 -5.99475,5.99476 -13.32168,8.65909 -21.98077,8.65909 -7.99301,0 -15.31993,-2.66433 -20.6486,-8.65909 -5.99475,-5.99475 -8.65909,-13.32168 -8.65909,-21.31468 0,-7.993 2.66434,-15.31993 8.65909,-21.31469 5.32867,-5.99475 12.65559,-8.65908 20.6486,-8.65908 8.65909,0 15.98602,3.33041 21.98077,9.32517 5.99475,5.99475 8.65909,12.65559 8.65909,20.6486 z m 219.1416,-70.6049 H 348.34801 l 29.97378,-89.25524 H 597.4634 Z M 705.369,661.86539 c 1.99824,1.33216 2.66433,3.33042 1.99824,5.99475 0,2.66433 -1.33216,4.66259 -3.33042,6.66084 l -20.6486,20.6486 c -1.33216,1.99825 -3.9965,3.33042 -5.99475,3.33042 -2.66434,0 -4.66259,-1.33217 -6.66084,-3.33042 l -81.26224,-82.5944 c -10.65734,4.66258 -21.98077,5.99475 -33.3042,3.33042 -11.32342,-2.66434 -21.31468,-8.6591 -29.97377,-17.31819 -8.65909,-7.99301 -13.98776,-18.65035 -15.98602,-31.30594 -2.66433,-11.98952 -0.66608,-23.97902 5.32868,-35.30245 l 39.29895,39.29895 26.64335,-26.64336 -39.29895,-39.29895 c 11.32343,-5.32867 23.31294,-6.66084 35.96853,-3.9965 12.6556,1.99825 22.64686,7.32692 31.30595,15.31993 7.99301,8.65909 13.32168,18.65035 15.98601,29.97378 2.66434,11.9895 1.99825,22.64685 -2.66433,32.63811 z"
       id="text3"
       style="font-size:1270px;font-family:'Hasklug Nerd Font Mono';-inkscape-font-specification:'Hasklug Nerd Font Mono';display:inline;fill:#ffffff;fill-opacity:1;stroke:#55be59;stroke-width:0;stroke-linecap:round;stroke-dashoffset:653.143"
       aria-label="󱠔"
       inkscape:label="nf-md-car_wrench" /><path
       d="m 895.77333,387.77334 94.82668,-35.56001 C 1007.5333,411.48 1016,463.97333 1016,508 c 0,62.65334 -11.8534,123.61334 -35.56,182.88001 L 889.00001,650.24 c -15.24001,32.17334 -22.01334,47.41333 -22.01334,47.41333 l 91.44,40.64001 C 931.33334,792.48001 895.77333,838.20001 853.44,878.84 c -42.33333,40.64 -89.74667,72.81333 -143.93333,94.82667 l -35.56,-93.13333 -47.41333,15.23999 35.55999,96.52 C 602.82667,1007.5333 552.02667,1016 508,1016 c -62.65333,0 -123.61333,-11.8534 -184.57333,-35.56 l 40.64,-89.74666 -47.41333,-22.01334 -40.64,89.74667 C 223.52,931.33334 176.10667,897.46666 135.46667,855.13333 94.826668,812.8 64.346668,763.69333 42.333336,711.2 l 93.133334,-35.56 -16.93333,-47.41333 -94.826671,35.56 C 6.7733359,604.52 2.7343756e-6,552.02667 2.7343756e-6,508 2.7343756e-6,445.34667 10.160002,384.38667 33.866669,325.12 l 93.133341,40.64 c 13.54666,-32.17333 20.32,-49.10666 20.32,-49.10666 L 55.880002,277.70667 C 82.973336,223.52 118.53334,177.80001 160.86667,137.16001 203.2,96.520005 250.61333,64.346666 304.8,42.333334 l 35.56001,93.133336 47.41333,-15.24 -35.56001,-96.520003 C 411.48,8.466667 462.28,0 508,0 568.96,0 629.92,11.853334 690.88001,35.56 L 650.24,125.30667 697.65333,147.32001 738.29334,57.573334 C 790.78667,84.666666 838.20001,118.53334 878.84,160.86667 919.48,203.2 949.96,252.30667 971.97333,304.8 L 878.84,340.36001 Z M 624.84,789.09334 c 50.8,-20.32001 91.44,-52.49333 123.61333,-94.82667 33.86667,-42.33334 54.18667,-91.44 60.96,-145.62667 8.46667,-54.18666 1.69334,-106.67999 -20.31999,-157.47999 -20.32001,-50.8 -52.49333,-93.13333 -96.52,-125.30667 C 650.24,233.68001 602.82667,213.36 548.64,206.58667 c -54.18666,-6.77333 -106.67999,0 -157.47999,20.32 -50.8,20.32001 -93.13333,52.49334 -125.30667,94.82667 -33.86667,42.33333 -52.49334,91.43999 -60.96001,145.62666 -6.77332,54.18667 0,106.68 20.32001,157.48 22.01334,50.8 52.49333,93.13333 96.52,125.30666 C 364.06667,782.32 411.48,802.64 467.36,809.41333 c 54.18667,6.77334 106.68,0 157.48,-20.31999 z"
       id="text5"
       style="font-size:1682.38px;font-family:'Hasklug Nerd Font Mono';-inkscape-font-specification:'Hasklug Nerd Font Mono';display:inline;fill:#c4c44f;stroke-width:6.61458;stroke-linecap:round;stroke-dashoffset:1536"
       inkscape:label="nf-md-tire"
       aria-label="󱢖" /></g></svg>
