<?xml version="1.0" encoding="UTF-8"?>
<svg id="Icons" width="3840" height="3840" version="1.1" viewBox="0 0 3840 3840" xmlns="http://www.w3.org/2000/svg"><defs><style>.cls-1{fill:#b82065;}.cls-2{fill:#d7156f;}.cls-3{fill:#c2aacf;}.cls-4{fill:#decee5;}.cls-5{fill:#f4e6f4;}.cls-6{fill:#14a36d;}.cls-7{fill:#15be79;}.cls-8{fill:#33db92;}.cls-9{fill:#fff;}.cls-10{fill:#ebd9ea;}.cls-11{fill:#f39e22;}.cls-12{fill:#f9c744;}.cls-13{fill:#c44a1a;}.cls-14{fill:#0989d8;}.cls-15{fill:#29a3fb;}.cls-16{fill:#7ed0fc;}.cls-17{fill:#ed72ab;}</style></defs><title>019-beer-export</title><g><circle cx="1920" cy="1920" r="1920" fill="#b82065" stroke-dashoffset="1536" stroke-linecap="round" stroke-linejoin="round" stroke-width="20"/><path d="m0 1920c0-509.22 202.29-997.58 562.35-1357.6s848.43-562.35 1357.6-562.35 997.58 202.29 1357.6 562.35c360.07 360.07 562.36 848.43 562.36 1357.6 0 0-56.21-164.65-266.11-187.07-315.41-33.7-417.19-396.82-960.49-380.65-697.54 20.767-891.17 658.66-1210.7 703.1-403.85 56.169-754.92-340.25-943.34-345.17-270.44-7.0636-459.37 209.79-459.37 209.79z" fill="#d7156f" stroke-dashoffset="1536" stroke-linecap="round" stroke-linejoin="round" stroke-width="20"/><g><rect class="cls-3" transform="rotate(-75)" x="-2638.5" y="1129.5" width="112.05" height="946.61" rx="36.376"/><rect class="cls-4" transform="rotate(-75)" x="-2638.4" y="1251" width="112.05" height="825.11" rx="36.376"/><ellipse class="cls-5" transform="rotate(-75)" cx="-2571.6" cy="1628.3" rx="36.226" ry="120.08"/><ellipse class="cls-5" transform="rotate(-75)" cx="-2571.7" cy="1853.5" rx="23.401" ry="85.653"/><path class="cls-6" d="m1779.7 1691.6-255.01 952.54a510.02 510.02 0 0 1-109.2 204.31l-104.03 118.65-834.11-223.73-30.751-154.73a509.57 509.57 0 0 1 7.5003-231.53l255.01-952.54a510.02 510.02 0 0 1 109.2-204.31l104.25-118.43 833.96 223.21 30.751 154.81a509.57 509.57 0 0 1-7.5753 231.76z"/><path class="cls-7" d="m1779.7 1691.6-255.01 952.54a510.02 510.02 0 0 1-109.2 204.31l-104.03 118.65-708.63-190.06-30.826-154.81a510.62 510.62 0 0 1 7.5003-231.53l255.01-952.54a510.84 510.84 0 0 1 109.13-204.31l104.1-118.65 708.78 189.83 30.751 154.81a509.57 509.57 0 0 1-7.5753 231.76z"/><ellipse class="cls-8" transform="rotate(-58.74)" cx="-436.06" cy="2010.9" rx="124.8" ry="200.86"/><ellipse class="cls-8" transform="rotate(-.76)" cx="1628.9" cy="1735.3" rx="65.403" ry="119.1"/><path class="cls-9" d="m1700.5 1987.6-125.4-33.826c-18.526-193.51-143.93-360.01-329.34-409.82-185.41-49.802-377.34 31.951-490.14 190.28l-125.55-33.601-96.679 360.69 125.48 33.601c18.526 193.58 143.93 360.01 329.34 409.89 185.41 49.877 377.34-31.951 490.14-190.28l125.48 33.601z"/><rect class="cls-10" transform="rotate(15)" x="1048.7" y="1479.5" width="129.91" height="373.44"/><ellipse class="cls-11" transform="rotate(-75)" cx="-1666.3" cy="1602.8" rx="360.61" ry="331.81"/><ellipse class="cls-12" transform="rotate(-75)" cx="-1666.3" cy="1602.8" rx="269.19" ry="247.66"/><rect class="cls-13" transform="rotate(15)" x="1463.6" y="1511" width="275.19" height="72.978" rx="36.451"/><rect class="cls-13" transform="rotate(15)" x="1373.3" y="1642.6" width="455.87" height="72.978" rx="36.451"/><path class="cls-3" d="m1171.1 730.52-47.927 27.676a102.15 102.15 0 0 0-25.576 156.08l106.65 136.88a105 105 0 0 0 135.01 26.401 105 105 0 0 0 45.002-130.28l-65.252-160.81a102.15 102.15 0 0 0-147.91-55.952zm110.33 77.103a65.178 65.178 0 0 1-23.851 88.953l-33.826 19.576a65.178 65.178 0 0 1-89.028-23.626l-4.2002-7.5003a65.103 65.103 0 0 1 23.851-88.953l33.826-19.576a65.178 65.178 0 0 1 88.954 23.851z"/><rect class="cls-3" transform="rotate(-75)" x="-806.2" y="1129.5" width="112.05" height="946.61" rx="36.376"/><rect class="cls-4" transform="rotate(-75)" x="-806.23" y="1250.9" width="112.05" height="825.11" rx="36.376"/><ellipse class="cls-5" transform="rotate(-75)" cx="-739.43" cy="1628.2" rx="36.226" ry="120.08"/><ellipse class="cls-5" transform="rotate(-75)" cx="-739.39" cy="1853.5" rx="23.401" ry="85.653"/><rect class="cls-3" transform="rotate(-15)" x="1633.2" y="3520.3" width="946.61" height="112.05" rx="36.376"/><rect class="cls-4" transform="rotate(-15)" x="1754.8" y="3520.3" width="825.11" height="112.05" rx="36.376"/><ellipse class="cls-5" transform="rotate(-15)" cx="2131.9" cy="3565.6" rx="120.08" ry="36.226"/><ellipse class="cls-5" transform="rotate(-15)" cx="2357.2" cy="3565.6" rx="85.653" ry="23.401"/><path class="cls-14" d="m3130.8 1404.8 255.01 952.54a509.57 509.57 0 0 1 7.5004 231.53l-30.751 154.73-833.96 223.51-103.8-118.88a510.02 510.02 0 0 1-109.2-204.31l-255.01-952.54a509.57 509.57 0 0 1-7.5002-231.53l30.751-154.81 833.73-223.21 104.03 118.65a510.02 510.02 0 0 1 109.2 204.31z"/><path class="cls-15" d="m3130.8 1404.8 255.01 952.54a509.57 509.57 0 0 1 7.5004 231.53l-30.751 154.73-708.25 189.68-104.25-118.65a510.84 510.84 0 0 1-108.98-204.53l-255.01-952.54a510.62 510.62 0 0 1-7.5004-231.53l30.826-154.81 708.18-189.38 104.03 118.65a510.02 510.02 0 0 1 109.2 204.31z"/><ellipse class="cls-16" transform="rotate(-88.74)" cx="-1249.2" cy="2772.8" rx="124.8" ry="200.86"/><ellipse class="cls-16" transform="rotate(-30.76)" cx="1843.8" cy="2828.7" rx="65.403" ry="119.1"/><path class="cls-9" d="m3210.1 1700.6-125.48 33.601c-112.5-158.33-304.74-240.01-490.14-190.28-185.41 49.727-310.81 216.31-329.41 409.82l-125.4 33.826 96.679 360.69 125.48-33.601c112.5 158.33 304.74 240.01 490.14 190.28 185.41-49.727 310.81-216.31 329.34-409.89l125.48-33.601z"/><rect class="cls-10" transform="rotate(-15)" x="1552.4" y="2473.5" width="129.91" height="373.44"/><ellipse class="cls-11" transform="rotate(-15)" cx="2106.5" cy="2660.2" rx="331.81" ry="360.61"/><ellipse class="cls-12" transform="rotate(-15)" cx="2106.5" cy="2660.2" rx="247.66" ry="269.19"/><rect class="cls-13" transform="rotate(-15)" x="1967.3" y="2505" width="275.19" height="72.978" rx="36.451"/><rect class="cls-13" transform="rotate(-15)" x="1877" y="2636.5" width="455.87" height="72.978" rx="36.451"/><path class="cls-3" d="m2521.1 786.47-65.253 160.81a105 105 0 0 0 45.002 130.28 105 105 0 0 0 135.01-26.401l106.65-136.88a102.15 102.15 0 0 0-25.576-156.08l-47.927-27.676a102.15 102.15 0 0 0-147.91 55.952zm41.852 13.801a65.178 65.178 0 0 1 88.954-23.851l33.826 19.576a65.103 65.103 0 0 1 23.851 89.028l-4.2002 7.5003a65.178 65.178 0 0 1-89.028 23.851l-33.826-19.576a65.178 65.178 0 0 1-23.851-88.953z"/><rect class="cls-3" transform="rotate(-15)" x="1633.2" y="1688" width="946.61" height="112.05" rx="36.376"/><rect class="cls-4" transform="rotate(-15)" x="1754.7" y="1688.1" width="825.11" height="112.05" rx="36.376"/></g><ellipse class="cls-5" transform="rotate(-15.005)" cx="2142.5" cy="1738" rx="120.59" ry="36.38" stroke-width="1.0042"/><g><ellipse class="cls-5" transform="rotate(-15)" cx="2357.2" cy="1733.3" rx="85.653" ry="23.401"/><rect class="cls-17" x="1888.1" y="442.81" width="63.827" height="408.24" rx="31.951"/><rect class="cls-17" transform="rotate(-15)" x="1446.9" y="959.14" width="63.827" height="330.09" rx="31.951"/><rect class="cls-17" transform="rotate(-30)" x="898.59" y="1344.1" width="63.827" height="244.21" rx="31.951"/><rect class="cls-17" transform="rotate(195)" x="-2262.5" y="-295.33" width="63.827" height="330.09" rx="31.951"/><rect class="cls-17" transform="rotate(210)" x="-2427" y="331.73" width="63.827" height="244.21" rx="31.951"/></g></g></svg>
