<?xml version="1.0" encoding="UTF-8"?>
<svg width="3840" height="3840" version="1.1" viewBox="0 0 1016 1016" xml:space="preserve" xmlns="http://www.w3.org/2000/svg" xmlns:xlink="http://www.w3.org/1999/xlink"><defs><linearGradient id="linearGradient38" x2="1016" y1="508" y2="508" gradientUnits="userSpaceOnUse"><stop stop-color="#40bf80" offset="0"/><stop stop-color="#40bf80" stop-opacity=".5" offset="1"/></linearGradient><linearGradient id="linearGradient44" x1="404.21" x2="610.1" y1="508" y2="508" gradientUnits="userSpaceOnUse"><stop stop-color="#abbab3" stop-opacity=".5" offset="0"/><stop stop-color="#abbab3" offset="1"/></linearGradient><linearGradient id="linearGradient2" x1="261.32" x2="754.68" y1="508" y2="508" gradientTransform="matrix(1.0105 0 0 1.0105 -5.3472 -5.3472)" gradientUnits="userSpaceOnUse"><stop stop-color="#fff" stop-opacity=".5" offset="0"/><stop stop-color="#fff" offset="1"/></linearGradient></defs><g><path d="m914.4 660.4 101.6-101.6v-203.2c-28.787 15.24-50.8 23.707-67.733 25.4-13.547 0-23.707-3.3867-30.48-10.16-6.7733-6.7733-10.16-16.933-11.853-27.093l-3.3867-13.547v-149.01l-140.55-140.55c-6.7733 30.48-16.933 50.8-30.48 64.347-11.853 11.853-22.013 16.933-33.867 15.24-8.4667 0-16.933-3.3866-25.4-10.16l-11.853-10.16-103.29-99.907h-203.2c15.24 27.093 25.4 50.8 27.093 67.733 0 13.547-5.08 23.707-11.853 30.48-6.7734 6.7734-15.24 10.16-27.093 11.853l-13.547 1.6933h-149.01l-140.55 145.63c30.48 6.7733 52.493 16.933 66.04 28.787 10.16 10.16 15.24 18.627 15.24 28.787-1.6933 10.16-5.08 20.32-11.853 28.787l-8.4667 11.853-99.907 101.6v203.2c27.093-15.24 49.107-23.707 66.04-25.4 13.547 0 23.707 3.3867 30.48 10.16 6.7733 6.7733 10.16 16.933 11.853 27.093l3.3867 13.547v142.24l140.55 142.24c6.7733-28.787 16.933-49.107 30.48-60.96 11.853-10.16 22.013-15.24 33.867-15.24 8.4667 1.6933 16.933 5.08 25.4 11.853l11.853 10.16 103.29 99.907h203.2c-15.24-27.093-25.4-50.8-25.4-67.733 0-13.547 3.3867-23.707 10.16-30.48 6.7733-6.7733 15.24-10.16 27.093-11.853l13.547-1.6933h140.55l143.93-140.55c-28.787-8.4667-49.107-18.627-62.653-30.48-10.16-11.853-15.24-23.707-15.24-35.56 1.6934-8.4667 6.7734-16.933 13.547-25.4 3.3867-5.08 5.08-8.4666 8.4667-11.853zm-304.8-152.4c0 28.787-10.16 52.493-30.48 72.813-18.627 20.32-44.027 30.48-71.12 30.48-28.787 0-54.187-10.16-72.813-30.48-20.32-20.32-30.48-44.027-30.48-72.813 0-28.787 10.16-52.493 30.48-72.813 18.627-20.32 44.027-30.48 72.813-30.48 27.093 0 52.493 10.16 71.12 30.48 20.32 20.32 30.48 44.027 30.48 72.813z" fill="url(#linearGradient38)" stroke-dashoffset="1536" stroke-linecap="round" stroke-linejoin="round" stroke-width="1.0001" aria-label="󰹡"/><path d="m609.6 508c0 28.787-10.16 52.493-30.48 72.813-18.627 20.32-44.027 30.48-71.12 30.48-28.787 0-54.187-10.16-72.813-30.48-20.32-20.32-30.48-44.027-30.48-72.813 0-28.787 10.16-52.493 30.48-72.813 18.627-20.32 44.027-30.48 72.813-30.48 27.093 0 52.493 10.16 71.12 30.48 20.32 20.32 30.48 44.027 30.48 72.813z" fill="url(#linearGradient44)"/></g><g stroke-dasharray="1, 5"><path d="m611.57 535.13h-23.838l-60.006 61.65v22.194l142.21 141.39 84.666-82.201zm22.194-64.116 33.702-32.88 50.142 50.964c13.152-13.152 19.728-30.414 19.728-50.142 0-19.728-6.576-36.99-19.728-50.964l-83.844-83.845-33.702 33.702v-67.405l-16.44-16.44-84.666 83.845 17.262 16.44h67.404l-33.702 33.702 25.482 26.304-67.404 67.405-99.462-97.819v-33.702l-71.514-70.693-66.582 65.761 71.514 72.337h32.88l97.818 98.641-19.728 18.906h-50.142l-141.38 143.03 82.2 83.845 143.85-143.03v-50.142l121.66-121.66z" fill="url(#linearGradient2)" aria-label="󱌢"/></g></svg>
