<?xml version="1.0" encoding="UTF-8" standalone="no"?>
<svg
   viewBox="0 0 3840 3840"
   version="1.1"
   id="svg42"
   sodipodi:docname="logo.svg"
   inkscape:version="1.4.1 (93de688d07, 2025-03-30)"
   width="3840"
   height="3840"
   xml:space="preserve"
   xmlns:inkscape="http://www.inkscape.org/namespaces/inkscape"
   xmlns:sodipodi="http://sodipodi.sourceforge.net/DTD/sodipodi-0.dtd"
   xmlns="http://www.w3.org/2000/svg"
   xmlns:svg="http://www.w3.org/2000/svg"
   xmlns:rdf="http://www.w3.org/1999/02/22-rdf-syntax-ns#"
   xmlns:cc="http://creativecommons.org/ns#"
   xmlns:dc="http://purl.org/dc/elements/1.1/"><sodipodi:namedview
     id="namedview42"
     pagecolor="#ffffff"
     bordercolor="#000000"
     borderopacity="0.25"
     inkscape:showpageshadow="2"
     inkscape:pageopacity="0.0"
     inkscape:pagecheckerboard="0"
     inkscape:deskcolor="#d1d1d1"
     inkscape:zoom="0.10563298"
     inkscape:cx="1107.6086"
     inkscape:cy="6011.3802"
     inkscape:window-width="1918"
     inkscape:window-height="2132"
     inkscape:window-x="0"
     inkscape:window-y="0"
     inkscape:window-maximized="0"
     inkscape:current-layer="layer1" /><defs
     id="defs1"><style
       id="style1">.cls-1{fill:#5b9c95;}.cls-2{fill:#72392f;}.cls-3{fill:#5e302b;}.cls-4{fill:#7f3e37;}.cls-5{fill:#cc9458;}.cls-6{fill:#f0c788;}.cls-7{fill:#eaac2e;}.cls-8{fill:#da4d5d;}.cls-9{fill:#d63d55;}.cls-10{fill:#f6e0b8;}.cls-11{fill:#76c27d;}.cls-12{fill:#69aa6d;}.cls-13{fill:#c99028;}</style></defs><title
     id="title1">Food</title><g
     inkscape:groupmode="layer"
     id="layer1"
     inkscape:label="Background"
     inkscape:highlight-color="#c44f4f"
     style="display:inline"><circle
       style="fill:#c44f4f;stroke-width:20;stroke-linecap:round;stroke-linejoin:round;stroke-dashoffset:1536"
       id="path1"
       cx="1920"
       cy="1920"
       r="1920" /></g><g
     id="Icons"
     inkscape:label="Icon"
     inkscape:highlight-color="#fdbc34"
     transform="scale(7.5)"
     style="stroke-width:0.133333"><circle
       cx="42.666672"
       cy="362.66666"
       r="21.33333"
       style="display:inline;fill:#fdbc34;stroke-width:0.122222"
       id="circle1-6"
       transform="matrix(1.0909081,0,0,1.0909081,-11.636125,-23.272701)" /><path
       d="m 213.33333,149.33333 64,-64 C 298.66667,64 298.66667,42.66667 298.66667,42.66667 c 0,0 0,-21.33334 21.33333,-21.33334 21.33333,0 21.33333,21.33334 42.66667,21.33334 21.33334,0 21.33333,-21.33334 42.66666,-21.33334 21.33333,0 21.33334,21.33334 21.33334,42.66667 0,21.33333 21.33333,21.33333 21.33333,21.33333 21.33333,0 21.33333,21.33334 21.33333,21.33334 C 469.33333,128 448,128 448,149.33333 c 0,21.33333 21.33333,21.33334 21.33333,42.66667 0,21.33333 -21.33333,21.33333 -42.66666,42.66667 l -64,64 z"
       style="display:inline;fill:#89af83;fill-opacity:1;stroke-width:0.122222"
       id="path1-7"
       transform="matrix(1.0909081,0,0,1.0909081,-11.636125,-23.272701)" /><path
       d="M 370.20833,291.125 355.125,276.04167 411.58333,219.58333 c 9.89584,-9.89583 19.85417,-16.0625 27.125,-20.54166 2.54167,-1.58334 8.47917,-5.25 9.47917,-6.60417 C 448,190.33333 448,190.16667 443.58333,185.75 437.25,179.41667 426.66667,168.83333 426.66667,149.33333 c 0,-19.5 10.58333,-30.08333 16.91666,-36.41666 L 458.66667,128 C 453.41667,133.25 448,138.66667 448,149.33333 c 0,10.66666 5.41667,16.08334 10.66667,21.33334 5.47916,5.47916 10.66666,10.66666 10.66666,21.33333 0,13.1875 -8.14583,18.22917 -19.41666,25.1875 -7.08334,4.375 -15.10417,9.33333 -23.25,17.47917 z"
       style="display:inline;fill:#608c5a;fill-opacity:1;stroke-width:0.122222"
       id="path2-5"
       transform="matrix(1.0909081,0,0,1.0909081,-11.636125,-23.272701)" /><path
       d="m 448,106.66667 c -20.6875,0 -42.66667,-14.95834 -42.66667,-42.66667 h 21.33334 c 0,21.08333 21.125,21.33333 21.33333,21.33333 z"
       style="display:inline;fill:#608c5a;fill-opacity:1;stroke-width:0.122222"
       id="path3"
       transform="matrix(1.0909081,0,0,1.0909081,-11.636125,-23.272701)" /><path
       d="M 362.66667,64 C 343.16667,64 332.58333,53.41667 326.25,47.08333 321.83333,42.66667 321.66667,42.66667 320,42.66667 V 21.33333 c 10.66667,0 15.85417,5.1875 21.33333,10.66667 5.25,5.25 10.66667,10.66667 21.33334,10.66667 z"
       style="display:inline;fill:#608c5a;fill-opacity:1;stroke-width:0.122222"
       id="path4"
       transform="matrix(1.0909081,0,0,1.0909081,-11.636125,-23.272701)" /><path
       d="M 256,170.66667 341.33335,85.33334 C 341.33335,85.33334 362.66667,64 384,64 c 21.33333,0 42.66667,21.33333 42.66667,42.66667 C 426.66667,128.00001 448,128 448,149.33333 c 0,21.33333 -42.66667,64 -42.66667,64 L 362.66667,256 Z"
       style="display:inline;fill:#89af83;fill-opacity:1;stroke-width:0.122222"
       id="path5"
       transform="matrix(1.0909081,0,0,1.0909081,-11.636125,-23.272701)" /><path
       d="m 213.33333,171.71465 91.6039,-92.50389 A 51.3256,51.3256 0 0 1 341.40687,64 v 0 C 362.66667,64 384,85.33333 384,106.66667 384,128.00001 405.33333,128 405.33333,128 448,128 448,156.98069 448,170.59308 v 0.14717 a 51.32557,51.32557 0 0 1 -15.03291,36.29266 l -91.63376,91.63376 z"
       style="display:inline;fill:#cc4400;fill-opacity:1;stroke-width:0.122222"
       id="path6-3"
       transform="matrix(1.0909081,0,0,1.0909081,-11.636125,-23.272701)" /><path
       d="m 320,85.33333 c 30.16989,0 42.66667,42.66667 42.66667,42.66667 0,21.33333 21.33333,21.33333 21.33333,21.33333 14.119,0 42.66667,0 42.66667,42.66667 0,12.81492 -6.90463,28.238 -21.33334,42.66667 L 384,256 256,128 c 0,0 0.20859,0.20856 21.54191,-21.12477 C 298.87523,85.5419 320,85.33333 320,85.33333 Z"
       style="display:inline;fill:#b33c00;fill-opacity:1;stroke-width:0.122222"
       id="path7-5"
       transform="matrix(1.0909081,0,0,1.0909081,-11.636125,-23.272701)" /><path
       d="M 298.87422,85.33334 C 298.87422,106.66667 320,128 341.33335,128 c 21.33335,0 21.33332,21.33333 21.33332,21.33333 C 362.66667,170.66667 384,192 405.33333,192 c 21.33333,0 21.33334,21.33333 21.33334,21.33333 L 384,256 256,128 Z"
       style="display:inline;fill:#993300;stroke-width:0.122222;fill-opacity:1"
       id="path8-6"
       transform="matrix(1.0909081,0,0,1.0909081,-11.636125,-23.272701)" /><path
       d="m 142.013,490.66667 h -1.8e-4 A 120.67943,120.67943 0 0 1 21.33335,369.98723 v -1.7e-4 A 120.67944,120.67944 0 0 1 56.67954,284.65381 L 256,85.33334 280.99363,110.327 A 206.0127,206.0127 0 0 1 341.33335,256 v 1.7e-4 c 0,54.638 -0.37151,85.70476 -39.00639,124.33963 l -74.98076,74.98068 a 120.6794,120.6794 0 0 1 -85.3332,35.34619 z"
       style="display:inline;fill:#fdbc34;stroke-width:0.122222"
       id="path9-2"
       transform="matrix(1.0909081,0,0,1.0909081,-11.636125,-23.272701)" /><path
       d="M 328.02734,183.79167 A 205.70094,205.70094 0 0 0 316.21875,157.57812 228.16807,228.16807 0 0 0 256,149.33333 c -25.55469,0 -47.74219,0.1823 -68.80469,4.80469 l -55.52864,55.52865 c 39,-39 71.125,-39 124.33333,-39 a 205.77067,205.77067 0 0 1 72.02734,13.125 z"
       style="display:inline;fill:#fdab00;stroke-width:0.122222"
       id="path10-9"
       transform="matrix(1.0909081,0,0,1.0909081,-11.636125,-23.272701)" /><path
       d="m 21.33333,369.98706 v 1.7e-4 a 120.67945,120.67945 0 0 0 120.67944,120.67944 h 1.7e-4 a 120.67947,120.67947 0 0 0 85.33325,-35.34619 L 426.66667,256 401.67305,231.00638 a 206.01267,206.01267 0 0 0 -145.673,-60.33971 h -1.8e-4 c -54.638,0 -85.70476,0.37151 -124.33963,39.00638 l -74.98072,74.98076 a 120.67947,120.67947 0 0 0 -35.34619,85.33325 z"
       style="display:inline;fill:#fdcf6d;stroke-width:0.122222"
       id="path11-1"
       transform="matrix(1.0909081,0,0,1.0909081,-11.636125,-23.272701)" /><path
       d="M 142.02083,490.66667 A 120.83145,120.83145 0 0 1 21.33333,369.97917 H 64 a 78.01745,78.01745 0 0 0 133.1875,55.16666 L 366.20833,256.10417 A 162.209,162.209 0 0 0 256,213.33333 V 170.66667 A 204.60541,204.60541 0 0 1 401.66667,231 l 25,25 -199.3125,199.3125 a 119.91072,119.91072 0 0 1 -85.33334,35.35417 z"
       style="display:inline;fill:#fdbc34;stroke-width:0.122222"
       id="path12"
       transform="matrix(1.0909081,0,0,1.0909081,-11.636125,-23.272701)" /><circle
       cx="298.66666"
       cy="320"
       r="21.33333"
       style="display:inline;fill:#fdbc34;stroke-width:0.122222"
       id="circle12-2"
       transform="matrix(1.0909081,0,0,1.0909081,-11.636125,-23.272701)" /><circle
       cx="256"
       cy="213.33333"
       r="21.33333"
       style="display:inline;fill:#fdbc34;stroke-width:0.122222"
       id="circle13-7"
       transform="matrix(1.0909081,0,0,1.0909081,-11.636125,-23.272701)" /><circle
       cx="160"
       cy="373.33334"
       r="10.66667"
       style="display:inline;fill:#fdbc34;stroke-width:0.122222"
       id="circle14-0"
       transform="matrix(1.0909081,0,0,1.0909081,-11.636125,-23.272701)" /><circle
       cx="192"
       cy="320"
       r="21.33333"
       style="display:inline;fill:#fdbc34;stroke-width:0.122222"
       id="circle15-9"
       transform="matrix(1.0909081,0,0,1.0909081,-11.636125,-23.272701)" /><circle
       cx="160"
       cy="266.66666"
       r="10.66667"
       style="display:inline;fill:#fdbc34;stroke-width:0.122222"
       id="circle16"
       transform="matrix(1.0909081,0,0,1.0909081,-11.636125,-23.272701)" /><circle
       cx="309.33334"
       cy="245.33333"
       r="10.66667"
       style="display:inline;fill:#fdbc34;stroke-width:0.122222"
       id="circle17"
       transform="matrix(1.0909081,0,0,1.0909081,-11.636125,-23.272701)" /><circle
       cx="256"
       cy="149.33333"
       r="21.33333"
       style="display:inline;fill:#fdab00;stroke-width:0.122222"
       id="circle18"
       transform="matrix(1.0909081,0,0,1.0909081,-11.636125,-23.272701)" /><circle
       cx="245.33333"
       cy="117.33333"
       r="10.66667"
       style="display:inline;fill:#fdab00;stroke-width:0.122222"
       id="circle19"
       transform="matrix(1.0909081,0,0,1.0909081,-11.636125,-23.272701)" /><circle
       cx="245.33333"
       cy="352"
       r="10.66667"
       style="display:inline;fill:#fdbc34;stroke-width:0.122222"
       id="circle20"
       transform="matrix(1.0909081,0,0,1.0909081,-11.636125,-23.272701)" /><circle
       cx="149.33333"
       cy="448"
       r="21.33333"
       style="display:inline;fill:#fdbc34;stroke-width:0.122222"
       id="circle21"
       transform="matrix(1.0909081,0,0,1.0909081,-11.636125,-23.272701)" /><circle
       cx="74.666672"
       cy="309.33334"
       r="10.66667"
       style="display:inline;fill:#fdbc34;stroke-width:0.122222"
       id="circle22"
       transform="matrix(1.0909081,0,0,1.0909081,-11.636125,-23.272701)" /></g><metadata
     id="metadata42"><rdf:RDF><cc:Work
         rdf:about=""><dc:title>Food</dc:title></cc:Work></rdf:RDF></metadata></svg>
