<svg xmlns="http://www.w3.org/2000/svg" viewBox="0 0 512 512"><title>Artboard 155</title><g id="Kebab"><circle cx="42.66667" cy="362.66667" r="21.33333" style="fill:#fdbc34"/><path d="M213.33333,149.33333l64-64C298.66667,64,298.66667,42.66667,298.66667,42.66667s0-21.33334,21.33333-21.33334,21.33333,21.33334,42.66667,21.33334S384,21.33333,405.33333,21.33333,426.66667,42.66667,426.66667,64,448,85.33333,448,85.33333c21.33333,0,21.33333,21.33334,21.33333,21.33334C469.33333,128,448,128,448,149.33333S469.33333,170.66667,469.33333,192,448,213.33333,426.66667,234.66667l-64,64Z" style="fill:#b99e69"/><path d="M370.20833,291.125,355.125,276.04167l56.45833-56.45834c9.89584-9.89583,19.85417-16.0625,27.125-20.54166,2.54167-1.58334,8.47917-5.25,9.47917-6.60417-.1875-2.10417-.1875-2.27083-4.60417-6.6875-6.33333-6.33333-16.91666-16.91667-16.91666-36.41667S437.25,119.25,443.58333,112.91667L458.66667,128C453.41667,133.25,448,138.66667,448,149.33333s5.41667,16.08334,10.66667,21.33334c5.47916,5.47916,10.66666,10.66666,10.66666,21.33333,0,13.1875-8.14583,18.22917-19.41666,25.1875-7.08334,4.375-15.10417,9.33333-23.25,17.47917Z" style="fill:#a37f39"/><path d="M448,106.66667c-20.6875,0-42.66667-14.95834-42.66667-42.66667h21.33334c0,21.08333,21.125,21.33333,21.33333,21.33333Z" style="fill:#a37f39"/><path d="M362.66667,64c-19.5,0-30.08334-10.58333-36.41667-16.91667-4.41667-4.41666-4.58333-4.41666-6.25-4.41666V21.33333c10.66667,0,15.85417,5.1875,21.33333,10.66667,5.25,5.25,10.66667,10.66667,21.33334,10.66667Z" style="fill:#a37f39"/><path d="M256,170.66667l85.33335-85.33333S362.66667,64,384,64s42.66667,21.33333,42.66667,42.66667S448,128,448,149.33333s-42.66667,64-42.66667,64L362.66667,256Z" style="fill:#c5af83"/><path d="M213.33333,171.71465l91.6039-92.50389A51.3256,51.3256,0,0,1,341.40687,64h0C362.66667,64,384,85.33333,384,106.66667S405.33333,128,405.33333,128C448,128,448,156.98069,448,170.59308v.14717a51.32557,51.32557,0,0,1-15.03291,36.29266l-91.63376,91.63376Z" style="fill:#af0a00"/><path d="M320,85.33333C350.16989,85.33333,362.66667,128,362.66667,128c0,21.33333,21.33333,21.33333,21.33333,21.33333,14.119,0,42.66667,0,42.66667,42.66667,0,12.81492-6.90463,28.238-21.33334,42.66667L384,256,256,128s.20859.20856,21.54191-21.12477S320,85.33333,320,85.33333Z" style="fill:#c11107"/><path d="M298.87422,85.33334C298.87422,106.66667,320,128,341.33335,128s21.33332,21.33333,21.33332,21.33333C362.66667,170.66667,384,192,405.33333,192s21.33334,21.33333,21.33334,21.33333L384,256,256,128Z" style="fill:#c82e25"/><path d="M142.013,490.66667h-.00018A120.67943,120.67943,0,0,1,21.33335,369.98723v-.00017a120.67944,120.67944,0,0,1,35.34619-85.33325L256,85.33334,280.99363,110.327a206.0127,206.0127,0,0,1,60.33972,145.673v.00017c0,54.638-.37151,85.70476-39.00639,124.33963L227.3462,455.32048A120.6794,120.6794,0,0,1,142.013,490.66667Z" style="fill:#fdbc34"/><path d="M328.02734,183.79167a205.70094,205.70094,0,0,0-11.80859-26.21355A228.16807,228.16807,0,0,0,256,149.33333c-25.55469,0-47.74219.1823-68.80469,4.80469l-55.52864,55.52865c39-39,71.125-39,124.33333-39A205.77067,205.77067,0,0,1,328.02734,183.79167Z" style="fill:#fdab00"/><path d="M21.33333,369.98706v.00017A120.67945,120.67945,0,0,0,142.01277,490.66667h.00017a120.67947,120.67947,0,0,0,85.33325-35.34619L426.66667,256l-24.99362-24.99362a206.01267,206.01267,0,0,0-145.673-60.33971h-.00018c-54.638,0-85.70476.37151-124.33963,39.00638L56.67952,284.65381A120.67947,120.67947,0,0,0,21.33333,369.98706Z" style="fill:#fdcf6d"/><path d="M142.02083,490.66667a120.83145,120.83145,0,0,1-120.6875-120.6875H64a78.01745,78.01745,0,0,0,133.1875,55.16666L366.20833,256.10417A162.209,162.209,0,0,0,256,213.33333V170.66667A204.60541,204.60541,0,0,1,401.66667,231l25,25L227.35417,455.3125A119.91072,119.91072,0,0,1,142.02083,490.66667Z" style="fill:#fdbc34"/><circle cx="298.66667" cy="320" r="21.33333" style="fill:#fdbc34"/><circle cx="256" cy="213.33333" r="21.33333" style="fill:#fdbc34"/><circle cx="160" cy="373.33333" r="10.66667" style="fill:#fdbc34"/><circle cx="192" cy="320" r="21.33333" style="fill:#fdbc34"/><circle cx="160" cy="266.66667" r="10.66667" style="fill:#fdbc34"/><circle cx="309.33333" cy="245.33333" r="10.66667" style="fill:#fdbc34"/><circle cx="256" cy="149.33333" r="21.33333" style="fill:#fdab00"/><circle cx="245.33333" cy="117.33333" r="10.66667" style="fill:#fdab00"/><circle cx="245.33333" cy="352" r="10.66667" style="fill:#fdbc34"/><circle cx="149.33333" cy="448" r="21.33333" style="fill:#fdbc34"/><circle cx="74.66667" cy="309.33333" r="10.66667" style="fill:#fdbc34"/></g></svg>