<?xml version="1.0" encoding="UTF-8"?>
<svg width="3840" height="3840" version="1.1" viewBox="0 0 1016 1016" xml:space="preserve" xmlns="http://www.w3.org/2000/svg"><g transform="translate(0 340.65)" fill="#55be59" stroke-linecap="round" stroke-width="67.733"><g stroke="#abbab3"><path d="m203.2 786.15v-1436.8" stroke-dasharray="67.7333, 541.866" stroke-dashoffset="406.4"/><path d="m406.4 853.89-2e-5 -1436.8" stroke-dasharray="67.7333, 541.867"/><path d="m609.6 921.62 1e-5 -1436.8" stroke-dasharray="67.7333, 541.867"/><path d="m812.8 985.39-1e-5 -1436.8" stroke-dasharray="67.7333, 541.866" stroke-dashoffset="406.4"/></g><g stroke="#78788c"><path d="m203.2 786.15 2e-5 -1436.8" stroke-dasharray="67.7333, 541.866" stroke-dashoffset="203.2"/><path d="m406.4 853.89-3e-5 -1436.8" stroke-dasharray="67.7333, 541.867" stroke-dashoffset="203.2"/><path d="m609.6 921.62 1e-5 -1436.8" stroke-dasharray="67.7333, 541.866" stroke-dashoffset="406.4"/><path d="m812.8 985.39-1e-5 -1436.8" stroke-dasharray="67.7333, 541.866" stroke-dashoffset="203.2"/></g></g><g transform="translate(0 340.65)" fill="#55be59" stroke="#fff" stroke-linecap="round" stroke-width="67.733"><path d="m203.2 786.15 2e-5 -1436.8" stroke-dasharray="67.7333, 541.866"/><path d="m406.4 853.89-3e-5 -1436.8" stroke-dasharray="67.7333, 541.867" stroke-dashoffset="406.4"/><path d="m609.6 921.62 1e-5 -1436.8" stroke-dasharray="67.7333, 541.866" stroke-dashoffset="203.2"/><path d="m812.8 985.39-1e-5 -1436.8" stroke-dasharray="67.7333, 541.866"/></g><g><path d="m745.48 262.23c-10.057-6.7048-22.629-7.5429-33.524-1.6762l-440 251.43c-10.057 5.8667-15.924 16.762-15.086 27.657 0 11.733 6.7048 22.629 17.6 27.657l86.325 42.743 199.47-176.84c5.8667-5.8667 15.924-5.0286 21.791 0.83811 5.8667 5.8667 5.8667 15.086 0 21.791l-164.27 179.35c-2.5143 2.5143-4.1905 6.7048-4.1905 10.057v82.134c0 13.41 7.5429 25.143 20.114 30.172 11.733 4.1905 25.981 0.83811 34.362-8.381l67.886-72.915 116.5 48.61c9.2191 3.3524 19.276 3.3524 27.657-1.6762 9.2191-4.1905 14.248-12.572 15.924-22.629l62.858-408.16c1.6762-11.733-3.3524-23.467-13.41-30.172z" fill="#40bf80" stroke="#fff" stroke-linecap="round" stroke-linejoin="round" stroke-width="5.2917" aria-label=""/></g></svg>
