<?xml version="1.0" encoding="UTF-8"?>
<svg width="3840" height="3840" version="1.1" viewBox="0 0 1016 1016" xml:space="preserve" xmlns="http://www.w3.org/2000/svg"><g fill="#55be59" stroke-linecap="round"><g stroke="#e7e7b8" stroke-width="67.733"><path d="m-304.8 711.2 1016-1016" stroke-dasharray="67.7333, 541.866" stroke-dashoffset="406.4"/><path d="m-101.6 914.4 1016-1016" stroke-dasharray="67.7333, 541.867"/><path d="m101.6 1117.6 1016-1016" stroke-dasharray="67.7333, 541.867"/><path d="m304.8 1320.8 1016-1016" stroke-dasharray="67.7333, 541.866" stroke-dashoffset="406.4"/></g><g stroke="#808080"><path d="m-304.8 711.2 1016-1016" stroke-dasharray="67.7333, 541.866" stroke-dashoffset="203.2" stroke-width="67.733"/><path d="m-101.6 914.4 1016-1016" stroke-dasharray="67.73332977,541.86663818" stroke-dashoffset="203.2" stroke-width="67.733"/><path d="m101.6 1117.6 1016-1016" stroke-dasharray="67.7333, 541.866" stroke-dashoffset="406.4" stroke-width="67.733"/><path d="m304.8 1320.8 1016-1016" stroke-dasharray="67.7333, 541.866" stroke-dashoffset="203.2" stroke-width="67.733"/></g></g><g fill="#55be59" stroke="#fff" stroke-linecap="round"><path d="m-304.8 711.2 1016-1016" stroke-dasharray="67.7333, 541.866" stroke-width="67.733"/><path d="m-101.6 914.4 1016-1016" stroke-dasharray="67.73332977,541.86663818" stroke-dashoffset="406.4" stroke-width="67.733"/><path d="m101.6 1117.6 1016-1016" stroke-dasharray="67.7333, 541.866" stroke-dashoffset="203.2" stroke-width="67.733"/><path d="m304.8 1320.8 1016-1016" stroke-dasharray="67.7333, 541.866" stroke-width="67.733"/></g><g><path d="m745.49 262.22c-10.057-6.705-22.629-7.5431-33.525-1.6762l-440.01 251.44c-10.057 5.8668-15.924 16.762-15.086 27.658 0 11.734 6.705 22.629 17.6 27.658l86.326 42.744 199.47-176.84c5.8668-5.8668 15.924-5.0287 21.791 0.83812 5.8668 5.8668 5.8668 15.086 0 21.791l-164.27 179.36c-2.5144 2.5144-4.1906 6.705-4.1906 10.057v82.136c0 13.41 7.5431 25.144 20.115 30.172 11.734 4.1906 25.982 0.83812 34.363-8.3812l67.888-72.916 116.5 48.611c9.2193 3.3525 19.277 3.3525 27.658-1.6762 9.2193-4.1906 14.248-12.572 15.924-22.629l62.859-408.16c1.6762-11.734-3.3525-23.467-13.41-30.172z" fill="#c4c44f" stroke="#fff" stroke-linecap="round" stroke-linejoin="round" stroke-width="5.282" aria-label=""/></g></svg>
